%TF.GenerationSoftware,KiCad,Pcbnew,9.0.2*%
%TF.CreationDate,2025-07-08T22:51:12-04:00*%
%TF.ProjectId,Wireless3.0,57697265-6c65-4737-9333-2e302e6b6963,rev?*%
%TF.SameCoordinates,Original*%
%TF.FileFunction,Copper,L1,Top*%
%TF.FilePolarity,Positive*%
%FSLAX46Y46*%
G04 Gerber Fmt 4.6, Leading zero omitted, Abs format (unit mm)*
G04 Created by KiCad (PCBNEW 9.0.2) date 2025-07-08 22:51:12*
%MOMM*%
%LPD*%
G01*
G04 APERTURE LIST*
G04 Aperture macros list*
%AMRoundRect*
0 Rectangle with rounded corners*
0 $1 Rounding radius*
0 $2 $3 $4 $5 $6 $7 $8 $9 X,Y pos of 4 corners*
0 Add a 4 corners polygon primitive as box body*
4,1,4,$2,$3,$4,$5,$6,$7,$8,$9,$2,$3,0*
0 Add four circle primitives for the rounded corners*
1,1,$1+$1,$2,$3*
1,1,$1+$1,$4,$5*
1,1,$1+$1,$6,$7*
1,1,$1+$1,$8,$9*
0 Add four rect primitives between the rounded corners*
20,1,$1+$1,$2,$3,$4,$5,0*
20,1,$1+$1,$4,$5,$6,$7,0*
20,1,$1+$1,$6,$7,$8,$9,0*
20,1,$1+$1,$8,$9,$2,$3,0*%
G04 Aperture macros list end*
%TA.AperFunction,ComponentPad*%
%ADD10R,1.700000X1.700000*%
%TD*%
%TA.AperFunction,ComponentPad*%
%ADD11C,1.700000*%
%TD*%
%TA.AperFunction,ComponentPad*%
%ADD12RoundRect,0.250000X1.050000X1.050000X-1.050000X1.050000X-1.050000X-1.050000X1.050000X-1.050000X0*%
%TD*%
%TA.AperFunction,ComponentPad*%
%ADD13C,2.600000*%
%TD*%
%TA.AperFunction,ComponentPad*%
%ADD14R,1.530000X1.530000*%
%TD*%
%TA.AperFunction,ComponentPad*%
%ADD15C,1.530000*%
%TD*%
%TA.AperFunction,Conductor*%
%ADD16C,0.200000*%
%TD*%
G04 APERTURE END LIST*
D10*
%TO.P,J5,1,Pin_1*%
%TO.N,5V*%
X182580000Y-116000000D03*
D11*
%TO.P,J5,2,Pin_2*%
%TO.N,GND*%
X180040000Y-116000000D03*
%TO.P,J5,3,Pin_3*%
%TO.N,S5_TX*%
X177500000Y-116000000D03*
%TO.P,J5,4,Pin_4*%
%TO.N,S5_RX*%
X174960000Y-116000000D03*
%TD*%
D10*
%TO.P,J2,1,Pin_1*%
%TO.N,5V*%
X182310000Y-92720000D03*
D11*
%TO.P,J2,2,Pin_2*%
%TO.N,GND*%
X179770000Y-92720000D03*
%TO.P,J2,3,Pin_3*%
%TO.N,S2_TX*%
X177230000Y-92720000D03*
%TO.P,J2,4,Pin_4*%
%TO.N,S2_RX*%
X174690000Y-92720000D03*
%TD*%
D12*
%TO.P,J6,1,Pin_1*%
%TO.N,GND*%
X181045000Y-71827500D03*
D13*
%TO.P,J6,2,Pin_2*%
%TO.N,5V*%
X175965000Y-71827500D03*
%TD*%
D14*
%TO.P,U1,J1_1,3V3*%
%TO.N,Net-(U1-3V3-PadJ1_1)*%
X145640000Y-64660000D03*
D15*
%TO.P,U1,J1_2,3V3*%
X145640000Y-67200000D03*
%TO.P,U1,J1_3,RST*%
%TO.N,unconnected-(U1-RST-PadJ1_3)*%
X145640000Y-69740000D03*
%TO.P,U1,J1_4,GPIO4*%
%TO.N,S1_TX*%
X145640000Y-72280000D03*
%TO.P,U1,J1_5,GPIO5*%
%TO.N,S1_RX*%
X145640000Y-74820000D03*
%TO.P,U1,J1_6,GPIO6*%
%TO.N,S2_TX*%
X145640000Y-77360000D03*
%TO.P,U1,J1_7,GPIO7*%
%TO.N,S2_RX*%
X145640000Y-79900000D03*
%TO.P,U1,J1_8,GPIO15*%
%TO.N,S3_TX*%
X145640000Y-82440000D03*
%TO.P,U1,J1_9,GPIO16*%
%TO.N,S3_RX*%
X145640000Y-84980000D03*
%TO.P,U1,J1_10,GPIO17*%
%TO.N,S4_TX*%
X145640000Y-87520000D03*
%TO.P,U1,J1_11,GPIO18*%
%TO.N,S4_RX*%
X145640000Y-90060000D03*
%TO.P,U1,J1_12,GPIO8*%
%TO.N,unconnected-(U1-GPIO8-PadJ1_12)*%
X145640000Y-92600000D03*
%TO.P,U1,J1_13,GPIO3*%
%TO.N,unconnected-(U1-GPIO3-PadJ1_13)*%
X145640000Y-95140000D03*
%TO.P,U1,J1_14,GPIO46*%
%TO.N,unconnected-(U1-GPIO46-PadJ1_14)*%
X145640000Y-97680000D03*
%TO.P,U1,J1_15,GPIO9*%
%TO.N,S5_TX*%
X145640000Y-100220000D03*
%TO.P,U1,J1_16,GPIO10*%
%TO.N,S5_RX*%
X145640000Y-102760000D03*
%TO.P,U1,J1_17,GPIO11*%
%TO.N,unconnected-(U1-GPIO11-PadJ1_17)*%
X145640000Y-105300000D03*
%TO.P,U1,J1_18,GPIO12*%
%TO.N,unconnected-(U1-GPIO12-PadJ1_18)*%
X145640000Y-107840000D03*
%TO.P,U1,J1_19,GPIO13*%
%TO.N,unconnected-(U1-GPIO13-PadJ1_19)*%
X145640000Y-110380000D03*
%TO.P,U1,J1_20,GPIO14*%
%TO.N,unconnected-(U1-GPIO14-PadJ1_20)*%
X145640000Y-112920000D03*
%TO.P,U1,J1_21,5V0*%
%TO.N,5V*%
X145640000Y-115460000D03*
%TO.P,U1,J1_22,GND*%
%TO.N,GND*%
X145640000Y-118000000D03*
%TO.P,U1,J3_1,GND*%
X168500000Y-64660000D03*
%TO.P,U1,J3_2,U0TXD/GPIO43*%
%TO.N,unconnected-(U1-U0TXD{slash}GPIO43-PadJ3_2)*%
X168500000Y-67200000D03*
%TO.P,U1,J3_3,U0RXD/GPIO44*%
%TO.N,unconnected-(U1-U0RXD{slash}GPIO44-PadJ3_3)*%
X168500000Y-69740000D03*
%TO.P,U1,J3_4,GPIO1*%
%TO.N,unconnected-(U1-GPIO1-PadJ3_4)*%
X168500000Y-72280000D03*
%TO.P,U1,J3_5,GPIO2*%
%TO.N,unconnected-(U1-GPIO2-PadJ3_5)*%
X168500000Y-74820000D03*
%TO.P,U1,J3_6,MTMS/GPIO42*%
%TO.N,unconnected-(U1-MTMS{slash}GPIO42-PadJ3_6)*%
X168500000Y-77360000D03*
%TO.P,U1,J3_7,MTDI/GPIO41*%
%TO.N,unconnected-(U1-MTDI{slash}GPIO41-PadJ3_7)*%
X168500000Y-79900000D03*
%TO.P,U1,J3_8,MTDO/GPIO40*%
%TO.N,unconnected-(U1-MTDO{slash}GPIO40-PadJ3_8)*%
X168500000Y-82440000D03*
%TO.P,U1,J3_9,MTCK/GPIO39*%
%TO.N,unconnected-(U1-MTCK{slash}GPIO39-PadJ3_9)*%
X168500000Y-84980000D03*
%TO.P,U1,J3_10,GPIO38*%
%TO.N,unconnected-(U1-GPIO38-PadJ3_10)*%
X168500000Y-87520000D03*
%TO.P,U1,J3_11,GPIO37*%
%TO.N,unconnected-(U1-GPIO37-PadJ3_11)*%
X168500000Y-90060000D03*
%TO.P,U1,J3_12,GPIO36*%
%TO.N,unconnected-(U1-GPIO36-PadJ3_12)*%
X168500000Y-92600000D03*
%TO.P,U1,J3_13,GPIO35*%
%TO.N,unconnected-(U1-GPIO35-PadJ3_13)*%
X168500000Y-95140000D03*
%TO.P,U1,J3_14,GPIO0*%
%TO.N,unconnected-(U1-GPIO0-PadJ3_14)*%
X168500000Y-97680000D03*
%TO.P,U1,J3_15,GPIO45*%
%TO.N,unconnected-(U1-GPIO45-PadJ3_15)*%
X168500000Y-100220000D03*
%TO.P,U1,J3_16,GPIO48*%
%TO.N,unconnected-(U1-GPIO48-PadJ3_16)*%
X168500000Y-102760000D03*
%TO.P,U1,J3_17,GPIO47*%
%TO.N,unconnected-(U1-GPIO47-PadJ3_17)*%
X168500000Y-105300000D03*
%TO.P,U1,J3_18,GPIO21*%
%TO.N,unconnected-(U1-GPIO21-PadJ3_18)*%
X168500000Y-107840000D03*
%TO.P,U1,J3_19,USB_D+/GPIO20*%
%TO.N,unconnected-(U1-USB_D+{slash}GPIO20-PadJ3_19)*%
X168500000Y-110380000D03*
%TO.P,U1,J3_20,USB_D-/GPIO19*%
%TO.N,unconnected-(U1-USB_D-{slash}GPIO19-PadJ3_20)*%
X168500000Y-112920000D03*
%TO.P,U1,J3_21,GND*%
%TO.N,GND*%
X168500000Y-115460000D03*
%TO.P,U1,J3_22,GND*%
X168500000Y-118000000D03*
%TD*%
D10*
%TO.P,J3,1,Pin_1*%
%TO.N,5V*%
X181810000Y-100480000D03*
D11*
%TO.P,J3,2,Pin_2*%
%TO.N,GND*%
X179270000Y-100480000D03*
%TO.P,J3,3,Pin_3*%
%TO.N,S3_TX*%
X176730000Y-100480000D03*
%TO.P,J3,4,Pin_4*%
%TO.N,S3_RX*%
X174190000Y-100480000D03*
%TD*%
D10*
%TO.P,J4,1,Pin_1*%
%TO.N,5V*%
X182310000Y-108240000D03*
D11*
%TO.P,J4,2,Pin_2*%
%TO.N,GND*%
X179770000Y-108240000D03*
%TO.P,J4,3,Pin_3*%
%TO.N,S4_TX*%
X177230000Y-108240000D03*
%TO.P,J4,4,Pin_4*%
%TO.N,S4_RX*%
X174690000Y-108240000D03*
%TD*%
D10*
%TO.P,J1,1,Pin_1*%
%TO.N,5V*%
X181810000Y-84960000D03*
D11*
%TO.P,J1,2,Pin_2*%
%TO.N,GND*%
X179270000Y-84960000D03*
%TO.P,J1,3,Pin_3*%
%TO.N,S1_TX*%
X176730000Y-84960000D03*
%TO.P,J1,4,Pin_4*%
%TO.N,S1_RX*%
X174190000Y-84960000D03*
%TD*%
D16*
%TO.N,Net-(U1-3V3-PadJ1_1)*%
X145640000Y-64660000D02*
X145640000Y-67200000D01*
%TD*%
%TA.AperFunction,Conductor*%
%TO.N,5V*%
G36*
X193442539Y-56520185D02*
G01*
X193488294Y-56572989D01*
X193499500Y-56624500D01*
X193499500Y-126875500D01*
X193479815Y-126942539D01*
X193427011Y-126988294D01*
X193375500Y-126999500D01*
X137124500Y-126999500D01*
X137057461Y-126979815D01*
X137011706Y-126927011D01*
X137000500Y-126875500D01*
X137000500Y-123878711D01*
X138149500Y-123878711D01*
X138149500Y-124121288D01*
X138181161Y-124361785D01*
X138243947Y-124596104D01*
X138336773Y-124820205D01*
X138336776Y-124820212D01*
X138458064Y-125030289D01*
X138458066Y-125030292D01*
X138458067Y-125030293D01*
X138605733Y-125222736D01*
X138605739Y-125222743D01*
X138777256Y-125394260D01*
X138777262Y-125394265D01*
X138969711Y-125541936D01*
X139179788Y-125663224D01*
X139403900Y-125756054D01*
X139638211Y-125818838D01*
X139818586Y-125842584D01*
X139878711Y-125850500D01*
X139878712Y-125850500D01*
X140121289Y-125850500D01*
X140169388Y-125844167D01*
X140361789Y-125818838D01*
X140596100Y-125756054D01*
X140820212Y-125663224D01*
X141030289Y-125541936D01*
X141222738Y-125394265D01*
X141394265Y-125222738D01*
X141541936Y-125030289D01*
X141663224Y-124820212D01*
X141756054Y-124596100D01*
X141818838Y-124361789D01*
X141850500Y-124121288D01*
X141850500Y-123878712D01*
X141850500Y-123878711D01*
X188649500Y-123878711D01*
X188649500Y-124121288D01*
X188681161Y-124361785D01*
X188743947Y-124596104D01*
X188836773Y-124820205D01*
X188836776Y-124820212D01*
X188958064Y-125030289D01*
X188958066Y-125030292D01*
X188958067Y-125030293D01*
X189105733Y-125222736D01*
X189105739Y-125222743D01*
X189277256Y-125394260D01*
X189277262Y-125394265D01*
X189469711Y-125541936D01*
X189679788Y-125663224D01*
X189903900Y-125756054D01*
X190138211Y-125818838D01*
X190318586Y-125842584D01*
X190378711Y-125850500D01*
X190378712Y-125850500D01*
X190621289Y-125850500D01*
X190669388Y-125844167D01*
X190861789Y-125818838D01*
X191096100Y-125756054D01*
X191320212Y-125663224D01*
X191530289Y-125541936D01*
X191722738Y-125394265D01*
X191894265Y-125222738D01*
X192041936Y-125030289D01*
X192163224Y-124820212D01*
X192256054Y-124596100D01*
X192318838Y-124361789D01*
X192350500Y-124121288D01*
X192350500Y-123878712D01*
X192318838Y-123638211D01*
X192256054Y-123403900D01*
X192163224Y-123179788D01*
X192041936Y-122969711D01*
X191894265Y-122777262D01*
X191894260Y-122777256D01*
X191722743Y-122605739D01*
X191722736Y-122605733D01*
X191530293Y-122458067D01*
X191530292Y-122458066D01*
X191530289Y-122458064D01*
X191320212Y-122336776D01*
X191320205Y-122336773D01*
X191096104Y-122243947D01*
X190861785Y-122181161D01*
X190621289Y-122149500D01*
X190621288Y-122149500D01*
X190378712Y-122149500D01*
X190378711Y-122149500D01*
X190138214Y-122181161D01*
X189903895Y-122243947D01*
X189679794Y-122336773D01*
X189679785Y-122336777D01*
X189469706Y-122458067D01*
X189277263Y-122605733D01*
X189277256Y-122605739D01*
X189105739Y-122777256D01*
X189105733Y-122777263D01*
X188958067Y-122969706D01*
X188836777Y-123179785D01*
X188836773Y-123179794D01*
X188743947Y-123403895D01*
X188681161Y-123638214D01*
X188649500Y-123878711D01*
X141850500Y-123878711D01*
X141818838Y-123638211D01*
X141756054Y-123403900D01*
X141663224Y-123179788D01*
X141541936Y-122969711D01*
X141394265Y-122777262D01*
X141394260Y-122777256D01*
X141222743Y-122605739D01*
X141222736Y-122605733D01*
X141030293Y-122458067D01*
X141030292Y-122458066D01*
X141030289Y-122458064D01*
X140820212Y-122336776D01*
X140820205Y-122336773D01*
X140596104Y-122243947D01*
X140361785Y-122181161D01*
X140121289Y-122149500D01*
X140121288Y-122149500D01*
X139878712Y-122149500D01*
X139878711Y-122149500D01*
X139638214Y-122181161D01*
X139403895Y-122243947D01*
X139179794Y-122336773D01*
X139179785Y-122336777D01*
X138969706Y-122458067D01*
X138777263Y-122605733D01*
X138777256Y-122605739D01*
X138605739Y-122777256D01*
X138605733Y-122777263D01*
X138458067Y-122969706D01*
X138336777Y-123179785D01*
X138336773Y-123179794D01*
X138243947Y-123403895D01*
X138181161Y-123638214D01*
X138149500Y-123878711D01*
X137000500Y-123878711D01*
X137000500Y-63847135D01*
X144374500Y-63847135D01*
X144374500Y-65472870D01*
X144374501Y-65472876D01*
X144380908Y-65532483D01*
X144431202Y-65667328D01*
X144431206Y-65667335D01*
X144517452Y-65782544D01*
X144517455Y-65782547D01*
X144632664Y-65868793D01*
X144632671Y-65868797D01*
X144677618Y-65885561D01*
X144767517Y-65919091D01*
X144827127Y-65925500D01*
X144859568Y-65925499D01*
X144926606Y-65945182D01*
X144972362Y-65997984D01*
X144982307Y-66067143D01*
X144953284Y-66130699D01*
X144932455Y-66149817D01*
X144815580Y-66234732D01*
X144674733Y-66375579D01*
X144674733Y-66375580D01*
X144674731Y-66375582D01*
X144624447Y-66444790D01*
X144557647Y-66536733D01*
X144467213Y-66714219D01*
X144405661Y-66903656D01*
X144405661Y-66903659D01*
X144374500Y-67100403D01*
X144374500Y-67299596D01*
X144405661Y-67496340D01*
X144405661Y-67496343D01*
X144467213Y-67685780D01*
X144467215Y-67685783D01*
X144557647Y-67863266D01*
X144674731Y-68024418D01*
X144815582Y-68165269D01*
X144976734Y-68282353D01*
X145046453Y-68317877D01*
X145128172Y-68359515D01*
X145178968Y-68407490D01*
X145195763Y-68475311D01*
X145173225Y-68541446D01*
X145128172Y-68580485D01*
X144976733Y-68657647D01*
X144884790Y-68724447D01*
X144815582Y-68774731D01*
X144815580Y-68774733D01*
X144815579Y-68774733D01*
X144674733Y-68915579D01*
X144674733Y-68915580D01*
X144674731Y-68915582D01*
X144624447Y-68984790D01*
X144557647Y-69076733D01*
X144467213Y-69254219D01*
X144405661Y-69443656D01*
X144405661Y-69443659D01*
X144374500Y-69640403D01*
X144374500Y-69839596D01*
X144405661Y-70036340D01*
X144405661Y-70036343D01*
X144467213Y-70225780D01*
X144519116Y-70327644D01*
X144557647Y-70403266D01*
X144674731Y-70564418D01*
X144815582Y-70705269D01*
X144976734Y-70822353D01*
X145046453Y-70857877D01*
X145128172Y-70899515D01*
X145178968Y-70947490D01*
X145195763Y-71015311D01*
X145173225Y-71081446D01*
X145128172Y-71120485D01*
X144976733Y-71197647D01*
X144907894Y-71247662D01*
X144815582Y-71314731D01*
X144815580Y-71314733D01*
X144815579Y-71314733D01*
X144674733Y-71455579D01*
X144674733Y-71455580D01*
X144674731Y-71455582D01*
X144661389Y-71473946D01*
X144557647Y-71616733D01*
X144467213Y-71794219D01*
X144405661Y-71983656D01*
X144405661Y-71983659D01*
X144374500Y-72180403D01*
X144374500Y-72379596D01*
X144405661Y-72576340D01*
X144405661Y-72576343D01*
X144467213Y-72765780D01*
X144541320Y-72911223D01*
X144557647Y-72943266D01*
X144674731Y-73104418D01*
X144815582Y-73245269D01*
X144976734Y-73362353D01*
X145046453Y-73397877D01*
X145128172Y-73439515D01*
X145178968Y-73487490D01*
X145195763Y-73555311D01*
X145173225Y-73621446D01*
X145128172Y-73660485D01*
X144976733Y-73737647D01*
X144884790Y-73804447D01*
X144815582Y-73854731D01*
X144815580Y-73854733D01*
X144815579Y-73854733D01*
X144674733Y-73995579D01*
X144674733Y-73995580D01*
X144674731Y-73995582D01*
X144624447Y-74064790D01*
X144557647Y-74156733D01*
X144467213Y-74334219D01*
X144405661Y-74523656D01*
X144405661Y-74523659D01*
X144374500Y-74720403D01*
X144374500Y-74919596D01*
X144405661Y-75116340D01*
X144405661Y-75116343D01*
X144467213Y-75305780D01*
X144467215Y-75305783D01*
X144557647Y-75483266D01*
X144674731Y-75644418D01*
X144815582Y-75785269D01*
X144976734Y-75902353D01*
X145046453Y-75937877D01*
X145128172Y-75979515D01*
X145178968Y-76027490D01*
X145195763Y-76095311D01*
X145173225Y-76161446D01*
X145128172Y-76200485D01*
X144976733Y-76277647D01*
X144884790Y-76344447D01*
X144815582Y-76394731D01*
X144815580Y-76394733D01*
X144815579Y-76394733D01*
X144674733Y-76535579D01*
X144674733Y-76535580D01*
X144674731Y-76535582D01*
X144624447Y-76604790D01*
X144557647Y-76696733D01*
X144467213Y-76874219D01*
X144405661Y-77063656D01*
X144405661Y-77063659D01*
X144374500Y-77260403D01*
X144374500Y-77459596D01*
X144405661Y-77656340D01*
X144405661Y-77656343D01*
X144467213Y-77845780D01*
X144467215Y-77845783D01*
X144557647Y-78023266D01*
X144674731Y-78184418D01*
X144815582Y-78325269D01*
X144976734Y-78442353D01*
X145046453Y-78477877D01*
X145128172Y-78519515D01*
X145178968Y-78567490D01*
X145195763Y-78635311D01*
X145173225Y-78701446D01*
X145128172Y-78740485D01*
X144976733Y-78817647D01*
X144884790Y-78884447D01*
X144815582Y-78934731D01*
X144815580Y-78934733D01*
X144815579Y-78934733D01*
X144674733Y-79075579D01*
X144674733Y-79075580D01*
X144674731Y-79075582D01*
X144624447Y-79144790D01*
X144557647Y-79236733D01*
X144467213Y-79414219D01*
X144405661Y-79603656D01*
X144405661Y-79603659D01*
X144374500Y-79800403D01*
X144374500Y-79999596D01*
X144405661Y-80196340D01*
X144405661Y-80196343D01*
X144467213Y-80385780D01*
X144467215Y-80385783D01*
X144557647Y-80563266D01*
X144674731Y-80724418D01*
X144815582Y-80865269D01*
X144976734Y-80982353D01*
X145046453Y-81017877D01*
X145128172Y-81059515D01*
X145178968Y-81107490D01*
X145195763Y-81175311D01*
X145173225Y-81241446D01*
X145128172Y-81280485D01*
X144976733Y-81357647D01*
X144884790Y-81424447D01*
X144815582Y-81474731D01*
X144815580Y-81474733D01*
X144815579Y-81474733D01*
X144674733Y-81615579D01*
X144674733Y-81615580D01*
X144674731Y-81615582D01*
X144624447Y-81684790D01*
X144557647Y-81776733D01*
X144467213Y-81954219D01*
X144405661Y-82143656D01*
X144405661Y-82143659D01*
X144374500Y-82340403D01*
X144374500Y-82539596D01*
X144405661Y-82736340D01*
X144405661Y-82736343D01*
X144467213Y-82925780D01*
X144467215Y-82925783D01*
X144557647Y-83103266D01*
X144674731Y-83264418D01*
X144815582Y-83405269D01*
X144976734Y-83522353D01*
X145046453Y-83557877D01*
X145128172Y-83599515D01*
X145178968Y-83647490D01*
X145195763Y-83715311D01*
X145173225Y-83781446D01*
X145128172Y-83820485D01*
X144976733Y-83897647D01*
X144932355Y-83929890D01*
X144815582Y-84014731D01*
X144815580Y-84014733D01*
X144815579Y-84014733D01*
X144674733Y-84155579D01*
X144674733Y-84155580D01*
X144674731Y-84155582D01*
X144624447Y-84224790D01*
X144557647Y-84316733D01*
X144467213Y-84494219D01*
X144405661Y-84683656D01*
X144405661Y-84683659D01*
X144374500Y-84880403D01*
X144374500Y-85079596D01*
X144405661Y-85276340D01*
X144405661Y-85276343D01*
X144467213Y-85465780D01*
X144531252Y-85591463D01*
X144557647Y-85643266D01*
X144674731Y-85804418D01*
X144815582Y-85945269D01*
X144976734Y-86062353D01*
X145046453Y-86097877D01*
X145128172Y-86139515D01*
X145178968Y-86187490D01*
X145195763Y-86255311D01*
X145173225Y-86321446D01*
X145128172Y-86360485D01*
X144976733Y-86437647D01*
X144884790Y-86504447D01*
X144815582Y-86554731D01*
X144815580Y-86554733D01*
X144815579Y-86554733D01*
X144674733Y-86695579D01*
X144674733Y-86695580D01*
X144674731Y-86695582D01*
X144624447Y-86764790D01*
X144557647Y-86856733D01*
X144467213Y-87034219D01*
X144405661Y-87223656D01*
X144405661Y-87223659D01*
X144374500Y-87420403D01*
X144374500Y-87619596D01*
X144405661Y-87816340D01*
X144405661Y-87816343D01*
X144467213Y-88005780D01*
X144467215Y-88005783D01*
X144557647Y-88183266D01*
X144674731Y-88344418D01*
X144815582Y-88485269D01*
X144976734Y-88602353D01*
X145046453Y-88637877D01*
X145128172Y-88679515D01*
X145178968Y-88727490D01*
X145195763Y-88795311D01*
X145173225Y-88861446D01*
X145128172Y-88900485D01*
X144976733Y-88977647D01*
X144884790Y-89044447D01*
X144815582Y-89094731D01*
X144815580Y-89094733D01*
X144815579Y-89094733D01*
X144674733Y-89235579D01*
X144674733Y-89235580D01*
X144674731Y-89235582D01*
X144624447Y-89304790D01*
X144557647Y-89396733D01*
X144467213Y-89574219D01*
X144405661Y-89763656D01*
X144405661Y-89763659D01*
X144374500Y-89960403D01*
X144374500Y-90159596D01*
X144405661Y-90356340D01*
X144405661Y-90356343D01*
X144467213Y-90545780D01*
X144467215Y-90545783D01*
X144557647Y-90723266D01*
X144674731Y-90884418D01*
X144815582Y-91025269D01*
X144976734Y-91142353D01*
X145046453Y-91177877D01*
X145128172Y-91219515D01*
X145178968Y-91267490D01*
X145195763Y-91335311D01*
X145173225Y-91401446D01*
X145128172Y-91440485D01*
X144976733Y-91517647D01*
X144884790Y-91584447D01*
X144815582Y-91634731D01*
X144815580Y-91634733D01*
X144815579Y-91634733D01*
X144674733Y-91775579D01*
X144674733Y-91775580D01*
X144674731Y-91775582D01*
X144645799Y-91815404D01*
X144557647Y-91936733D01*
X144467213Y-92114219D01*
X144405661Y-92303656D01*
X144405661Y-92303659D01*
X144374500Y-92500403D01*
X144374500Y-92699596D01*
X144405661Y-92896340D01*
X144405661Y-92896343D01*
X144467213Y-93085780D01*
X144518240Y-93185925D01*
X144557647Y-93263266D01*
X144674731Y-93424418D01*
X144815582Y-93565269D01*
X144976734Y-93682353D01*
X145046453Y-93717877D01*
X145128172Y-93759515D01*
X145178968Y-93807490D01*
X145195763Y-93875311D01*
X145173225Y-93941446D01*
X145128172Y-93980485D01*
X144976733Y-94057647D01*
X144959043Y-94070500D01*
X144815582Y-94174731D01*
X144815580Y-94174733D01*
X144815579Y-94174733D01*
X144674733Y-94315579D01*
X144674733Y-94315580D01*
X144674731Y-94315582D01*
X144624447Y-94384790D01*
X144557647Y-94476733D01*
X144467213Y-94654219D01*
X144405661Y-94843656D01*
X144405661Y-94843659D01*
X144374500Y-95040403D01*
X144374500Y-95239596D01*
X144405661Y-95436340D01*
X144405661Y-95436343D01*
X144467213Y-95625780D01*
X144467215Y-95625783D01*
X144557647Y-95803266D01*
X144674731Y-95964418D01*
X144815582Y-96105269D01*
X144976734Y-96222353D01*
X145046453Y-96257877D01*
X145128172Y-96299515D01*
X145178968Y-96347490D01*
X145195763Y-96415311D01*
X145173225Y-96481446D01*
X145128172Y-96520485D01*
X144976733Y-96597647D01*
X144884790Y-96664447D01*
X144815582Y-96714731D01*
X144815580Y-96714733D01*
X144815579Y-96714733D01*
X144674733Y-96855579D01*
X144674733Y-96855580D01*
X144674731Y-96855582D01*
X144624447Y-96924790D01*
X144557647Y-97016733D01*
X144467213Y-97194219D01*
X144405661Y-97383656D01*
X144405661Y-97383659D01*
X144374500Y-97580403D01*
X144374500Y-97779596D01*
X144405661Y-97976340D01*
X144405661Y-97976343D01*
X144467213Y-98165780D01*
X144467215Y-98165783D01*
X144557647Y-98343266D01*
X144674731Y-98504418D01*
X144815582Y-98645269D01*
X144976734Y-98762353D01*
X145046453Y-98797877D01*
X145128172Y-98839515D01*
X145178968Y-98887490D01*
X145195763Y-98955311D01*
X145173225Y-99021446D01*
X145128172Y-99060485D01*
X144976733Y-99137647D01*
X144884790Y-99204447D01*
X144815582Y-99254731D01*
X144815580Y-99254733D01*
X144815579Y-99254733D01*
X144674733Y-99395579D01*
X144674733Y-99395580D01*
X144674731Y-99395582D01*
X144624447Y-99464790D01*
X144557647Y-99556733D01*
X144467213Y-99734219D01*
X144405661Y-99923656D01*
X144405661Y-99923659D01*
X144374500Y-100120403D01*
X144374500Y-100319596D01*
X144405661Y-100516340D01*
X144405661Y-100516343D01*
X144467213Y-100705780D01*
X144556033Y-100880099D01*
X144557647Y-100883266D01*
X144674731Y-101044418D01*
X144815582Y-101185269D01*
X144976734Y-101302353D01*
X145046453Y-101337877D01*
X145128172Y-101379515D01*
X145178968Y-101427490D01*
X145195763Y-101495311D01*
X145173225Y-101561446D01*
X145128172Y-101600485D01*
X144976733Y-101677647D01*
X144902536Y-101731555D01*
X144815582Y-101794731D01*
X144815580Y-101794733D01*
X144815579Y-101794733D01*
X144674733Y-101935579D01*
X144674733Y-101935580D01*
X144674731Y-101935582D01*
X144624447Y-102004790D01*
X144557647Y-102096733D01*
X144467213Y-102274219D01*
X144405661Y-102463656D01*
X144405661Y-102463659D01*
X144374500Y-102660403D01*
X144374500Y-102859596D01*
X144405661Y-103056340D01*
X144405661Y-103056343D01*
X144467213Y-103245780D01*
X144467215Y-103245783D01*
X144557647Y-103423266D01*
X144674731Y-103584418D01*
X144815582Y-103725269D01*
X144976734Y-103842353D01*
X145046453Y-103877877D01*
X145128172Y-103919515D01*
X145178968Y-103967490D01*
X145195763Y-104035311D01*
X145173225Y-104101446D01*
X145128172Y-104140485D01*
X144976733Y-104217647D01*
X144884790Y-104284447D01*
X144815582Y-104334731D01*
X144815580Y-104334733D01*
X144815579Y-104334733D01*
X144674733Y-104475579D01*
X144674733Y-104475580D01*
X144674731Y-104475582D01*
X144624447Y-104544790D01*
X144557647Y-104636733D01*
X144467213Y-104814219D01*
X144405661Y-105003656D01*
X144405661Y-105003659D01*
X144374500Y-105200403D01*
X144374500Y-105399596D01*
X144405661Y-105596340D01*
X144405661Y-105596343D01*
X144467213Y-105785780D01*
X144467215Y-105785783D01*
X144557647Y-105963266D01*
X144674731Y-106124418D01*
X144815582Y-106265269D01*
X144976734Y-106382353D01*
X145046453Y-106417877D01*
X145128172Y-106459515D01*
X145178968Y-106507490D01*
X145195763Y-106575311D01*
X145173225Y-106641446D01*
X145128172Y-106680485D01*
X144976733Y-106757647D01*
X144884790Y-106824447D01*
X144815582Y-106874731D01*
X144815580Y-106874733D01*
X144815579Y-106874733D01*
X144674733Y-107015579D01*
X144674733Y-107015580D01*
X144674731Y-107015582D01*
X144662215Y-107032809D01*
X144557647Y-107176733D01*
X144467213Y-107354219D01*
X144405661Y-107543656D01*
X144405661Y-107543659D01*
X144374500Y-107740403D01*
X144374500Y-107939596D01*
X144405661Y-108136340D01*
X144405661Y-108136343D01*
X144467213Y-108325780D01*
X144477662Y-108346287D01*
X144557647Y-108503266D01*
X144674731Y-108664418D01*
X144815582Y-108805269D01*
X144976734Y-108922353D01*
X145009516Y-108939056D01*
X145128172Y-108999515D01*
X145178968Y-109047490D01*
X145195763Y-109115311D01*
X145173225Y-109181446D01*
X145128172Y-109220485D01*
X144976733Y-109297647D01*
X144929330Y-109332088D01*
X144815582Y-109414731D01*
X144815580Y-109414733D01*
X144815579Y-109414733D01*
X144674733Y-109555579D01*
X144674733Y-109555580D01*
X144674731Y-109555582D01*
X144654378Y-109583596D01*
X144557647Y-109716733D01*
X144467213Y-109894219D01*
X144405661Y-110083656D01*
X144405661Y-110083659D01*
X144374500Y-110280403D01*
X144374500Y-110479596D01*
X144405661Y-110676340D01*
X144405661Y-110676343D01*
X144467213Y-110865780D01*
X144467215Y-110865783D01*
X144557647Y-111043266D01*
X144674731Y-111204418D01*
X144815582Y-111345269D01*
X144976734Y-111462353D01*
X145046453Y-111497877D01*
X145128172Y-111539515D01*
X145178968Y-111587490D01*
X145195763Y-111655311D01*
X145173225Y-111721446D01*
X145128172Y-111760485D01*
X144976733Y-111837647D01*
X144884790Y-111904447D01*
X144815582Y-111954731D01*
X144815580Y-111954733D01*
X144815579Y-111954733D01*
X144674733Y-112095579D01*
X144674733Y-112095580D01*
X144674731Y-112095582D01*
X144624447Y-112164790D01*
X144557647Y-112256733D01*
X144467213Y-112434219D01*
X144405661Y-112623656D01*
X144405661Y-112623659D01*
X144374500Y-112820403D01*
X144374500Y-113019596D01*
X144405661Y-113216340D01*
X144405661Y-113216343D01*
X144467213Y-113405780D01*
X144467215Y-113405783D01*
X144557647Y-113583266D01*
X144674731Y-113744418D01*
X144815582Y-113885269D01*
X144976734Y-114002353D01*
X145066909Y-114048299D01*
X145128722Y-114079795D01*
X145179518Y-114127770D01*
X145196313Y-114195591D01*
X145173776Y-114261726D01*
X145128723Y-114300764D01*
X144976993Y-114378075D01*
X144939135Y-114405580D01*
X144939135Y-114405581D01*
X145502425Y-114968871D01*
X145443147Y-114984755D01*
X145326853Y-115051898D01*
X145231898Y-115146853D01*
X145164755Y-115263147D01*
X145148871Y-115322425D01*
X144585581Y-114759135D01*
X144585580Y-114759135D01*
X144558077Y-114796990D01*
X144467679Y-114974405D01*
X144406147Y-115163777D01*
X144375000Y-115360436D01*
X144375000Y-115559563D01*
X144406147Y-115756222D01*
X144467679Y-115945594D01*
X144558077Y-116123008D01*
X144585580Y-116160863D01*
X144585581Y-116160864D01*
X145148871Y-115597574D01*
X145164755Y-115656853D01*
X145231898Y-115773147D01*
X145326853Y-115868102D01*
X145443147Y-115935245D01*
X145502425Y-115951128D01*
X144939134Y-116514417D01*
X144976994Y-116541924D01*
X145128722Y-116619234D01*
X145179518Y-116667209D01*
X145196313Y-116735030D01*
X145173776Y-116801165D01*
X145128723Y-116840203D01*
X144976735Y-116917645D01*
X144917713Y-116960528D01*
X144815582Y-117034731D01*
X144815580Y-117034733D01*
X144815579Y-117034733D01*
X144674733Y-117175579D01*
X144674733Y-117175580D01*
X144674731Y-117175582D01*
X144624447Y-117244790D01*
X144557647Y-117336733D01*
X144467213Y-117514219D01*
X144405661Y-117703656D01*
X144405661Y-117703659D01*
X144374500Y-117900403D01*
X144374500Y-118099596D01*
X144405661Y-118296340D01*
X144405661Y-118296343D01*
X144467213Y-118485780D01*
X144467215Y-118485783D01*
X144557647Y-118663266D01*
X144674731Y-118824418D01*
X144815582Y-118965269D01*
X144976734Y-119082353D01*
X145154217Y-119172785D01*
X145154219Y-119172786D01*
X145343657Y-119234338D01*
X145343658Y-119234338D01*
X145343661Y-119234339D01*
X145540403Y-119265500D01*
X145540404Y-119265500D01*
X145739596Y-119265500D01*
X145739597Y-119265500D01*
X145936339Y-119234339D01*
X145936342Y-119234338D01*
X145936343Y-119234338D01*
X146125780Y-119172786D01*
X146125780Y-119172785D01*
X146125783Y-119172785D01*
X146303266Y-119082353D01*
X146464418Y-118965269D01*
X146605269Y-118824418D01*
X146722353Y-118663266D01*
X146812785Y-118485783D01*
X146874339Y-118296339D01*
X146905500Y-118099597D01*
X146905500Y-117900403D01*
X146874339Y-117703661D01*
X146874338Y-117703657D01*
X146874338Y-117703656D01*
X146812786Y-117514219D01*
X146729112Y-117350000D01*
X146722353Y-117336734D01*
X146605269Y-117175582D01*
X146464418Y-117034731D01*
X146303266Y-116917647D01*
X146300389Y-116916181D01*
X146151277Y-116840204D01*
X146100481Y-116792229D01*
X146083686Y-116724408D01*
X146106224Y-116658273D01*
X146151277Y-116619234D01*
X146303005Y-116541924D01*
X146340863Y-116514418D01*
X146340863Y-116514417D01*
X145777574Y-115951128D01*
X145836853Y-115935245D01*
X145953147Y-115868102D01*
X146048102Y-115773147D01*
X146115245Y-115656853D01*
X146131128Y-115597574D01*
X146694417Y-116160863D01*
X146694418Y-116160863D01*
X146721924Y-116123005D01*
X146812320Y-115945594D01*
X146873852Y-115756222D01*
X146905000Y-115559563D01*
X146905000Y-115360436D01*
X146873852Y-115163777D01*
X146812320Y-114974405D01*
X146721924Y-114796994D01*
X146694417Y-114759135D01*
X146694417Y-114759134D01*
X146131128Y-115322424D01*
X146115245Y-115263147D01*
X146048102Y-115146853D01*
X145953147Y-115051898D01*
X145836853Y-114984755D01*
X145777574Y-114968871D01*
X146340864Y-114405581D01*
X146340863Y-114405580D01*
X146303008Y-114378077D01*
X146151277Y-114300765D01*
X146100481Y-114252790D01*
X146083686Y-114184969D01*
X146106224Y-114118834D01*
X146151277Y-114079795D01*
X146151827Y-114079515D01*
X146303266Y-114002353D01*
X146464418Y-113885269D01*
X146605269Y-113744418D01*
X146722353Y-113583266D01*
X146812785Y-113405783D01*
X146874339Y-113216339D01*
X146905500Y-113019597D01*
X146905500Y-112820403D01*
X146874339Y-112623661D01*
X146874338Y-112623657D01*
X146874338Y-112623656D01*
X146812786Y-112434219D01*
X146722352Y-112256733D01*
X146605269Y-112095582D01*
X146464418Y-111954731D01*
X146303266Y-111837647D01*
X146151827Y-111760485D01*
X146101031Y-111712510D01*
X146084236Y-111644689D01*
X146106773Y-111578554D01*
X146151827Y-111539515D01*
X146161116Y-111534781D01*
X146303266Y-111462353D01*
X146464418Y-111345269D01*
X146605269Y-111204418D01*
X146722353Y-111043266D01*
X146812785Y-110865783D01*
X146874339Y-110676339D01*
X146905500Y-110479597D01*
X146905500Y-110280403D01*
X146874339Y-110083661D01*
X146874338Y-110083657D01*
X146874338Y-110083656D01*
X146812786Y-109894219D01*
X146722352Y-109716733D01*
X146605269Y-109555582D01*
X146464418Y-109414731D01*
X146303266Y-109297647D01*
X146151827Y-109220485D01*
X146101031Y-109172510D01*
X146084236Y-109104689D01*
X146106773Y-109038554D01*
X146151827Y-108999515D01*
X146161116Y-108994781D01*
X146303266Y-108922353D01*
X146464418Y-108805269D01*
X146605269Y-108664418D01*
X146722353Y-108503266D01*
X146812785Y-108325783D01*
X146874339Y-108136339D01*
X146905500Y-107939597D01*
X146905500Y-107740403D01*
X146874339Y-107543661D01*
X146874338Y-107543657D01*
X146874338Y-107543656D01*
X146812786Y-107354219D01*
X146776308Y-107282627D01*
X146722353Y-107176734D01*
X146605269Y-107015582D01*
X146464418Y-106874731D01*
X146303266Y-106757647D01*
X146151827Y-106680485D01*
X146101031Y-106632510D01*
X146084236Y-106564689D01*
X146106773Y-106498554D01*
X146151827Y-106459515D01*
X146161116Y-106454781D01*
X146303266Y-106382353D01*
X146464418Y-106265269D01*
X146605269Y-106124418D01*
X146722353Y-105963266D01*
X146812785Y-105785783D01*
X146874339Y-105596339D01*
X146905500Y-105399597D01*
X146905500Y-105200403D01*
X146874339Y-105003661D01*
X146874338Y-105003657D01*
X146874338Y-105003656D01*
X146812786Y-104814219D01*
X146722352Y-104636733D01*
X146605269Y-104475582D01*
X146464418Y-104334731D01*
X146303266Y-104217647D01*
X146151827Y-104140485D01*
X146101031Y-104092510D01*
X146084236Y-104024689D01*
X146106773Y-103958554D01*
X146151827Y-103919515D01*
X146161116Y-103914781D01*
X146303266Y-103842353D01*
X146464418Y-103725269D01*
X146605269Y-103584418D01*
X146722353Y-103423266D01*
X146812785Y-103245783D01*
X146874339Y-103056339D01*
X146905500Y-102859597D01*
X146905500Y-102660403D01*
X146874339Y-102463661D01*
X146874338Y-102463657D01*
X146874338Y-102463656D01*
X146812786Y-102274219D01*
X146722352Y-102096733D01*
X146605269Y-101935582D01*
X146464418Y-101794731D01*
X146303266Y-101677647D01*
X146151827Y-101600485D01*
X146101031Y-101552510D01*
X146084236Y-101484689D01*
X146106773Y-101418554D01*
X146151827Y-101379515D01*
X146190547Y-101359786D01*
X146303266Y-101302353D01*
X146464418Y-101185269D01*
X146605269Y-101044418D01*
X146722353Y-100883266D01*
X146812785Y-100705783D01*
X146874339Y-100516339D01*
X146905500Y-100319597D01*
X146905500Y-100120403D01*
X146874339Y-99923661D01*
X146874338Y-99923657D01*
X146874338Y-99923656D01*
X146812786Y-99734219D01*
X146812785Y-99734217D01*
X146722353Y-99556734D01*
X146605269Y-99395582D01*
X146464418Y-99254731D01*
X146303266Y-99137647D01*
X146151827Y-99060485D01*
X146101031Y-99012510D01*
X146084236Y-98944689D01*
X146106773Y-98878554D01*
X146151827Y-98839515D01*
X146161116Y-98834781D01*
X146303266Y-98762353D01*
X146464418Y-98645269D01*
X146605269Y-98504418D01*
X146722353Y-98343266D01*
X146812785Y-98165783D01*
X146874339Y-97976339D01*
X146905500Y-97779597D01*
X146905500Y-97580403D01*
X146874339Y-97383661D01*
X146874338Y-97383657D01*
X146874338Y-97383656D01*
X146812786Y-97194219D01*
X146722352Y-97016733D01*
X146605269Y-96855582D01*
X146464418Y-96714731D01*
X146303266Y-96597647D01*
X146151827Y-96520485D01*
X146101031Y-96472510D01*
X146084236Y-96404689D01*
X146106773Y-96338554D01*
X146151827Y-96299515D01*
X146161116Y-96294781D01*
X146303266Y-96222353D01*
X146464418Y-96105269D01*
X146605269Y-95964418D01*
X146722353Y-95803266D01*
X146812785Y-95625783D01*
X146874339Y-95436339D01*
X146905500Y-95239597D01*
X146905500Y-95040403D01*
X146874339Y-94843661D01*
X146874338Y-94843657D01*
X146874338Y-94843656D01*
X146812786Y-94654219D01*
X146722352Y-94476733D01*
X146605269Y-94315582D01*
X146464418Y-94174731D01*
X146303266Y-94057647D01*
X146151827Y-93980485D01*
X146101031Y-93932510D01*
X146084236Y-93864689D01*
X146106773Y-93798554D01*
X146151827Y-93759515D01*
X146170297Y-93750104D01*
X146303266Y-93682353D01*
X146464418Y-93565269D01*
X146605269Y-93424418D01*
X146722353Y-93263266D01*
X146812785Y-93085783D01*
X146812786Y-93085780D01*
X146874338Y-92896343D01*
X146874338Y-92896342D01*
X146874339Y-92896339D01*
X146905500Y-92699597D01*
X146905500Y-92500403D01*
X146874339Y-92303661D01*
X146874338Y-92303657D01*
X146874338Y-92303656D01*
X146812786Y-92114219D01*
X146765261Y-92020946D01*
X146722353Y-91936734D01*
X146605269Y-91775582D01*
X146464418Y-91634731D01*
X146303266Y-91517647D01*
X146151827Y-91440485D01*
X146101031Y-91392510D01*
X146084236Y-91324689D01*
X146106773Y-91258554D01*
X146151827Y-91219515D01*
X146161116Y-91214781D01*
X146303266Y-91142353D01*
X146464418Y-91025269D01*
X146605269Y-90884418D01*
X146722353Y-90723266D01*
X146812785Y-90545783D01*
X146874339Y-90356339D01*
X146905500Y-90159597D01*
X146905500Y-89960403D01*
X146874339Y-89763661D01*
X146874338Y-89763657D01*
X146874338Y-89763656D01*
X146812786Y-89574219D01*
X146722352Y-89396733D01*
X146605269Y-89235582D01*
X146464418Y-89094731D01*
X146303266Y-88977647D01*
X146151827Y-88900485D01*
X146101031Y-88852510D01*
X146084236Y-88784689D01*
X146106773Y-88718554D01*
X146151827Y-88679515D01*
X146161116Y-88674781D01*
X146303266Y-88602353D01*
X146464418Y-88485269D01*
X146605269Y-88344418D01*
X146722353Y-88183266D01*
X146812785Y-88005783D01*
X146874339Y-87816339D01*
X146905500Y-87619597D01*
X146905500Y-87420403D01*
X146874339Y-87223661D01*
X146874338Y-87223657D01*
X146874338Y-87223656D01*
X146812786Y-87034219D01*
X146722352Y-86856733D01*
X146605269Y-86695582D01*
X146464418Y-86554731D01*
X146303266Y-86437647D01*
X146151827Y-86360485D01*
X146101031Y-86312510D01*
X146084236Y-86244689D01*
X146106773Y-86178554D01*
X146151827Y-86139515D01*
X146199846Y-86115048D01*
X146303266Y-86062353D01*
X146464418Y-85945269D01*
X146605269Y-85804418D01*
X146722353Y-85643266D01*
X146812785Y-85465783D01*
X146874339Y-85276339D01*
X146905500Y-85079597D01*
X146905500Y-84880403D01*
X146874339Y-84683661D01*
X146874338Y-84683657D01*
X146874338Y-84683656D01*
X146812786Y-84494219D01*
X146812713Y-84494075D01*
X146722353Y-84316734D01*
X146605269Y-84155582D01*
X146464418Y-84014731D01*
X146303266Y-83897647D01*
X146151827Y-83820485D01*
X146101031Y-83772510D01*
X146084236Y-83704689D01*
X146106773Y-83638554D01*
X146151827Y-83599515D01*
X146161116Y-83594781D01*
X146303266Y-83522353D01*
X146464418Y-83405269D01*
X146605269Y-83264418D01*
X146722353Y-83103266D01*
X146812785Y-82925783D01*
X146874339Y-82736339D01*
X146905500Y-82539597D01*
X146905500Y-82340403D01*
X146874339Y-82143661D01*
X146874338Y-82143657D01*
X146874338Y-82143656D01*
X146812786Y-81954219D01*
X146722352Y-81776733D01*
X146605269Y-81615582D01*
X146464418Y-81474731D01*
X146303266Y-81357647D01*
X146151827Y-81280485D01*
X146101031Y-81232510D01*
X146084236Y-81164689D01*
X146106773Y-81098554D01*
X146151827Y-81059515D01*
X146161116Y-81054781D01*
X146303266Y-80982353D01*
X146464418Y-80865269D01*
X146605269Y-80724418D01*
X146722353Y-80563266D01*
X146812785Y-80385783D01*
X146874339Y-80196339D01*
X146905500Y-79999597D01*
X146905500Y-79800403D01*
X146874339Y-79603661D01*
X146874338Y-79603657D01*
X146874338Y-79603656D01*
X146812786Y-79414219D01*
X146722352Y-79236733D01*
X146605269Y-79075582D01*
X146464418Y-78934731D01*
X146303266Y-78817647D01*
X146151827Y-78740485D01*
X146101031Y-78692510D01*
X146084236Y-78624689D01*
X146106773Y-78558554D01*
X146151827Y-78519515D01*
X146161116Y-78514781D01*
X146303266Y-78442353D01*
X146464418Y-78325269D01*
X146605269Y-78184418D01*
X146722353Y-78023266D01*
X146812785Y-77845783D01*
X146874339Y-77656339D01*
X146905500Y-77459597D01*
X146905500Y-77260403D01*
X146874339Y-77063661D01*
X146874338Y-77063657D01*
X146874338Y-77063656D01*
X146812786Y-76874219D01*
X146722352Y-76696733D01*
X146605269Y-76535582D01*
X146464418Y-76394731D01*
X146303266Y-76277647D01*
X146151827Y-76200485D01*
X146101031Y-76152510D01*
X146084236Y-76084689D01*
X146106773Y-76018554D01*
X146151827Y-75979515D01*
X146161116Y-75974781D01*
X146303266Y-75902353D01*
X146464418Y-75785269D01*
X146605269Y-75644418D01*
X146722353Y-75483266D01*
X146812785Y-75305783D01*
X146874339Y-75116339D01*
X146905500Y-74919597D01*
X146905500Y-74720403D01*
X146874339Y-74523661D01*
X146874338Y-74523657D01*
X146874338Y-74523656D01*
X146812786Y-74334219D01*
X146722352Y-74156733D01*
X146605269Y-73995582D01*
X146464418Y-73854731D01*
X146303266Y-73737647D01*
X146151827Y-73660485D01*
X146101031Y-73612510D01*
X146084236Y-73544689D01*
X146106773Y-73478554D01*
X146151827Y-73439515D01*
X146161116Y-73434781D01*
X146303266Y-73362353D01*
X146464418Y-73245269D01*
X146605269Y-73104418D01*
X146722353Y-72943266D01*
X146812785Y-72765783D01*
X146858422Y-72625328D01*
X146874338Y-72576343D01*
X146874338Y-72576342D01*
X146874339Y-72576339D01*
X146905500Y-72379597D01*
X146905500Y-72180403D01*
X146874339Y-71983661D01*
X146874338Y-71983657D01*
X146874338Y-71983656D01*
X146812786Y-71794219D01*
X146769634Y-71709528D01*
X146722353Y-71616734D01*
X146605269Y-71455582D01*
X146464418Y-71314731D01*
X146303266Y-71197647D01*
X146151827Y-71120485D01*
X146101031Y-71072510D01*
X146084236Y-71004689D01*
X146106773Y-70938554D01*
X146151827Y-70899515D01*
X146161116Y-70894781D01*
X146303266Y-70822353D01*
X146464418Y-70705269D01*
X146605269Y-70564418D01*
X146722353Y-70403266D01*
X146812785Y-70225783D01*
X146847361Y-70119370D01*
X146874338Y-70036343D01*
X146874338Y-70036342D01*
X146874339Y-70036339D01*
X146905500Y-69839597D01*
X146905500Y-69640403D01*
X146874339Y-69443661D01*
X146874338Y-69443657D01*
X146874338Y-69443656D01*
X146812786Y-69254219D01*
X146722352Y-69076733D01*
X146605269Y-68915582D01*
X146464418Y-68774731D01*
X146303266Y-68657647D01*
X146151827Y-68580485D01*
X146101031Y-68532510D01*
X146084236Y-68464689D01*
X146106773Y-68398554D01*
X146151827Y-68359515D01*
X146161116Y-68354781D01*
X146303266Y-68282353D01*
X146464418Y-68165269D01*
X146605269Y-68024418D01*
X146722353Y-67863266D01*
X146812785Y-67685783D01*
X146874339Y-67496339D01*
X146905500Y-67299597D01*
X146905500Y-67100403D01*
X146874339Y-66903661D01*
X146874338Y-66903657D01*
X146874338Y-66903656D01*
X146812786Y-66714219D01*
X146722352Y-66536733D01*
X146605269Y-66375582D01*
X146464418Y-66234731D01*
X146347543Y-66149816D01*
X146304879Y-66094487D01*
X146298900Y-66024873D01*
X146331506Y-65963078D01*
X146392345Y-65928721D01*
X146420430Y-65925499D01*
X146452871Y-65925499D01*
X146452872Y-65925499D01*
X146512483Y-65919091D01*
X146647331Y-65868796D01*
X146762546Y-65782546D01*
X146848796Y-65667331D01*
X146899091Y-65532483D01*
X146905500Y-65472873D01*
X146905499Y-64560403D01*
X167234500Y-64560403D01*
X167234500Y-64759596D01*
X167265661Y-64956340D01*
X167265661Y-64956343D01*
X167327213Y-65145780D01*
X167327215Y-65145783D01*
X167417647Y-65323266D01*
X167534731Y-65484418D01*
X167675582Y-65625269D01*
X167836734Y-65742353D01*
X167906453Y-65777877D01*
X167988172Y-65819515D01*
X168038968Y-65867490D01*
X168055763Y-65935311D01*
X168033225Y-66001446D01*
X167988172Y-66040485D01*
X167836733Y-66117647D01*
X167744790Y-66184447D01*
X167675582Y-66234731D01*
X167675580Y-66234733D01*
X167675579Y-66234733D01*
X167534733Y-66375579D01*
X167534733Y-66375580D01*
X167534731Y-66375582D01*
X167484447Y-66444790D01*
X167417647Y-66536733D01*
X167327213Y-66714219D01*
X167265661Y-66903656D01*
X167265661Y-66903659D01*
X167234500Y-67100403D01*
X167234500Y-67299596D01*
X167265661Y-67496340D01*
X167265661Y-67496343D01*
X167327213Y-67685780D01*
X167327215Y-67685783D01*
X167417647Y-67863266D01*
X167534731Y-68024418D01*
X167675582Y-68165269D01*
X167836734Y-68282353D01*
X167906453Y-68317877D01*
X167988172Y-68359515D01*
X168038968Y-68407490D01*
X168055763Y-68475311D01*
X168033225Y-68541446D01*
X167988172Y-68580485D01*
X167836733Y-68657647D01*
X167744790Y-68724447D01*
X167675582Y-68774731D01*
X167675580Y-68774733D01*
X167675579Y-68774733D01*
X167534733Y-68915579D01*
X167534733Y-68915580D01*
X167534731Y-68915582D01*
X167484447Y-68984790D01*
X167417647Y-69076733D01*
X167327213Y-69254219D01*
X167265661Y-69443656D01*
X167265661Y-69443659D01*
X167234500Y-69640403D01*
X167234500Y-69839596D01*
X167265661Y-70036340D01*
X167265661Y-70036343D01*
X167327213Y-70225780D01*
X167379116Y-70327644D01*
X167417647Y-70403266D01*
X167534731Y-70564418D01*
X167675582Y-70705269D01*
X167836734Y-70822353D01*
X167906453Y-70857877D01*
X167988172Y-70899515D01*
X168038968Y-70947490D01*
X168055763Y-71015311D01*
X168033225Y-71081446D01*
X167988172Y-71120485D01*
X167836733Y-71197647D01*
X167767894Y-71247662D01*
X167675582Y-71314731D01*
X167675580Y-71314733D01*
X167675579Y-71314733D01*
X167534733Y-71455579D01*
X167534733Y-71455580D01*
X167534731Y-71455582D01*
X167521389Y-71473946D01*
X167417647Y-71616733D01*
X167327213Y-71794219D01*
X167265661Y-71983656D01*
X167265661Y-71983659D01*
X167234500Y-72180403D01*
X167234500Y-72379596D01*
X167265661Y-72576340D01*
X167265661Y-72576343D01*
X167327213Y-72765780D01*
X167401320Y-72911223D01*
X167417647Y-72943266D01*
X167534731Y-73104418D01*
X167675582Y-73245269D01*
X167836734Y-73362353D01*
X167906453Y-73397877D01*
X167988172Y-73439515D01*
X168038968Y-73487490D01*
X168055763Y-73555311D01*
X168033225Y-73621446D01*
X167988172Y-73660485D01*
X167836733Y-73737647D01*
X167744790Y-73804447D01*
X167675582Y-73854731D01*
X167675580Y-73854733D01*
X167675579Y-73854733D01*
X167534733Y-73995579D01*
X167534733Y-73995580D01*
X167534731Y-73995582D01*
X167484447Y-74064790D01*
X167417647Y-74156733D01*
X167327213Y-74334219D01*
X167265661Y-74523656D01*
X167265661Y-74523659D01*
X167234500Y-74720403D01*
X167234500Y-74919596D01*
X167265661Y-75116340D01*
X167265661Y-75116343D01*
X167327213Y-75305780D01*
X167327215Y-75305783D01*
X167417647Y-75483266D01*
X167534731Y-75644418D01*
X167675582Y-75785269D01*
X167836734Y-75902353D01*
X167906453Y-75937877D01*
X167988172Y-75979515D01*
X168038968Y-76027490D01*
X168055763Y-76095311D01*
X168033225Y-76161446D01*
X167988172Y-76200485D01*
X167836733Y-76277647D01*
X167744790Y-76344447D01*
X167675582Y-76394731D01*
X167675580Y-76394733D01*
X167675579Y-76394733D01*
X167534733Y-76535579D01*
X167534733Y-76535580D01*
X167534731Y-76535582D01*
X167484447Y-76604790D01*
X167417647Y-76696733D01*
X167327213Y-76874219D01*
X167265661Y-77063656D01*
X167265661Y-77063659D01*
X167234500Y-77260403D01*
X167234500Y-77459596D01*
X167265661Y-77656340D01*
X167265661Y-77656343D01*
X167327213Y-77845780D01*
X167327215Y-77845783D01*
X167417647Y-78023266D01*
X167534731Y-78184418D01*
X167675582Y-78325269D01*
X167836734Y-78442353D01*
X167906453Y-78477877D01*
X167988172Y-78519515D01*
X168038968Y-78567490D01*
X168055763Y-78635311D01*
X168033225Y-78701446D01*
X167988172Y-78740485D01*
X167836733Y-78817647D01*
X167744790Y-78884447D01*
X167675582Y-78934731D01*
X167675580Y-78934733D01*
X167675579Y-78934733D01*
X167534733Y-79075579D01*
X167534733Y-79075580D01*
X167534731Y-79075582D01*
X167484447Y-79144790D01*
X167417647Y-79236733D01*
X167327213Y-79414219D01*
X167265661Y-79603656D01*
X167265661Y-79603659D01*
X167234500Y-79800403D01*
X167234500Y-79999596D01*
X167265661Y-80196340D01*
X167265661Y-80196343D01*
X167327213Y-80385780D01*
X167327215Y-80385783D01*
X167417647Y-80563266D01*
X167534731Y-80724418D01*
X167675582Y-80865269D01*
X167836734Y-80982353D01*
X167906453Y-81017877D01*
X167988172Y-81059515D01*
X168038968Y-81107490D01*
X168055763Y-81175311D01*
X168033225Y-81241446D01*
X167988172Y-81280485D01*
X167836733Y-81357647D01*
X167744790Y-81424447D01*
X167675582Y-81474731D01*
X167675580Y-81474733D01*
X167675579Y-81474733D01*
X167534733Y-81615579D01*
X167534733Y-81615580D01*
X167534731Y-81615582D01*
X167484447Y-81684790D01*
X167417647Y-81776733D01*
X167327213Y-81954219D01*
X167265661Y-82143656D01*
X167265661Y-82143659D01*
X167234500Y-82340403D01*
X167234500Y-82539596D01*
X167265661Y-82736340D01*
X167265661Y-82736343D01*
X167327213Y-82925780D01*
X167327215Y-82925783D01*
X167417647Y-83103266D01*
X167534731Y-83264418D01*
X167675582Y-83405269D01*
X167836734Y-83522353D01*
X167906453Y-83557877D01*
X167988172Y-83599515D01*
X168038968Y-83647490D01*
X168055763Y-83715311D01*
X168033225Y-83781446D01*
X167988172Y-83820485D01*
X167836733Y-83897647D01*
X167792355Y-83929890D01*
X167675582Y-84014731D01*
X167675580Y-84014733D01*
X167675579Y-84014733D01*
X167534733Y-84155579D01*
X167534733Y-84155580D01*
X167534731Y-84155582D01*
X167484447Y-84224790D01*
X167417647Y-84316733D01*
X167327213Y-84494219D01*
X167265661Y-84683656D01*
X167265661Y-84683659D01*
X167234500Y-84880403D01*
X167234500Y-85079596D01*
X167265661Y-85276340D01*
X167265661Y-85276343D01*
X167327213Y-85465780D01*
X167391252Y-85591463D01*
X167417647Y-85643266D01*
X167534731Y-85804418D01*
X167675582Y-85945269D01*
X167836734Y-86062353D01*
X167906453Y-86097877D01*
X167988172Y-86139515D01*
X168038968Y-86187490D01*
X168055763Y-86255311D01*
X168033225Y-86321446D01*
X167988172Y-86360485D01*
X167836733Y-86437647D01*
X167744790Y-86504447D01*
X167675582Y-86554731D01*
X167675580Y-86554733D01*
X167675579Y-86554733D01*
X167534733Y-86695579D01*
X167534733Y-86695580D01*
X167534731Y-86695582D01*
X167484447Y-86764790D01*
X167417647Y-86856733D01*
X167327213Y-87034219D01*
X167265661Y-87223656D01*
X167265661Y-87223659D01*
X167234500Y-87420403D01*
X167234500Y-87619596D01*
X167265661Y-87816340D01*
X167265661Y-87816343D01*
X167327213Y-88005780D01*
X167327215Y-88005783D01*
X167417647Y-88183266D01*
X167534731Y-88344418D01*
X167675582Y-88485269D01*
X167836734Y-88602353D01*
X167906453Y-88637877D01*
X167988172Y-88679515D01*
X168038968Y-88727490D01*
X168055763Y-88795311D01*
X168033225Y-88861446D01*
X167988172Y-88900485D01*
X167836733Y-88977647D01*
X167744790Y-89044447D01*
X167675582Y-89094731D01*
X167675580Y-89094733D01*
X167675579Y-89094733D01*
X167534733Y-89235579D01*
X167534733Y-89235580D01*
X167534731Y-89235582D01*
X167484447Y-89304790D01*
X167417647Y-89396733D01*
X167327213Y-89574219D01*
X167265661Y-89763656D01*
X167265661Y-89763659D01*
X167234500Y-89960403D01*
X167234500Y-90159596D01*
X167265661Y-90356340D01*
X167265661Y-90356343D01*
X167327213Y-90545780D01*
X167327215Y-90545783D01*
X167417647Y-90723266D01*
X167534731Y-90884418D01*
X167675582Y-91025269D01*
X167836734Y-91142353D01*
X167906453Y-91177877D01*
X167988172Y-91219515D01*
X168038968Y-91267490D01*
X168055763Y-91335311D01*
X168033225Y-91401446D01*
X167988172Y-91440485D01*
X167836733Y-91517647D01*
X167744790Y-91584447D01*
X167675582Y-91634731D01*
X167675580Y-91634733D01*
X167675579Y-91634733D01*
X167534733Y-91775579D01*
X167534733Y-91775580D01*
X167534731Y-91775582D01*
X167505799Y-91815404D01*
X167417647Y-91936733D01*
X167327213Y-92114219D01*
X167265661Y-92303656D01*
X167265661Y-92303659D01*
X167234500Y-92500403D01*
X167234500Y-92699596D01*
X167265661Y-92896340D01*
X167265661Y-92896343D01*
X167327213Y-93085780D01*
X167378240Y-93185925D01*
X167417647Y-93263266D01*
X167534731Y-93424418D01*
X167675582Y-93565269D01*
X167836734Y-93682353D01*
X167906453Y-93717877D01*
X167988172Y-93759515D01*
X168038968Y-93807490D01*
X168055763Y-93875311D01*
X168033225Y-93941446D01*
X167988172Y-93980485D01*
X167836733Y-94057647D01*
X167819043Y-94070500D01*
X167675582Y-94174731D01*
X167675580Y-94174733D01*
X167675579Y-94174733D01*
X167534733Y-94315579D01*
X167534733Y-94315580D01*
X167534731Y-94315582D01*
X167484447Y-94384790D01*
X167417647Y-94476733D01*
X167327213Y-94654219D01*
X167265661Y-94843656D01*
X167265661Y-94843659D01*
X167234500Y-95040403D01*
X167234500Y-95239596D01*
X167265661Y-95436340D01*
X167265661Y-95436343D01*
X167327213Y-95625780D01*
X167327215Y-95625783D01*
X167417647Y-95803266D01*
X167534731Y-95964418D01*
X167675582Y-96105269D01*
X167836734Y-96222353D01*
X167906453Y-96257877D01*
X167988172Y-96299515D01*
X168038968Y-96347490D01*
X168055763Y-96415311D01*
X168033225Y-96481446D01*
X167988172Y-96520485D01*
X167836733Y-96597647D01*
X167744790Y-96664447D01*
X167675582Y-96714731D01*
X167675580Y-96714733D01*
X167675579Y-96714733D01*
X167534733Y-96855579D01*
X167534733Y-96855580D01*
X167534731Y-96855582D01*
X167484447Y-96924790D01*
X167417647Y-97016733D01*
X167327213Y-97194219D01*
X167265661Y-97383656D01*
X167265661Y-97383659D01*
X167234500Y-97580403D01*
X167234500Y-97779596D01*
X167265661Y-97976340D01*
X167265661Y-97976343D01*
X167327213Y-98165780D01*
X167327215Y-98165783D01*
X167417647Y-98343266D01*
X167534731Y-98504418D01*
X167675582Y-98645269D01*
X167836734Y-98762353D01*
X167906453Y-98797877D01*
X167988172Y-98839515D01*
X168038968Y-98887490D01*
X168055763Y-98955311D01*
X168033225Y-99021446D01*
X167988172Y-99060485D01*
X167836733Y-99137647D01*
X167744790Y-99204447D01*
X167675582Y-99254731D01*
X167675580Y-99254733D01*
X167675579Y-99254733D01*
X167534733Y-99395579D01*
X167534733Y-99395580D01*
X167534731Y-99395582D01*
X167484447Y-99464790D01*
X167417647Y-99556733D01*
X167327213Y-99734219D01*
X167265661Y-99923656D01*
X167265661Y-99923659D01*
X167234500Y-100120403D01*
X167234500Y-100319596D01*
X167265661Y-100516340D01*
X167265661Y-100516343D01*
X167327213Y-100705780D01*
X167416033Y-100880099D01*
X167417647Y-100883266D01*
X167534731Y-101044418D01*
X167675582Y-101185269D01*
X167836734Y-101302353D01*
X167906453Y-101337877D01*
X167988172Y-101379515D01*
X168038968Y-101427490D01*
X168055763Y-101495311D01*
X168033225Y-101561446D01*
X167988172Y-101600485D01*
X167836733Y-101677647D01*
X167762536Y-101731555D01*
X167675582Y-101794731D01*
X167675580Y-101794733D01*
X167675579Y-101794733D01*
X167534733Y-101935579D01*
X167534733Y-101935580D01*
X167534731Y-101935582D01*
X167484447Y-102004790D01*
X167417647Y-102096733D01*
X167327213Y-102274219D01*
X167265661Y-102463656D01*
X167265661Y-102463659D01*
X167234500Y-102660403D01*
X167234500Y-102859596D01*
X167265661Y-103056340D01*
X167265661Y-103056343D01*
X167327213Y-103245780D01*
X167327215Y-103245783D01*
X167417647Y-103423266D01*
X167534731Y-103584418D01*
X167675582Y-103725269D01*
X167836734Y-103842353D01*
X167906453Y-103877877D01*
X167988172Y-103919515D01*
X168038968Y-103967490D01*
X168055763Y-104035311D01*
X168033225Y-104101446D01*
X167988172Y-104140485D01*
X167836733Y-104217647D01*
X167744790Y-104284447D01*
X167675582Y-104334731D01*
X167675580Y-104334733D01*
X167675579Y-104334733D01*
X167534733Y-104475579D01*
X167534733Y-104475580D01*
X167534731Y-104475582D01*
X167484447Y-104544790D01*
X167417647Y-104636733D01*
X167327213Y-104814219D01*
X167265661Y-105003656D01*
X167265661Y-105003659D01*
X167234500Y-105200403D01*
X167234500Y-105399596D01*
X167265661Y-105596340D01*
X167265661Y-105596343D01*
X167327213Y-105785780D01*
X167327215Y-105785783D01*
X167417647Y-105963266D01*
X167534731Y-106124418D01*
X167675582Y-106265269D01*
X167836734Y-106382353D01*
X167906453Y-106417877D01*
X167988172Y-106459515D01*
X168038968Y-106507490D01*
X168055763Y-106575311D01*
X168033225Y-106641446D01*
X167988172Y-106680485D01*
X167836733Y-106757647D01*
X167744790Y-106824447D01*
X167675582Y-106874731D01*
X167675580Y-106874733D01*
X167675579Y-106874733D01*
X167534733Y-107015579D01*
X167534733Y-107015580D01*
X167534731Y-107015582D01*
X167522215Y-107032809D01*
X167417647Y-107176733D01*
X167327213Y-107354219D01*
X167265661Y-107543656D01*
X167265661Y-107543659D01*
X167234500Y-107740403D01*
X167234500Y-107939596D01*
X167265661Y-108136340D01*
X167265661Y-108136343D01*
X167327213Y-108325780D01*
X167337662Y-108346287D01*
X167417647Y-108503266D01*
X167534731Y-108664418D01*
X167675582Y-108805269D01*
X167836734Y-108922353D01*
X167869516Y-108939056D01*
X167988172Y-108999515D01*
X168038968Y-109047490D01*
X168055763Y-109115311D01*
X168033225Y-109181446D01*
X167988172Y-109220485D01*
X167836733Y-109297647D01*
X167789330Y-109332088D01*
X167675582Y-109414731D01*
X167675580Y-109414733D01*
X167675579Y-109414733D01*
X167534733Y-109555579D01*
X167534733Y-109555580D01*
X167534731Y-109555582D01*
X167514378Y-109583596D01*
X167417647Y-109716733D01*
X167327213Y-109894219D01*
X167265661Y-110083656D01*
X167265661Y-110083659D01*
X167234500Y-110280403D01*
X167234500Y-110479596D01*
X167265661Y-110676340D01*
X167265661Y-110676343D01*
X167327213Y-110865780D01*
X167327215Y-110865783D01*
X167417647Y-111043266D01*
X167534731Y-111204418D01*
X167675582Y-111345269D01*
X167836734Y-111462353D01*
X167906453Y-111497877D01*
X167988172Y-111539515D01*
X168038968Y-111587490D01*
X168055763Y-111655311D01*
X168033225Y-111721446D01*
X167988172Y-111760485D01*
X167836733Y-111837647D01*
X167744790Y-111904447D01*
X167675582Y-111954731D01*
X167675580Y-111954733D01*
X167675579Y-111954733D01*
X167534733Y-112095579D01*
X167534733Y-112095580D01*
X167534731Y-112095582D01*
X167484447Y-112164790D01*
X167417647Y-112256733D01*
X167327213Y-112434219D01*
X167265661Y-112623656D01*
X167265661Y-112623659D01*
X167234500Y-112820403D01*
X167234500Y-113019596D01*
X167265661Y-113216340D01*
X167265661Y-113216343D01*
X167327213Y-113405780D01*
X167327215Y-113405783D01*
X167417647Y-113583266D01*
X167534731Y-113744418D01*
X167675582Y-113885269D01*
X167836734Y-114002353D01*
X167906453Y-114037877D01*
X167988172Y-114079515D01*
X168038968Y-114127490D01*
X168055763Y-114195311D01*
X168033225Y-114261446D01*
X167988172Y-114300485D01*
X167836733Y-114377647D01*
X167798286Y-114405581D01*
X167675582Y-114494731D01*
X167675580Y-114494733D01*
X167675579Y-114494733D01*
X167534733Y-114635579D01*
X167534733Y-114635580D01*
X167534731Y-114635582D01*
X167484447Y-114704790D01*
X167417647Y-114796733D01*
X167327213Y-114974219D01*
X167265661Y-115163656D01*
X167265661Y-115163659D01*
X167234500Y-115360403D01*
X167234500Y-115559596D01*
X167265661Y-115756340D01*
X167265661Y-115756343D01*
X167327213Y-115945780D01*
X167327215Y-115945783D01*
X167417647Y-116123266D01*
X167534731Y-116284418D01*
X167675582Y-116425269D01*
X167836734Y-116542353D01*
X167906453Y-116577877D01*
X167988172Y-116619515D01*
X168038968Y-116667490D01*
X168055763Y-116735311D01*
X168033225Y-116801446D01*
X167988172Y-116840485D01*
X167836733Y-116917647D01*
X167777713Y-116960528D01*
X167675582Y-117034731D01*
X167675580Y-117034733D01*
X167675579Y-117034733D01*
X167534733Y-117175579D01*
X167534733Y-117175580D01*
X167534731Y-117175582D01*
X167484447Y-117244790D01*
X167417647Y-117336733D01*
X167327213Y-117514219D01*
X167265661Y-117703656D01*
X167265661Y-117703659D01*
X167234500Y-117900403D01*
X167234500Y-118099596D01*
X167265661Y-118296340D01*
X167265661Y-118296343D01*
X167327213Y-118485780D01*
X167327215Y-118485783D01*
X167417647Y-118663266D01*
X167534731Y-118824418D01*
X167675582Y-118965269D01*
X167836734Y-119082353D01*
X168014217Y-119172785D01*
X168014219Y-119172786D01*
X168203657Y-119234338D01*
X168203658Y-119234338D01*
X168203661Y-119234339D01*
X168400403Y-119265500D01*
X168400404Y-119265500D01*
X168599596Y-119265500D01*
X168599597Y-119265500D01*
X168796339Y-119234339D01*
X168796342Y-119234338D01*
X168796343Y-119234338D01*
X168985780Y-119172786D01*
X168985780Y-119172785D01*
X168985783Y-119172785D01*
X169163266Y-119082353D01*
X169324418Y-118965269D01*
X169465269Y-118824418D01*
X169582353Y-118663266D01*
X169672785Y-118485783D01*
X169734339Y-118296339D01*
X169765500Y-118099597D01*
X169765500Y-117900403D01*
X169734339Y-117703661D01*
X169734338Y-117703657D01*
X169734338Y-117703656D01*
X169672786Y-117514219D01*
X169589112Y-117350000D01*
X169582353Y-117336734D01*
X169465269Y-117175582D01*
X169324418Y-117034731D01*
X169163266Y-116917647D01*
X169011827Y-116840485D01*
X168961031Y-116792510D01*
X168944236Y-116724689D01*
X168966773Y-116658554D01*
X169011827Y-116619515D01*
X169021116Y-116614781D01*
X169163266Y-116542353D01*
X169324418Y-116425269D01*
X169465269Y-116284418D01*
X169582353Y-116123266D01*
X169672785Y-115945783D01*
X169689704Y-115893713D01*
X173609500Y-115893713D01*
X173609500Y-116106286D01*
X173637713Y-116284420D01*
X173642754Y-116316243D01*
X173707145Y-116514418D01*
X173708444Y-116518414D01*
X173804951Y-116707820D01*
X173929890Y-116879786D01*
X174080213Y-117030109D01*
X174252179Y-117155048D01*
X174252181Y-117155049D01*
X174252184Y-117155051D01*
X174441588Y-117251557D01*
X174643757Y-117317246D01*
X174853713Y-117350500D01*
X174853714Y-117350500D01*
X175066286Y-117350500D01*
X175066287Y-117350500D01*
X175276243Y-117317246D01*
X175478412Y-117251557D01*
X175667816Y-117155051D01*
X175754478Y-117092088D01*
X175839786Y-117030109D01*
X175839788Y-117030106D01*
X175839792Y-117030104D01*
X175990104Y-116879792D01*
X175990106Y-116879788D01*
X175990109Y-116879786D01*
X176115048Y-116707820D01*
X176115047Y-116707820D01*
X176115051Y-116707816D01*
X176119514Y-116699054D01*
X176167488Y-116648259D01*
X176235308Y-116631463D01*
X176301444Y-116653999D01*
X176340486Y-116699056D01*
X176344951Y-116707820D01*
X176469890Y-116879786D01*
X176620213Y-117030109D01*
X176792179Y-117155048D01*
X176792181Y-117155049D01*
X176792184Y-117155051D01*
X176981588Y-117251557D01*
X177183757Y-117317246D01*
X177393713Y-117350500D01*
X177393714Y-117350500D01*
X177606286Y-117350500D01*
X177606287Y-117350500D01*
X177816243Y-117317246D01*
X178018412Y-117251557D01*
X178207816Y-117155051D01*
X178294478Y-117092088D01*
X178379786Y-117030109D01*
X178379788Y-117030106D01*
X178379792Y-117030104D01*
X178530104Y-116879792D01*
X178530106Y-116879788D01*
X178530109Y-116879786D01*
X178655048Y-116707820D01*
X178655047Y-116707820D01*
X178655051Y-116707816D01*
X178659514Y-116699054D01*
X178707488Y-116648259D01*
X178775308Y-116631463D01*
X178841444Y-116653999D01*
X178880486Y-116699056D01*
X178884951Y-116707820D01*
X179009890Y-116879786D01*
X179160213Y-117030109D01*
X179332179Y-117155048D01*
X179332181Y-117155049D01*
X179332184Y-117155051D01*
X179521588Y-117251557D01*
X179723757Y-117317246D01*
X179933713Y-117350500D01*
X179933714Y-117350500D01*
X180146286Y-117350500D01*
X180146287Y-117350500D01*
X180356243Y-117317246D01*
X180558412Y-117251557D01*
X180747816Y-117155051D01*
X180834478Y-117092088D01*
X180919784Y-117030110D01*
X180919784Y-117030109D01*
X180919792Y-117030104D01*
X181033717Y-116916178D01*
X181095036Y-116882696D01*
X181164728Y-116887680D01*
X181220662Y-116929551D01*
X181237577Y-116960528D01*
X181286646Y-117092088D01*
X181286649Y-117092093D01*
X181372809Y-117207187D01*
X181372812Y-117207190D01*
X181487906Y-117293350D01*
X181487913Y-117293354D01*
X181622620Y-117343596D01*
X181622627Y-117343598D01*
X181682155Y-117349999D01*
X181682172Y-117350000D01*
X182330000Y-117350000D01*
X182330000Y-116433012D01*
X182387007Y-116465925D01*
X182514174Y-116500000D01*
X182645826Y-116500000D01*
X182772993Y-116465925D01*
X182830000Y-116433012D01*
X182830000Y-117350000D01*
X183477828Y-117350000D01*
X183477844Y-117349999D01*
X183537372Y-117343598D01*
X183537379Y-117343596D01*
X183672086Y-117293354D01*
X183672093Y-117293350D01*
X183787187Y-117207190D01*
X183787190Y-117207187D01*
X183873350Y-117092093D01*
X183873354Y-117092086D01*
X183923596Y-116957379D01*
X183923598Y-116957372D01*
X183929999Y-116897844D01*
X183930000Y-116897827D01*
X183930000Y-116250000D01*
X183013012Y-116250000D01*
X183045925Y-116192993D01*
X183080000Y-116065826D01*
X183080000Y-115934174D01*
X183045925Y-115807007D01*
X183013012Y-115750000D01*
X183930000Y-115750000D01*
X183930000Y-115102172D01*
X183929999Y-115102155D01*
X183923598Y-115042627D01*
X183923596Y-115042620D01*
X183873354Y-114907913D01*
X183873350Y-114907906D01*
X183787190Y-114792812D01*
X183787187Y-114792809D01*
X183672093Y-114706649D01*
X183672086Y-114706645D01*
X183537379Y-114656403D01*
X183537372Y-114656401D01*
X183477844Y-114650000D01*
X182830000Y-114650000D01*
X182830000Y-115566988D01*
X182772993Y-115534075D01*
X182645826Y-115500000D01*
X182514174Y-115500000D01*
X182387007Y-115534075D01*
X182330000Y-115566988D01*
X182330000Y-114650000D01*
X181682155Y-114650000D01*
X181622627Y-114656401D01*
X181622620Y-114656403D01*
X181487913Y-114706645D01*
X181487906Y-114706649D01*
X181372812Y-114792809D01*
X181372809Y-114792812D01*
X181286649Y-114907906D01*
X181286646Y-114907912D01*
X181237577Y-115039471D01*
X181195705Y-115095404D01*
X181130241Y-115119821D01*
X181061968Y-115104969D01*
X181033714Y-115083818D01*
X180919786Y-114969890D01*
X180747820Y-114844951D01*
X180558414Y-114748444D01*
X180558413Y-114748443D01*
X180558412Y-114748443D01*
X180356243Y-114682754D01*
X180356241Y-114682753D01*
X180356240Y-114682753D01*
X180194957Y-114657208D01*
X180146287Y-114649500D01*
X179933713Y-114649500D01*
X179885042Y-114657208D01*
X179723760Y-114682753D01*
X179521585Y-114748444D01*
X179332179Y-114844951D01*
X179160213Y-114969890D01*
X179009890Y-115120213D01*
X178884949Y-115292182D01*
X178880484Y-115300946D01*
X178832509Y-115351742D01*
X178764688Y-115368536D01*
X178698553Y-115345998D01*
X178659516Y-115300946D01*
X178655050Y-115292182D01*
X178530109Y-115120213D01*
X178379786Y-114969890D01*
X178207820Y-114844951D01*
X178018414Y-114748444D01*
X178018413Y-114748443D01*
X178018412Y-114748443D01*
X177816243Y-114682754D01*
X177816241Y-114682753D01*
X177816240Y-114682753D01*
X177654957Y-114657208D01*
X177606287Y-114649500D01*
X177393713Y-114649500D01*
X177345042Y-114657208D01*
X177183760Y-114682753D01*
X176981585Y-114748444D01*
X176792179Y-114844951D01*
X176620213Y-114969890D01*
X176469890Y-115120213D01*
X176344949Y-115292182D01*
X176340484Y-115300946D01*
X176292509Y-115351742D01*
X176224688Y-115368536D01*
X176158553Y-115345998D01*
X176119516Y-115300946D01*
X176115050Y-115292182D01*
X175990109Y-115120213D01*
X175839786Y-114969890D01*
X175667820Y-114844951D01*
X175478414Y-114748444D01*
X175478413Y-114748443D01*
X175478412Y-114748443D01*
X175276243Y-114682754D01*
X175276241Y-114682753D01*
X175276240Y-114682753D01*
X175114957Y-114657208D01*
X175066287Y-114649500D01*
X174853713Y-114649500D01*
X174805042Y-114657208D01*
X174643760Y-114682753D01*
X174441585Y-114748444D01*
X174252179Y-114844951D01*
X174080213Y-114969890D01*
X173929890Y-115120213D01*
X173804951Y-115292179D01*
X173708444Y-115481585D01*
X173642753Y-115683760D01*
X173609500Y-115893713D01*
X169689704Y-115893713D01*
X169734339Y-115756339D01*
X169765500Y-115559597D01*
X169765500Y-115360403D01*
X169734339Y-115163661D01*
X169734338Y-115163657D01*
X169734338Y-115163656D01*
X169672786Y-114974219D01*
X169638998Y-114907906D01*
X169582353Y-114796734D01*
X169465269Y-114635582D01*
X169324418Y-114494731D01*
X169163266Y-114377647D01*
X169011827Y-114300485D01*
X168961031Y-114252510D01*
X168944236Y-114184689D01*
X168966773Y-114118554D01*
X169011827Y-114079515D01*
X169021116Y-114074781D01*
X169163266Y-114002353D01*
X169324418Y-113885269D01*
X169465269Y-113744418D01*
X169582353Y-113583266D01*
X169672785Y-113405783D01*
X169734339Y-113216339D01*
X169765500Y-113019597D01*
X169765500Y-112820403D01*
X169734339Y-112623661D01*
X169734338Y-112623657D01*
X169734338Y-112623656D01*
X169672786Y-112434219D01*
X169582352Y-112256733D01*
X169465269Y-112095582D01*
X169324418Y-111954731D01*
X169163266Y-111837647D01*
X169011827Y-111760485D01*
X168961031Y-111712510D01*
X168944236Y-111644689D01*
X168966773Y-111578554D01*
X169011827Y-111539515D01*
X169021116Y-111534781D01*
X169163266Y-111462353D01*
X169324418Y-111345269D01*
X169465269Y-111204418D01*
X169582353Y-111043266D01*
X169672785Y-110865783D01*
X169734339Y-110676339D01*
X169765500Y-110479597D01*
X169765500Y-110280403D01*
X169734339Y-110083661D01*
X169734338Y-110083657D01*
X169734338Y-110083656D01*
X169672786Y-109894219D01*
X169582352Y-109716733D01*
X169465269Y-109555582D01*
X169324418Y-109414731D01*
X169163266Y-109297647D01*
X169011827Y-109220485D01*
X168961031Y-109172510D01*
X168944236Y-109104689D01*
X168966773Y-109038554D01*
X169011827Y-108999515D01*
X169021116Y-108994781D01*
X169163266Y-108922353D01*
X169324418Y-108805269D01*
X169465269Y-108664418D01*
X169582353Y-108503266D01*
X169672785Y-108325783D01*
X169734339Y-108136339D01*
X169734755Y-108133713D01*
X173339500Y-108133713D01*
X173339500Y-108346287D01*
X173372754Y-108556243D01*
X173407902Y-108664418D01*
X173438444Y-108758414D01*
X173534951Y-108947820D01*
X173659890Y-109119786D01*
X173810213Y-109270109D01*
X173982179Y-109395048D01*
X173982181Y-109395049D01*
X173982184Y-109395051D01*
X174171588Y-109491557D01*
X174373757Y-109557246D01*
X174583713Y-109590500D01*
X174583714Y-109590500D01*
X174796286Y-109590500D01*
X174796287Y-109590500D01*
X175006243Y-109557246D01*
X175208412Y-109491557D01*
X175397816Y-109395051D01*
X175484478Y-109332088D01*
X175569786Y-109270109D01*
X175569788Y-109270106D01*
X175569792Y-109270104D01*
X175720104Y-109119792D01*
X175720106Y-109119788D01*
X175720109Y-109119786D01*
X175845048Y-108947820D01*
X175845047Y-108947820D01*
X175845051Y-108947816D01*
X175849514Y-108939054D01*
X175897488Y-108888259D01*
X175965308Y-108871463D01*
X176031444Y-108893999D01*
X176070486Y-108939056D01*
X176074951Y-108947820D01*
X176199890Y-109119786D01*
X176350213Y-109270109D01*
X176522179Y-109395048D01*
X176522181Y-109395049D01*
X176522184Y-109395051D01*
X176711588Y-109491557D01*
X176913757Y-109557246D01*
X177123713Y-109590500D01*
X177123714Y-109590500D01*
X177336286Y-109590500D01*
X177336287Y-109590500D01*
X177546243Y-109557246D01*
X177748412Y-109491557D01*
X177937816Y-109395051D01*
X178024478Y-109332088D01*
X178109786Y-109270109D01*
X178109788Y-109270106D01*
X178109792Y-109270104D01*
X178260104Y-109119792D01*
X178260106Y-109119788D01*
X178260109Y-109119786D01*
X178385048Y-108947820D01*
X178385047Y-108947820D01*
X178385051Y-108947816D01*
X178389514Y-108939054D01*
X178437488Y-108888259D01*
X178505308Y-108871463D01*
X178571444Y-108893999D01*
X178610486Y-108939056D01*
X178614951Y-108947820D01*
X178739890Y-109119786D01*
X178890213Y-109270109D01*
X179062179Y-109395048D01*
X179062181Y-109395049D01*
X179062184Y-109395051D01*
X179251588Y-109491557D01*
X179453757Y-109557246D01*
X179663713Y-109590500D01*
X179663714Y-109590500D01*
X179876286Y-109590500D01*
X179876287Y-109590500D01*
X180086243Y-109557246D01*
X180288412Y-109491557D01*
X180477816Y-109395051D01*
X180564478Y-109332088D01*
X180649784Y-109270110D01*
X180649784Y-109270109D01*
X180649792Y-109270104D01*
X180763717Y-109156178D01*
X180825036Y-109122696D01*
X180894728Y-109127680D01*
X180950662Y-109169551D01*
X180967577Y-109200528D01*
X181016646Y-109332088D01*
X181016649Y-109332093D01*
X181102809Y-109447187D01*
X181102812Y-109447190D01*
X181217906Y-109533350D01*
X181217913Y-109533354D01*
X181352620Y-109583596D01*
X181352627Y-109583598D01*
X181412155Y-109589999D01*
X181412172Y-109590000D01*
X182060000Y-109590000D01*
X182060000Y-108673012D01*
X182117007Y-108705925D01*
X182244174Y-108740000D01*
X182375826Y-108740000D01*
X182502993Y-108705925D01*
X182560000Y-108673012D01*
X182560000Y-109590000D01*
X183207828Y-109590000D01*
X183207844Y-109589999D01*
X183267372Y-109583598D01*
X183267379Y-109583596D01*
X183402086Y-109533354D01*
X183402093Y-109533350D01*
X183517187Y-109447190D01*
X183517190Y-109447187D01*
X183603350Y-109332093D01*
X183603354Y-109332086D01*
X183653596Y-109197379D01*
X183653598Y-109197372D01*
X183659999Y-109137844D01*
X183660000Y-109137827D01*
X183660000Y-108490000D01*
X182743012Y-108490000D01*
X182775925Y-108432993D01*
X182810000Y-108305826D01*
X182810000Y-108174174D01*
X182775925Y-108047007D01*
X182743012Y-107990000D01*
X183660000Y-107990000D01*
X183660000Y-107342172D01*
X183659999Y-107342155D01*
X183653598Y-107282627D01*
X183653596Y-107282620D01*
X183603354Y-107147913D01*
X183603350Y-107147906D01*
X183517190Y-107032812D01*
X183517187Y-107032809D01*
X183402093Y-106946649D01*
X183402086Y-106946645D01*
X183267379Y-106896403D01*
X183267372Y-106896401D01*
X183207844Y-106890000D01*
X182560000Y-106890000D01*
X182560000Y-107806988D01*
X182502993Y-107774075D01*
X182375826Y-107740000D01*
X182244174Y-107740000D01*
X182117007Y-107774075D01*
X182060000Y-107806988D01*
X182060000Y-106890000D01*
X181412155Y-106890000D01*
X181352627Y-106896401D01*
X181352620Y-106896403D01*
X181217913Y-106946645D01*
X181217906Y-106946649D01*
X181102812Y-107032809D01*
X181102809Y-107032812D01*
X181016649Y-107147906D01*
X181016646Y-107147912D01*
X180967577Y-107279471D01*
X180925705Y-107335404D01*
X180860241Y-107359821D01*
X180791968Y-107344969D01*
X180763714Y-107323818D01*
X180649786Y-107209890D01*
X180477820Y-107084951D01*
X180288414Y-106988444D01*
X180288413Y-106988443D01*
X180288412Y-106988443D01*
X180086243Y-106922754D01*
X180086241Y-106922753D01*
X180086240Y-106922753D01*
X179924957Y-106897208D01*
X179876287Y-106889500D01*
X179663713Y-106889500D01*
X179615042Y-106897208D01*
X179453760Y-106922753D01*
X179251585Y-106988444D01*
X179062179Y-107084951D01*
X178890213Y-107209890D01*
X178739890Y-107360213D01*
X178614949Y-107532182D01*
X178610484Y-107540946D01*
X178562509Y-107591742D01*
X178494688Y-107608536D01*
X178428553Y-107585998D01*
X178389516Y-107540946D01*
X178385050Y-107532182D01*
X178260109Y-107360213D01*
X178109786Y-107209890D01*
X177937820Y-107084951D01*
X177748414Y-106988444D01*
X177748413Y-106988443D01*
X177748412Y-106988443D01*
X177546243Y-106922754D01*
X177546241Y-106922753D01*
X177546240Y-106922753D01*
X177384957Y-106897208D01*
X177336287Y-106889500D01*
X177123713Y-106889500D01*
X177075042Y-106897208D01*
X176913760Y-106922753D01*
X176711585Y-106988444D01*
X176522179Y-107084951D01*
X176350213Y-107209890D01*
X176199890Y-107360213D01*
X176074949Y-107532182D01*
X176070484Y-107540946D01*
X176022509Y-107591742D01*
X175954688Y-107608536D01*
X175888553Y-107585998D01*
X175849516Y-107540946D01*
X175845050Y-107532182D01*
X175720109Y-107360213D01*
X175569786Y-107209890D01*
X175397820Y-107084951D01*
X175208414Y-106988444D01*
X175208413Y-106988443D01*
X175208412Y-106988443D01*
X175006243Y-106922754D01*
X175006241Y-106922753D01*
X175006240Y-106922753D01*
X174844957Y-106897208D01*
X174796287Y-106889500D01*
X174583713Y-106889500D01*
X174535042Y-106897208D01*
X174373760Y-106922753D01*
X174171585Y-106988444D01*
X173982179Y-107084951D01*
X173810213Y-107209890D01*
X173659890Y-107360213D01*
X173534951Y-107532179D01*
X173438444Y-107721585D01*
X173372753Y-107923760D01*
X173371291Y-107932993D01*
X173339500Y-108133713D01*
X169734755Y-108133713D01*
X169765500Y-107939597D01*
X169765500Y-107740403D01*
X169734339Y-107543661D01*
X169734338Y-107543657D01*
X169734338Y-107543656D01*
X169672786Y-107354219D01*
X169636308Y-107282627D01*
X169582353Y-107176734D01*
X169465269Y-107015582D01*
X169324418Y-106874731D01*
X169163266Y-106757647D01*
X169011827Y-106680485D01*
X168961031Y-106632510D01*
X168944236Y-106564689D01*
X168966773Y-106498554D01*
X169011827Y-106459515D01*
X169021116Y-106454781D01*
X169163266Y-106382353D01*
X169324418Y-106265269D01*
X169465269Y-106124418D01*
X169582353Y-105963266D01*
X169672785Y-105785783D01*
X169734339Y-105596339D01*
X169765500Y-105399597D01*
X169765500Y-105200403D01*
X169734339Y-105003661D01*
X169734338Y-105003657D01*
X169734338Y-105003656D01*
X169672786Y-104814219D01*
X169582352Y-104636733D01*
X169465269Y-104475582D01*
X169324418Y-104334731D01*
X169163266Y-104217647D01*
X169011827Y-104140485D01*
X168961031Y-104092510D01*
X168944236Y-104024689D01*
X168966773Y-103958554D01*
X169011827Y-103919515D01*
X169021116Y-103914781D01*
X169163266Y-103842353D01*
X169324418Y-103725269D01*
X169465269Y-103584418D01*
X169582353Y-103423266D01*
X169672785Y-103245783D01*
X169734339Y-103056339D01*
X169765500Y-102859597D01*
X169765500Y-102660403D01*
X169734339Y-102463661D01*
X169734338Y-102463657D01*
X169734338Y-102463656D01*
X169672786Y-102274219D01*
X169582352Y-102096733D01*
X169465269Y-101935582D01*
X169324418Y-101794731D01*
X169163266Y-101677647D01*
X169011827Y-101600485D01*
X168961031Y-101552510D01*
X168944236Y-101484689D01*
X168966773Y-101418554D01*
X169011827Y-101379515D01*
X169050547Y-101359786D01*
X169163266Y-101302353D01*
X169324418Y-101185269D01*
X169465269Y-101044418D01*
X169582353Y-100883266D01*
X169672785Y-100705783D01*
X169734339Y-100516339D01*
X169756929Y-100373713D01*
X172839500Y-100373713D01*
X172839500Y-100586286D01*
X172872753Y-100796239D01*
X172938444Y-100998414D01*
X173034951Y-101187820D01*
X173159890Y-101359786D01*
X173310213Y-101510109D01*
X173482179Y-101635048D01*
X173482181Y-101635049D01*
X173482184Y-101635051D01*
X173671588Y-101731557D01*
X173873757Y-101797246D01*
X174083713Y-101830500D01*
X174083714Y-101830500D01*
X174296286Y-101830500D01*
X174296287Y-101830500D01*
X174506243Y-101797246D01*
X174708412Y-101731557D01*
X174897816Y-101635051D01*
X174919789Y-101619086D01*
X175069786Y-101510109D01*
X175069788Y-101510106D01*
X175069792Y-101510104D01*
X175220104Y-101359792D01*
X175220106Y-101359788D01*
X175220109Y-101359786D01*
X175345048Y-101187820D01*
X175345047Y-101187820D01*
X175345051Y-101187816D01*
X175349514Y-101179054D01*
X175397488Y-101128259D01*
X175465308Y-101111463D01*
X175531444Y-101133999D01*
X175570486Y-101179056D01*
X175574951Y-101187820D01*
X175699890Y-101359786D01*
X175850213Y-101510109D01*
X176022179Y-101635048D01*
X176022181Y-101635049D01*
X176022184Y-101635051D01*
X176211588Y-101731557D01*
X176413757Y-101797246D01*
X176623713Y-101830500D01*
X176623714Y-101830500D01*
X176836286Y-101830500D01*
X176836287Y-101830500D01*
X177046243Y-101797246D01*
X177248412Y-101731557D01*
X177437816Y-101635051D01*
X177459789Y-101619086D01*
X177609786Y-101510109D01*
X177609788Y-101510106D01*
X177609792Y-101510104D01*
X177760104Y-101359792D01*
X177760106Y-101359788D01*
X177760109Y-101359786D01*
X177885048Y-101187820D01*
X177885047Y-101187820D01*
X177885051Y-101187816D01*
X177889514Y-101179054D01*
X177937488Y-101128259D01*
X178005308Y-101111463D01*
X178071444Y-101133999D01*
X178110486Y-101179056D01*
X178114951Y-101187820D01*
X178239890Y-101359786D01*
X178390213Y-101510109D01*
X178562179Y-101635048D01*
X178562181Y-101635049D01*
X178562184Y-101635051D01*
X178751588Y-101731557D01*
X178953757Y-101797246D01*
X179163713Y-101830500D01*
X179163714Y-101830500D01*
X179376286Y-101830500D01*
X179376287Y-101830500D01*
X179586243Y-101797246D01*
X179788412Y-101731557D01*
X179977816Y-101635051D01*
X180064478Y-101572088D01*
X180149784Y-101510110D01*
X180149784Y-101510109D01*
X180149792Y-101510104D01*
X180263717Y-101396178D01*
X180325036Y-101362696D01*
X180394728Y-101367680D01*
X180450662Y-101409551D01*
X180467577Y-101440528D01*
X180516646Y-101572088D01*
X180516649Y-101572093D01*
X180602809Y-101687187D01*
X180602812Y-101687190D01*
X180717906Y-101773350D01*
X180717913Y-101773354D01*
X180852620Y-101823596D01*
X180852627Y-101823598D01*
X180912155Y-101829999D01*
X180912172Y-101830000D01*
X181560000Y-101830000D01*
X181560000Y-100913012D01*
X181617007Y-100945925D01*
X181744174Y-100980000D01*
X181875826Y-100980000D01*
X182002993Y-100945925D01*
X182060000Y-100913012D01*
X182060000Y-101830000D01*
X182707828Y-101830000D01*
X182707844Y-101829999D01*
X182767372Y-101823598D01*
X182767379Y-101823596D01*
X182902086Y-101773354D01*
X182902093Y-101773350D01*
X183017187Y-101687190D01*
X183017190Y-101687187D01*
X183103350Y-101572093D01*
X183103354Y-101572086D01*
X183153596Y-101437379D01*
X183153598Y-101437372D01*
X183159999Y-101377844D01*
X183160000Y-101377827D01*
X183160000Y-100730000D01*
X182243012Y-100730000D01*
X182275925Y-100672993D01*
X182310000Y-100545826D01*
X182310000Y-100414174D01*
X182275925Y-100287007D01*
X182243012Y-100230000D01*
X183160000Y-100230000D01*
X183160000Y-99582172D01*
X183159999Y-99582155D01*
X183153598Y-99522627D01*
X183153596Y-99522620D01*
X183103354Y-99387913D01*
X183103350Y-99387906D01*
X183017190Y-99272812D01*
X183017187Y-99272809D01*
X182902093Y-99186649D01*
X182902086Y-99186645D01*
X182767379Y-99136403D01*
X182767372Y-99136401D01*
X182707844Y-99130000D01*
X182060000Y-99130000D01*
X182060000Y-100046988D01*
X182002993Y-100014075D01*
X181875826Y-99980000D01*
X181744174Y-99980000D01*
X181617007Y-100014075D01*
X181560000Y-100046988D01*
X181560000Y-99130000D01*
X180912155Y-99130000D01*
X180852627Y-99136401D01*
X180852620Y-99136403D01*
X180717913Y-99186645D01*
X180717906Y-99186649D01*
X180602812Y-99272809D01*
X180602809Y-99272812D01*
X180516649Y-99387906D01*
X180516646Y-99387912D01*
X180467577Y-99519471D01*
X180425705Y-99575404D01*
X180360241Y-99599821D01*
X180291968Y-99584969D01*
X180263714Y-99563818D01*
X180149786Y-99449890D01*
X179977820Y-99324951D01*
X179788414Y-99228444D01*
X179788413Y-99228443D01*
X179788412Y-99228443D01*
X179586243Y-99162754D01*
X179586241Y-99162753D01*
X179586240Y-99162753D01*
X179424957Y-99137208D01*
X179376287Y-99129500D01*
X179163713Y-99129500D01*
X179115042Y-99137208D01*
X178953760Y-99162753D01*
X178751585Y-99228444D01*
X178562179Y-99324951D01*
X178390213Y-99449890D01*
X178239890Y-99600213D01*
X178114949Y-99772182D01*
X178110484Y-99780946D01*
X178062509Y-99831742D01*
X177994688Y-99848536D01*
X177928553Y-99825998D01*
X177889516Y-99780946D01*
X177885050Y-99772182D01*
X177760109Y-99600213D01*
X177609786Y-99449890D01*
X177437820Y-99324951D01*
X177248414Y-99228444D01*
X177248413Y-99228443D01*
X177248412Y-99228443D01*
X177046243Y-99162754D01*
X177046241Y-99162753D01*
X177046240Y-99162753D01*
X176884957Y-99137208D01*
X176836287Y-99129500D01*
X176623713Y-99129500D01*
X176575042Y-99137208D01*
X176413760Y-99162753D01*
X176211585Y-99228444D01*
X176022179Y-99324951D01*
X175850213Y-99449890D01*
X175699890Y-99600213D01*
X175574949Y-99772182D01*
X175570484Y-99780946D01*
X175522509Y-99831742D01*
X175454688Y-99848536D01*
X175388553Y-99825998D01*
X175349516Y-99780946D01*
X175345050Y-99772182D01*
X175220109Y-99600213D01*
X175069786Y-99449890D01*
X174897820Y-99324951D01*
X174708414Y-99228444D01*
X174708413Y-99228443D01*
X174708412Y-99228443D01*
X174506243Y-99162754D01*
X174506241Y-99162753D01*
X174506240Y-99162753D01*
X174344957Y-99137208D01*
X174296287Y-99129500D01*
X174083713Y-99129500D01*
X174035042Y-99137208D01*
X173873760Y-99162753D01*
X173671585Y-99228444D01*
X173482179Y-99324951D01*
X173310213Y-99449890D01*
X173159890Y-99600213D01*
X173034951Y-99772179D01*
X172938444Y-99961585D01*
X172872753Y-100163760D01*
X172839500Y-100373713D01*
X169756929Y-100373713D01*
X169765500Y-100319597D01*
X169765500Y-100120403D01*
X169734339Y-99923661D01*
X169734338Y-99923657D01*
X169734338Y-99923656D01*
X169672786Y-99734219D01*
X169672785Y-99734217D01*
X169582353Y-99556734D01*
X169465269Y-99395582D01*
X169324418Y-99254731D01*
X169163266Y-99137647D01*
X169011827Y-99060485D01*
X168961031Y-99012510D01*
X168944236Y-98944689D01*
X168966773Y-98878554D01*
X169011827Y-98839515D01*
X169021116Y-98834781D01*
X169163266Y-98762353D01*
X169324418Y-98645269D01*
X169465269Y-98504418D01*
X169582353Y-98343266D01*
X169672785Y-98165783D01*
X169734339Y-97976339D01*
X169765500Y-97779597D01*
X169765500Y-97580403D01*
X169734339Y-97383661D01*
X169734338Y-97383657D01*
X169734338Y-97383656D01*
X169672786Y-97194219D01*
X169582352Y-97016733D01*
X169465269Y-96855582D01*
X169324418Y-96714731D01*
X169163266Y-96597647D01*
X169011827Y-96520485D01*
X168961031Y-96472510D01*
X168944236Y-96404689D01*
X168966773Y-96338554D01*
X169011827Y-96299515D01*
X169021116Y-96294781D01*
X169163266Y-96222353D01*
X169324418Y-96105269D01*
X169465269Y-95964418D01*
X169582353Y-95803266D01*
X169672785Y-95625783D01*
X169734339Y-95436339D01*
X169765500Y-95239597D01*
X169765500Y-95040403D01*
X169734339Y-94843661D01*
X169734338Y-94843657D01*
X169734338Y-94843656D01*
X169672786Y-94654219D01*
X169582352Y-94476733D01*
X169465269Y-94315582D01*
X169324418Y-94174731D01*
X169163266Y-94057647D01*
X169011827Y-93980485D01*
X168961031Y-93932510D01*
X168944236Y-93864689D01*
X168966773Y-93798554D01*
X169011827Y-93759515D01*
X169030297Y-93750104D01*
X169163266Y-93682353D01*
X169324418Y-93565269D01*
X169465269Y-93424418D01*
X169582353Y-93263266D01*
X169672785Y-93085783D01*
X169672786Y-93085780D01*
X169734338Y-92896343D01*
X169734338Y-92896342D01*
X169734339Y-92896339D01*
X169765500Y-92699597D01*
X169765500Y-92613713D01*
X173339500Y-92613713D01*
X173339500Y-92826286D01*
X173372753Y-93036239D01*
X173438444Y-93238414D01*
X173534951Y-93427820D01*
X173659890Y-93599786D01*
X173810213Y-93750109D01*
X173982179Y-93875048D01*
X173982181Y-93875049D01*
X173982184Y-93875051D01*
X174171588Y-93971557D01*
X174373757Y-94037246D01*
X174583713Y-94070500D01*
X174583714Y-94070500D01*
X174796286Y-94070500D01*
X174796287Y-94070500D01*
X175006243Y-94037246D01*
X175208412Y-93971557D01*
X175397816Y-93875051D01*
X175484478Y-93812088D01*
X175569786Y-93750109D01*
X175569788Y-93750106D01*
X175569792Y-93750104D01*
X175720104Y-93599792D01*
X175720106Y-93599788D01*
X175720109Y-93599786D01*
X175845048Y-93427820D01*
X175845047Y-93427820D01*
X175845051Y-93427816D01*
X175849514Y-93419054D01*
X175897488Y-93368259D01*
X175965308Y-93351463D01*
X176031444Y-93373999D01*
X176070486Y-93419056D01*
X176074951Y-93427820D01*
X176199890Y-93599786D01*
X176350213Y-93750109D01*
X176522179Y-93875048D01*
X176522181Y-93875049D01*
X176522184Y-93875051D01*
X176711588Y-93971557D01*
X176913757Y-94037246D01*
X177123713Y-94070500D01*
X177123714Y-94070500D01*
X177336286Y-94070500D01*
X177336287Y-94070500D01*
X177546243Y-94037246D01*
X177748412Y-93971557D01*
X177937816Y-93875051D01*
X178024478Y-93812088D01*
X178109786Y-93750109D01*
X178109788Y-93750106D01*
X178109792Y-93750104D01*
X178260104Y-93599792D01*
X178260106Y-93599788D01*
X178260109Y-93599786D01*
X178385048Y-93427820D01*
X178385047Y-93427820D01*
X178385051Y-93427816D01*
X178389514Y-93419054D01*
X178437488Y-93368259D01*
X178505308Y-93351463D01*
X178571444Y-93373999D01*
X178610486Y-93419056D01*
X178614951Y-93427820D01*
X178739890Y-93599786D01*
X178890213Y-93750109D01*
X179062179Y-93875048D01*
X179062181Y-93875049D01*
X179062184Y-93875051D01*
X179251588Y-93971557D01*
X179453757Y-94037246D01*
X179663713Y-94070500D01*
X179663714Y-94070500D01*
X179876286Y-94070500D01*
X179876287Y-94070500D01*
X180086243Y-94037246D01*
X180288412Y-93971557D01*
X180477816Y-93875051D01*
X180564478Y-93812088D01*
X180649784Y-93750110D01*
X180649784Y-93750109D01*
X180649792Y-93750104D01*
X180763717Y-93636178D01*
X180825036Y-93602696D01*
X180894728Y-93607680D01*
X180950662Y-93649551D01*
X180967577Y-93680528D01*
X181016646Y-93812088D01*
X181016649Y-93812093D01*
X181102809Y-93927187D01*
X181102812Y-93927190D01*
X181217906Y-94013350D01*
X181217913Y-94013354D01*
X181352620Y-94063596D01*
X181352627Y-94063598D01*
X181412155Y-94069999D01*
X181412172Y-94070000D01*
X182060000Y-94070000D01*
X182060000Y-93153012D01*
X182117007Y-93185925D01*
X182244174Y-93220000D01*
X182375826Y-93220000D01*
X182502993Y-93185925D01*
X182560000Y-93153012D01*
X182560000Y-94070000D01*
X183207828Y-94070000D01*
X183207844Y-94069999D01*
X183267372Y-94063598D01*
X183267379Y-94063596D01*
X183402086Y-94013354D01*
X183402093Y-94013350D01*
X183517187Y-93927190D01*
X183517190Y-93927187D01*
X183603350Y-93812093D01*
X183603354Y-93812086D01*
X183653596Y-93677379D01*
X183653598Y-93677372D01*
X183659999Y-93617844D01*
X183660000Y-93617827D01*
X183660000Y-92970000D01*
X182743012Y-92970000D01*
X182775925Y-92912993D01*
X182810000Y-92785826D01*
X182810000Y-92654174D01*
X182775925Y-92527007D01*
X182743012Y-92470000D01*
X183660000Y-92470000D01*
X183660000Y-91822172D01*
X183659999Y-91822155D01*
X183653598Y-91762627D01*
X183653596Y-91762620D01*
X183603354Y-91627913D01*
X183603350Y-91627906D01*
X183517190Y-91512812D01*
X183517187Y-91512809D01*
X183402093Y-91426649D01*
X183402086Y-91426645D01*
X183267379Y-91376403D01*
X183267372Y-91376401D01*
X183207844Y-91370000D01*
X182560000Y-91370000D01*
X182560000Y-92286988D01*
X182502993Y-92254075D01*
X182375826Y-92220000D01*
X182244174Y-92220000D01*
X182117007Y-92254075D01*
X182060000Y-92286988D01*
X182060000Y-91370000D01*
X181412155Y-91370000D01*
X181352627Y-91376401D01*
X181352620Y-91376403D01*
X181217913Y-91426645D01*
X181217906Y-91426649D01*
X181102812Y-91512809D01*
X181102809Y-91512812D01*
X181016649Y-91627906D01*
X181016646Y-91627912D01*
X180967577Y-91759471D01*
X180925705Y-91815404D01*
X180860241Y-91839821D01*
X180791968Y-91824969D01*
X180763714Y-91803818D01*
X180649786Y-91689890D01*
X180477820Y-91564951D01*
X180288414Y-91468444D01*
X180288413Y-91468443D01*
X180288412Y-91468443D01*
X180086243Y-91402754D01*
X180086241Y-91402753D01*
X180086240Y-91402753D01*
X179924957Y-91377208D01*
X179876287Y-91369500D01*
X179663713Y-91369500D01*
X179615042Y-91377208D01*
X179453760Y-91402753D01*
X179251585Y-91468444D01*
X179062179Y-91564951D01*
X178890213Y-91689890D01*
X178739890Y-91840213D01*
X178614949Y-92012182D01*
X178610484Y-92020946D01*
X178562509Y-92071742D01*
X178494688Y-92088536D01*
X178428553Y-92065998D01*
X178389516Y-92020946D01*
X178385050Y-92012182D01*
X178260109Y-91840213D01*
X178109786Y-91689890D01*
X177937820Y-91564951D01*
X177748414Y-91468444D01*
X177748413Y-91468443D01*
X177748412Y-91468443D01*
X177546243Y-91402754D01*
X177546241Y-91402753D01*
X177546240Y-91402753D01*
X177384957Y-91377208D01*
X177336287Y-91369500D01*
X177123713Y-91369500D01*
X177075042Y-91377208D01*
X176913760Y-91402753D01*
X176711585Y-91468444D01*
X176522179Y-91564951D01*
X176350213Y-91689890D01*
X176199890Y-91840213D01*
X176074949Y-92012182D01*
X176070484Y-92020946D01*
X176022509Y-92071742D01*
X175954688Y-92088536D01*
X175888553Y-92065998D01*
X175849516Y-92020946D01*
X175845050Y-92012182D01*
X175720109Y-91840213D01*
X175569786Y-91689890D01*
X175397820Y-91564951D01*
X175208414Y-91468444D01*
X175208413Y-91468443D01*
X175208412Y-91468443D01*
X175006243Y-91402754D01*
X175006241Y-91402753D01*
X175006240Y-91402753D01*
X174844957Y-91377208D01*
X174796287Y-91369500D01*
X174583713Y-91369500D01*
X174535042Y-91377208D01*
X174373760Y-91402753D01*
X174171585Y-91468444D01*
X173982179Y-91564951D01*
X173810213Y-91689890D01*
X173659890Y-91840213D01*
X173534951Y-92012179D01*
X173438444Y-92201585D01*
X173372753Y-92403760D01*
X173339500Y-92613713D01*
X169765500Y-92613713D01*
X169765500Y-92500403D01*
X169734339Y-92303661D01*
X169734338Y-92303657D01*
X169734338Y-92303656D01*
X169672786Y-92114219D01*
X169625261Y-92020946D01*
X169582353Y-91936734D01*
X169465269Y-91775582D01*
X169324418Y-91634731D01*
X169163266Y-91517647D01*
X169011827Y-91440485D01*
X168961031Y-91392510D01*
X168944236Y-91324689D01*
X168966773Y-91258554D01*
X169011827Y-91219515D01*
X169021116Y-91214781D01*
X169163266Y-91142353D01*
X169324418Y-91025269D01*
X169465269Y-90884418D01*
X169582353Y-90723266D01*
X169672785Y-90545783D01*
X169734339Y-90356339D01*
X169765500Y-90159597D01*
X169765500Y-89960403D01*
X169734339Y-89763661D01*
X169734338Y-89763657D01*
X169734338Y-89763656D01*
X169672786Y-89574219D01*
X169582352Y-89396733D01*
X169465269Y-89235582D01*
X169324418Y-89094731D01*
X169163266Y-88977647D01*
X169011827Y-88900485D01*
X168961031Y-88852510D01*
X168944236Y-88784689D01*
X168966773Y-88718554D01*
X169011827Y-88679515D01*
X169021116Y-88674781D01*
X169163266Y-88602353D01*
X169324418Y-88485269D01*
X169465269Y-88344418D01*
X169582353Y-88183266D01*
X169672785Y-88005783D01*
X169734339Y-87816339D01*
X169765500Y-87619597D01*
X169765500Y-87420403D01*
X169734339Y-87223661D01*
X169734338Y-87223657D01*
X169734338Y-87223656D01*
X169672786Y-87034219D01*
X169582352Y-86856733D01*
X169465269Y-86695582D01*
X169324418Y-86554731D01*
X169163266Y-86437647D01*
X169011827Y-86360485D01*
X168961031Y-86312510D01*
X168944236Y-86244689D01*
X168966773Y-86178554D01*
X169011827Y-86139515D01*
X169059846Y-86115048D01*
X169163266Y-86062353D01*
X169324418Y-85945269D01*
X169465269Y-85804418D01*
X169582353Y-85643266D01*
X169672785Y-85465783D01*
X169734339Y-85276339D01*
X169765500Y-85079597D01*
X169765500Y-84880403D01*
X169761273Y-84853713D01*
X172839500Y-84853713D01*
X172839500Y-85066287D01*
X172872754Y-85276243D01*
X172872786Y-85276343D01*
X172938444Y-85478414D01*
X173034951Y-85667820D01*
X173159890Y-85839786D01*
X173310213Y-85990109D01*
X173482179Y-86115048D01*
X173482181Y-86115049D01*
X173482184Y-86115051D01*
X173671588Y-86211557D01*
X173873757Y-86277246D01*
X174083713Y-86310500D01*
X174083714Y-86310500D01*
X174296286Y-86310500D01*
X174296287Y-86310500D01*
X174506243Y-86277246D01*
X174708412Y-86211557D01*
X174897816Y-86115051D01*
X174970349Y-86062353D01*
X175069786Y-85990109D01*
X175069788Y-85990106D01*
X175069792Y-85990104D01*
X175220104Y-85839792D01*
X175220106Y-85839788D01*
X175220109Y-85839786D01*
X175345048Y-85667820D01*
X175345047Y-85667820D01*
X175345051Y-85667816D01*
X175349514Y-85659054D01*
X175397488Y-85608259D01*
X175465308Y-85591463D01*
X175531444Y-85613999D01*
X175570486Y-85659056D01*
X175574951Y-85667820D01*
X175699890Y-85839786D01*
X175850213Y-85990109D01*
X176022179Y-86115048D01*
X176022181Y-86115049D01*
X176022184Y-86115051D01*
X176211588Y-86211557D01*
X176413757Y-86277246D01*
X176623713Y-86310500D01*
X176623714Y-86310500D01*
X176836286Y-86310500D01*
X176836287Y-86310500D01*
X177046243Y-86277246D01*
X177248412Y-86211557D01*
X177437816Y-86115051D01*
X177510349Y-86062353D01*
X177609786Y-85990109D01*
X177609788Y-85990106D01*
X177609792Y-85990104D01*
X177760104Y-85839792D01*
X177760106Y-85839788D01*
X177760109Y-85839786D01*
X177885048Y-85667820D01*
X177885047Y-85667820D01*
X177885051Y-85667816D01*
X177889514Y-85659054D01*
X177937488Y-85608259D01*
X178005308Y-85591463D01*
X178071444Y-85613999D01*
X178110486Y-85659056D01*
X178114951Y-85667820D01*
X178239890Y-85839786D01*
X178390213Y-85990109D01*
X178562179Y-86115048D01*
X178562181Y-86115049D01*
X178562184Y-86115051D01*
X178751588Y-86211557D01*
X178953757Y-86277246D01*
X179163713Y-86310500D01*
X179163714Y-86310500D01*
X179376286Y-86310500D01*
X179376287Y-86310500D01*
X179586243Y-86277246D01*
X179788412Y-86211557D01*
X179977816Y-86115051D01*
X180064478Y-86052088D01*
X180149784Y-85990110D01*
X180149784Y-85990109D01*
X180149792Y-85990104D01*
X180263717Y-85876178D01*
X180325036Y-85842696D01*
X180394728Y-85847680D01*
X180450662Y-85889551D01*
X180467577Y-85920528D01*
X180516646Y-86052088D01*
X180516649Y-86052093D01*
X180602809Y-86167187D01*
X180602812Y-86167190D01*
X180717906Y-86253350D01*
X180717913Y-86253354D01*
X180852620Y-86303596D01*
X180852627Y-86303598D01*
X180912155Y-86309999D01*
X180912172Y-86310000D01*
X181560000Y-86310000D01*
X181560000Y-85393012D01*
X181617007Y-85425925D01*
X181744174Y-85460000D01*
X181875826Y-85460000D01*
X182002993Y-85425925D01*
X182060000Y-85393012D01*
X182060000Y-86310000D01*
X182707828Y-86310000D01*
X182707844Y-86309999D01*
X182767372Y-86303598D01*
X182767379Y-86303596D01*
X182902086Y-86253354D01*
X182902093Y-86253350D01*
X183017187Y-86167190D01*
X183017190Y-86167187D01*
X183103350Y-86052093D01*
X183103354Y-86052086D01*
X183153596Y-85917379D01*
X183153598Y-85917372D01*
X183159999Y-85857844D01*
X183160000Y-85857827D01*
X183160000Y-85210000D01*
X182243012Y-85210000D01*
X182275925Y-85152993D01*
X182310000Y-85025826D01*
X182310000Y-84894174D01*
X182275925Y-84767007D01*
X182243012Y-84710000D01*
X183160000Y-84710000D01*
X183160000Y-84062172D01*
X183159999Y-84062155D01*
X183153598Y-84002627D01*
X183153596Y-84002620D01*
X183103354Y-83867913D01*
X183103350Y-83867906D01*
X183017190Y-83752812D01*
X183017187Y-83752809D01*
X182902093Y-83666649D01*
X182902086Y-83666645D01*
X182767379Y-83616403D01*
X182767372Y-83616401D01*
X182707844Y-83610000D01*
X182060000Y-83610000D01*
X182060000Y-84526988D01*
X182002993Y-84494075D01*
X181875826Y-84460000D01*
X181744174Y-84460000D01*
X181617007Y-84494075D01*
X181560000Y-84526988D01*
X181560000Y-83610000D01*
X180912155Y-83610000D01*
X180852627Y-83616401D01*
X180852620Y-83616403D01*
X180717913Y-83666645D01*
X180717906Y-83666649D01*
X180602812Y-83752809D01*
X180602809Y-83752812D01*
X180516649Y-83867906D01*
X180516646Y-83867912D01*
X180467577Y-83999471D01*
X180425705Y-84055404D01*
X180360241Y-84079821D01*
X180291968Y-84064969D01*
X180263714Y-84043818D01*
X180149786Y-83929890D01*
X179977820Y-83804951D01*
X179788414Y-83708444D01*
X179788413Y-83708443D01*
X179788412Y-83708443D01*
X179586243Y-83642754D01*
X179586241Y-83642753D01*
X179586240Y-83642753D01*
X179424957Y-83617208D01*
X179376287Y-83609500D01*
X179163713Y-83609500D01*
X179115042Y-83617208D01*
X178953760Y-83642753D01*
X178751585Y-83708444D01*
X178562179Y-83804951D01*
X178390213Y-83929890D01*
X178239890Y-84080213D01*
X178114949Y-84252182D01*
X178110484Y-84260946D01*
X178062509Y-84311742D01*
X177994688Y-84328536D01*
X177928553Y-84305998D01*
X177889516Y-84260946D01*
X177885050Y-84252182D01*
X177760109Y-84080213D01*
X177609786Y-83929890D01*
X177437820Y-83804951D01*
X177248414Y-83708444D01*
X177248413Y-83708443D01*
X177248412Y-83708443D01*
X177046243Y-83642754D01*
X177046241Y-83642753D01*
X177046240Y-83642753D01*
X176884957Y-83617208D01*
X176836287Y-83609500D01*
X176623713Y-83609500D01*
X176575042Y-83617208D01*
X176413760Y-83642753D01*
X176211585Y-83708444D01*
X176022179Y-83804951D01*
X175850213Y-83929890D01*
X175699890Y-84080213D01*
X175574949Y-84252182D01*
X175570484Y-84260946D01*
X175522509Y-84311742D01*
X175454688Y-84328536D01*
X175388553Y-84305998D01*
X175349516Y-84260946D01*
X175345050Y-84252182D01*
X175220109Y-84080213D01*
X175069786Y-83929890D01*
X174897820Y-83804951D01*
X174708414Y-83708444D01*
X174708413Y-83708443D01*
X174708412Y-83708443D01*
X174506243Y-83642754D01*
X174506241Y-83642753D01*
X174506240Y-83642753D01*
X174344957Y-83617208D01*
X174296287Y-83609500D01*
X174083713Y-83609500D01*
X174035042Y-83617208D01*
X173873760Y-83642753D01*
X173671585Y-83708444D01*
X173482179Y-83804951D01*
X173310213Y-83929890D01*
X173159890Y-84080213D01*
X173034951Y-84252179D01*
X172938444Y-84441585D01*
X172872753Y-84643760D01*
X172862262Y-84710000D01*
X172839500Y-84853713D01*
X169761273Y-84853713D01*
X169734339Y-84683661D01*
X169734338Y-84683657D01*
X169734338Y-84683656D01*
X169672786Y-84494219D01*
X169672713Y-84494075D01*
X169582353Y-84316734D01*
X169465269Y-84155582D01*
X169324418Y-84014731D01*
X169163266Y-83897647D01*
X169011827Y-83820485D01*
X168961031Y-83772510D01*
X168944236Y-83704689D01*
X168966773Y-83638554D01*
X169011827Y-83599515D01*
X169021116Y-83594781D01*
X169163266Y-83522353D01*
X169324418Y-83405269D01*
X169465269Y-83264418D01*
X169582353Y-83103266D01*
X169672785Y-82925783D01*
X169734339Y-82736339D01*
X169765500Y-82539597D01*
X169765500Y-82340403D01*
X169734339Y-82143661D01*
X169734338Y-82143657D01*
X169734338Y-82143656D01*
X169672786Y-81954219D01*
X169582352Y-81776733D01*
X169465269Y-81615582D01*
X169324418Y-81474731D01*
X169163266Y-81357647D01*
X169011827Y-81280485D01*
X168961031Y-81232510D01*
X168944236Y-81164689D01*
X168966773Y-81098554D01*
X169011827Y-81059515D01*
X169021116Y-81054781D01*
X169163266Y-80982353D01*
X169324418Y-80865269D01*
X169465269Y-80724418D01*
X169582353Y-80563266D01*
X169672785Y-80385783D01*
X169734339Y-80196339D01*
X169765500Y-79999597D01*
X169765500Y-79800403D01*
X169734339Y-79603661D01*
X169734338Y-79603657D01*
X169734338Y-79603656D01*
X169672786Y-79414219D01*
X169582352Y-79236733D01*
X169465269Y-79075582D01*
X169324418Y-78934731D01*
X169163266Y-78817647D01*
X169011827Y-78740485D01*
X168961031Y-78692510D01*
X168944236Y-78624689D01*
X168966773Y-78558554D01*
X169011827Y-78519515D01*
X169021116Y-78514781D01*
X169163266Y-78442353D01*
X169324418Y-78325269D01*
X169465269Y-78184418D01*
X169582353Y-78023266D01*
X169672785Y-77845783D01*
X169734339Y-77656339D01*
X169765500Y-77459597D01*
X169765500Y-77260403D01*
X169734339Y-77063661D01*
X169734338Y-77063657D01*
X169734338Y-77063656D01*
X169672786Y-76874219D01*
X169582352Y-76696733D01*
X169465269Y-76535582D01*
X169324418Y-76394731D01*
X169163266Y-76277647D01*
X169011827Y-76200485D01*
X168961031Y-76152510D01*
X168944236Y-76084689D01*
X168966773Y-76018554D01*
X169011827Y-75979515D01*
X169021116Y-75974781D01*
X169163266Y-75902353D01*
X169324418Y-75785269D01*
X169465269Y-75644418D01*
X169582353Y-75483266D01*
X169672785Y-75305783D01*
X169734339Y-75116339D01*
X169765500Y-74919597D01*
X169765500Y-74720403D01*
X169734339Y-74523661D01*
X169734338Y-74523657D01*
X169734338Y-74523656D01*
X169672786Y-74334219D01*
X169582352Y-74156733D01*
X169465269Y-73995582D01*
X169324418Y-73854731D01*
X169163266Y-73737647D01*
X169011827Y-73660485D01*
X168961031Y-73612510D01*
X168944236Y-73544689D01*
X168966773Y-73478554D01*
X169011827Y-73439515D01*
X169021116Y-73434781D01*
X169163266Y-73362353D01*
X169324418Y-73245269D01*
X169465269Y-73104418D01*
X169582353Y-72943266D01*
X169672785Y-72765783D01*
X169718422Y-72625328D01*
X169734338Y-72576343D01*
X169734338Y-72576342D01*
X169734339Y-72576339D01*
X169765500Y-72379597D01*
X169765500Y-72180403D01*
X169734339Y-71983661D01*
X169734338Y-71983657D01*
X169734338Y-71983656D01*
X169672785Y-71794217D01*
X169672786Y-71794217D01*
X169656247Y-71761759D01*
X169656246Y-71761758D01*
X169629627Y-71709514D01*
X174165000Y-71709514D01*
X174165000Y-71945485D01*
X174195799Y-72179414D01*
X174256870Y-72407337D01*
X174347160Y-72625319D01*
X174347165Y-72625328D01*
X174465144Y-72829671D01*
X174465145Y-72829672D01*
X174527721Y-72911223D01*
X175363958Y-72074987D01*
X175388978Y-72135390D01*
X175460112Y-72241851D01*
X175550649Y-72332388D01*
X175657110Y-72403522D01*
X175717511Y-72428541D01*
X174881275Y-73264777D01*
X174962827Y-73327354D01*
X174962828Y-73327355D01*
X175167171Y-73445334D01*
X175167180Y-73445339D01*
X175385163Y-73535629D01*
X175385161Y-73535629D01*
X175613085Y-73596700D01*
X175847014Y-73627499D01*
X175847029Y-73627500D01*
X176082971Y-73627500D01*
X176082985Y-73627499D01*
X176316914Y-73596700D01*
X176544837Y-73535629D01*
X176762819Y-73445339D01*
X176762828Y-73445334D01*
X176967181Y-73327350D01*
X177048723Y-73264779D01*
X177048723Y-73264776D01*
X176212487Y-72428541D01*
X176272890Y-72403522D01*
X176379351Y-72332388D01*
X176469888Y-72241851D01*
X176541022Y-72135390D01*
X176566041Y-72074988D01*
X177402276Y-72911223D01*
X177402279Y-72911223D01*
X177464850Y-72829681D01*
X177582834Y-72625328D01*
X177582839Y-72625319D01*
X177673129Y-72407337D01*
X177734200Y-72179414D01*
X177764999Y-71945485D01*
X177765000Y-71945471D01*
X177765000Y-71709528D01*
X177764999Y-71709514D01*
X177734200Y-71475585D01*
X177673129Y-71247662D01*
X177582839Y-71029680D01*
X177582834Y-71029671D01*
X177464855Y-70825328D01*
X177464848Y-70825317D01*
X177445286Y-70799824D01*
X177445283Y-70799821D01*
X177402277Y-70743775D01*
X176566041Y-71580011D01*
X176541022Y-71519610D01*
X176469888Y-71413149D01*
X176379351Y-71322612D01*
X176272890Y-71251478D01*
X176212488Y-71226458D01*
X176711462Y-70727483D01*
X179244500Y-70727483D01*
X179244500Y-72927501D01*
X179244501Y-72927518D01*
X179255000Y-73030296D01*
X179255001Y-73030299D01*
X179310185Y-73196831D01*
X179310186Y-73196834D01*
X179402288Y-73346156D01*
X179526344Y-73470212D01*
X179675666Y-73562314D01*
X179842203Y-73617499D01*
X179944991Y-73628000D01*
X182145008Y-73627999D01*
X182247797Y-73617499D01*
X182414334Y-73562314D01*
X182563656Y-73470212D01*
X182687712Y-73346156D01*
X182779814Y-73196834D01*
X182834999Y-73030297D01*
X182845500Y-72927509D01*
X182845499Y-70727492D01*
X182834999Y-70624703D01*
X182779814Y-70458166D01*
X182687712Y-70308844D01*
X182563656Y-70184788D01*
X182414334Y-70092686D01*
X182247797Y-70037501D01*
X182247795Y-70037500D01*
X182145010Y-70027000D01*
X179944998Y-70027000D01*
X179944981Y-70027001D01*
X179842203Y-70037500D01*
X179842200Y-70037501D01*
X179675668Y-70092685D01*
X179675663Y-70092687D01*
X179526342Y-70184789D01*
X179402289Y-70308842D01*
X179310187Y-70458163D01*
X179310186Y-70458166D01*
X179255001Y-70624703D01*
X179255001Y-70624704D01*
X179255000Y-70624704D01*
X179244500Y-70727483D01*
X176711462Y-70727483D01*
X177048723Y-70390221D01*
X176967172Y-70327645D01*
X176967171Y-70327644D01*
X176762828Y-70209665D01*
X176762819Y-70209660D01*
X176544836Y-70119370D01*
X176544838Y-70119370D01*
X176316914Y-70058299D01*
X176082985Y-70027500D01*
X175847014Y-70027500D01*
X175613085Y-70058299D01*
X175385162Y-70119370D01*
X175167180Y-70209660D01*
X175167171Y-70209665D01*
X174962828Y-70327644D01*
X174962818Y-70327650D01*
X174881275Y-70390220D01*
X174881275Y-70390221D01*
X175717512Y-71226458D01*
X175657110Y-71251478D01*
X175550649Y-71322612D01*
X175460112Y-71413149D01*
X175388978Y-71519610D01*
X175363958Y-71580012D01*
X174527721Y-70743775D01*
X174527720Y-70743775D01*
X174465150Y-70825318D01*
X174465144Y-70825328D01*
X174347165Y-71029671D01*
X174347160Y-71029680D01*
X174256870Y-71247662D01*
X174195799Y-71475585D01*
X174165000Y-71709514D01*
X169629627Y-71709514D01*
X169582353Y-71616734D01*
X169465269Y-71455582D01*
X169324418Y-71314731D01*
X169163266Y-71197647D01*
X169011827Y-71120485D01*
X168961031Y-71072510D01*
X168944236Y-71004689D01*
X168966773Y-70938554D01*
X169011827Y-70899515D01*
X169021116Y-70894781D01*
X169163266Y-70822353D01*
X169324418Y-70705269D01*
X169465269Y-70564418D01*
X169582353Y-70403266D01*
X169672785Y-70225783D01*
X169707361Y-70119370D01*
X169734338Y-70036343D01*
X169734338Y-70036342D01*
X169734339Y-70036339D01*
X169765500Y-69839597D01*
X169765500Y-69640403D01*
X169734339Y-69443661D01*
X169734338Y-69443657D01*
X169734338Y-69443656D01*
X169672786Y-69254219D01*
X169582352Y-69076733D01*
X169465269Y-68915582D01*
X169324418Y-68774731D01*
X169163266Y-68657647D01*
X169011827Y-68580485D01*
X168961031Y-68532510D01*
X168944236Y-68464689D01*
X168966773Y-68398554D01*
X169011827Y-68359515D01*
X169021116Y-68354781D01*
X169163266Y-68282353D01*
X169324418Y-68165269D01*
X169465269Y-68024418D01*
X169582353Y-67863266D01*
X169672785Y-67685783D01*
X169734339Y-67496339D01*
X169765500Y-67299597D01*
X169765500Y-67100403D01*
X169734339Y-66903661D01*
X169734338Y-66903657D01*
X169734338Y-66903656D01*
X169672786Y-66714219D01*
X169582352Y-66536733D01*
X169465269Y-66375582D01*
X169324418Y-66234731D01*
X169163266Y-66117647D01*
X169011827Y-66040485D01*
X168961031Y-65992510D01*
X168944236Y-65924689D01*
X168966773Y-65858554D01*
X169011827Y-65819515D01*
X169021116Y-65814781D01*
X169163266Y-65742353D01*
X169324418Y-65625269D01*
X169465269Y-65484418D01*
X169582353Y-65323266D01*
X169672785Y-65145783D01*
X169734339Y-64956339D01*
X169765500Y-64759597D01*
X169765500Y-64560403D01*
X169734339Y-64363661D01*
X169734338Y-64363657D01*
X169734338Y-64363656D01*
X169672786Y-64174219D01*
X169582352Y-63996733D01*
X169465269Y-63835582D01*
X169324418Y-63694731D01*
X169163266Y-63577647D01*
X169084379Y-63537452D01*
X168985780Y-63487213D01*
X168796342Y-63425661D01*
X168648782Y-63402290D01*
X168599597Y-63394500D01*
X168400403Y-63394500D01*
X168334822Y-63404887D01*
X168203659Y-63425661D01*
X168203656Y-63425661D01*
X168014219Y-63487213D01*
X167836733Y-63577647D01*
X167744790Y-63644447D01*
X167675582Y-63694731D01*
X167675580Y-63694733D01*
X167675579Y-63694733D01*
X167534733Y-63835579D01*
X167534733Y-63835580D01*
X167534731Y-63835582D01*
X167484447Y-63904790D01*
X167417647Y-63996733D01*
X167327213Y-64174219D01*
X167265661Y-64363656D01*
X167265661Y-64363659D01*
X167234500Y-64560403D01*
X146905499Y-64560403D01*
X146905499Y-63847128D01*
X146899091Y-63787517D01*
X146848796Y-63652669D01*
X146848795Y-63652668D01*
X146848793Y-63652664D01*
X146762547Y-63537455D01*
X146762544Y-63537452D01*
X146647335Y-63451206D01*
X146647328Y-63451202D01*
X146512482Y-63400908D01*
X146512483Y-63400908D01*
X146452883Y-63394501D01*
X146452881Y-63394500D01*
X146452873Y-63394500D01*
X146452864Y-63394500D01*
X144827129Y-63394500D01*
X144827123Y-63394501D01*
X144767516Y-63400908D01*
X144632671Y-63451202D01*
X144632664Y-63451206D01*
X144517455Y-63537452D01*
X144517452Y-63537455D01*
X144431206Y-63652664D01*
X144431202Y-63652671D01*
X144380908Y-63787517D01*
X144375741Y-63835580D01*
X144374501Y-63847123D01*
X144374500Y-63847135D01*
X137000500Y-63847135D01*
X137000500Y-59378711D01*
X138149500Y-59378711D01*
X138149500Y-59621288D01*
X138181161Y-59861785D01*
X138243947Y-60096104D01*
X138336773Y-60320205D01*
X138336776Y-60320212D01*
X138458064Y-60530289D01*
X138458066Y-60530292D01*
X138458067Y-60530293D01*
X138605733Y-60722736D01*
X138605739Y-60722743D01*
X138777256Y-60894260D01*
X138777262Y-60894265D01*
X138969711Y-61041936D01*
X139179788Y-61163224D01*
X139403900Y-61256054D01*
X139638211Y-61318838D01*
X139818586Y-61342584D01*
X139878711Y-61350500D01*
X139878712Y-61350500D01*
X140121289Y-61350500D01*
X140169388Y-61344167D01*
X140361789Y-61318838D01*
X140596100Y-61256054D01*
X140820212Y-61163224D01*
X141030289Y-61041936D01*
X141222738Y-60894265D01*
X141394265Y-60722738D01*
X141541936Y-60530289D01*
X141663224Y-60320212D01*
X141756054Y-60096100D01*
X141818838Y-59861789D01*
X141850500Y-59621288D01*
X141850500Y-59378712D01*
X141850500Y-59378711D01*
X188649500Y-59378711D01*
X188649500Y-59621288D01*
X188681161Y-59861785D01*
X188743947Y-60096104D01*
X188836773Y-60320205D01*
X188836776Y-60320212D01*
X188958064Y-60530289D01*
X188958066Y-60530292D01*
X188958067Y-60530293D01*
X189105733Y-60722736D01*
X189105739Y-60722743D01*
X189277256Y-60894260D01*
X189277262Y-60894265D01*
X189469711Y-61041936D01*
X189679788Y-61163224D01*
X189903900Y-61256054D01*
X190138211Y-61318838D01*
X190318586Y-61342584D01*
X190378711Y-61350500D01*
X190378712Y-61350500D01*
X190621289Y-61350500D01*
X190669388Y-61344167D01*
X190861789Y-61318838D01*
X191096100Y-61256054D01*
X191320212Y-61163224D01*
X191530289Y-61041936D01*
X191722738Y-60894265D01*
X191894265Y-60722738D01*
X192041936Y-60530289D01*
X192163224Y-60320212D01*
X192256054Y-60096100D01*
X192318838Y-59861789D01*
X192350500Y-59621288D01*
X192350500Y-59378712D01*
X192318838Y-59138211D01*
X192256054Y-58903900D01*
X192163224Y-58679788D01*
X192041936Y-58469711D01*
X191894265Y-58277262D01*
X191894260Y-58277256D01*
X191722743Y-58105739D01*
X191722736Y-58105733D01*
X191530293Y-57958067D01*
X191530292Y-57958066D01*
X191530289Y-57958064D01*
X191320212Y-57836776D01*
X191320205Y-57836773D01*
X191096104Y-57743947D01*
X190861785Y-57681161D01*
X190621289Y-57649500D01*
X190621288Y-57649500D01*
X190378712Y-57649500D01*
X190378711Y-57649500D01*
X190138214Y-57681161D01*
X189903895Y-57743947D01*
X189679794Y-57836773D01*
X189679785Y-57836777D01*
X189469706Y-57958067D01*
X189277263Y-58105733D01*
X189277256Y-58105739D01*
X189105739Y-58277256D01*
X189105733Y-58277263D01*
X188958067Y-58469706D01*
X188836777Y-58679785D01*
X188836773Y-58679794D01*
X188743947Y-58903895D01*
X188681161Y-59138214D01*
X188649500Y-59378711D01*
X141850500Y-59378711D01*
X141818838Y-59138211D01*
X141756054Y-58903900D01*
X141663224Y-58679788D01*
X141541936Y-58469711D01*
X141394265Y-58277262D01*
X141394260Y-58277256D01*
X141222743Y-58105739D01*
X141222736Y-58105733D01*
X141030293Y-57958067D01*
X141030292Y-57958066D01*
X141030289Y-57958064D01*
X140820212Y-57836776D01*
X140820205Y-57836773D01*
X140596104Y-57743947D01*
X140361785Y-57681161D01*
X140121289Y-57649500D01*
X140121288Y-57649500D01*
X139878712Y-57649500D01*
X139878711Y-57649500D01*
X139638214Y-57681161D01*
X139403895Y-57743947D01*
X139179794Y-57836773D01*
X139179785Y-57836777D01*
X138969706Y-57958067D01*
X138777263Y-58105733D01*
X138777256Y-58105739D01*
X138605739Y-58277256D01*
X138605733Y-58277263D01*
X138458067Y-58469706D01*
X138336777Y-58679785D01*
X138336773Y-58679794D01*
X138243947Y-58903895D01*
X138181161Y-59138214D01*
X138149500Y-59378711D01*
X137000500Y-59378711D01*
X137000500Y-56624500D01*
X137020185Y-56557461D01*
X137072989Y-56511706D01*
X137124500Y-56500500D01*
X193375500Y-56500500D01*
X193442539Y-56520185D01*
G37*
%TD.AperFunction*%
%TD*%
M02*
