%TF.GenerationSoftware,KiCad,Pcbnew,9.0.2*%
%TF.CreationDate,2025-07-08T22:51:12-04:00*%
%TF.ProjectId,Wireless3.0,57697265-6c65-4737-9333-2e302e6b6963,rev?*%
%TF.SameCoordinates,Original*%
%TF.FileFunction,Soldermask,Top*%
%TF.FilePolarity,Negative*%
%FSLAX46Y46*%
G04 Gerber Fmt 4.6, Leading zero omitted, Abs format (unit mm)*
G04 Created by KiCad (PCBNEW 9.0.2) date 2025-07-08 22:51:12*
%MOMM*%
%LPD*%
G01*
G04 APERTURE LIST*
G04 Aperture macros list*
%AMRoundRect*
0 Rectangle with rounded corners*
0 $1 Rounding radius*
0 $2 $3 $4 $5 $6 $7 $8 $9 X,Y pos of 4 corners*
0 Add a 4 corners polygon primitive as box body*
4,1,4,$2,$3,$4,$5,$6,$7,$8,$9,$2,$3,0*
0 Add four circle primitives for the rounded corners*
1,1,$1+$1,$2,$3*
1,1,$1+$1,$4,$5*
1,1,$1+$1,$6,$7*
1,1,$1+$1,$8,$9*
0 Add four rect primitives between the rounded corners*
20,1,$1+$1,$2,$3,$4,$5,0*
20,1,$1+$1,$4,$5,$6,$7,0*
20,1,$1+$1,$6,$7,$8,$9,0*
20,1,$1+$1,$8,$9,$2,$3,0*%
G04 Aperture macros list end*
%ADD10R,1.700000X1.700000*%
%ADD11C,1.700000*%
%ADD12RoundRect,0.250000X1.050000X1.050000X-1.050000X1.050000X-1.050000X-1.050000X1.050000X-1.050000X0*%
%ADD13C,2.600000*%
%ADD14RoundRect,0.102000X-0.765000X-0.765000X0.765000X-0.765000X0.765000X0.765000X-0.765000X0.765000X0*%
%ADD15C,1.734000*%
%ADD16C,3.200000*%
G04 APERTURE END LIST*
D10*
%TO.C,J5*%
X182580000Y-116000000D03*
D11*
X180040000Y-116000000D03*
X177500000Y-116000000D03*
X174960000Y-116000000D03*
%TD*%
D10*
%TO.C,J2*%
X182310000Y-92720000D03*
D11*
X179770000Y-92720000D03*
X177230000Y-92720000D03*
X174690000Y-92720000D03*
%TD*%
D12*
%TO.C,J6*%
X181045000Y-71827500D03*
D13*
X175965000Y-71827500D03*
%TD*%
D14*
%TO.C,U1*%
X145640000Y-64660000D03*
D15*
X145640000Y-67200000D03*
X145640000Y-69740000D03*
X145640000Y-72280000D03*
X145640000Y-74820000D03*
X145640000Y-77360000D03*
X145640000Y-79900000D03*
X145640000Y-82440000D03*
X145640000Y-84980000D03*
X145640000Y-87520000D03*
X145640000Y-90060000D03*
X145640000Y-92600000D03*
X145640000Y-95140000D03*
X145640000Y-97680000D03*
X145640000Y-100220000D03*
X145640000Y-102760000D03*
X145640000Y-105300000D03*
X145640000Y-107840000D03*
X145640000Y-110380000D03*
X145640000Y-112920000D03*
X145640000Y-115460000D03*
X145640000Y-118000000D03*
X168500000Y-64660000D03*
X168500000Y-67200000D03*
X168500000Y-69740000D03*
X168500000Y-72280000D03*
X168500000Y-74820000D03*
X168500000Y-77360000D03*
X168500000Y-79900000D03*
X168500000Y-82440000D03*
X168500000Y-84980000D03*
X168500000Y-87520000D03*
X168500000Y-90060000D03*
X168500000Y-92600000D03*
X168500000Y-95140000D03*
X168500000Y-97680000D03*
X168500000Y-100220000D03*
X168500000Y-102760000D03*
X168500000Y-105300000D03*
X168500000Y-107840000D03*
X168500000Y-110380000D03*
X168500000Y-112920000D03*
X168500000Y-115460000D03*
X168500000Y-118000000D03*
%TD*%
D10*
%TO.C,J3*%
X181810000Y-100480000D03*
D11*
X179270000Y-100480000D03*
X176730000Y-100480000D03*
X174190000Y-100480000D03*
%TD*%
D10*
%TO.C,J4*%
X182310000Y-108240000D03*
D11*
X179770000Y-108240000D03*
X177230000Y-108240000D03*
X174690000Y-108240000D03*
%TD*%
D10*
%TO.C,J1*%
X181810000Y-84960000D03*
D11*
X179270000Y-84960000D03*
X176730000Y-84960000D03*
X174190000Y-84960000D03*
%TD*%
D16*
%TO.C,REF\u002A\u002A*%
X140000000Y-59500000D03*
%TD*%
%TO.C,REF\u002A\u002A*%
X190500000Y-59500000D03*
%TD*%
%TO.C,REF\u002A\u002A*%
X140000000Y-124000000D03*
%TD*%
%TO.C,REF\u002A\u002A*%
X190500000Y-124000000D03*
%TD*%
M02*
