%TF.GenerationSoftware,KiCad,Pcbnew,9.0.2*%
%TF.CreationDate,2025-07-08T22:51:12-04:00*%
%TF.ProjectId,Wireless3.0,57697265-6c65-4737-9333-2e302e6b6963,rev?*%
%TF.SameCoordinates,Original*%
%TF.FileFunction,Legend,Top*%
%TF.FilePolarity,Positive*%
%FSLAX46Y46*%
G04 Gerber Fmt 4.6, Leading zero omitted, Abs format (unit mm)*
G04 Created by KiCad (PCBNEW 9.0.2) date 2025-07-08 22:51:12*
%MOMM*%
%LPD*%
G01*
G04 APERTURE LIST*
%ADD10C,0.100000*%
%ADD11C,0.120000*%
%ADD12C,0.000000*%
%ADD13C,0.127000*%
%ADD14C,0.200000*%
G04 APERTURE END LIST*
D10*
X184000000Y-60500000D02*
X181500000Y-60500000D01*
X161000000Y-119500000D02*
X167000000Y-119500000D01*
X167000000Y-125500000D01*
X161000000Y-125500000D01*
X161000000Y-119500000D01*
X173000000Y-60500000D02*
X173000000Y-65500000D01*
X184000000Y-65500000D02*
X184000000Y-60500000D01*
X180500000Y-120500000D02*
X185000000Y-120500000D01*
X185000000Y-126500000D01*
X180500000Y-126500000D01*
X180500000Y-120500000D01*
G36*
X180500000Y-120500000D02*
G01*
X185000000Y-120500000D01*
X185000000Y-126500000D01*
X180500000Y-126500000D01*
X180500000Y-120500000D01*
G37*
X176500000Y-60500000D02*
X173000000Y-60500000D01*
X147500000Y-119500000D02*
X153500000Y-119500000D01*
X153500000Y-125500000D01*
X147500000Y-125500000D01*
X147500000Y-119500000D01*
G36*
X174261347Y-111353967D02*
G01*
X174325792Y-111375302D01*
X174379091Y-111404441D01*
X174425553Y-111443108D01*
X174462721Y-111489415D01*
X174491198Y-111544331D01*
X174504304Y-111633252D01*
X174504034Y-111699182D01*
X174493946Y-111747419D01*
X174473502Y-111792267D01*
X174445002Y-111831848D01*
X174407789Y-111866793D01*
X174364595Y-111894547D01*
X174306896Y-111919941D01*
X174231446Y-111942264D01*
X174305268Y-112036908D01*
X174833016Y-112036908D01*
X174833016Y-112330000D01*
X174210929Y-112330000D01*
X173897871Y-112003935D01*
X173897871Y-112330000D01*
X173541032Y-112330000D01*
X173541032Y-111769340D01*
X173897871Y-111769340D01*
X174146693Y-111769340D01*
X174166429Y-111765983D01*
X174189741Y-111754685D01*
X174201355Y-111742446D01*
X174210084Y-111719573D01*
X174214349Y-111680497D01*
X174208873Y-111643474D01*
X174199248Y-111619857D01*
X174186627Y-111605636D01*
X174162693Y-111591317D01*
X174146022Y-111587501D01*
X173897871Y-111587501D01*
X173897871Y-111769340D01*
X173541032Y-111769340D01*
X173541032Y-111341304D01*
X174183574Y-111341304D01*
X174261347Y-111353967D01*
G37*
G36*
X175654160Y-111341304D02*
G01*
X175291826Y-111835652D01*
X175654160Y-112330000D01*
X175264532Y-112330000D01*
X175060772Y-112024635D01*
X174859822Y-112330000D01*
X174470193Y-112330000D01*
X174832466Y-111835652D01*
X174470193Y-111341304D01*
X174859822Y-111341304D01*
X175060772Y-111646669D01*
X175264532Y-111341304D01*
X175654160Y-111341304D01*
G37*
G36*
X186887334Y-108138304D02*
G01*
X186576962Y-108138304D01*
X186516409Y-108140747D01*
X186487159Y-108149429D01*
X186475592Y-108160864D01*
X186474810Y-108175757D01*
X186487530Y-108198573D01*
X186525000Y-108235146D01*
X186600100Y-108307395D01*
X186656462Y-108374908D01*
X186696862Y-108438309D01*
X186723596Y-108498333D01*
X186738399Y-108555823D01*
X186742376Y-108611707D01*
X186735090Y-108669004D01*
X186717072Y-108715994D01*
X186688740Y-108754864D01*
X186649047Y-108786884D01*
X186595620Y-108812236D01*
X186525000Y-108830000D01*
X185663677Y-108830000D01*
X185663677Y-108536908D01*
X186207789Y-108536908D01*
X186273907Y-108534019D01*
X186305219Y-108524442D01*
X186317160Y-108511981D01*
X186317216Y-108495624D01*
X186301643Y-108470203D01*
X186257004Y-108429136D01*
X186175794Y-108346689D01*
X186118190Y-108272146D01*
X186080091Y-108204340D01*
X186058196Y-108141987D01*
X186050141Y-108083697D01*
X186054649Y-108028028D01*
X186071712Y-107969844D01*
X186096401Y-107925055D01*
X186128295Y-107891097D01*
X186168080Y-107866455D01*
X186217452Y-107850836D01*
X186278925Y-107845212D01*
X186887334Y-107845212D01*
X186887334Y-108138304D01*
G37*
G36*
X186816748Y-108830000D02*
G01*
X186816748Y-107845212D01*
X187663049Y-107845212D01*
X187663049Y-108138304D01*
X187138049Y-108138304D01*
X187138049Y-108251632D01*
X187477058Y-108251632D01*
X187477058Y-108423579D01*
X187138049Y-108423579D01*
X187138049Y-108536908D01*
X187746397Y-108536908D01*
X187746397Y-108830000D01*
X186816748Y-108830000D01*
G37*
G36*
X188466162Y-107853967D02*
G01*
X188530607Y-107875302D01*
X188583906Y-107904441D01*
X188630368Y-107943108D01*
X188667536Y-107989415D01*
X188696013Y-108044331D01*
X188709119Y-108133252D01*
X188708849Y-108199182D01*
X188698761Y-108247419D01*
X188678317Y-108292267D01*
X188649817Y-108331848D01*
X188612604Y-108366793D01*
X188569410Y-108394547D01*
X188511711Y-108419941D01*
X188436261Y-108442264D01*
X188510083Y-108536908D01*
X188805373Y-108536908D01*
X188805373Y-108830000D01*
X188415744Y-108830000D01*
X188102686Y-108503935D01*
X188102686Y-108830000D01*
X187745847Y-108830000D01*
X187745847Y-108269340D01*
X188102686Y-108269340D01*
X188351509Y-108269340D01*
X188371245Y-108265983D01*
X188394556Y-108254685D01*
X188406170Y-108242446D01*
X188414900Y-108219573D01*
X188419164Y-108180497D01*
X188413688Y-108143474D01*
X188404063Y-108119857D01*
X188391442Y-108105636D01*
X188367508Y-108091317D01*
X188350837Y-108087501D01*
X188102686Y-108087501D01*
X188102686Y-108269340D01*
X187745847Y-108269340D01*
X187745847Y-107841304D01*
X188388389Y-107841304D01*
X188466162Y-107853967D01*
G37*
G36*
X188791207Y-107841304D02*
G01*
X189112508Y-107841304D01*
X189112508Y-108830000D01*
X188791207Y-108830000D01*
X188791207Y-107841304D01*
G37*
G36*
X190229370Y-108830000D02*
G01*
X189856106Y-108830000D01*
X189793885Y-108650237D01*
X189500610Y-108650237D01*
X189438450Y-108830000D01*
X189084298Y-108830000D01*
X189208796Y-108450935D01*
X189513616Y-108450935D01*
X189785703Y-108450935D01*
X189655094Y-108059902D01*
X189513616Y-108450935D01*
X189208796Y-108450935D01*
X189409019Y-107841304D01*
X189899153Y-107841304D01*
X190229370Y-108830000D01*
G37*
G36*
X190215631Y-108830000D02*
G01*
X190215631Y-107841304D01*
X190536933Y-107841304D01*
X190536933Y-108536908D01*
X191071458Y-108536908D01*
X191071458Y-108830000D01*
X190215631Y-108830000D01*
G37*
G36*
X192511758Y-108431395D02*
G01*
X192683339Y-108431395D01*
X192683339Y-108642421D01*
X192511086Y-108642421D01*
X192511086Y-108830000D01*
X192273866Y-108830000D01*
X192273866Y-108642421D01*
X191742698Y-108642421D01*
X191742698Y-108431395D01*
X192011366Y-108431395D01*
X192273866Y-108431395D01*
X192273866Y-108121329D01*
X192011366Y-108431395D01*
X191742698Y-108431395D01*
X191742698Y-108431151D01*
X192273866Y-107841304D01*
X192511086Y-107841304D01*
X192511758Y-108431395D01*
G37*
G36*
X181205495Y-78364164D02*
G01*
X181205495Y-78164984D01*
X181514462Y-78164984D01*
X181514462Y-78657500D01*
X181076962Y-78657500D01*
X180971065Y-78650894D01*
X180874668Y-78631725D01*
X180786435Y-78600591D01*
X180724212Y-78568105D01*
X180669807Y-78528971D01*
X180622464Y-78483010D01*
X180581699Y-78429743D01*
X180549816Y-78371528D01*
X180526470Y-78306394D01*
X180511913Y-78233240D01*
X180506838Y-78150757D01*
X180512052Y-78074542D01*
X180527132Y-78005950D01*
X180551596Y-77943822D01*
X180585487Y-77886274D01*
X180626710Y-77836032D01*
X180675671Y-77792452D01*
X180730566Y-77755953D01*
X180791091Y-77725926D01*
X180857876Y-77702388D01*
X180927049Y-77686068D01*
X180999933Y-77676103D01*
X181076962Y-77672712D01*
X181347644Y-77672712D01*
X181514462Y-77672712D01*
X181514462Y-77965804D01*
X181205495Y-77965804D01*
X181108375Y-77967630D01*
X181051622Y-77971971D01*
X181003371Y-77980392D01*
X180962779Y-77992426D01*
X180926527Y-78011659D01*
X180893719Y-78042191D01*
X180878184Y-78067896D01*
X180866019Y-78107968D01*
X180858914Y-78167732D01*
X180865252Y-78225426D01*
X180877390Y-78265557D01*
X180893719Y-78292601D01*
X180928802Y-78323928D01*
X180970289Y-78342365D01*
X181015942Y-78352732D01*
X181063285Y-78359401D01*
X181205495Y-78364164D01*
G37*
G36*
X181555129Y-78657500D02*
G01*
X181555129Y-77668804D01*
X181876430Y-77668804D01*
X182170376Y-78038527D01*
X182170376Y-77668804D01*
X182491617Y-77668804D01*
X182491617Y-78657500D01*
X182170376Y-78657500D01*
X181876430Y-78287777D01*
X181876430Y-78657500D01*
X181555129Y-78657500D01*
G37*
G36*
X183192940Y-77672572D02*
G01*
X183262045Y-77683305D01*
X183322958Y-77700312D01*
X183381449Y-77724446D01*
X183431981Y-77752807D01*
X183475427Y-77785247D01*
X183513420Y-77823632D01*
X183547969Y-77871334D01*
X183578986Y-77929717D01*
X183600786Y-77991848D01*
X183615140Y-78069706D01*
X183620385Y-78166571D01*
X183611435Y-78256078D01*
X183596097Y-78331941D01*
X183575261Y-78395976D01*
X183546335Y-78456507D01*
X183513010Y-78505741D01*
X183475427Y-78545209D01*
X183431856Y-78578346D01*
X183381441Y-78606695D01*
X183323325Y-78630144D01*
X183262634Y-78645764D01*
X183188365Y-78655317D01*
X183098072Y-78657500D01*
X182532100Y-78657500D01*
X182532100Y-78411303D01*
X182861584Y-78411303D01*
X183049590Y-78411303D01*
X183091217Y-78407971D01*
X183124874Y-78398738D01*
X183152110Y-78384314D01*
X183187371Y-78353672D01*
X183215675Y-78315254D01*
X183228323Y-78285603D01*
X183239322Y-78237442D01*
X183247121Y-78163824D01*
X183242349Y-78097083D01*
X183232582Y-78049470D01*
X183219399Y-78016545D01*
X183189686Y-77973633D01*
X183153454Y-77941990D01*
X183125354Y-77927564D01*
X183090775Y-77918330D01*
X183048185Y-77915001D01*
X182861584Y-77915001D01*
X182861584Y-78411303D01*
X182532100Y-78411303D01*
X182532100Y-77668804D01*
X183114497Y-77668804D01*
X183192940Y-77672572D01*
G37*
G36*
X174261347Y-87353967D02*
G01*
X174325792Y-87375302D01*
X174379091Y-87404441D01*
X174425553Y-87443108D01*
X174462721Y-87489415D01*
X174491198Y-87544331D01*
X174504304Y-87633252D01*
X174504034Y-87699182D01*
X174493946Y-87747419D01*
X174473502Y-87792267D01*
X174445002Y-87831848D01*
X174407789Y-87866793D01*
X174364595Y-87894547D01*
X174306896Y-87919941D01*
X174231446Y-87942264D01*
X174305268Y-88036908D01*
X174833016Y-88036908D01*
X174833016Y-88330000D01*
X174210929Y-88330000D01*
X173897871Y-88003935D01*
X173897871Y-88330000D01*
X173541032Y-88330000D01*
X173541032Y-87769340D01*
X173897871Y-87769340D01*
X174146693Y-87769340D01*
X174166429Y-87765983D01*
X174189741Y-87754685D01*
X174201355Y-87742446D01*
X174210084Y-87719573D01*
X174214349Y-87680497D01*
X174208873Y-87643474D01*
X174199248Y-87619857D01*
X174186627Y-87605636D01*
X174162693Y-87591317D01*
X174146022Y-87587501D01*
X173897871Y-87587501D01*
X173897871Y-87769340D01*
X173541032Y-87769340D01*
X173541032Y-87341304D01*
X174183574Y-87341304D01*
X174261347Y-87353967D01*
G37*
G36*
X175654160Y-87341304D02*
G01*
X175291826Y-87835652D01*
X175654160Y-88330000D01*
X175264532Y-88330000D01*
X175060772Y-88024635D01*
X174859822Y-88330000D01*
X174470193Y-88330000D01*
X174832466Y-87835652D01*
X174470193Y-87341304D01*
X174859822Y-87341304D01*
X175060772Y-87646669D01*
X175264532Y-87341304D01*
X175654160Y-87341304D01*
G37*
G36*
X181754710Y-102841304D02*
G01*
X181754710Y-103071870D01*
X181386209Y-103071870D01*
X181386209Y-103224155D01*
X181495629Y-103220064D01*
X181549375Y-103224232D01*
X181599721Y-103236524D01*
X181647365Y-103256945D01*
X181690653Y-103285097D01*
X181727372Y-103320179D01*
X181758068Y-103362824D01*
X181780557Y-103410295D01*
X181794339Y-103462965D01*
X181799101Y-103521948D01*
X181794709Y-103581801D01*
X181782277Y-103632857D01*
X181762512Y-103676593D01*
X181735537Y-103714167D01*
X181689661Y-103757093D01*
X181635612Y-103790955D01*
X181572138Y-103815956D01*
X181505000Y-103832145D01*
X181432069Y-103842174D01*
X181352686Y-103845631D01*
X181256271Y-103840807D01*
X181152041Y-103826519D01*
X181051962Y-103803255D01*
X181051962Y-103577819D01*
X181172138Y-103600761D01*
X181257676Y-103607250D01*
X181330005Y-103601147D01*
X181378036Y-103585565D01*
X181408687Y-103563088D01*
X181426487Y-103533907D01*
X181432737Y-103495753D01*
X181426024Y-103453801D01*
X181407290Y-103423190D01*
X181375645Y-103401048D01*
X181336727Y-103386871D01*
X181291616Y-103377901D01*
X181239235Y-103374731D01*
X181157754Y-103380090D01*
X181064235Y-103397323D01*
X181064235Y-102841304D01*
X181754710Y-102841304D01*
G37*
G36*
X182150444Y-102841304D02*
G01*
X182374659Y-103600655D01*
X182601622Y-102841304D01*
X182997418Y-102841304D01*
X182645341Y-103830000D01*
X182121074Y-103830000D01*
X181773761Y-102841304D01*
X182150444Y-102841304D01*
G37*
G36*
X176839462Y-102845212D02*
G01*
X176839462Y-103138304D01*
X176526343Y-103138304D01*
X176526343Y-103830000D01*
X176205102Y-103830000D01*
X176205102Y-103138304D01*
X175891983Y-103138304D01*
X175891983Y-102845212D01*
X176839462Y-102845212D01*
G37*
G36*
X177825898Y-102841304D02*
G01*
X177463564Y-103335652D01*
X177825898Y-103830000D01*
X177436270Y-103830000D01*
X177232510Y-103524635D01*
X177031559Y-103830000D01*
X176641931Y-103830000D01*
X177004204Y-103335652D01*
X176641931Y-102841304D01*
X177031559Y-102841304D01*
X177232510Y-103146669D01*
X177436270Y-102841304D01*
X177825898Y-102841304D01*
G37*
G36*
X177754710Y-59841304D02*
G01*
X177754710Y-60071870D01*
X177386209Y-60071870D01*
X177386209Y-60224155D01*
X177495629Y-60220064D01*
X177549375Y-60224232D01*
X177599721Y-60236524D01*
X177647365Y-60256945D01*
X177690653Y-60285097D01*
X177727372Y-60320179D01*
X177758068Y-60362824D01*
X177780557Y-60410295D01*
X177794339Y-60462965D01*
X177799101Y-60521948D01*
X177794709Y-60581801D01*
X177782277Y-60632857D01*
X177762512Y-60676593D01*
X177735537Y-60714167D01*
X177689661Y-60757093D01*
X177635612Y-60790955D01*
X177572138Y-60815956D01*
X177505000Y-60832145D01*
X177432069Y-60842174D01*
X177352686Y-60845631D01*
X177256271Y-60840807D01*
X177152041Y-60826519D01*
X177051962Y-60803255D01*
X177051962Y-60577819D01*
X177172138Y-60600761D01*
X177257676Y-60607250D01*
X177330005Y-60601147D01*
X177378036Y-60585565D01*
X177408687Y-60563088D01*
X177426487Y-60533907D01*
X177432737Y-60495753D01*
X177426024Y-60453801D01*
X177407290Y-60423190D01*
X177375645Y-60401048D01*
X177336727Y-60386871D01*
X177291616Y-60377901D01*
X177239235Y-60374731D01*
X177157754Y-60380090D01*
X177064235Y-60397323D01*
X177064235Y-59841304D01*
X177754710Y-59841304D01*
G37*
G36*
X178150444Y-59841304D02*
G01*
X178374659Y-60600655D01*
X178601622Y-59841304D01*
X178997418Y-59841304D01*
X178645341Y-60830000D01*
X178121074Y-60830000D01*
X177773761Y-59841304D01*
X178150444Y-59841304D01*
G37*
G36*
X179618283Y-59841304D02*
G01*
X179939584Y-59841304D01*
X179939584Y-60830000D01*
X179618283Y-60830000D01*
X179618283Y-59841304D01*
G37*
G36*
X180007117Y-60830000D02*
G01*
X180007117Y-59841304D01*
X180328419Y-59841304D01*
X180622365Y-60211027D01*
X180622365Y-59841304D01*
X180943606Y-59841304D01*
X180943606Y-60830000D01*
X180622365Y-60830000D01*
X180328419Y-60460277D01*
X180328419Y-60830000D01*
X180007117Y-60830000D01*
G37*
G36*
X175254710Y-64168804D02*
G01*
X175254710Y-64399370D01*
X174886209Y-64399370D01*
X174886209Y-64551655D01*
X174995629Y-64547564D01*
X175049375Y-64551732D01*
X175099721Y-64564024D01*
X175147365Y-64584445D01*
X175190653Y-64612597D01*
X175227372Y-64647679D01*
X175258068Y-64690324D01*
X175280557Y-64737795D01*
X175294339Y-64790465D01*
X175299101Y-64849448D01*
X175294709Y-64909301D01*
X175282277Y-64960357D01*
X175262512Y-65004093D01*
X175235537Y-65041667D01*
X175189661Y-65084593D01*
X175135612Y-65118455D01*
X175072138Y-65143456D01*
X175005000Y-65159645D01*
X174932069Y-65169674D01*
X174852686Y-65173131D01*
X174756271Y-65168307D01*
X174652041Y-65154019D01*
X174551962Y-65130755D01*
X174551962Y-64905319D01*
X174672138Y-64928261D01*
X174757676Y-64934750D01*
X174830005Y-64928647D01*
X174878036Y-64913065D01*
X174908687Y-64890588D01*
X174926487Y-64861407D01*
X174932737Y-64823253D01*
X174926024Y-64781301D01*
X174907290Y-64750690D01*
X174875645Y-64728548D01*
X174836727Y-64714371D01*
X174791616Y-64705401D01*
X174739235Y-64702231D01*
X174657754Y-64707590D01*
X174564235Y-64724823D01*
X174564235Y-64168804D01*
X175254710Y-64168804D01*
G37*
G36*
X175650444Y-64168804D02*
G01*
X175874659Y-64928155D01*
X176101622Y-64168804D01*
X176497418Y-64168804D01*
X176145341Y-65157500D01*
X175621074Y-65157500D01*
X175273761Y-64168804D01*
X175650444Y-64168804D01*
G37*
G36*
X187157334Y-115678304D02*
G01*
X186846962Y-115678304D01*
X186786409Y-115680747D01*
X186757159Y-115689429D01*
X186745592Y-115700864D01*
X186744810Y-115715757D01*
X186757530Y-115738573D01*
X186795000Y-115775146D01*
X186870100Y-115847395D01*
X186926462Y-115914908D01*
X186966862Y-115978309D01*
X186993596Y-116038333D01*
X187008399Y-116095823D01*
X187012376Y-116151707D01*
X187005090Y-116209004D01*
X186987072Y-116255994D01*
X186958740Y-116294864D01*
X186919047Y-116326884D01*
X186865620Y-116352236D01*
X186795000Y-116370000D01*
X185933677Y-116370000D01*
X185933677Y-116076908D01*
X186477789Y-116076908D01*
X186543907Y-116074019D01*
X186575219Y-116064442D01*
X186587160Y-116051981D01*
X186587216Y-116035624D01*
X186571643Y-116010203D01*
X186527004Y-115969136D01*
X186445794Y-115886689D01*
X186388190Y-115812146D01*
X186350091Y-115744340D01*
X186328196Y-115681987D01*
X186320141Y-115623697D01*
X186324649Y-115568028D01*
X186341712Y-115509844D01*
X186366401Y-115465055D01*
X186398295Y-115431097D01*
X186438080Y-115406455D01*
X186487452Y-115390836D01*
X186548925Y-115385212D01*
X187157334Y-115385212D01*
X187157334Y-115678304D01*
G37*
G36*
X187086748Y-116370000D02*
G01*
X187086748Y-115385212D01*
X187933049Y-115385212D01*
X187933049Y-115678304D01*
X187408049Y-115678304D01*
X187408049Y-115791632D01*
X187747058Y-115791632D01*
X187747058Y-115963579D01*
X187408049Y-115963579D01*
X187408049Y-116076908D01*
X188016397Y-116076908D01*
X188016397Y-116370000D01*
X187086748Y-116370000D01*
G37*
G36*
X188736162Y-115393967D02*
G01*
X188800607Y-115415302D01*
X188853906Y-115444441D01*
X188900368Y-115483108D01*
X188937536Y-115529415D01*
X188966013Y-115584331D01*
X188979119Y-115673252D01*
X188978849Y-115739182D01*
X188968761Y-115787419D01*
X188948317Y-115832267D01*
X188919817Y-115871848D01*
X188882604Y-115906793D01*
X188839410Y-115934547D01*
X188781711Y-115959941D01*
X188706261Y-115982264D01*
X188780083Y-116076908D01*
X189075373Y-116076908D01*
X189075373Y-116370000D01*
X188685744Y-116370000D01*
X188372686Y-116043935D01*
X188372686Y-116370000D01*
X188015847Y-116370000D01*
X188015847Y-115809340D01*
X188372686Y-115809340D01*
X188621509Y-115809340D01*
X188641245Y-115805983D01*
X188664556Y-115794685D01*
X188676170Y-115782446D01*
X188684900Y-115759573D01*
X188689164Y-115720497D01*
X188683688Y-115683474D01*
X188674063Y-115659857D01*
X188661442Y-115645636D01*
X188637508Y-115631317D01*
X188620837Y-115627501D01*
X188372686Y-115627501D01*
X188372686Y-115809340D01*
X188015847Y-115809340D01*
X188015847Y-115381304D01*
X188658389Y-115381304D01*
X188736162Y-115393967D01*
G37*
G36*
X189061207Y-115381304D02*
G01*
X189382508Y-115381304D01*
X189382508Y-116370000D01*
X189061207Y-116370000D01*
X189061207Y-115381304D01*
G37*
G36*
X190499370Y-116370000D02*
G01*
X190126106Y-116370000D01*
X190063885Y-116190237D01*
X189770610Y-116190237D01*
X189708450Y-116370000D01*
X189354298Y-116370000D01*
X189478796Y-115990935D01*
X189783616Y-115990935D01*
X190055703Y-115990935D01*
X189925094Y-115599902D01*
X189783616Y-115990935D01*
X189478796Y-115990935D01*
X189679019Y-115381304D01*
X190169153Y-115381304D01*
X190499370Y-116370000D01*
G37*
G36*
X190485631Y-116370000D02*
G01*
X190485631Y-115381304D01*
X190806933Y-115381304D01*
X190806933Y-116076908D01*
X191341458Y-116076908D01*
X191341458Y-116370000D01*
X190485631Y-116370000D01*
G37*
G36*
X192744877Y-115381304D02*
G01*
X192744877Y-115611870D01*
X192376376Y-115611870D01*
X192376376Y-115764155D01*
X192485797Y-115760064D01*
X192539543Y-115764232D01*
X192589888Y-115776524D01*
X192637533Y-115796945D01*
X192680821Y-115825097D01*
X192717539Y-115860179D01*
X192748236Y-115902824D01*
X192770725Y-115950295D01*
X192784506Y-116002965D01*
X192789269Y-116061948D01*
X192784876Y-116121801D01*
X192772445Y-116172857D01*
X192752679Y-116216593D01*
X192725704Y-116254167D01*
X192679829Y-116297093D01*
X192625779Y-116330955D01*
X192562306Y-116355956D01*
X192495167Y-116372145D01*
X192422236Y-116382174D01*
X192342854Y-116385631D01*
X192246439Y-116380807D01*
X192142208Y-116366519D01*
X192042130Y-116343255D01*
X192042130Y-116117819D01*
X192162305Y-116140761D01*
X192247843Y-116147250D01*
X192320173Y-116141147D01*
X192368204Y-116125565D01*
X192398854Y-116103088D01*
X192416654Y-116073907D01*
X192422904Y-116035753D01*
X192416192Y-115993801D01*
X192397458Y-115963190D01*
X192365812Y-115941048D01*
X192326894Y-115926871D01*
X192281783Y-115917901D01*
X192229403Y-115914731D01*
X192147921Y-115920090D01*
X192054403Y-115937323D01*
X192054403Y-115381304D01*
X192744877Y-115381304D01*
G37*
G36*
X181754710Y-111341304D02*
G01*
X181754710Y-111571870D01*
X181386209Y-111571870D01*
X181386209Y-111724155D01*
X181495629Y-111720064D01*
X181549375Y-111724232D01*
X181599721Y-111736524D01*
X181647365Y-111756945D01*
X181690653Y-111785097D01*
X181727372Y-111820179D01*
X181758068Y-111862824D01*
X181780557Y-111910295D01*
X181794339Y-111962965D01*
X181799101Y-112021948D01*
X181794709Y-112081801D01*
X181782277Y-112132857D01*
X181762512Y-112176593D01*
X181735537Y-112214167D01*
X181689661Y-112257093D01*
X181635612Y-112290955D01*
X181572138Y-112315956D01*
X181505000Y-112332145D01*
X181432069Y-112342174D01*
X181352686Y-112345631D01*
X181256271Y-112340807D01*
X181152041Y-112326519D01*
X181051962Y-112303255D01*
X181051962Y-112077819D01*
X181172138Y-112100761D01*
X181257676Y-112107250D01*
X181330005Y-112101147D01*
X181378036Y-112085565D01*
X181408687Y-112063088D01*
X181426487Y-112033907D01*
X181432737Y-111995753D01*
X181426024Y-111953801D01*
X181407290Y-111923190D01*
X181375645Y-111901048D01*
X181336727Y-111886871D01*
X181291616Y-111877901D01*
X181239235Y-111874731D01*
X181157754Y-111880090D01*
X181064235Y-111897323D01*
X181064235Y-111341304D01*
X181754710Y-111341304D01*
G37*
G36*
X182150444Y-111341304D02*
G01*
X182374659Y-112100655D01*
X182601622Y-111341304D01*
X182997418Y-111341304D01*
X182645341Y-112330000D01*
X182121074Y-112330000D01*
X181773761Y-111341304D01*
X182150444Y-111341304D01*
G37*
G36*
X174261347Y-95018967D02*
G01*
X174325792Y-95040302D01*
X174379091Y-95069441D01*
X174425553Y-95108108D01*
X174462721Y-95154415D01*
X174491198Y-95209331D01*
X174504304Y-95298252D01*
X174504034Y-95364182D01*
X174493946Y-95412419D01*
X174473502Y-95457267D01*
X174445002Y-95496848D01*
X174407789Y-95531793D01*
X174364595Y-95559547D01*
X174306896Y-95584941D01*
X174231446Y-95607264D01*
X174305268Y-95701908D01*
X174833016Y-95701908D01*
X174833016Y-95995000D01*
X174210929Y-95995000D01*
X173897871Y-95668935D01*
X173897871Y-95995000D01*
X173541032Y-95995000D01*
X173541032Y-95434340D01*
X173897871Y-95434340D01*
X174146693Y-95434340D01*
X174166429Y-95430983D01*
X174189741Y-95419685D01*
X174201355Y-95407446D01*
X174210084Y-95384573D01*
X174214349Y-95345497D01*
X174208873Y-95308474D01*
X174199248Y-95284857D01*
X174186627Y-95270636D01*
X174162693Y-95256317D01*
X174146022Y-95252501D01*
X173897871Y-95252501D01*
X173897871Y-95434340D01*
X173541032Y-95434340D01*
X173541032Y-95006304D01*
X174183574Y-95006304D01*
X174261347Y-95018967D01*
G37*
G36*
X175654160Y-95006304D02*
G01*
X175291826Y-95500652D01*
X175654160Y-95995000D01*
X175264532Y-95995000D01*
X175060772Y-95689635D01*
X174859822Y-95995000D01*
X174470193Y-95995000D01*
X174832466Y-95500652D01*
X174470193Y-95006304D01*
X174859822Y-95006304D01*
X175060772Y-95311669D01*
X175264532Y-95006304D01*
X175654160Y-95006304D01*
G37*
G36*
X186387334Y-99638304D02*
G01*
X186076962Y-99638304D01*
X186016409Y-99640747D01*
X185987159Y-99649429D01*
X185975592Y-99660864D01*
X185974810Y-99675757D01*
X185987530Y-99698573D01*
X186025000Y-99735146D01*
X186100100Y-99807395D01*
X186156462Y-99874908D01*
X186196862Y-99938309D01*
X186223596Y-99998333D01*
X186238399Y-100055823D01*
X186242376Y-100111707D01*
X186235090Y-100169004D01*
X186217072Y-100215994D01*
X186188740Y-100254864D01*
X186149047Y-100286884D01*
X186095620Y-100312236D01*
X186025000Y-100330000D01*
X185163677Y-100330000D01*
X185163677Y-100036908D01*
X185707789Y-100036908D01*
X185773907Y-100034019D01*
X185805219Y-100024442D01*
X185817160Y-100011981D01*
X185817216Y-99995624D01*
X185801643Y-99970203D01*
X185757004Y-99929136D01*
X185675794Y-99846689D01*
X185618190Y-99772146D01*
X185580091Y-99704340D01*
X185558196Y-99641987D01*
X185550141Y-99583697D01*
X185554649Y-99528028D01*
X185571712Y-99469844D01*
X185596401Y-99425055D01*
X185628295Y-99391097D01*
X185668080Y-99366455D01*
X185717452Y-99350836D01*
X185778925Y-99345212D01*
X186387334Y-99345212D01*
X186387334Y-99638304D01*
G37*
G36*
X186316748Y-100330000D02*
G01*
X186316748Y-99345212D01*
X187163049Y-99345212D01*
X187163049Y-99638304D01*
X186638049Y-99638304D01*
X186638049Y-99751632D01*
X186977058Y-99751632D01*
X186977058Y-99923579D01*
X186638049Y-99923579D01*
X186638049Y-100036908D01*
X187246397Y-100036908D01*
X187246397Y-100330000D01*
X186316748Y-100330000D01*
G37*
G36*
X187966162Y-99353967D02*
G01*
X188030607Y-99375302D01*
X188083906Y-99404441D01*
X188130368Y-99443108D01*
X188167536Y-99489415D01*
X188196013Y-99544331D01*
X188209119Y-99633252D01*
X188208849Y-99699182D01*
X188198761Y-99747419D01*
X188178317Y-99792267D01*
X188149817Y-99831848D01*
X188112604Y-99866793D01*
X188069410Y-99894547D01*
X188011711Y-99919941D01*
X187936261Y-99942264D01*
X188010083Y-100036908D01*
X188305373Y-100036908D01*
X188305373Y-100330000D01*
X187915744Y-100330000D01*
X187602686Y-100003935D01*
X187602686Y-100330000D01*
X187245847Y-100330000D01*
X187245847Y-99769340D01*
X187602686Y-99769340D01*
X187851509Y-99769340D01*
X187871245Y-99765983D01*
X187894556Y-99754685D01*
X187906170Y-99742446D01*
X187914900Y-99719573D01*
X187919164Y-99680497D01*
X187913688Y-99643474D01*
X187904063Y-99619857D01*
X187891442Y-99605636D01*
X187867508Y-99591317D01*
X187850837Y-99587501D01*
X187602686Y-99587501D01*
X187602686Y-99769340D01*
X187245847Y-99769340D01*
X187245847Y-99341304D01*
X187888389Y-99341304D01*
X187966162Y-99353967D01*
G37*
G36*
X188291207Y-99341304D02*
G01*
X188612508Y-99341304D01*
X188612508Y-100330000D01*
X188291207Y-100330000D01*
X188291207Y-99341304D01*
G37*
G36*
X189729370Y-100330000D02*
G01*
X189356106Y-100330000D01*
X189293885Y-100150237D01*
X189000610Y-100150237D01*
X188938450Y-100330000D01*
X188584298Y-100330000D01*
X188708796Y-99950935D01*
X189013616Y-99950935D01*
X189285703Y-99950935D01*
X189155094Y-99559902D01*
X189013616Y-99950935D01*
X188708796Y-99950935D01*
X188909019Y-99341304D01*
X189399153Y-99341304D01*
X189729370Y-100330000D01*
G37*
G36*
X189715631Y-100330000D02*
G01*
X189715631Y-99341304D01*
X190036933Y-99341304D01*
X190036933Y-100036908D01*
X190571458Y-100036908D01*
X190571458Y-100330000D01*
X189715631Y-100330000D01*
G37*
G36*
X191372636Y-99941653D02*
G01*
X191372636Y-99724277D01*
X191451221Y-99728185D01*
X191537377Y-99724094D01*
X191574182Y-99716280D01*
X191607109Y-99701441D01*
X191624599Y-99686877D01*
X191634923Y-99668365D01*
X191638555Y-99644593D01*
X191633592Y-99610940D01*
X191619787Y-99585968D01*
X191596851Y-99567473D01*
X191552128Y-99550583D01*
X191495673Y-99544515D01*
X191435846Y-99547374D01*
X191372941Y-99556177D01*
X191259124Y-99583471D01*
X191259124Y-99363164D01*
X191326127Y-99345978D01*
X191402677Y-99334221D01*
X191483908Y-99327941D01*
X191581097Y-99325673D01*
X191657035Y-99329466D01*
X191730818Y-99340755D01*
X191801843Y-99360295D01*
X191866861Y-99388260D01*
X191906504Y-99412634D01*
X191939903Y-99441387D01*
X191967672Y-99474722D01*
X191988478Y-99512292D01*
X192001188Y-99554516D01*
X192005591Y-99602522D01*
X192000309Y-99655713D01*
X191985233Y-99700916D01*
X191960695Y-99739784D01*
X191925923Y-99773374D01*
X191879124Y-99802026D01*
X191817646Y-99825333D01*
X191817646Y-99828080D01*
X191883993Y-99851123D01*
X191934246Y-99880058D01*
X191971420Y-99914333D01*
X191997576Y-99954244D01*
X192013635Y-100000911D01*
X192019269Y-100056142D01*
X192015112Y-100105847D01*
X192003170Y-100149373D01*
X191983796Y-100187832D01*
X191956742Y-100222044D01*
X191912048Y-100260686D01*
X191859038Y-100292102D01*
X191796458Y-100316261D01*
X191696572Y-100338153D01*
X191588607Y-100345631D01*
X191503349Y-100342885D01*
X191409822Y-100334274D01*
X191318943Y-100320522D01*
X191249537Y-100304476D01*
X191249537Y-100074094D01*
X191300090Y-100088864D01*
X191365430Y-100102793D01*
X191432863Y-100112078D01*
X191495673Y-100115066D01*
X191565663Y-100109775D01*
X191611505Y-100096442D01*
X191634399Y-100080630D01*
X191648005Y-100058423D01*
X191652904Y-100027627D01*
X191647273Y-99993770D01*
X191631518Y-99969252D01*
X191604666Y-99951728D01*
X191554015Y-99936732D01*
X191492925Y-99931395D01*
X191372636Y-99941653D01*
G37*
G36*
X179684307Y-103536297D02*
G01*
X179684307Y-103336812D01*
X179984359Y-103336812D01*
X179984359Y-103830000D01*
X179559865Y-103830000D01*
X179457186Y-103823392D01*
X179363613Y-103804198D01*
X179277826Y-103772969D01*
X179217594Y-103740548D01*
X179164846Y-103701428D01*
X179118878Y-103655380D01*
X179079256Y-103601877D01*
X179048475Y-103543709D01*
X179025877Y-103478514D01*
X179011764Y-103405196D01*
X179006838Y-103322463D01*
X179011906Y-103246020D01*
X179026547Y-103177301D01*
X179050252Y-103115162D01*
X179083175Y-103057377D01*
X179123158Y-103007047D01*
X179170542Y-102963487D01*
X179249072Y-102908286D01*
X179326064Y-102866523D01*
X179380008Y-102847117D01*
X179455368Y-102831608D01*
X179557789Y-102821765D01*
X179664222Y-102830740D01*
X179743053Y-102843976D01*
X179799773Y-102860050D01*
X179853043Y-102884175D01*
X179908900Y-102919966D01*
X179967934Y-102969288D01*
X179773822Y-103185137D01*
X179724932Y-103148380D01*
X179686322Y-103126458D01*
X179641627Y-103112896D01*
X179560537Y-103103194D01*
X179482243Y-103119347D01*
X179436095Y-103140075D01*
X179399152Y-103169504D01*
X179366364Y-103207058D01*
X179350125Y-103235995D01*
X179337017Y-103276757D01*
X179328140Y-103332721D01*
X179337247Y-103388721D01*
X179350427Y-103426799D01*
X179366364Y-103451606D01*
X179399776Y-103482338D01*
X179441591Y-103507599D01*
X179488182Y-103525299D01*
X179538677Y-103534954D01*
X179595826Y-103537946D01*
X179684307Y-103536297D01*
G37*
G36*
X186887334Y-92303304D02*
G01*
X186576962Y-92303304D01*
X186516409Y-92305747D01*
X186487159Y-92314429D01*
X186475592Y-92325864D01*
X186474810Y-92340757D01*
X186487530Y-92363573D01*
X186525000Y-92400146D01*
X186600100Y-92472395D01*
X186656462Y-92539908D01*
X186696862Y-92603309D01*
X186723596Y-92663333D01*
X186738399Y-92720823D01*
X186742376Y-92776707D01*
X186735090Y-92834004D01*
X186717072Y-92880994D01*
X186688740Y-92919864D01*
X186649047Y-92951884D01*
X186595620Y-92977236D01*
X186525000Y-92995000D01*
X185663677Y-92995000D01*
X185663677Y-92701908D01*
X186207789Y-92701908D01*
X186273907Y-92699019D01*
X186305219Y-92689442D01*
X186317160Y-92676981D01*
X186317216Y-92660624D01*
X186301643Y-92635203D01*
X186257004Y-92594136D01*
X186175794Y-92511689D01*
X186118190Y-92437146D01*
X186080091Y-92369340D01*
X186058196Y-92306987D01*
X186050141Y-92248697D01*
X186054649Y-92193028D01*
X186071712Y-92134844D01*
X186096401Y-92090055D01*
X186128295Y-92056097D01*
X186168080Y-92031455D01*
X186217452Y-92015836D01*
X186278925Y-92010212D01*
X186887334Y-92010212D01*
X186887334Y-92303304D01*
G37*
G36*
X186816748Y-92995000D02*
G01*
X186816748Y-92010212D01*
X187663049Y-92010212D01*
X187663049Y-92303304D01*
X187138049Y-92303304D01*
X187138049Y-92416632D01*
X187477058Y-92416632D01*
X187477058Y-92588579D01*
X187138049Y-92588579D01*
X187138049Y-92701908D01*
X187746397Y-92701908D01*
X187746397Y-92995000D01*
X186816748Y-92995000D01*
G37*
G36*
X188466162Y-92018967D02*
G01*
X188530607Y-92040302D01*
X188583906Y-92069441D01*
X188630368Y-92108108D01*
X188667536Y-92154415D01*
X188696013Y-92209331D01*
X188709119Y-92298252D01*
X188708849Y-92364182D01*
X188698761Y-92412419D01*
X188678317Y-92457267D01*
X188649817Y-92496848D01*
X188612604Y-92531793D01*
X188569410Y-92559547D01*
X188511711Y-92584941D01*
X188436261Y-92607264D01*
X188510083Y-92701908D01*
X188805373Y-92701908D01*
X188805373Y-92995000D01*
X188415744Y-92995000D01*
X188102686Y-92668935D01*
X188102686Y-92995000D01*
X187745847Y-92995000D01*
X187745847Y-92434340D01*
X188102686Y-92434340D01*
X188351509Y-92434340D01*
X188371245Y-92430983D01*
X188394556Y-92419685D01*
X188406170Y-92407446D01*
X188414900Y-92384573D01*
X188419164Y-92345497D01*
X188413688Y-92308474D01*
X188404063Y-92284857D01*
X188391442Y-92270636D01*
X188367508Y-92256317D01*
X188350837Y-92252501D01*
X188102686Y-92252501D01*
X188102686Y-92434340D01*
X187745847Y-92434340D01*
X187745847Y-92006304D01*
X188388389Y-92006304D01*
X188466162Y-92018967D01*
G37*
G36*
X188791207Y-92006304D02*
G01*
X189112508Y-92006304D01*
X189112508Y-92995000D01*
X188791207Y-92995000D01*
X188791207Y-92006304D01*
G37*
G36*
X190229370Y-92995000D02*
G01*
X189856106Y-92995000D01*
X189793885Y-92815237D01*
X189500610Y-92815237D01*
X189438450Y-92995000D01*
X189084298Y-92995000D01*
X189208796Y-92615935D01*
X189513616Y-92615935D01*
X189785703Y-92615935D01*
X189655094Y-92224902D01*
X189513616Y-92615935D01*
X189208796Y-92615935D01*
X189409019Y-92006304D01*
X189899153Y-92006304D01*
X190229370Y-92995000D01*
G37*
G36*
X190215631Y-92995000D02*
G01*
X190215631Y-92006304D01*
X190536933Y-92006304D01*
X190536933Y-92701908D01*
X191071458Y-92701908D01*
X191071458Y-92995000D01*
X190215631Y-92995000D01*
G37*
G36*
X192120725Y-92756618D02*
G01*
X192520673Y-92756618D01*
X192520673Y-92995000D01*
X191748194Y-92995000D01*
X191748194Y-92717173D01*
X191904016Y-92634522D01*
X192033958Y-92556400D01*
X192091607Y-92511857D01*
X192132021Y-92471587D01*
X192152024Y-92442115D01*
X192163890Y-92410016D01*
X192167925Y-92374378D01*
X192161671Y-92329848D01*
X192144194Y-92295972D01*
X192115291Y-92270087D01*
X192078831Y-92252109D01*
X192036205Y-92240846D01*
X191986086Y-92236870D01*
X191906263Y-92241729D01*
X191833923Y-92255795D01*
X191768039Y-92278574D01*
X191768039Y-92021448D01*
X191922522Y-91998916D01*
X191999321Y-91992739D01*
X192077006Y-91990673D01*
X192171605Y-91995769D01*
X192254811Y-92010300D01*
X192328115Y-92033394D01*
X192392812Y-92064556D01*
X192438235Y-92097607D01*
X192473218Y-92137826D01*
X192498773Y-92186130D01*
X192514917Y-92244166D01*
X192520673Y-92314173D01*
X192516600Y-92366587D01*
X192504619Y-92415361D01*
X192484769Y-92461207D01*
X192443713Y-92524291D01*
X192392140Y-92579848D01*
X192333952Y-92628228D01*
X192275209Y-92668386D01*
X192120725Y-92753871D01*
X192120725Y-92756618D01*
G37*
G36*
X179684307Y-88036297D02*
G01*
X179684307Y-87836812D01*
X179984359Y-87836812D01*
X179984359Y-88330000D01*
X179559865Y-88330000D01*
X179457186Y-88323392D01*
X179363613Y-88304198D01*
X179277826Y-88272969D01*
X179217594Y-88240548D01*
X179164846Y-88201428D01*
X179118878Y-88155380D01*
X179079256Y-88101877D01*
X179048475Y-88043709D01*
X179025877Y-87978514D01*
X179011764Y-87905196D01*
X179006838Y-87822463D01*
X179011906Y-87746020D01*
X179026547Y-87677301D01*
X179050252Y-87615162D01*
X179083175Y-87557377D01*
X179123158Y-87507047D01*
X179170542Y-87463487D01*
X179249072Y-87408286D01*
X179326064Y-87366523D01*
X179380008Y-87347117D01*
X179455368Y-87331608D01*
X179557789Y-87321765D01*
X179664222Y-87330740D01*
X179743053Y-87343976D01*
X179799773Y-87360050D01*
X179853043Y-87384175D01*
X179908900Y-87419966D01*
X179967934Y-87469288D01*
X179773822Y-87685137D01*
X179724932Y-87648380D01*
X179686322Y-87626458D01*
X179641627Y-87612896D01*
X179560537Y-87603194D01*
X179482243Y-87619347D01*
X179436095Y-87640075D01*
X179399152Y-87669504D01*
X179366364Y-87707058D01*
X179350125Y-87735995D01*
X179337017Y-87776757D01*
X179328140Y-87832721D01*
X179337247Y-87888721D01*
X179350427Y-87926799D01*
X179366364Y-87951606D01*
X179399776Y-87982338D01*
X179441591Y-88007599D01*
X179488182Y-88025299D01*
X179538677Y-88034954D01*
X179595826Y-88037946D01*
X179684307Y-88036297D01*
G37*
G36*
X180705495Y-64864164D02*
G01*
X180705495Y-64664984D01*
X181014462Y-64664984D01*
X181014462Y-65157500D01*
X180576962Y-65157500D01*
X180471065Y-65150894D01*
X180374668Y-65131725D01*
X180286435Y-65100591D01*
X180224212Y-65068105D01*
X180169807Y-65028971D01*
X180122464Y-64983010D01*
X180081699Y-64929743D01*
X180049816Y-64871528D01*
X180026470Y-64806394D01*
X180011913Y-64733240D01*
X180006838Y-64650757D01*
X180012052Y-64574542D01*
X180027132Y-64505950D01*
X180051596Y-64443822D01*
X180085487Y-64386274D01*
X180126710Y-64336032D01*
X180175671Y-64292452D01*
X180230566Y-64255953D01*
X180291091Y-64225926D01*
X180357876Y-64202388D01*
X180427049Y-64186068D01*
X180499933Y-64176103D01*
X180576962Y-64172712D01*
X180847644Y-64172712D01*
X181014462Y-64172712D01*
X181014462Y-64465804D01*
X180705495Y-64465804D01*
X180608375Y-64467630D01*
X180551622Y-64471971D01*
X180503371Y-64480392D01*
X180462779Y-64492426D01*
X180426527Y-64511659D01*
X180393719Y-64542191D01*
X180378184Y-64567896D01*
X180366019Y-64607968D01*
X180358914Y-64667732D01*
X180365252Y-64725426D01*
X180377390Y-64765557D01*
X180393719Y-64792601D01*
X180428802Y-64823928D01*
X180470289Y-64842365D01*
X180515942Y-64852732D01*
X180563285Y-64859401D01*
X180705495Y-64864164D01*
G37*
G36*
X181055129Y-65157500D02*
G01*
X181055129Y-64168804D01*
X181376430Y-64168804D01*
X181670376Y-64538527D01*
X181670376Y-64168804D01*
X181991617Y-64168804D01*
X181991617Y-65157500D01*
X181670376Y-65157500D01*
X181376430Y-64787777D01*
X181376430Y-65157500D01*
X181055129Y-65157500D01*
G37*
G36*
X182692940Y-64172572D02*
G01*
X182762045Y-64183305D01*
X182822958Y-64200312D01*
X182881449Y-64224446D01*
X182931981Y-64252807D01*
X182975427Y-64285247D01*
X183013420Y-64323632D01*
X183047969Y-64371334D01*
X183078986Y-64429717D01*
X183100786Y-64491848D01*
X183115140Y-64569706D01*
X183120385Y-64666571D01*
X183111435Y-64756078D01*
X183096097Y-64831941D01*
X183075261Y-64895976D01*
X183046335Y-64956507D01*
X183013010Y-65005741D01*
X182975427Y-65045209D01*
X182931856Y-65078346D01*
X182881441Y-65106695D01*
X182823325Y-65130144D01*
X182762634Y-65145764D01*
X182688365Y-65155317D01*
X182598072Y-65157500D01*
X182032100Y-65157500D01*
X182032100Y-64911303D01*
X182361584Y-64911303D01*
X182549590Y-64911303D01*
X182591217Y-64907971D01*
X182624874Y-64898738D01*
X182652110Y-64884314D01*
X182687371Y-64853672D01*
X182715675Y-64815254D01*
X182728323Y-64785603D01*
X182739322Y-64737442D01*
X182747121Y-64663824D01*
X182742349Y-64597083D01*
X182732582Y-64549470D01*
X182719399Y-64516545D01*
X182689686Y-64473633D01*
X182653454Y-64441990D01*
X182625354Y-64427564D01*
X182590775Y-64418330D01*
X182548185Y-64415001D01*
X182361584Y-64415001D01*
X182361584Y-64911303D01*
X182032100Y-64911303D01*
X182032100Y-64168804D01*
X182614497Y-64168804D01*
X182692940Y-64172572D01*
G37*
G36*
X177339462Y-87345212D02*
G01*
X177339462Y-87638304D01*
X177026343Y-87638304D01*
X177026343Y-88330000D01*
X176705102Y-88330000D01*
X176705102Y-87638304D01*
X176391983Y-87638304D01*
X176391983Y-87345212D01*
X177339462Y-87345212D01*
G37*
G36*
X178325898Y-87341304D02*
G01*
X177963564Y-87835652D01*
X178325898Y-88330000D01*
X177936270Y-88330000D01*
X177732510Y-88024635D01*
X177531559Y-88330000D01*
X177141931Y-88330000D01*
X177504204Y-87835652D01*
X177141931Y-87341304D01*
X177531559Y-87341304D01*
X177732510Y-87646669D01*
X177936270Y-87341304D01*
X178325898Y-87341304D01*
G37*
G36*
X138656034Y-105878350D02*
G01*
X139117000Y-105992668D01*
X139117000Y-106346032D01*
X138029435Y-106676896D01*
X138029435Y-106323531D01*
X138499401Y-106174623D01*
X138029435Y-106045259D01*
X138029435Y-105720441D01*
X138499401Y-105569316D01*
X138029435Y-105468498D01*
X138029435Y-105115134D01*
X139117000Y-105387294D01*
X139117000Y-105740725D01*
X138656034Y-105878350D01*
G37*
G36*
X138029435Y-105188547D02*
G01*
X138029435Y-104835115D01*
X139117000Y-104835115D01*
X139117000Y-105188547D01*
X138029435Y-105188547D01*
G37*
G36*
X139117000Y-104023942D02*
G01*
X138758329Y-104368306D01*
X139117000Y-104368306D01*
X139117000Y-104760829D01*
X138029435Y-104760829D01*
X138029435Y-104095341D01*
X138300251Y-104095341D01*
X138300251Y-104368306D01*
X138500274Y-104368306D01*
X138500274Y-104094602D01*
X138496581Y-104072892D01*
X138484154Y-104047249D01*
X138470691Y-104034475D01*
X138445531Y-104024872D01*
X138402546Y-104020181D01*
X138361821Y-104026205D01*
X138335843Y-104036792D01*
X138320200Y-104050675D01*
X138304449Y-104077003D01*
X138300251Y-104095341D01*
X138029435Y-104095341D01*
X138029435Y-104054033D01*
X138043364Y-103968483D01*
X138066832Y-103897593D01*
X138098885Y-103838965D01*
X138141419Y-103787856D01*
X138192356Y-103746972D01*
X138252765Y-103715647D01*
X138350577Y-103701230D01*
X138423100Y-103701527D01*
X138476161Y-103712624D01*
X138525493Y-103735112D01*
X138569033Y-103766462D01*
X138607472Y-103807397D01*
X138638002Y-103854910D01*
X138665935Y-103918379D01*
X138690490Y-104001374D01*
X138794599Y-103920170D01*
X138794599Y-103595351D01*
X139117000Y-103595351D01*
X139117000Y-104023942D01*
G37*
G36*
X139117000Y-103595888D02*
G01*
X138033734Y-103595888D01*
X138033734Y-102664957D01*
X138356134Y-102664957D01*
X138356134Y-103242457D01*
X138480796Y-103242457D01*
X138480796Y-102869547D01*
X138669937Y-102869547D01*
X138669937Y-103242457D01*
X138794599Y-103242457D01*
X138794599Y-102573274D01*
X139117000Y-102573274D01*
X139117000Y-103595888D01*
G37*
G36*
X139117000Y-102573879D02*
G01*
X138029435Y-102573879D01*
X138029435Y-102220447D01*
X138794599Y-102220447D01*
X138794599Y-101632469D01*
X139117000Y-101632469D01*
X139117000Y-102573879D01*
G37*
G36*
X139117000Y-101587333D02*
G01*
X138033734Y-101587333D01*
X138033734Y-100656401D01*
X138356134Y-100656401D01*
X138356134Y-101233901D01*
X138480796Y-101233901D01*
X138480796Y-100860991D01*
X138669937Y-100860991D01*
X138669937Y-101233901D01*
X138794599Y-101233901D01*
X138794599Y-100564719D01*
X139117000Y-100564719D01*
X139117000Y-101587333D01*
G37*
G36*
X138356134Y-99711096D02*
G01*
X138356134Y-99975800D01*
X138358822Y-100042409D01*
X138368372Y-100074584D01*
X138380951Y-100087308D01*
X138397333Y-100088167D01*
X138422431Y-100074176D01*
X138462661Y-100032959D01*
X138542135Y-99950349D01*
X138616399Y-99888350D01*
X138686140Y-99843910D01*
X138752167Y-99814504D01*
X138815405Y-99798220D01*
X138876878Y-99793845D01*
X138939905Y-99801860D01*
X138991593Y-99821680D01*
X139034350Y-99852845D01*
X139069572Y-99896507D01*
X139097460Y-99955277D01*
X139117000Y-100032959D01*
X139117000Y-100610459D01*
X138794599Y-100610459D01*
X138794599Y-100381891D01*
X138791421Y-100309161D01*
X138780886Y-100274718D01*
X138767179Y-100261583D01*
X138749186Y-100261521D01*
X138721223Y-100278652D01*
X138676050Y-100327754D01*
X138585358Y-100417085D01*
X138503361Y-100480450D01*
X138428774Y-100522358D01*
X138360185Y-100546443D01*
X138296067Y-100555304D01*
X138234831Y-100550345D01*
X138170829Y-100531575D01*
X138121560Y-100504418D01*
X138084207Y-100469334D01*
X138057101Y-100425571D01*
X138039919Y-100371261D01*
X138033734Y-100303641D01*
X138033734Y-99711096D01*
X138356134Y-99711096D01*
G37*
G36*
X138356134Y-98857809D02*
G01*
X138356134Y-99122513D01*
X138358822Y-99189122D01*
X138368372Y-99221297D01*
X138380951Y-99234021D01*
X138397333Y-99234880D01*
X138422431Y-99220889D01*
X138462661Y-99179672D01*
X138542135Y-99097062D01*
X138616399Y-99035064D01*
X138686140Y-98990623D01*
X138752167Y-98961217D01*
X138815405Y-98944933D01*
X138876878Y-98940559D01*
X138939905Y-98948573D01*
X138991593Y-98968393D01*
X139034350Y-98999558D01*
X139069572Y-99043220D01*
X139097460Y-99101990D01*
X139117000Y-99179672D01*
X139117000Y-99757172D01*
X138794599Y-99757172D01*
X138794599Y-99528604D01*
X138791421Y-99455874D01*
X138780886Y-99421431D01*
X138767179Y-99408296D01*
X138749186Y-99408234D01*
X138721223Y-99425365D01*
X138676050Y-99474467D01*
X138585358Y-99563798D01*
X138503361Y-99627163D01*
X138428774Y-99669072D01*
X138360185Y-99693156D01*
X138296067Y-99702017D01*
X138234831Y-99697058D01*
X138170829Y-99678288D01*
X138121560Y-99651131D01*
X138084207Y-99616047D01*
X138057101Y-99572284D01*
X138039919Y-99517974D01*
X138033734Y-99450355D01*
X138033734Y-98857809D01*
X138356134Y-98857809D01*
G37*
G36*
X138794599Y-97414261D02*
G01*
X138794599Y-97074397D01*
X139117000Y-97074397D01*
X139117000Y-97555647D01*
X139109733Y-97672133D01*
X139088647Y-97778170D01*
X139054400Y-97875226D01*
X139018665Y-97943672D01*
X138975618Y-98003518D01*
X138925061Y-98055594D01*
X138866467Y-98100436D01*
X138802431Y-98135507D01*
X138730784Y-98161188D01*
X138650314Y-98177200D01*
X138559582Y-98182783D01*
X138475746Y-98177048D01*
X138400296Y-98160460D01*
X138331954Y-98133550D01*
X138268651Y-98096269D01*
X138213385Y-98050924D01*
X138165448Y-97997067D01*
X138125298Y-97936682D01*
X138092269Y-97870105D01*
X138066377Y-97796641D01*
X138048424Y-97720551D01*
X138037463Y-97640379D01*
X138033734Y-97555647D01*
X138033734Y-97257896D01*
X138033734Y-97074397D01*
X138356134Y-97074397D01*
X138356134Y-97414261D01*
X138358143Y-97521093D01*
X138362918Y-97583521D01*
X138372181Y-97636597D01*
X138385419Y-97681249D01*
X138406627Y-97721128D01*
X138440227Y-97757214D01*
X138468504Y-97774301D01*
X138512602Y-97787683D01*
X138578389Y-97795499D01*
X138641900Y-97788527D01*
X138686063Y-97775174D01*
X138715812Y-97757214D01*
X138750288Y-97718625D01*
X138770620Y-97672987D01*
X138782024Y-97622769D01*
X138789360Y-97570692D01*
X138794599Y-97414261D01*
G37*
G36*
X138667610Y-95825585D02*
G01*
X138747229Y-95840101D01*
X138818387Y-95863359D01*
X138882184Y-95895015D01*
X138940823Y-95936168D01*
X138991517Y-95985314D01*
X139034842Y-96043070D01*
X139070990Y-96110419D01*
X139105019Y-96206420D01*
X139126574Y-96317718D01*
X139134194Y-96446925D01*
X139126524Y-96576119D01*
X139104848Y-96687149D01*
X139070654Y-96782691D01*
X139034313Y-96849706D01*
X138991034Y-96906827D01*
X138940643Y-96955088D01*
X138882587Y-96995140D01*
X138819480Y-97025670D01*
X138748529Y-97048209D01*
X138668569Y-97062338D01*
X138578255Y-97067277D01*
X138488188Y-97062358D01*
X138408795Y-97048318D01*
X138338671Y-97025969D01*
X138272782Y-96993794D01*
X138215006Y-96953522D01*
X138164507Y-96904868D01*
X138121948Y-96848920D01*
X138086169Y-96784131D01*
X138057309Y-96709345D01*
X138037554Y-96631329D01*
X138025161Y-96544235D01*
X138020936Y-96449141D01*
X138321745Y-96449141D01*
X138327531Y-96513255D01*
X138343501Y-96564060D01*
X138368525Y-96604378D01*
X138402827Y-96636122D01*
X138447952Y-96660073D01*
X138506570Y-96675763D01*
X138582218Y-96681538D01*
X138650619Y-96676034D01*
X138710863Y-96660202D01*
X138764374Y-96634521D01*
X138796239Y-96607706D01*
X138820161Y-96570039D01*
X138835974Y-96518592D01*
X138841884Y-96449141D01*
X138836549Y-96378848D01*
X138822377Y-96327042D01*
X138801248Y-96289419D01*
X138771646Y-96257403D01*
X138740829Y-96235837D01*
X138708290Y-96223192D01*
X138653217Y-96212564D01*
X138582218Y-96205527D01*
X138513726Y-96213453D01*
X138453288Y-96230393D01*
X138399658Y-96255902D01*
X138368034Y-96282264D01*
X138343977Y-96320664D01*
X138327844Y-96374623D01*
X138321745Y-96449141D01*
X138020936Y-96449141D01*
X138020838Y-96446925D01*
X138028572Y-96318285D01*
X138050492Y-96207101D01*
X138085183Y-96110822D01*
X138121836Y-96043218D01*
X138165466Y-95985317D01*
X138216250Y-95936127D01*
X138274728Y-95895015D01*
X138338358Y-95863367D01*
X138409388Y-95840109D01*
X138488924Y-95825588D01*
X138578255Y-95820527D01*
X138667610Y-95825585D01*
G37*
G36*
X139117000Y-95784123D02*
G01*
X138029435Y-95784123D01*
X138029435Y-95430691D01*
X138481333Y-95193055D01*
X138029435Y-94956964D01*
X138029435Y-94603599D01*
X139117000Y-94603599D01*
X139117000Y-94956964D01*
X138665101Y-94956964D01*
X139117000Y-95184055D01*
X139117000Y-95203600D01*
X138665101Y-95430691D01*
X139117000Y-95430691D01*
X139117000Y-95784123D01*
G37*
G36*
X139117000Y-94543955D02*
G01*
X138029435Y-94543955D01*
X138029435Y-94190524D01*
X138481333Y-93952888D01*
X138029435Y-93716796D01*
X138029435Y-93363432D01*
X139117000Y-93363432D01*
X139117000Y-93716796D01*
X138665101Y-93716796D01*
X139117000Y-93943887D01*
X139117000Y-93963433D01*
X138665101Y-94190524D01*
X139117000Y-94190524D01*
X139117000Y-94543955D01*
G37*
G36*
X138029435Y-92972924D02*
G01*
X138673027Y-92972924D01*
X138745113Y-92969282D01*
X138793892Y-92954335D01*
X138826033Y-92930811D01*
X138848718Y-92897036D01*
X138864576Y-92849818D01*
X138871975Y-92784924D01*
X138865846Y-92733493D01*
X138850209Y-92689653D01*
X138825294Y-92651867D01*
X138791235Y-92624149D01*
X138742311Y-92606678D01*
X138673027Y-92601492D01*
X138029435Y-92601492D01*
X138029435Y-92248060D01*
X138668460Y-92248060D01*
X138758475Y-92254821D01*
X138829638Y-92270302D01*
X138885408Y-92292861D01*
X138937153Y-92324131D01*
X138982090Y-92359917D01*
X139020817Y-92400327D01*
X139053373Y-92445793D01*
X139081625Y-92499774D01*
X139105312Y-92563476D01*
X139128350Y-92664967D01*
X139138493Y-92781969D01*
X139130569Y-92882058D01*
X139110954Y-92985350D01*
X139090394Y-93052674D01*
X139063804Y-93112562D01*
X139031362Y-93165827D01*
X138991655Y-93213319D01*
X138945348Y-93252755D01*
X138891789Y-93284645D01*
X138833424Y-93306642D01*
X138760283Y-93321083D01*
X138669199Y-93326356D01*
X138029435Y-93326356D01*
X138029435Y-92972924D01*
G37*
G36*
X139117000Y-92195805D02*
G01*
X138029435Y-92195805D01*
X138029435Y-91842373D01*
X138436130Y-91519032D01*
X138029435Y-91519032D01*
X138029435Y-91165668D01*
X139117000Y-91165668D01*
X139117000Y-91519032D01*
X138710305Y-91842373D01*
X139117000Y-91842373D01*
X139117000Y-92195805D01*
G37*
G36*
X138029435Y-91136181D02*
G01*
X138029435Y-90782750D01*
X139117000Y-90782750D01*
X139117000Y-91136181D01*
X138029435Y-91136181D01*
G37*
G36*
X138794599Y-89977554D02*
G01*
X138794599Y-89637691D01*
X139117000Y-89637691D01*
X139117000Y-90118941D01*
X139109733Y-90235427D01*
X139088647Y-90341464D01*
X139054400Y-90438520D01*
X139018665Y-90506966D01*
X138975618Y-90566811D01*
X138925061Y-90618888D01*
X138866467Y-90663730D01*
X138802431Y-90698801D01*
X138730784Y-90724482D01*
X138650314Y-90740494D01*
X138559582Y-90746077D01*
X138475746Y-90740342D01*
X138400296Y-90723754D01*
X138331954Y-90696844D01*
X138268651Y-90659563D01*
X138213385Y-90614218D01*
X138165448Y-90560361D01*
X138125298Y-90499976D01*
X138092269Y-90433399D01*
X138066377Y-90359935D01*
X138048424Y-90283845D01*
X138037463Y-90203673D01*
X138033734Y-90118941D01*
X138033734Y-89821190D01*
X138033734Y-89637691D01*
X138356134Y-89637691D01*
X138356134Y-89977554D01*
X138358143Y-90084387D01*
X138362918Y-90146815D01*
X138372181Y-90199891D01*
X138385419Y-90244542D01*
X138406627Y-90284422D01*
X138440227Y-90320508D01*
X138468504Y-90337595D01*
X138512602Y-90350977D01*
X138578389Y-90358793D01*
X138641900Y-90351821D01*
X138686063Y-90338468D01*
X138715812Y-90320508D01*
X138750288Y-90281919D01*
X138770620Y-90236281D01*
X138782024Y-90186063D01*
X138789360Y-90133986D01*
X138794599Y-89977554D01*
G37*
G36*
X139117000Y-88849287D02*
G01*
X138919260Y-88917730D01*
X138919260Y-89240332D01*
X139117000Y-89308708D01*
X139117000Y-89698275D01*
X138029435Y-89341082D01*
X138029435Y-89070400D01*
X138269892Y-89070400D01*
X138700028Y-89226025D01*
X138700028Y-88926730D01*
X138269892Y-89070400D01*
X138029435Y-89070400D01*
X138029435Y-88801934D01*
X139117000Y-88438696D01*
X139117000Y-88849287D01*
G37*
G36*
X138033734Y-87464241D02*
G01*
X138356134Y-87464241D01*
X138356134Y-87808672D01*
X139117000Y-87808672D01*
X139117000Y-88162036D01*
X138356134Y-88162036D01*
X138356134Y-88506468D01*
X138033734Y-88506468D01*
X138033734Y-87464241D01*
G37*
G36*
X138029435Y-87442546D02*
G01*
X138029435Y-87089114D01*
X139117000Y-87089114D01*
X139117000Y-87442546D01*
X138029435Y-87442546D01*
G37*
G36*
X138667610Y-85810749D02*
G01*
X138747229Y-85825265D01*
X138818387Y-85848523D01*
X138882184Y-85880179D01*
X138940823Y-85921332D01*
X138991517Y-85970478D01*
X139034842Y-86028234D01*
X139070990Y-86095583D01*
X139105019Y-86191584D01*
X139126574Y-86302882D01*
X139134194Y-86432089D01*
X139126524Y-86561283D01*
X139104848Y-86672313D01*
X139070654Y-86767855D01*
X139034313Y-86834870D01*
X138991034Y-86891991D01*
X138940643Y-86940252D01*
X138882587Y-86980304D01*
X138819480Y-87010834D01*
X138748529Y-87033373D01*
X138668569Y-87047502D01*
X138578255Y-87052441D01*
X138488188Y-87047522D01*
X138408795Y-87033482D01*
X138338671Y-87011133D01*
X138272782Y-86978958D01*
X138215006Y-86938686D01*
X138164507Y-86890032D01*
X138121948Y-86834084D01*
X138086169Y-86769295D01*
X138057309Y-86694509D01*
X138037554Y-86616493D01*
X138025161Y-86529399D01*
X138020936Y-86434305D01*
X138321745Y-86434305D01*
X138327531Y-86498419D01*
X138343501Y-86549224D01*
X138368525Y-86589542D01*
X138402827Y-86621286D01*
X138447952Y-86645237D01*
X138506570Y-86660927D01*
X138582218Y-86666702D01*
X138650619Y-86661198D01*
X138710863Y-86645366D01*
X138764374Y-86619685D01*
X138796239Y-86592870D01*
X138820161Y-86555203D01*
X138835974Y-86503756D01*
X138841884Y-86434305D01*
X138836549Y-86364012D01*
X138822377Y-86312206D01*
X138801248Y-86274583D01*
X138771646Y-86242567D01*
X138740829Y-86221001D01*
X138708290Y-86208356D01*
X138653217Y-86197728D01*
X138582218Y-86190691D01*
X138513726Y-86198617D01*
X138453288Y-86215557D01*
X138399658Y-86241066D01*
X138368034Y-86267428D01*
X138343977Y-86305828D01*
X138327844Y-86359787D01*
X138321745Y-86434305D01*
X138020936Y-86434305D01*
X138020838Y-86432089D01*
X138028572Y-86303449D01*
X138050492Y-86192265D01*
X138085183Y-86095986D01*
X138121836Y-86028382D01*
X138165466Y-85970481D01*
X138216250Y-85921291D01*
X138274728Y-85880179D01*
X138338358Y-85848531D01*
X138409388Y-85825273D01*
X138488924Y-85810752D01*
X138578255Y-85805691D01*
X138667610Y-85810749D01*
G37*
G36*
X139117000Y-85754241D02*
G01*
X138029435Y-85754241D01*
X138029435Y-85400810D01*
X138436130Y-85077469D01*
X138029435Y-85077469D01*
X138029435Y-84724105D01*
X139117000Y-84724105D01*
X139117000Y-85077469D01*
X138710305Y-85400810D01*
X139117000Y-85400810D01*
X139117000Y-85754241D01*
G37*
G36*
X138881344Y-82799945D02*
G01*
X138933947Y-82813085D01*
X138976826Y-82833554D01*
X139011682Y-82861032D01*
X139050148Y-82908167D01*
X139079003Y-82964027D01*
X139098193Y-83030225D01*
X139112609Y-83139054D01*
X139117000Y-83280959D01*
X139117000Y-83965993D01*
X138033734Y-83965993D01*
X138033734Y-83329118D01*
X138295953Y-83329118D01*
X138295953Y-83591538D01*
X138459302Y-83591538D01*
X138459302Y-83350141D01*
X138695729Y-83350141D01*
X138695729Y-83591538D01*
X138897767Y-83591538D01*
X138897767Y-83350141D01*
X138895624Y-83309381D01*
X138886472Y-83273357D01*
X138870565Y-83241129D01*
X138848107Y-83214114D01*
X138824228Y-83199339D01*
X138797890Y-83194515D01*
X138768315Y-83196755D01*
X138743899Y-83209029D01*
X138722999Y-83232532D01*
X138708667Y-83262120D01*
X138699217Y-83300565D01*
X138695729Y-83350141D01*
X138459302Y-83350141D01*
X138459302Y-83328379D01*
X138454237Y-83307261D01*
X138436600Y-83282504D01*
X138410548Y-83264282D01*
X138375747Y-83256913D01*
X138336894Y-83266331D01*
X138313886Y-83285862D01*
X138299747Y-83311358D01*
X138295953Y-83329118D01*
X138033734Y-83329118D01*
X138033734Y-83225345D01*
X138038961Y-83133783D01*
X138051805Y-83059972D01*
X138070831Y-83000982D01*
X138095057Y-82954260D01*
X138128534Y-82913801D01*
X138171777Y-82881594D01*
X138226561Y-82857360D01*
X138295483Y-82841823D01*
X138365591Y-82844453D01*
X138420784Y-82860250D01*
X138464541Y-82887765D01*
X138500217Y-82926598D01*
X138534049Y-82982914D01*
X138565493Y-83061391D01*
X138568516Y-83061391D01*
X138580399Y-83003822D01*
X138600487Y-82951640D01*
X138627772Y-82904485D01*
X138658452Y-82867077D01*
X138694249Y-82836569D01*
X138734082Y-82814016D01*
X138776473Y-82799764D01*
X138816831Y-82795209D01*
X138881344Y-82799945D01*
G37*
G36*
X138667610Y-81537867D02*
G01*
X138747229Y-81552383D01*
X138818387Y-81575641D01*
X138882184Y-81607297D01*
X138940823Y-81648450D01*
X138991517Y-81697596D01*
X139034842Y-81755352D01*
X139070990Y-81822701D01*
X139105019Y-81918702D01*
X139126574Y-82029999D01*
X139134194Y-82159207D01*
X139126524Y-82288401D01*
X139104848Y-82399431D01*
X139070654Y-82494973D01*
X139034313Y-82561988D01*
X138991034Y-82619109D01*
X138940643Y-82667370D01*
X138882587Y-82707422D01*
X138819480Y-82737952D01*
X138748529Y-82760491D01*
X138668569Y-82774620D01*
X138578255Y-82779559D01*
X138488188Y-82774640D01*
X138408795Y-82760600D01*
X138338671Y-82738251D01*
X138272782Y-82706076D01*
X138215006Y-82665804D01*
X138164507Y-82617150D01*
X138121948Y-82561202D01*
X138086169Y-82496413D01*
X138057309Y-82421627D01*
X138037554Y-82343611D01*
X138025161Y-82256517D01*
X138020936Y-82161423D01*
X138321745Y-82161423D01*
X138327531Y-82225537D01*
X138343501Y-82276342D01*
X138368525Y-82316659D01*
X138402827Y-82348404D01*
X138447952Y-82372355D01*
X138506570Y-82388045D01*
X138582218Y-82393820D01*
X138650619Y-82388316D01*
X138710863Y-82372484D01*
X138764374Y-82346803D01*
X138796239Y-82319988D01*
X138820161Y-82282321D01*
X138835974Y-82230874D01*
X138841884Y-82161423D01*
X138836549Y-82091130D01*
X138822377Y-82039324D01*
X138801248Y-82001700D01*
X138771646Y-81969685D01*
X138740829Y-81948119D01*
X138708290Y-81935474D01*
X138653217Y-81924846D01*
X138582218Y-81917809D01*
X138513726Y-81925734D01*
X138453288Y-81942675D01*
X138399658Y-81968184D01*
X138368034Y-81994546D01*
X138343977Y-82032946D01*
X138327844Y-82086905D01*
X138321745Y-82161423D01*
X138020936Y-82161423D01*
X138020838Y-82159207D01*
X138028572Y-82030566D01*
X138050492Y-81919383D01*
X138085183Y-81823104D01*
X138121836Y-81755500D01*
X138165466Y-81697599D01*
X138216250Y-81648409D01*
X138274728Y-81607297D01*
X138338358Y-81575649D01*
X138409388Y-81552391D01*
X138488924Y-81537870D01*
X138578255Y-81532809D01*
X138667610Y-81537867D01*
G37*
G36*
X139117000Y-80737689D02*
G01*
X138919260Y-80806132D01*
X138919260Y-81128734D01*
X139117000Y-81197110D01*
X139117000Y-81586677D01*
X138029435Y-81229484D01*
X138029435Y-80958802D01*
X138269892Y-80958802D01*
X138700028Y-81114427D01*
X138700028Y-80815132D01*
X138269892Y-80958802D01*
X138029435Y-80958802D01*
X138029435Y-80690336D01*
X139117000Y-80327098D01*
X139117000Y-80737689D01*
G37*
G36*
X139117000Y-79605324D02*
G01*
X138758329Y-79949688D01*
X139117000Y-79949688D01*
X139117000Y-80342211D01*
X138029435Y-80342211D01*
X138029435Y-79676722D01*
X138300251Y-79676722D01*
X138300251Y-79949688D01*
X138500274Y-79949688D01*
X138500274Y-79675983D01*
X138496581Y-79654274D01*
X138484154Y-79628631D01*
X138470691Y-79615856D01*
X138445531Y-79606253D01*
X138402546Y-79601563D01*
X138361821Y-79607586D01*
X138335843Y-79618174D01*
X138320200Y-79632056D01*
X138304449Y-79658384D01*
X138300251Y-79676722D01*
X138029435Y-79676722D01*
X138029435Y-79635415D01*
X138043364Y-79549864D01*
X138066832Y-79478975D01*
X138098885Y-79420347D01*
X138141419Y-79369238D01*
X138192356Y-79328353D01*
X138252765Y-79297028D01*
X138350577Y-79282612D01*
X138423100Y-79282909D01*
X138476161Y-79294006D01*
X138525493Y-79316494D01*
X138569033Y-79347844D01*
X138607472Y-79388778D01*
X138638002Y-79436292D01*
X138665935Y-79499761D01*
X138690490Y-79582756D01*
X138794599Y-79501551D01*
X138794599Y-79176733D01*
X139117000Y-79176733D01*
X139117000Y-79605324D01*
G37*
G36*
X138675436Y-77990001D02*
G01*
X138758885Y-78006873D01*
X138829324Y-78029793D01*
X138895908Y-78061611D01*
X138950065Y-78098269D01*
X138993480Y-78139610D01*
X139029930Y-78187538D01*
X139061115Y-78242995D01*
X139086909Y-78306923D01*
X139104091Y-78373683D01*
X139114599Y-78455379D01*
X139117000Y-78554701D01*
X139117000Y-79177270D01*
X138029435Y-79177270D01*
X138029435Y-78609576D01*
X138300251Y-78609576D01*
X138300251Y-78814838D01*
X138846183Y-78814838D01*
X138846183Y-78608032D01*
X138842518Y-78562242D01*
X138832362Y-78525219D01*
X138816495Y-78495259D01*
X138782790Y-78456472D01*
X138740530Y-78425338D01*
X138707913Y-78411425D01*
X138654937Y-78399326D01*
X138573956Y-78390747D01*
X138500541Y-78395996D01*
X138448167Y-78406740D01*
X138411950Y-78421241D01*
X138364747Y-78453926D01*
X138329939Y-78493781D01*
X138314071Y-78524690D01*
X138303913Y-78562728D01*
X138300251Y-78609576D01*
X138029435Y-78609576D01*
X138029435Y-78536633D01*
X138033580Y-78450347D01*
X138045385Y-78374331D01*
X138064093Y-78307326D01*
X138090641Y-78242986D01*
X138121838Y-78187401D01*
X138157522Y-78139610D01*
X138199745Y-78097819D01*
X138252217Y-78059815D01*
X138316439Y-78025696D01*
X138384783Y-78001715D01*
X138470427Y-77985926D01*
X138576979Y-77980156D01*
X138675436Y-77990001D01*
G37*
G36*
X139194376Y-76714869D02*
G01*
X139194376Y-76996902D01*
X139085572Y-77056551D01*
X138972389Y-77107794D01*
X138855868Y-77149565D01*
X138738380Y-77180402D01*
X138619075Y-77199550D01*
X138498729Y-77205925D01*
X138366193Y-77198101D01*
X138231096Y-77174293D01*
X138092539Y-77133688D01*
X137949650Y-77075082D01*
X137801605Y-76996902D01*
X137801605Y-76714869D01*
X137882977Y-76755807D01*
X137965425Y-76790901D01*
X138050035Y-76820561D01*
X138138581Y-76845374D01*
X138228613Y-76864670D01*
X138318454Y-76878084D01*
X138408664Y-76885997D01*
X138498729Y-76888629D01*
X138588253Y-76885925D01*
X138679072Y-76877748D01*
X138769432Y-76864174D01*
X138858609Y-76845374D01*
X138946043Y-76821154D01*
X139030220Y-76791640D01*
X139112398Y-76756433D01*
X139194376Y-76714869D01*
G37*
G36*
X138656034Y-75997192D02*
G01*
X139117000Y-76111509D01*
X139117000Y-76464874D01*
X138029435Y-76795737D01*
X138029435Y-76442373D01*
X138499401Y-76293464D01*
X138029435Y-76164101D01*
X138029435Y-75839282D01*
X138499401Y-75688157D01*
X138029435Y-75587340D01*
X138029435Y-75233975D01*
X139117000Y-75506135D01*
X139117000Y-75859567D01*
X138656034Y-75997192D01*
G37*
G36*
X138794599Y-74561434D02*
G01*
X138794599Y-74221570D01*
X139117000Y-74221570D01*
X139117000Y-74702820D01*
X139109733Y-74819307D01*
X139088647Y-74925344D01*
X139054400Y-75022400D01*
X139018665Y-75090846D01*
X138975618Y-75150691D01*
X138925061Y-75202768D01*
X138866467Y-75247610D01*
X138802431Y-75282681D01*
X138730784Y-75308362D01*
X138650314Y-75324374D01*
X138559582Y-75329957D01*
X138475746Y-75324222D01*
X138400296Y-75307634D01*
X138331954Y-75280723D01*
X138268651Y-75243443D01*
X138213385Y-75198098D01*
X138165448Y-75144241D01*
X138125298Y-75083856D01*
X138092269Y-75017279D01*
X138066377Y-74943815D01*
X138048424Y-74867725D01*
X138037463Y-74787553D01*
X138033734Y-74702820D01*
X138033734Y-74405070D01*
X138033734Y-74221570D01*
X138356134Y-74221570D01*
X138356134Y-74561434D01*
X138358143Y-74668267D01*
X138362918Y-74730695D01*
X138372181Y-74783771D01*
X138385419Y-74828422D01*
X138406627Y-74868302D01*
X138440227Y-74904388D01*
X138468504Y-74921475D01*
X138512602Y-74934856D01*
X138578389Y-74942673D01*
X138641900Y-74935701D01*
X138686063Y-74922348D01*
X138715812Y-74904388D01*
X138750288Y-74865799D01*
X138770620Y-74820161D01*
X138782024Y-74769943D01*
X138789360Y-74717866D01*
X138794599Y-74561434D01*
G37*
G36*
X138881344Y-73010789D02*
G01*
X138933947Y-73023930D01*
X138976826Y-73044398D01*
X139011682Y-73071877D01*
X139050148Y-73119011D01*
X139079003Y-73174872D01*
X139098193Y-73241070D01*
X139112609Y-73349898D01*
X139117000Y-73491803D01*
X139117000Y-74176837D01*
X138033734Y-74176837D01*
X138033734Y-73539962D01*
X138295953Y-73539962D01*
X138295953Y-73802383D01*
X138459302Y-73802383D01*
X138459302Y-73560985D01*
X138695729Y-73560985D01*
X138695729Y-73802383D01*
X138897767Y-73802383D01*
X138897767Y-73560985D01*
X138895624Y-73520225D01*
X138886472Y-73484202D01*
X138870565Y-73451973D01*
X138848107Y-73424959D01*
X138824228Y-73410183D01*
X138797890Y-73405360D01*
X138768315Y-73407600D01*
X138743899Y-73419874D01*
X138722999Y-73443376D01*
X138708667Y-73472965D01*
X138699217Y-73511410D01*
X138695729Y-73560985D01*
X138459302Y-73560985D01*
X138459302Y-73539223D01*
X138454237Y-73518105D01*
X138436600Y-73493348D01*
X138410548Y-73475126D01*
X138375747Y-73467758D01*
X138336894Y-73477175D01*
X138313886Y-73496707D01*
X138299747Y-73522202D01*
X138295953Y-73539962D01*
X138033734Y-73539962D01*
X138033734Y-73436189D01*
X138038961Y-73344627D01*
X138051805Y-73270817D01*
X138070831Y-73211827D01*
X138095057Y-73165104D01*
X138128534Y-73124645D01*
X138171777Y-73092438D01*
X138226561Y-73068204D01*
X138295483Y-73052667D01*
X138365591Y-73055297D01*
X138420784Y-73071095D01*
X138464541Y-73098609D01*
X138500217Y-73137442D01*
X138534049Y-73193758D01*
X138565493Y-73272235D01*
X138568516Y-73272235D01*
X138580399Y-73214667D01*
X138600487Y-73162485D01*
X138627772Y-73115329D01*
X138658452Y-73077922D01*
X138694249Y-73047413D01*
X138734082Y-73024860D01*
X138776473Y-73010609D01*
X138816831Y-73006053D01*
X138881344Y-73010789D01*
G37*
G36*
X139194376Y-72689630D02*
G01*
X139194376Y-72971597D01*
X139064992Y-72909220D01*
X138931422Y-72860809D01*
X138793021Y-72826081D01*
X138649058Y-72805025D01*
X138498729Y-72797903D01*
X138408103Y-72800686D01*
X138313953Y-72809187D01*
X138220773Y-72823100D01*
X138134417Y-72841562D01*
X138049505Y-72865680D01*
X137960858Y-72897176D01*
X137875034Y-72933864D01*
X137801605Y-72971597D01*
X137801605Y-72689630D01*
X137912126Y-72629342D01*
X138023994Y-72578738D01*
X138138968Y-72537553D01*
X138257198Y-72506534D01*
X138377598Y-72487078D01*
X138498729Y-72480607D01*
X138619860Y-72487078D01*
X138740261Y-72506534D01*
X138858424Y-72537659D01*
X138973128Y-72579141D01*
X139084600Y-72629890D01*
X139194376Y-72689630D01*
G37*
G36*
X139877435Y-100610392D02*
G01*
X140712721Y-100363756D01*
X139877435Y-100114097D01*
X139877435Y-99678722D01*
X140965000Y-100066005D01*
X140965000Y-100642699D01*
X139877435Y-101024744D01*
X139877435Y-100610392D01*
G37*
G36*
X140965000Y-99694304D02*
G01*
X139881734Y-99694304D01*
X139881734Y-98763373D01*
X140204134Y-98763373D01*
X140204134Y-99340873D01*
X140328796Y-99340873D01*
X140328796Y-98967963D01*
X140517937Y-98967963D01*
X140517937Y-99340873D01*
X140642599Y-99340873D01*
X140642599Y-98671690D01*
X140965000Y-98671690D01*
X140965000Y-99694304D01*
G37*
G36*
X140965000Y-97935408D02*
G01*
X140606329Y-98279772D01*
X140965000Y-98279772D01*
X140965000Y-98672295D01*
X139877435Y-98672295D01*
X139877435Y-98006806D01*
X140148251Y-98006806D01*
X140148251Y-98279772D01*
X140348274Y-98279772D01*
X140348274Y-98006067D01*
X140344581Y-97984358D01*
X140332154Y-97958715D01*
X140318691Y-97945940D01*
X140293531Y-97936337D01*
X140250546Y-97931646D01*
X140209821Y-97937670D01*
X140183843Y-97948257D01*
X140168200Y-97962140D01*
X140152449Y-97988468D01*
X140148251Y-98006806D01*
X139877435Y-98006806D01*
X139877435Y-97965498D01*
X139891364Y-97879948D01*
X139914832Y-97809059D01*
X139946885Y-97750430D01*
X139989419Y-97699322D01*
X140040356Y-97658437D01*
X140100765Y-97627112D01*
X140198577Y-97612696D01*
X140271100Y-97612992D01*
X140324161Y-97624090D01*
X140373493Y-97646578D01*
X140417033Y-97677927D01*
X140455472Y-97718862D01*
X140486002Y-97766376D01*
X140513935Y-97829844D01*
X140538490Y-97912840D01*
X140642599Y-97831635D01*
X140642599Y-97506817D01*
X140965000Y-97506817D01*
X140965000Y-97935408D01*
G37*
G36*
X140965000Y-97435217D02*
G01*
X140668391Y-97435217D01*
X140668391Y-97099786D01*
X140965000Y-97099786D01*
X140965000Y-97435217D01*
G37*
G36*
X140453457Y-97435217D02*
G01*
X140156849Y-97435217D01*
X140156849Y-97099786D01*
X140453457Y-97099786D01*
X140453457Y-97435217D01*
G37*
G36*
X140537819Y-96101620D02*
G01*
X140298705Y-96101620D01*
X140303004Y-96015177D01*
X140298504Y-95920404D01*
X140289908Y-95879919D01*
X140273585Y-95843700D01*
X140257565Y-95824460D01*
X140237202Y-95813104D01*
X140211052Y-95809109D01*
X140174034Y-95814568D01*
X140146565Y-95829754D01*
X140126221Y-95854984D01*
X140107641Y-95904179D01*
X140100966Y-95966279D01*
X140104112Y-96032089D01*
X140113795Y-96101284D01*
X140143818Y-96226483D01*
X139901481Y-96226483D01*
X139882576Y-96152780D01*
X139869644Y-96068574D01*
X139862736Y-95979220D01*
X139860240Y-95872313D01*
X139864413Y-95788781D01*
X139876830Y-95707620D01*
X139898325Y-95629492D01*
X139929086Y-95557972D01*
X139955897Y-95514365D01*
X139987526Y-95477626D01*
X140024194Y-95447080D01*
X140065521Y-95424193D01*
X140111967Y-95410213D01*
X140164774Y-95405369D01*
X140223285Y-95411179D01*
X140273008Y-95427763D01*
X140315763Y-95454754D01*
X140352712Y-95493004D01*
X140384229Y-95544483D01*
X140409866Y-95612109D01*
X140412889Y-95612109D01*
X140438235Y-95539127D01*
X140470064Y-95483849D01*
X140507766Y-95442958D01*
X140551668Y-95414185D01*
X140603002Y-95396520D01*
X140663756Y-95390324D01*
X140718432Y-95394897D01*
X140766311Y-95408032D01*
X140808615Y-95429344D01*
X140846249Y-95459103D01*
X140888754Y-95508267D01*
X140923313Y-95566578D01*
X140949887Y-95635416D01*
X140973968Y-95745291D01*
X140982194Y-95864051D01*
X140979173Y-95957836D01*
X140969701Y-96060716D01*
X140954575Y-96160682D01*
X140936924Y-96237028D01*
X140683504Y-96237028D01*
X140699750Y-96181420D01*
X140715072Y-96109546D01*
X140725286Y-96035370D01*
X140728572Y-95966279D01*
X140722753Y-95889290D01*
X140708087Y-95838864D01*
X140690693Y-95813680D01*
X140666265Y-95798713D01*
X140632390Y-95793325D01*
X140595147Y-95799519D01*
X140568177Y-95816849D01*
X140548901Y-95846386D01*
X140532405Y-95902103D01*
X140526535Y-95969302D01*
X140537819Y-96101620D01*
G37*
G36*
X140965000Y-95240744D02*
G01*
X140668391Y-95240744D01*
X140668391Y-94905313D01*
X140965000Y-94905313D01*
X140965000Y-95240744D01*
G37*
G36*
X140434046Y-94698976D02*
G01*
X140150871Y-94808727D01*
X139877435Y-94403442D01*
X139877435Y-94072579D01*
X140965000Y-94072579D01*
X140965000Y-94460601D01*
X140258539Y-94460601D01*
X140434046Y-94698976D01*
G37*
G36*
X140523436Y-91328250D02*
G01*
X140606885Y-91345122D01*
X140677324Y-91368041D01*
X140743908Y-91399860D01*
X140798065Y-91436517D01*
X140841480Y-91477859D01*
X140877930Y-91525786D01*
X140909115Y-91581244D01*
X140934909Y-91645171D01*
X140952091Y-91711931D01*
X140962599Y-91793628D01*
X140965000Y-91892950D01*
X140965000Y-92515519D01*
X139877435Y-92515519D01*
X139877435Y-91947825D01*
X140148251Y-91947825D01*
X140148251Y-92153087D01*
X140694183Y-92153087D01*
X140694183Y-91946280D01*
X140690518Y-91900490D01*
X140680362Y-91863467D01*
X140664495Y-91833507D01*
X140630790Y-91794720D01*
X140588530Y-91763586D01*
X140555913Y-91749673D01*
X140502937Y-91737575D01*
X140421956Y-91728996D01*
X140348541Y-91734244D01*
X140296167Y-91744988D01*
X140259950Y-91759489D01*
X140212747Y-91792174D01*
X140177939Y-91832029D01*
X140162071Y-91862939D01*
X140151913Y-91900976D01*
X140148251Y-91947825D01*
X139877435Y-91947825D01*
X139877435Y-91874882D01*
X139881580Y-91788595D01*
X139893385Y-91712579D01*
X139912093Y-91645574D01*
X139938641Y-91581234D01*
X139969838Y-91525650D01*
X140005522Y-91477859D01*
X140047745Y-91436067D01*
X140100217Y-91398063D01*
X140164439Y-91363944D01*
X140232783Y-91339964D01*
X140318427Y-91324175D01*
X140424979Y-91318405D01*
X140523436Y-91328250D01*
G37*
G36*
X140965000Y-90523083D02*
G01*
X140767260Y-90591526D01*
X140767260Y-90914128D01*
X140965000Y-90982504D01*
X140965000Y-91372071D01*
X139877435Y-91014878D01*
X139877435Y-90744196D01*
X140117892Y-90744196D01*
X140548028Y-90899822D01*
X140548028Y-90600526D01*
X140117892Y-90744196D01*
X139877435Y-90744196D01*
X139877435Y-90475731D01*
X140965000Y-90112493D01*
X140965000Y-90523083D01*
G37*
G36*
X139881734Y-89138037D02*
G01*
X140204134Y-89138037D01*
X140204134Y-89482468D01*
X140965000Y-89482468D01*
X140965000Y-89835833D01*
X140204134Y-89835833D01*
X140204134Y-90180264D01*
X139881734Y-90180264D01*
X139881734Y-89138037D01*
G37*
G36*
X140965000Y-89101297D02*
G01*
X139881734Y-89101297D01*
X139881734Y-88170365D01*
X140204134Y-88170365D01*
X140204134Y-88747865D01*
X140328796Y-88747865D01*
X140328796Y-88374955D01*
X140517937Y-88374955D01*
X140517937Y-88747865D01*
X140642599Y-88747865D01*
X140642599Y-88078682D01*
X140965000Y-88078682D01*
X140965000Y-89101297D01*
G37*
G36*
X140965000Y-88007150D02*
G01*
X140668391Y-88007150D01*
X140668391Y-87671719D01*
X140965000Y-87671719D01*
X140965000Y-88007150D01*
G37*
G36*
X140453457Y-88007150D02*
G01*
X140156849Y-88007150D01*
X140156849Y-87671719D01*
X140453457Y-87671719D01*
X140453457Y-88007150D01*
G37*
G36*
X140729749Y-85811801D02*
G01*
X140777859Y-85826821D01*
X140819919Y-85851297D01*
X140856869Y-85883866D01*
X140888621Y-85922847D01*
X140915363Y-85968974D01*
X140945338Y-86045096D01*
X140966410Y-86132928D01*
X140978246Y-86224236D01*
X140982194Y-86316360D01*
X140974773Y-86440145D01*
X140952909Y-86557019D01*
X140928210Y-86631197D01*
X140895556Y-86694116D01*
X140855182Y-86747302D01*
X140818587Y-86779926D01*
X140776948Y-86803160D01*
X140729262Y-86817467D01*
X140674100Y-86822462D01*
X140605738Y-86816054D01*
X140549618Y-86798072D01*
X140503242Y-86769376D01*
X140464948Y-86729444D01*
X140434094Y-86676437D01*
X140411142Y-86607394D01*
X140408120Y-86607394D01*
X140382411Y-86670399D01*
X140354386Y-86717547D01*
X140318821Y-86755433D01*
X140274391Y-86782632D01*
X140222454Y-86798608D01*
X140157117Y-86804394D01*
X140102356Y-86799456D01*
X140055654Y-86785391D01*
X140015463Y-86762684D01*
X139980217Y-86732089D01*
X139949704Y-86694754D01*
X139923780Y-86649843D01*
X139894694Y-86576152D01*
X139874883Y-86493815D01*
X139863964Y-86407733D01*
X139860243Y-86316427D01*
X140066577Y-86316427D01*
X140070659Y-86350483D01*
X140082201Y-86378059D01*
X140101100Y-86400655D01*
X140139045Y-86423633D01*
X140185395Y-86431484D01*
X140221387Y-86427853D01*
X140251154Y-86417598D01*
X140276003Y-86401058D01*
X140295128Y-86378626D01*
X140307039Y-86350933D01*
X140311601Y-86316427D01*
X140311593Y-86316360D01*
X140474951Y-86316360D01*
X140479712Y-86355566D01*
X140492729Y-86384677D01*
X140513504Y-86406229D01*
X140540578Y-86421326D01*
X140574097Y-86430964D01*
X140615665Y-86434440D01*
X140674450Y-86426848D01*
X140718632Y-86405894D01*
X140740342Y-86384001D01*
X140753787Y-86354947D01*
X140758663Y-86316360D01*
X140753733Y-86277334D01*
X140740062Y-86247527D01*
X140717893Y-86224678D01*
X140689245Y-86208456D01*
X140654663Y-86198234D01*
X140612710Y-86194587D01*
X140572788Y-86198233D01*
X140540093Y-86208443D01*
X140513169Y-86224678D01*
X140492520Y-86247320D01*
X140479631Y-86277112D01*
X140474951Y-86316360D01*
X140311593Y-86316360D01*
X140307460Y-86283455D01*
X140295714Y-86256745D01*
X140276338Y-86234820D01*
X140237463Y-86212811D01*
X140188350Y-86205132D01*
X140140515Y-86212756D01*
X140101839Y-86234820D01*
X140082463Y-86256745D01*
X140070717Y-86283455D01*
X140066577Y-86316427D01*
X139860243Y-86316427D01*
X139860240Y-86316360D01*
X139867357Y-86190081D01*
X139887711Y-86078388D01*
X139911123Y-86008548D01*
X139942495Y-85950073D01*
X139981611Y-85901337D01*
X140016913Y-85871795D01*
X140057220Y-85850602D01*
X140103507Y-85837484D01*
X140157117Y-85832894D01*
X140222053Y-85838932D01*
X140274003Y-85855688D01*
X140315698Y-85882127D01*
X140350627Y-85918110D01*
X140382036Y-85965606D01*
X140409665Y-86026871D01*
X140411142Y-86026871D01*
X140432877Y-85963561D01*
X140463072Y-85910846D01*
X140501683Y-85867149D01*
X140548741Y-85834170D01*
X140605342Y-85813782D01*
X140674100Y-85806564D01*
X140729749Y-85811801D01*
G37*
G36*
X139860240Y-85398593D02*
G01*
X139860240Y-85125628D01*
X140982194Y-85607616D01*
X140982194Y-85880582D01*
X139860240Y-85398593D01*
G37*
G36*
X139877435Y-84558337D02*
G01*
X140201851Y-84558337D01*
X140201851Y-84613951D01*
X140624397Y-84613951D01*
X140708535Y-84621331D01*
X140763109Y-84634151D01*
X140796478Y-84650087D01*
X140840940Y-84687250D01*
X140887758Y-84742575D01*
X140913629Y-84785016D01*
X140936718Y-84839600D01*
X140956402Y-84908746D01*
X140963186Y-85074917D01*
X140965000Y-85212474D01*
X140641121Y-85212474D01*
X140648672Y-85151890D01*
X140641121Y-85080156D01*
X140624886Y-85026688D01*
X140609486Y-84998951D01*
X140583829Y-84981662D01*
X140523647Y-84967383D01*
X139877435Y-84967383D01*
X139877435Y-84558337D01*
G37*
G36*
X139877435Y-84196644D02*
G01*
X140521027Y-84196644D01*
X140593113Y-84193002D01*
X140641892Y-84178054D01*
X140674033Y-84154530D01*
X140696718Y-84120756D01*
X140712576Y-84073537D01*
X140719975Y-84008644D01*
X140713846Y-83957212D01*
X140698209Y-83913372D01*
X140673294Y-83875587D01*
X140639235Y-83847869D01*
X140590311Y-83830398D01*
X140521027Y-83825211D01*
X139877435Y-83825211D01*
X139877435Y-83471780D01*
X140516460Y-83471780D01*
X140606475Y-83478540D01*
X140677638Y-83494022D01*
X140733408Y-83516580D01*
X140785153Y-83547851D01*
X140830090Y-83583636D01*
X140868817Y-83624047D01*
X140901373Y-83669512D01*
X140929625Y-83723493D01*
X140953312Y-83787195D01*
X140976350Y-83888687D01*
X140986493Y-84005689D01*
X140978569Y-84105778D01*
X140958954Y-84209070D01*
X140938394Y-84276394D01*
X140911804Y-84336282D01*
X140879362Y-84389547D01*
X140839655Y-84437038D01*
X140793348Y-84476475D01*
X140739789Y-84508365D01*
X140681424Y-84530362D01*
X140608283Y-84544803D01*
X140517199Y-84550075D01*
X139877435Y-84550075D01*
X139877435Y-84196644D01*
G37*
G36*
X140965000Y-83419524D02*
G01*
X139877435Y-83419524D01*
X139877435Y-83066093D01*
X140642599Y-83066093D01*
X140642599Y-82478114D01*
X140965000Y-82478114D01*
X140965000Y-83419524D01*
G37*
G36*
X139860240Y-82088614D02*
G01*
X139860240Y-81815649D01*
X140982194Y-82297637D01*
X140982194Y-82570603D01*
X139860240Y-82088614D01*
G37*
G36*
X140702780Y-81467926D02*
G01*
X140702780Y-81027984D01*
X140965000Y-81027984D01*
X140965000Y-81877711D01*
X140659391Y-81877711D01*
X140568475Y-81706306D01*
X140482540Y-81563370D01*
X140433543Y-81499956D01*
X140389246Y-81455500D01*
X140356826Y-81433497D01*
X140321518Y-81420445D01*
X140282316Y-81416006D01*
X140233333Y-81422886D01*
X140196069Y-81442110D01*
X140167595Y-81473904D01*
X140147820Y-81514010D01*
X140135431Y-81560898D01*
X140131057Y-81616029D01*
X140136402Y-81703834D01*
X140151875Y-81783409D01*
X140176932Y-81855881D01*
X139894092Y-81855881D01*
X139869308Y-81685949D01*
X139862513Y-81601471D01*
X139860240Y-81516017D01*
X139865846Y-81411959D01*
X139881830Y-81320431D01*
X139907233Y-81239797D01*
X139941512Y-81168631D01*
X139977868Y-81118666D01*
X140022109Y-81080184D01*
X140075243Y-81052074D01*
X140139083Y-81034315D01*
X140216090Y-81027984D01*
X140273746Y-81032464D01*
X140327397Y-81045643D01*
X140377827Y-81067478D01*
X140447220Y-81112640D01*
X140508333Y-81169370D01*
X140561551Y-81233376D01*
X140605724Y-81297994D01*
X140699758Y-81467926D01*
X140702780Y-81467926D01*
G37*
G36*
X140532996Y-79900556D02*
G01*
X140630886Y-79921203D01*
X140717288Y-79954255D01*
X140777418Y-79988732D01*
X140829662Y-80030232D01*
X140874745Y-80079065D01*
X140913080Y-80135874D01*
X140942466Y-80197089D01*
X140964051Y-80265122D01*
X140977511Y-80340965D01*
X140982194Y-80425766D01*
X140977457Y-80510051D01*
X140963814Y-80585737D01*
X140941881Y-80653932D01*
X140911938Y-80715591D01*
X140873096Y-80772775D01*
X140827474Y-80822131D01*
X140774658Y-80864271D01*
X140713930Y-80899494D01*
X140626752Y-80933537D01*
X140529887Y-80954591D01*
X140421620Y-80961892D01*
X140341020Y-80957853D01*
X140266473Y-80946085D01*
X140197283Y-80926965D01*
X140131147Y-80899627D01*
X140071775Y-80865311D01*
X140018485Y-80823931D01*
X139971850Y-80775356D01*
X139932834Y-80719587D01*
X139901212Y-80655813D01*
X139878992Y-80587966D01*
X139865093Y-80511712D01*
X139860240Y-80425766D01*
X140100966Y-80425766D01*
X140105958Y-80464768D01*
X140119746Y-80494175D01*
X140142072Y-80516374D01*
X140187065Y-80539158D01*
X140246046Y-80551704D01*
X140421956Y-80558085D01*
X140554610Y-80555062D01*
X140604550Y-80549739D01*
X140648039Y-80540420D01*
X140686679Y-80524271D01*
X140715878Y-80500590D01*
X140734732Y-80468753D01*
X140741468Y-80425766D01*
X140736391Y-80388399D01*
X140722213Y-80359794D01*
X140698885Y-80337778D01*
X140652615Y-80315187D01*
X140593433Y-80302784D01*
X140421956Y-80296403D01*
X140245643Y-80302784D01*
X140186361Y-80315179D01*
X140141669Y-80337375D01*
X140119530Y-80359063D01*
X140105895Y-80387752D01*
X140100966Y-80425766D01*
X139860240Y-80425766D01*
X139864802Y-80344782D01*
X139878002Y-80271285D01*
X139899331Y-80204317D01*
X139929643Y-80141125D01*
X139967510Y-80085217D01*
X140013179Y-80035863D01*
X140065635Y-79993542D01*
X140124757Y-79958213D01*
X140191305Y-79929807D01*
X140261070Y-79909927D01*
X140337545Y-79897598D01*
X140421620Y-79893335D01*
X140532996Y-79900556D01*
G37*
G36*
X140702780Y-79417459D02*
G01*
X140702780Y-78977516D01*
X140965000Y-78977516D01*
X140965000Y-79827243D01*
X140659391Y-79827243D01*
X140568475Y-79655838D01*
X140482540Y-79512903D01*
X140433543Y-79449488D01*
X140389246Y-79405033D01*
X140356826Y-79383030D01*
X140321518Y-79369978D01*
X140282316Y-79365539D01*
X140233333Y-79372418D01*
X140196069Y-79391643D01*
X140167595Y-79423436D01*
X140147820Y-79463542D01*
X140135431Y-79510430D01*
X140131057Y-79565561D01*
X140136402Y-79653367D01*
X140151875Y-79732941D01*
X140176932Y-79805414D01*
X139894092Y-79805414D01*
X139869308Y-79635482D01*
X139862513Y-79551003D01*
X139860240Y-79465550D01*
X139865846Y-79361491D01*
X139881830Y-79269964D01*
X139907233Y-79189329D01*
X139941512Y-79118163D01*
X139977868Y-79068198D01*
X140022109Y-79029716D01*
X140075243Y-79001606D01*
X140139083Y-78983848D01*
X140216090Y-78977516D01*
X140273746Y-78981996D01*
X140327397Y-78995176D01*
X140377827Y-79017010D01*
X140447220Y-79062172D01*
X140508333Y-79118902D01*
X140561551Y-79182909D01*
X140605724Y-79247527D01*
X140699758Y-79417459D01*
X140702780Y-79417459D01*
G37*
G36*
X139877435Y-78116572D02*
G01*
X140131057Y-78116572D01*
X140131057Y-78521924D01*
X140298571Y-78521924D01*
X140294071Y-78401561D01*
X140298655Y-78342441D01*
X140312177Y-78287060D01*
X140334639Y-78234651D01*
X140365607Y-78187035D01*
X140404196Y-78146644D01*
X140451106Y-78112878D01*
X140503325Y-78088140D01*
X140561261Y-78072981D01*
X140626143Y-78067742D01*
X140691981Y-78072574D01*
X140748143Y-78086248D01*
X140796253Y-78107990D01*
X140837584Y-78137663D01*
X140884802Y-78188126D01*
X140922050Y-78247580D01*
X140949551Y-78317401D01*
X140967359Y-78391253D01*
X140978391Y-78471478D01*
X140982194Y-78558798D01*
X140976888Y-78664855D01*
X140961171Y-78779508D01*
X140935580Y-78889595D01*
X140687601Y-78889595D01*
X140712837Y-78757402D01*
X140719975Y-78663310D01*
X140713262Y-78583747D01*
X140696121Y-78530913D01*
X140671397Y-78497198D01*
X140639297Y-78477618D01*
X140597329Y-78470743D01*
X140551181Y-78478126D01*
X140517510Y-78498734D01*
X140493153Y-78533544D01*
X140477558Y-78576354D01*
X140467691Y-78625976D01*
X140464204Y-78683594D01*
X140470099Y-78773224D01*
X140489056Y-78876094D01*
X139877435Y-78876094D01*
X139877435Y-78116572D01*
G37*
G36*
X142490599Y-100936487D02*
G01*
X142490599Y-100596624D01*
X142813000Y-100596624D01*
X142813000Y-101077874D01*
X142805733Y-101194360D01*
X142784647Y-101300397D01*
X142750400Y-101397453D01*
X142714665Y-101465899D01*
X142671618Y-101525745D01*
X142621061Y-101577821D01*
X142562467Y-101622663D01*
X142498431Y-101657734D01*
X142426784Y-101683415D01*
X142346314Y-101699427D01*
X142255582Y-101705010D01*
X142171746Y-101699275D01*
X142096296Y-101682687D01*
X142027954Y-101655777D01*
X141964651Y-101618496D01*
X141909385Y-101573151D01*
X141861448Y-101519294D01*
X141821298Y-101458909D01*
X141788269Y-101392332D01*
X141762377Y-101318868D01*
X141744424Y-101242778D01*
X141733463Y-101162606D01*
X141729734Y-101077874D01*
X141729734Y-100780123D01*
X141729734Y-100596624D01*
X142052134Y-100596624D01*
X142052134Y-100936487D01*
X142054143Y-101043320D01*
X142058918Y-101105748D01*
X142068181Y-101158824D01*
X142081419Y-101203475D01*
X142102627Y-101243355D01*
X142136227Y-101279441D01*
X142164504Y-101296528D01*
X142208602Y-101309910D01*
X142274389Y-101317726D01*
X142337900Y-101310754D01*
X142382063Y-101297401D01*
X142411812Y-101279441D01*
X142446288Y-101240852D01*
X142466620Y-101195214D01*
X142478024Y-101144996D01*
X142485360Y-101092919D01*
X142490599Y-100936487D01*
G37*
G36*
X142813000Y-99815004D02*
G01*
X142454329Y-100159368D01*
X142813000Y-100159368D01*
X142813000Y-100551890D01*
X141725435Y-100551890D01*
X141725435Y-99886402D01*
X141996251Y-99886402D01*
X141996251Y-100159368D01*
X142196274Y-100159368D01*
X142196274Y-99885663D01*
X142192581Y-99863954D01*
X142180154Y-99838311D01*
X142166691Y-99825536D01*
X142141531Y-99815933D01*
X142098546Y-99811242D01*
X142057821Y-99817266D01*
X142031843Y-99827853D01*
X142016200Y-99841736D01*
X142000449Y-99868064D01*
X141996251Y-99886402D01*
X141725435Y-99886402D01*
X141725435Y-99845094D01*
X141739364Y-99759544D01*
X141762832Y-99688655D01*
X141794885Y-99630026D01*
X141837419Y-99578918D01*
X141888356Y-99538033D01*
X141948765Y-99506708D01*
X142046577Y-99492292D01*
X142119100Y-99492588D01*
X142172161Y-99503686D01*
X142221493Y-99526174D01*
X142265033Y-99557523D01*
X142303472Y-99598458D01*
X142334002Y-99645972D01*
X142361935Y-99709440D01*
X142386490Y-99792436D01*
X142490599Y-99711231D01*
X142490599Y-99386412D01*
X142813000Y-99386412D01*
X142813000Y-99815004D01*
G37*
G36*
X142813000Y-99386950D02*
G01*
X141729734Y-99386950D01*
X141729734Y-98456018D01*
X142052134Y-98456018D01*
X142052134Y-99033518D01*
X142176796Y-99033518D01*
X142176796Y-98660608D01*
X142365937Y-98660608D01*
X142365937Y-99033518D01*
X142490599Y-99033518D01*
X142490599Y-98364336D01*
X142813000Y-98364336D01*
X142813000Y-99386950D01*
G37*
G36*
X142813000Y-97621269D02*
G01*
X142615260Y-97689712D01*
X142615260Y-98012314D01*
X142813000Y-98080690D01*
X142813000Y-98470258D01*
X141725435Y-98113065D01*
X141725435Y-97842382D01*
X141965892Y-97842382D01*
X142396028Y-97998008D01*
X142396028Y-97698713D01*
X141965892Y-97842382D01*
X141725435Y-97842382D01*
X141725435Y-97573917D01*
X142813000Y-97210679D01*
X142813000Y-97621269D01*
G37*
G36*
X141729734Y-96236223D02*
G01*
X142052134Y-96236223D01*
X142052134Y-96580654D01*
X142813000Y-96580654D01*
X142813000Y-96934019D01*
X142052134Y-96934019D01*
X142052134Y-97278450D01*
X141729734Y-97278450D01*
X141729734Y-96236223D01*
G37*
G36*
X142813000Y-96199483D02*
G01*
X141729734Y-96199483D01*
X141729734Y-95268551D01*
X142052134Y-95268551D01*
X142052134Y-95846051D01*
X142176796Y-95846051D01*
X142176796Y-95473141D01*
X142365937Y-95473141D01*
X142365937Y-95846051D01*
X142490599Y-95846051D01*
X142490599Y-95176869D01*
X142813000Y-95176869D01*
X142813000Y-96199483D01*
G37*
G36*
X142371436Y-93990204D02*
G01*
X142454885Y-94007077D01*
X142525324Y-94029996D01*
X142591908Y-94061814D01*
X142646065Y-94098472D01*
X142689480Y-94139814D01*
X142725930Y-94187741D01*
X142757115Y-94243198D01*
X142782909Y-94307126D01*
X142800091Y-94373886D01*
X142810599Y-94455582D01*
X142813000Y-94554904D01*
X142813000Y-95177473D01*
X141725435Y-95177473D01*
X141725435Y-94609780D01*
X141996251Y-94609780D01*
X141996251Y-94815041D01*
X142542183Y-94815041D01*
X142542183Y-94608235D01*
X142538518Y-94562445D01*
X142528362Y-94525422D01*
X142512495Y-94495462D01*
X142478790Y-94456675D01*
X142436530Y-94425541D01*
X142403913Y-94411628D01*
X142350937Y-94399529D01*
X142269956Y-94390950D01*
X142196541Y-94396199D01*
X142144167Y-94406943D01*
X142107950Y-94421444D01*
X142060747Y-94454129D01*
X142025939Y-94493984D01*
X142010071Y-94524893D01*
X141999913Y-94562931D01*
X141996251Y-94609780D01*
X141725435Y-94609780D01*
X141725435Y-94536836D01*
X141729580Y-94450550D01*
X141741385Y-94374534D01*
X141760093Y-94307529D01*
X141786641Y-94243189D01*
X141817838Y-94187605D01*
X141853522Y-94139814D01*
X141895745Y-94098022D01*
X141948217Y-94060018D01*
X142012439Y-94025899D01*
X142080783Y-94001918D01*
X142166427Y-93986130D01*
X142272979Y-93980360D01*
X142371436Y-93990204D01*
G37*
G36*
X142577344Y-92049080D02*
G01*
X142629947Y-92062221D01*
X142672826Y-92082689D01*
X142707682Y-92110168D01*
X142746148Y-92157302D01*
X142775003Y-92213163D01*
X142794193Y-92279361D01*
X142808609Y-92388189D01*
X142813000Y-92530094D01*
X142813000Y-93215128D01*
X141729734Y-93215128D01*
X141729734Y-92578253D01*
X141991953Y-92578253D01*
X141991953Y-92840674D01*
X142155302Y-92840674D01*
X142155302Y-92599276D01*
X142391729Y-92599276D01*
X142391729Y-92840674D01*
X142593767Y-92840674D01*
X142593767Y-92599276D01*
X142591624Y-92558516D01*
X142582472Y-92522493D01*
X142566565Y-92490265D01*
X142544107Y-92463250D01*
X142520228Y-92448474D01*
X142493890Y-92443651D01*
X142464315Y-92445891D01*
X142439899Y-92458165D01*
X142418999Y-92481667D01*
X142404667Y-92511256D01*
X142395217Y-92549701D01*
X142391729Y-92599276D01*
X142155302Y-92599276D01*
X142155302Y-92577514D01*
X142150237Y-92556397D01*
X142132600Y-92531639D01*
X142106548Y-92513417D01*
X142071747Y-92506049D01*
X142032894Y-92515466D01*
X142009886Y-92534998D01*
X141995747Y-92560493D01*
X141991953Y-92578253D01*
X141729734Y-92578253D01*
X141729734Y-92474480D01*
X141734961Y-92382918D01*
X141747805Y-92309108D01*
X141766831Y-92250118D01*
X141791057Y-92203395D01*
X141824534Y-92162936D01*
X141867777Y-92130729D01*
X141922561Y-92106495D01*
X141991483Y-92090958D01*
X142061591Y-92093588D01*
X142116784Y-92109386D01*
X142160541Y-92136900D01*
X142196217Y-92175733D01*
X142230049Y-92232049D01*
X142261493Y-92310526D01*
X142264516Y-92310526D01*
X142276399Y-92252958D01*
X142296487Y-92200776D01*
X142323772Y-92153620D01*
X142354452Y-92116213D01*
X142390249Y-92085704D01*
X142430082Y-92063151D01*
X142472473Y-92048900D01*
X142512831Y-92044344D01*
X142577344Y-92049080D01*
G37*
G36*
X141725435Y-90831581D02*
G01*
X142413827Y-91305308D01*
X142813000Y-91305308D01*
X142813000Y-91660217D01*
X142413827Y-91660217D01*
X141725435Y-92133945D01*
X141725435Y-91705354D01*
X142061336Y-91484308D01*
X141725435Y-91260172D01*
X141725435Y-90831581D01*
G37*
G36*
X142813000Y-90812035D02*
G01*
X142516391Y-90812035D01*
X142516391Y-90476604D01*
X142813000Y-90476604D01*
X142813000Y-90812035D01*
G37*
G36*
X142301457Y-90812035D02*
G01*
X142004849Y-90812035D01*
X142004849Y-90476604D01*
X142301457Y-90476604D01*
X142301457Y-90812035D01*
G37*
G36*
X142490330Y-88870109D02*
G01*
X142271232Y-88870109D01*
X142271232Y-88530245D01*
X142813000Y-88530245D01*
X142813000Y-89011495D01*
X142805733Y-89127982D01*
X142784647Y-89234019D01*
X142750400Y-89331075D01*
X142714665Y-89399520D01*
X142671618Y-89459366D01*
X142621061Y-89511443D01*
X142562467Y-89556285D01*
X142498431Y-89591356D01*
X142426784Y-89617037D01*
X142346314Y-89633049D01*
X142255582Y-89638632D01*
X142171746Y-89632896D01*
X142096296Y-89616309D01*
X142027954Y-89589398D01*
X141964651Y-89552118D01*
X141909385Y-89506773D01*
X141861448Y-89452915D01*
X141821298Y-89392531D01*
X141788269Y-89325954D01*
X141762377Y-89252490D01*
X141744424Y-89176400D01*
X141733463Y-89096228D01*
X141729734Y-89011495D01*
X141729734Y-88713745D01*
X141729734Y-88530245D01*
X142052134Y-88530245D01*
X142052134Y-88870109D01*
X142054143Y-88976941D01*
X142058918Y-89039370D01*
X142068181Y-89092446D01*
X142081419Y-89137097D01*
X142102575Y-89176975D01*
X142136160Y-89213063D01*
X142164436Y-89230152D01*
X142208515Y-89243533D01*
X142274255Y-89251348D01*
X142337719Y-89244377D01*
X142381863Y-89231025D01*
X142411611Y-89213063D01*
X142446071Y-89174472D01*
X142466352Y-89128836D01*
X142477755Y-89078617D01*
X142485091Y-89026541D01*
X142490330Y-88870109D01*
G37*
G36*
X142813000Y-87748625D02*
G01*
X142454329Y-88092990D01*
X142813000Y-88092990D01*
X142813000Y-88485512D01*
X141725435Y-88485512D01*
X141725435Y-87820024D01*
X141996251Y-87820024D01*
X141996251Y-88092990D01*
X142196274Y-88092990D01*
X142196274Y-87819285D01*
X142192581Y-87797575D01*
X142180154Y-87771932D01*
X142166691Y-87759158D01*
X142141531Y-87749555D01*
X142098546Y-87744864D01*
X142057821Y-87750888D01*
X142031843Y-87761475D01*
X142016200Y-87775358D01*
X142000449Y-87801686D01*
X141996251Y-87820024D01*
X141725435Y-87820024D01*
X141725435Y-87778716D01*
X141739364Y-87693166D01*
X141762832Y-87622277D01*
X141794885Y-87563648D01*
X141837419Y-87512539D01*
X141888356Y-87471655D01*
X141948765Y-87440330D01*
X142046577Y-87425914D01*
X142119100Y-87426210D01*
X142172161Y-87437307D01*
X142221493Y-87459795D01*
X142265033Y-87491145D01*
X142303472Y-87532080D01*
X142334002Y-87579594D01*
X142361935Y-87643062D01*
X142386490Y-87726057D01*
X142490599Y-87644853D01*
X142490599Y-87320034D01*
X142813000Y-87320034D01*
X142813000Y-87748625D01*
G37*
G36*
X142813000Y-87320572D02*
G01*
X141729734Y-87320572D01*
X141729734Y-86389640D01*
X142052134Y-86389640D01*
X142052134Y-86967140D01*
X142176796Y-86967140D01*
X142176796Y-86594230D01*
X142365937Y-86594230D01*
X142365937Y-86967140D01*
X142490599Y-86967140D01*
X142490599Y-86297957D01*
X142813000Y-86297957D01*
X142813000Y-87320572D01*
G37*
G36*
X142490330Y-85567653D02*
G01*
X142271232Y-85567653D01*
X142271232Y-85227789D01*
X142813000Y-85227789D01*
X142813000Y-85709039D01*
X142805733Y-85825526D01*
X142784647Y-85931563D01*
X142750400Y-86028619D01*
X142714665Y-86097064D01*
X142671618Y-86156910D01*
X142621061Y-86208986D01*
X142562467Y-86253829D01*
X142498431Y-86288899D01*
X142426784Y-86314580D01*
X142346314Y-86330593D01*
X142255582Y-86336175D01*
X142171746Y-86330440D01*
X142096296Y-86313853D01*
X142027954Y-86286942D01*
X141964651Y-86249662D01*
X141909385Y-86204317D01*
X141861448Y-86150459D01*
X141821298Y-86090074D01*
X141788269Y-86023498D01*
X141762377Y-85950033D01*
X141744424Y-85873944D01*
X141733463Y-85793771D01*
X141729734Y-85709039D01*
X141729734Y-85411289D01*
X141729734Y-85227789D01*
X142052134Y-85227789D01*
X142052134Y-85567653D01*
X142054143Y-85674485D01*
X142058918Y-85736913D01*
X142068181Y-85789989D01*
X142081419Y-85834641D01*
X142102575Y-85874518D01*
X142136160Y-85910606D01*
X142164436Y-85927695D01*
X142208515Y-85941076D01*
X142274255Y-85948892D01*
X142337719Y-85941920D01*
X142381863Y-85928568D01*
X142411611Y-85910606D01*
X142446071Y-85872016D01*
X142466352Y-85826379D01*
X142477755Y-85776161D01*
X142485091Y-85724084D01*
X142490330Y-85567653D01*
G37*
G36*
X142099420Y-83846907D02*
G01*
X141725435Y-83846907D01*
X141725435Y-83493475D01*
X142813000Y-83493475D01*
X142813000Y-83846907D01*
X142421820Y-83846907D01*
X142421820Y-84131090D01*
X142813000Y-84131090D01*
X142813000Y-84484521D01*
X141725435Y-84484521D01*
X141725435Y-84131090D01*
X142099420Y-84131090D01*
X142099420Y-83846907D01*
G37*
G36*
X141725435Y-83102632D02*
G01*
X142369027Y-83102632D01*
X142441113Y-83098990D01*
X142489892Y-83084042D01*
X142522033Y-83060518D01*
X142544718Y-83026744D01*
X142560576Y-82979525D01*
X142567975Y-82914632D01*
X142561846Y-82863200D01*
X142546209Y-82819360D01*
X142521294Y-82781575D01*
X142487235Y-82753857D01*
X142438311Y-82736386D01*
X142369027Y-82731200D01*
X141725435Y-82731200D01*
X141725435Y-82377768D01*
X142364460Y-82377768D01*
X142454475Y-82384528D01*
X142525638Y-82400010D01*
X142581408Y-82422568D01*
X142633153Y-82453839D01*
X142678090Y-82489624D01*
X142716817Y-82530035D01*
X142749373Y-82575500D01*
X142777625Y-82629482D01*
X142801312Y-82693183D01*
X142824350Y-82794675D01*
X142834493Y-82911677D01*
X142826569Y-83011766D01*
X142806954Y-83115058D01*
X142786394Y-83182382D01*
X142759804Y-83242270D01*
X142727362Y-83295535D01*
X142687655Y-83343027D01*
X142641348Y-83382463D01*
X142587789Y-83414353D01*
X142529424Y-83436350D01*
X142456283Y-83450791D01*
X142365199Y-83456064D01*
X141725435Y-83456064D01*
X141725435Y-83102632D01*
G37*
G36*
X142813000Y-82325512D02*
G01*
X141725435Y-82325512D01*
X141725435Y-81972081D01*
X142490599Y-81972081D01*
X142490599Y-81384103D01*
X142813000Y-81384103D01*
X142813000Y-82325512D01*
G37*
G36*
X142813000Y-81338967D02*
G01*
X141729734Y-81338967D01*
X141729734Y-80408035D01*
X142052134Y-80408035D01*
X142052134Y-80985535D01*
X142176796Y-80985535D01*
X142176796Y-80612625D01*
X142365937Y-80612625D01*
X142365937Y-80985535D01*
X142490599Y-80985535D01*
X142490599Y-80316352D01*
X142813000Y-80316352D01*
X142813000Y-81338967D01*
G37*
G36*
X141729734Y-79327389D02*
G01*
X142052134Y-79327389D01*
X142052134Y-79671820D01*
X142813000Y-79671820D01*
X142813000Y-80025184D01*
X142052134Y-80025184D01*
X142052134Y-80369616D01*
X141729734Y-80369616D01*
X141729734Y-79327389D01*
G37*
G36*
X141729734Y-78301080D02*
G01*
X142052134Y-78301080D01*
X142052134Y-78645511D01*
X142813000Y-78645511D01*
X142813000Y-78998876D01*
X142052134Y-78998876D01*
X142052134Y-79343307D01*
X141729734Y-79343307D01*
X141729734Y-78301080D01*
G37*
G36*
X142813000Y-78264340D02*
G01*
X141729734Y-78264340D01*
X141729734Y-77333408D01*
X142052134Y-77333408D01*
X142052134Y-77910908D01*
X142176796Y-77910908D01*
X142176796Y-77537998D01*
X142365937Y-77537998D01*
X142365937Y-77910908D01*
X142490599Y-77910908D01*
X142490599Y-77241726D01*
X142813000Y-77241726D01*
X142813000Y-78264340D01*
G37*
G36*
X180184307Y-95701297D02*
G01*
X180184307Y-95501812D01*
X180484359Y-95501812D01*
X180484359Y-95995000D01*
X180059865Y-95995000D01*
X179957186Y-95988392D01*
X179863613Y-95969198D01*
X179777826Y-95937969D01*
X179717594Y-95905548D01*
X179664846Y-95866428D01*
X179618878Y-95820380D01*
X179579256Y-95766877D01*
X179548475Y-95708709D01*
X179525877Y-95643514D01*
X179511764Y-95570196D01*
X179506838Y-95487463D01*
X179511906Y-95411020D01*
X179526547Y-95342301D01*
X179550252Y-95280162D01*
X179583175Y-95222377D01*
X179623158Y-95172047D01*
X179670542Y-95128487D01*
X179749072Y-95073286D01*
X179826064Y-95031523D01*
X179880008Y-95012117D01*
X179955368Y-94996608D01*
X180057789Y-94986765D01*
X180164222Y-94995740D01*
X180243053Y-95008976D01*
X180299773Y-95025050D01*
X180353043Y-95049175D01*
X180408900Y-95084966D01*
X180467934Y-95134288D01*
X180273822Y-95350137D01*
X180224932Y-95313380D01*
X180186322Y-95291458D01*
X180141627Y-95277896D01*
X180060537Y-95268194D01*
X179982243Y-95284347D01*
X179936095Y-95305075D01*
X179899152Y-95334504D01*
X179866364Y-95372058D01*
X179850125Y-95400995D01*
X179837017Y-95441757D01*
X179828140Y-95497721D01*
X179837247Y-95553721D01*
X179850427Y-95591799D01*
X179866364Y-95616606D01*
X179899776Y-95647338D01*
X179941591Y-95672599D01*
X179988182Y-95690299D01*
X180038677Y-95699954D01*
X180095826Y-95702946D01*
X180184307Y-95701297D01*
G37*
G36*
X186387334Y-84638304D02*
G01*
X186076962Y-84638304D01*
X186016409Y-84640747D01*
X185987159Y-84649429D01*
X185975592Y-84660864D01*
X185974810Y-84675757D01*
X185987530Y-84698573D01*
X186025000Y-84735146D01*
X186100100Y-84807395D01*
X186156462Y-84874908D01*
X186196862Y-84938309D01*
X186223596Y-84998333D01*
X186238399Y-85055823D01*
X186242376Y-85111707D01*
X186235090Y-85169004D01*
X186217072Y-85215994D01*
X186188740Y-85254864D01*
X186149047Y-85286884D01*
X186095620Y-85312236D01*
X186025000Y-85330000D01*
X185163677Y-85330000D01*
X185163677Y-85036908D01*
X185707789Y-85036908D01*
X185773907Y-85034019D01*
X185805219Y-85024442D01*
X185817160Y-85011981D01*
X185817216Y-84995624D01*
X185801643Y-84970203D01*
X185757004Y-84929136D01*
X185675794Y-84846689D01*
X185618190Y-84772146D01*
X185580091Y-84704340D01*
X185558196Y-84641987D01*
X185550141Y-84583697D01*
X185554649Y-84528028D01*
X185571712Y-84469844D01*
X185596401Y-84425055D01*
X185628295Y-84391097D01*
X185668080Y-84366455D01*
X185717452Y-84350836D01*
X185778925Y-84345212D01*
X186387334Y-84345212D01*
X186387334Y-84638304D01*
G37*
G36*
X186316748Y-85330000D02*
G01*
X186316748Y-84345212D01*
X187163049Y-84345212D01*
X187163049Y-84638304D01*
X186638049Y-84638304D01*
X186638049Y-84751632D01*
X186977058Y-84751632D01*
X186977058Y-84923579D01*
X186638049Y-84923579D01*
X186638049Y-85036908D01*
X187246397Y-85036908D01*
X187246397Y-85330000D01*
X186316748Y-85330000D01*
G37*
G36*
X187966162Y-84353967D02*
G01*
X188030607Y-84375302D01*
X188083906Y-84404441D01*
X188130368Y-84443108D01*
X188167536Y-84489415D01*
X188196013Y-84544331D01*
X188209119Y-84633252D01*
X188208849Y-84699182D01*
X188198761Y-84747419D01*
X188178317Y-84792267D01*
X188149817Y-84831848D01*
X188112604Y-84866793D01*
X188069410Y-84894547D01*
X188011711Y-84919941D01*
X187936261Y-84942264D01*
X188010083Y-85036908D01*
X188305373Y-85036908D01*
X188305373Y-85330000D01*
X187915744Y-85330000D01*
X187602686Y-85003935D01*
X187602686Y-85330000D01*
X187245847Y-85330000D01*
X187245847Y-84769340D01*
X187602686Y-84769340D01*
X187851509Y-84769340D01*
X187871245Y-84765983D01*
X187894556Y-84754685D01*
X187906170Y-84742446D01*
X187914900Y-84719573D01*
X187919164Y-84680497D01*
X187913688Y-84643474D01*
X187904063Y-84619857D01*
X187891442Y-84605636D01*
X187867508Y-84591317D01*
X187850837Y-84587501D01*
X187602686Y-84587501D01*
X187602686Y-84769340D01*
X187245847Y-84769340D01*
X187245847Y-84341304D01*
X187888389Y-84341304D01*
X187966162Y-84353967D01*
G37*
G36*
X188291207Y-84341304D02*
G01*
X188612508Y-84341304D01*
X188612508Y-85330000D01*
X188291207Y-85330000D01*
X188291207Y-84341304D01*
G37*
G36*
X189729370Y-85330000D02*
G01*
X189356106Y-85330000D01*
X189293885Y-85150237D01*
X189000610Y-85150237D01*
X188938450Y-85330000D01*
X188584298Y-85330000D01*
X188708796Y-84950935D01*
X189013616Y-84950935D01*
X189285703Y-84950935D01*
X189155094Y-84559902D01*
X189013616Y-84950935D01*
X188708796Y-84950935D01*
X188909019Y-84341304D01*
X189399153Y-84341304D01*
X189729370Y-85330000D01*
G37*
G36*
X189715631Y-85330000D02*
G01*
X189715631Y-84341304D01*
X190036933Y-84341304D01*
X190036933Y-85036908D01*
X190571458Y-85036908D01*
X190571458Y-85330000D01*
X189715631Y-85330000D01*
G37*
G36*
X191301500Y-84847315D02*
G01*
X191201727Y-84589883D01*
X191570167Y-84341304D01*
X191870952Y-84341304D01*
X191870952Y-85330000D01*
X191518204Y-85330000D01*
X191518204Y-84687763D01*
X191301500Y-84847315D01*
G37*
G36*
X173761347Y-102853967D02*
G01*
X173825792Y-102875302D01*
X173879091Y-102904441D01*
X173925553Y-102943108D01*
X173962721Y-102989415D01*
X173991198Y-103044331D01*
X174004304Y-103133252D01*
X174004034Y-103199182D01*
X173993946Y-103247419D01*
X173973502Y-103292267D01*
X173945002Y-103331848D01*
X173907789Y-103366793D01*
X173864595Y-103394547D01*
X173806896Y-103419941D01*
X173731446Y-103442264D01*
X173805268Y-103536908D01*
X174333016Y-103536908D01*
X174333016Y-103830000D01*
X173710929Y-103830000D01*
X173397871Y-103503935D01*
X173397871Y-103830000D01*
X173041032Y-103830000D01*
X173041032Y-103269340D01*
X173397871Y-103269340D01*
X173646693Y-103269340D01*
X173666429Y-103265983D01*
X173689741Y-103254685D01*
X173701355Y-103242446D01*
X173710084Y-103219573D01*
X173714349Y-103180497D01*
X173708873Y-103143474D01*
X173699248Y-103119857D01*
X173686627Y-103105636D01*
X173662693Y-103091317D01*
X173646022Y-103087501D01*
X173397871Y-103087501D01*
X173397871Y-103269340D01*
X173041032Y-103269340D01*
X173041032Y-102841304D01*
X173683574Y-102841304D01*
X173761347Y-102853967D01*
G37*
G36*
X175154160Y-102841304D02*
G01*
X174791826Y-103335652D01*
X175154160Y-103830000D01*
X174764532Y-103830000D01*
X174560772Y-103524635D01*
X174359822Y-103830000D01*
X173970193Y-103830000D01*
X174332466Y-103335652D01*
X173970193Y-102841304D01*
X174359822Y-102841304D01*
X174560772Y-103146669D01*
X174764532Y-102841304D01*
X175154160Y-102841304D01*
G37*
G36*
X175754710Y-77668804D02*
G01*
X175754710Y-77899370D01*
X175386209Y-77899370D01*
X175386209Y-78051655D01*
X175495629Y-78047564D01*
X175549375Y-78051732D01*
X175599721Y-78064024D01*
X175647365Y-78084445D01*
X175690653Y-78112597D01*
X175727372Y-78147679D01*
X175758068Y-78190324D01*
X175780557Y-78237795D01*
X175794339Y-78290465D01*
X175799101Y-78349448D01*
X175794709Y-78409301D01*
X175782277Y-78460357D01*
X175762512Y-78504093D01*
X175735537Y-78541667D01*
X175689661Y-78584593D01*
X175635612Y-78618455D01*
X175572138Y-78643456D01*
X175505000Y-78659645D01*
X175432069Y-78669674D01*
X175352686Y-78673131D01*
X175256271Y-78668307D01*
X175152041Y-78654019D01*
X175051962Y-78630755D01*
X175051962Y-78405319D01*
X175172138Y-78428261D01*
X175257676Y-78434750D01*
X175330005Y-78428647D01*
X175378036Y-78413065D01*
X175408687Y-78390588D01*
X175426487Y-78361407D01*
X175432737Y-78323253D01*
X175426024Y-78281301D01*
X175407290Y-78250690D01*
X175375645Y-78228548D01*
X175336727Y-78214371D01*
X175291616Y-78205401D01*
X175239235Y-78202231D01*
X175157754Y-78207590D01*
X175064235Y-78224823D01*
X175064235Y-77668804D01*
X175754710Y-77668804D01*
G37*
G36*
X176150444Y-77668804D02*
G01*
X176374659Y-78428155D01*
X176601622Y-77668804D01*
X176997418Y-77668804D01*
X176645341Y-78657500D01*
X176121074Y-78657500D01*
X175773761Y-77668804D01*
X176150444Y-77668804D01*
G37*
G36*
X180454307Y-119076297D02*
G01*
X180454307Y-118876812D01*
X180754359Y-118876812D01*
X180754359Y-119370000D01*
X180329865Y-119370000D01*
X180227186Y-119363392D01*
X180133613Y-119344198D01*
X180047826Y-119312969D01*
X179987594Y-119280548D01*
X179934846Y-119241428D01*
X179888878Y-119195380D01*
X179849256Y-119141877D01*
X179818475Y-119083709D01*
X179795877Y-119018514D01*
X179781764Y-118945196D01*
X179776838Y-118862463D01*
X179781906Y-118786020D01*
X179796547Y-118717301D01*
X179820252Y-118655162D01*
X179853175Y-118597377D01*
X179893158Y-118547047D01*
X179940542Y-118503487D01*
X180019072Y-118448286D01*
X180096064Y-118406523D01*
X180150008Y-118387117D01*
X180225368Y-118371608D01*
X180327789Y-118361765D01*
X180434222Y-118370740D01*
X180513053Y-118383976D01*
X180569773Y-118400050D01*
X180623043Y-118424175D01*
X180678900Y-118459966D01*
X180737934Y-118509288D01*
X180543822Y-118725137D01*
X180494932Y-118688380D01*
X180456322Y-118666458D01*
X180411627Y-118652896D01*
X180330537Y-118643194D01*
X180252243Y-118659347D01*
X180206095Y-118680075D01*
X180169152Y-118709504D01*
X180136364Y-118747058D01*
X180120125Y-118775995D01*
X180107017Y-118816757D01*
X180098140Y-118872721D01*
X180107247Y-118928721D01*
X180120427Y-118966799D01*
X180136364Y-118991606D01*
X180169776Y-119022338D01*
X180211591Y-119047599D01*
X180258182Y-119065299D01*
X180308677Y-119074954D01*
X180365826Y-119077946D01*
X180454307Y-119076297D01*
G37*
G36*
X181754710Y-87341304D02*
G01*
X181754710Y-87571870D01*
X181386209Y-87571870D01*
X181386209Y-87724155D01*
X181495629Y-87720064D01*
X181549375Y-87724232D01*
X181599721Y-87736524D01*
X181647365Y-87756945D01*
X181690653Y-87785097D01*
X181727372Y-87820179D01*
X181758068Y-87862824D01*
X181780557Y-87910295D01*
X181794339Y-87962965D01*
X181799101Y-88021948D01*
X181794709Y-88081801D01*
X181782277Y-88132857D01*
X181762512Y-88176593D01*
X181735537Y-88214167D01*
X181689661Y-88257093D01*
X181635612Y-88290955D01*
X181572138Y-88315956D01*
X181505000Y-88332145D01*
X181432069Y-88342174D01*
X181352686Y-88345631D01*
X181256271Y-88340807D01*
X181152041Y-88326519D01*
X181051962Y-88303255D01*
X181051962Y-88077819D01*
X181172138Y-88100761D01*
X181257676Y-88107250D01*
X181330005Y-88101147D01*
X181378036Y-88085565D01*
X181408687Y-88063088D01*
X181426487Y-88033907D01*
X181432737Y-87995753D01*
X181426024Y-87953801D01*
X181407290Y-87923190D01*
X181375645Y-87901048D01*
X181336727Y-87886871D01*
X181291616Y-87877901D01*
X181239235Y-87874731D01*
X181157754Y-87880090D01*
X181064235Y-87897323D01*
X181064235Y-87341304D01*
X181754710Y-87341304D01*
G37*
G36*
X182150444Y-87341304D02*
G01*
X182374659Y-88100655D01*
X182601622Y-87341304D01*
X182997418Y-87341304D01*
X182645341Y-88330000D01*
X182121074Y-88330000D01*
X181773761Y-87341304D01*
X182150444Y-87341304D01*
G37*
G36*
X182254710Y-95006304D02*
G01*
X182254710Y-95236870D01*
X181886209Y-95236870D01*
X181886209Y-95389155D01*
X181995629Y-95385064D01*
X182049375Y-95389232D01*
X182099721Y-95401524D01*
X182147365Y-95421945D01*
X182190653Y-95450097D01*
X182227372Y-95485179D01*
X182258068Y-95527824D01*
X182280557Y-95575295D01*
X182294339Y-95627965D01*
X182299101Y-95686948D01*
X182294709Y-95746801D01*
X182282277Y-95797857D01*
X182262512Y-95841593D01*
X182235537Y-95879167D01*
X182189661Y-95922093D01*
X182135612Y-95955955D01*
X182072138Y-95980956D01*
X182005000Y-95997145D01*
X181932069Y-96007174D01*
X181852686Y-96010631D01*
X181756271Y-96005807D01*
X181652041Y-95991519D01*
X181551962Y-95968255D01*
X181551962Y-95742819D01*
X181672138Y-95765761D01*
X181757676Y-95772250D01*
X181830005Y-95766147D01*
X181878036Y-95750565D01*
X181908687Y-95728088D01*
X181926487Y-95698907D01*
X181932737Y-95660753D01*
X181926024Y-95618801D01*
X181907290Y-95588190D01*
X181875645Y-95566048D01*
X181836727Y-95551871D01*
X181791616Y-95542901D01*
X181739235Y-95539731D01*
X181657754Y-95545090D01*
X181564235Y-95562323D01*
X181564235Y-95006304D01*
X182254710Y-95006304D01*
G37*
G36*
X182650444Y-95006304D02*
G01*
X182874659Y-95765655D01*
X183101622Y-95006304D01*
X183497418Y-95006304D01*
X183145341Y-95995000D01*
X182621074Y-95995000D01*
X182273761Y-95006304D01*
X182650444Y-95006304D01*
G37*
G36*
X182524710Y-118381304D02*
G01*
X182524710Y-118611870D01*
X182156209Y-118611870D01*
X182156209Y-118764155D01*
X182265629Y-118760064D01*
X182319375Y-118764232D01*
X182369721Y-118776524D01*
X182417365Y-118796945D01*
X182460653Y-118825097D01*
X182497372Y-118860179D01*
X182528068Y-118902824D01*
X182550557Y-118950295D01*
X182564339Y-119002965D01*
X182569101Y-119061948D01*
X182564709Y-119121801D01*
X182552277Y-119172857D01*
X182532512Y-119216593D01*
X182505537Y-119254167D01*
X182459661Y-119297093D01*
X182405612Y-119330955D01*
X182342138Y-119355956D01*
X182275000Y-119372145D01*
X182202069Y-119382174D01*
X182122686Y-119385631D01*
X182026271Y-119380807D01*
X181922041Y-119366519D01*
X181821962Y-119343255D01*
X181821962Y-119117819D01*
X181942138Y-119140761D01*
X182027676Y-119147250D01*
X182100005Y-119141147D01*
X182148036Y-119125565D01*
X182178687Y-119103088D01*
X182196487Y-119073907D01*
X182202737Y-119035753D01*
X182196024Y-118993801D01*
X182177290Y-118963190D01*
X182145645Y-118941048D01*
X182106727Y-118926871D01*
X182061616Y-118917901D01*
X182009235Y-118914731D01*
X181927754Y-118920090D01*
X181834235Y-118937323D01*
X181834235Y-118381304D01*
X182524710Y-118381304D01*
G37*
G36*
X182920444Y-118381304D02*
G01*
X183144659Y-119140655D01*
X183371622Y-118381304D01*
X183767418Y-118381304D01*
X183415341Y-119370000D01*
X182891074Y-119370000D01*
X182543761Y-118381304D01*
X182920444Y-118381304D01*
G37*
G36*
X177339462Y-95010212D02*
G01*
X177339462Y-95303304D01*
X177026343Y-95303304D01*
X177026343Y-95995000D01*
X176705102Y-95995000D01*
X176705102Y-95303304D01*
X176391983Y-95303304D01*
X176391983Y-95010212D01*
X177339462Y-95010212D01*
G37*
G36*
X178325898Y-95006304D02*
G01*
X177963564Y-95500652D01*
X178325898Y-95995000D01*
X177936270Y-95995000D01*
X177732510Y-95689635D01*
X177531559Y-95995000D01*
X177141931Y-95995000D01*
X177504204Y-95500652D01*
X177141931Y-95006304D01*
X177531559Y-95006304D01*
X177732510Y-95311669D01*
X177936270Y-95006304D01*
X178325898Y-95006304D01*
G37*
G36*
X177609462Y-118385212D02*
G01*
X177609462Y-118678304D01*
X177296343Y-118678304D01*
X177296343Y-119370000D01*
X176975102Y-119370000D01*
X176975102Y-118678304D01*
X176661983Y-118678304D01*
X176661983Y-118385212D01*
X177609462Y-118385212D01*
G37*
G36*
X178595898Y-118381304D02*
G01*
X178233564Y-118875652D01*
X178595898Y-119370000D01*
X178206270Y-119370000D01*
X178002510Y-119064635D01*
X177801559Y-119370000D01*
X177411931Y-119370000D01*
X177774204Y-118875652D01*
X177411931Y-118381304D01*
X177801559Y-118381304D01*
X178002510Y-118686669D01*
X178206270Y-118381304D01*
X178595898Y-118381304D01*
G37*
G36*
X174531347Y-118393967D02*
G01*
X174595792Y-118415302D01*
X174649091Y-118444441D01*
X174695553Y-118483108D01*
X174732721Y-118529415D01*
X174761198Y-118584331D01*
X174774304Y-118673252D01*
X174774034Y-118739182D01*
X174763946Y-118787419D01*
X174743502Y-118832267D01*
X174715002Y-118871848D01*
X174677789Y-118906793D01*
X174634595Y-118934547D01*
X174576896Y-118959941D01*
X174501446Y-118982264D01*
X174575268Y-119076908D01*
X175103016Y-119076908D01*
X175103016Y-119370000D01*
X174480929Y-119370000D01*
X174167871Y-119043935D01*
X174167871Y-119370000D01*
X173811032Y-119370000D01*
X173811032Y-118809340D01*
X174167871Y-118809340D01*
X174416693Y-118809340D01*
X174436429Y-118805983D01*
X174459741Y-118794685D01*
X174471355Y-118782446D01*
X174480084Y-118759573D01*
X174484349Y-118720497D01*
X174478873Y-118683474D01*
X174469248Y-118659857D01*
X174456627Y-118645636D01*
X174432693Y-118631317D01*
X174416022Y-118627501D01*
X174167871Y-118627501D01*
X174167871Y-118809340D01*
X173811032Y-118809340D01*
X173811032Y-118381304D01*
X174453574Y-118381304D01*
X174531347Y-118393967D01*
G37*
G36*
X175924160Y-118381304D02*
G01*
X175561826Y-118875652D01*
X175924160Y-119370000D01*
X175534532Y-119370000D01*
X175330772Y-119064635D01*
X175129822Y-119370000D01*
X174740193Y-119370000D01*
X175102466Y-118875652D01*
X174740193Y-118381304D01*
X175129822Y-118381304D01*
X175330772Y-118686669D01*
X175534532Y-118381304D01*
X175924160Y-118381304D01*
G37*
G36*
X179684307Y-112036297D02*
G01*
X179684307Y-111836812D01*
X179984359Y-111836812D01*
X179984359Y-112330000D01*
X179559865Y-112330000D01*
X179457186Y-112323392D01*
X179363613Y-112304198D01*
X179277826Y-112272969D01*
X179217594Y-112240548D01*
X179164846Y-112201428D01*
X179118878Y-112155380D01*
X179079256Y-112101877D01*
X179048475Y-112043709D01*
X179025877Y-111978514D01*
X179011764Y-111905196D01*
X179006838Y-111822463D01*
X179011906Y-111746020D01*
X179026547Y-111677301D01*
X179050252Y-111615162D01*
X179083175Y-111557377D01*
X179123158Y-111507047D01*
X179170542Y-111463487D01*
X179249072Y-111408286D01*
X179326064Y-111366523D01*
X179380008Y-111347117D01*
X179455368Y-111331608D01*
X179557789Y-111321765D01*
X179664222Y-111330740D01*
X179743053Y-111343976D01*
X179799773Y-111360050D01*
X179853043Y-111384175D01*
X179908900Y-111419966D01*
X179967934Y-111469288D01*
X179773822Y-111685137D01*
X179724932Y-111648380D01*
X179686322Y-111626458D01*
X179641627Y-111612896D01*
X179560537Y-111603194D01*
X179482243Y-111619347D01*
X179436095Y-111640075D01*
X179399152Y-111669504D01*
X179366364Y-111707058D01*
X179350125Y-111735995D01*
X179337017Y-111776757D01*
X179328140Y-111832721D01*
X179337247Y-111888721D01*
X179350427Y-111926799D01*
X179366364Y-111951606D01*
X179399776Y-111982338D01*
X179441591Y-112007599D01*
X179488182Y-112025299D01*
X179538677Y-112034954D01*
X179595826Y-112037946D01*
X179684307Y-112036297D01*
G37*
G36*
X173260537Y-124821880D02*
G01*
X173052686Y-125660000D01*
X172410205Y-125660000D01*
X171808635Y-123682609D01*
X172451116Y-123682609D01*
X172721859Y-124537093D01*
X172957065Y-123682609D01*
X173547644Y-123682609D01*
X173822418Y-124537093D01*
X174005722Y-123682609D01*
X174648203Y-123682609D01*
X174153367Y-125660000D01*
X173510764Y-125660000D01*
X173260537Y-124821880D01*
G37*
G36*
X175871004Y-125073817D02*
G01*
X176488939Y-125073817D01*
X176488939Y-125660000D01*
X175613939Y-125660000D01*
X175402145Y-125646788D01*
X175209350Y-125608450D01*
X175032885Y-125546182D01*
X174908439Y-125481210D01*
X174799628Y-125402942D01*
X174704943Y-125311020D01*
X174623412Y-125204487D01*
X174559647Y-125088056D01*
X174512954Y-124957789D01*
X174483841Y-124811480D01*
X174473691Y-124646514D01*
X174484119Y-124494084D01*
X174514278Y-124356901D01*
X174563206Y-124232644D01*
X174630989Y-124117548D01*
X174713434Y-124017064D01*
X174811357Y-123929905D01*
X174921147Y-123856906D01*
X175042196Y-123796853D01*
X175175767Y-123749776D01*
X175314112Y-123717136D01*
X175459880Y-123697206D01*
X175613939Y-123690425D01*
X176155303Y-123690425D01*
X176488939Y-123690425D01*
X176488939Y-124276608D01*
X175871004Y-124276608D01*
X175676764Y-124280260D01*
X175563258Y-124288942D01*
X175466756Y-124305784D01*
X175385572Y-124329853D01*
X175313063Y-124368412D01*
X175247452Y-124429504D01*
X175216386Y-124480917D01*
X175192055Y-124561094D01*
X175177843Y-124680708D01*
X175190521Y-124796182D01*
X175214799Y-124876479D01*
X175247452Y-124930568D01*
X175317614Y-124993252D01*
X175400593Y-125030219D01*
X175491899Y-125050953D01*
X175586584Y-125064291D01*
X175871004Y-125073817D01*
G37*
G36*
X178083381Y-123699930D02*
G01*
X178217582Y-123723282D01*
X178324836Y-123757874D01*
X178409787Y-123801922D01*
X178483348Y-123862789D01*
X178541907Y-123941414D01*
X178585969Y-124041021D01*
X178614218Y-124166332D01*
X178609435Y-124293802D01*
X178580713Y-124394153D01*
X178530687Y-124473712D01*
X178460082Y-124538576D01*
X178357688Y-124600090D01*
X178215003Y-124657260D01*
X178215003Y-124662756D01*
X178319673Y-124684363D01*
X178414549Y-124720886D01*
X178500287Y-124770494D01*
X178568300Y-124826277D01*
X178623771Y-124891362D01*
X178664776Y-124963785D01*
X178690687Y-125040861D01*
X178698970Y-125114239D01*
X178690360Y-125231535D01*
X178666467Y-125327176D01*
X178629252Y-125405138D01*
X178579291Y-125468513D01*
X178493592Y-125538451D01*
X178392027Y-125590914D01*
X178271667Y-125625806D01*
X178073797Y-125652016D01*
X177815788Y-125660000D01*
X176570272Y-125660000D01*
X176570272Y-125261395D01*
X177251099Y-125261395D01*
X177690003Y-125261395D01*
X177764112Y-125257499D01*
X177829609Y-125240858D01*
X177888206Y-125211936D01*
X177937324Y-125171104D01*
X177964189Y-125127688D01*
X177972958Y-125079801D01*
X177968886Y-125026029D01*
X177946570Y-124981635D01*
X177903838Y-124943635D01*
X177850040Y-124917577D01*
X177780140Y-124900395D01*
X177690003Y-124894054D01*
X177251099Y-124894054D01*
X177251099Y-125261395D01*
X176570272Y-125261395D01*
X176570272Y-124464187D01*
X177251099Y-124464187D01*
X177729570Y-124464187D01*
X177767966Y-124454976D01*
X177812979Y-124422909D01*
X177846110Y-124375543D01*
X177859508Y-124312267D01*
X177842385Y-124241626D01*
X177806873Y-124199794D01*
X177760517Y-124174085D01*
X177728227Y-124167187D01*
X177251099Y-124167187D01*
X177251099Y-124464187D01*
X176570272Y-124464187D01*
X176570272Y-123690425D01*
X177916905Y-123690425D01*
X178083381Y-123699930D01*
G37*
G36*
X178926971Y-125660000D02*
G01*
X178926971Y-125120711D01*
X179536845Y-125120711D01*
X179536845Y-125660000D01*
X178926971Y-125660000D01*
G37*
G36*
X178926971Y-124729923D02*
G01*
X178926971Y-124190635D01*
X179536845Y-124190635D01*
X179536845Y-124729923D01*
X178926971Y-124729923D01*
G37*
G36*
X177339462Y-111345212D02*
G01*
X177339462Y-111638304D01*
X177026343Y-111638304D01*
X177026343Y-112330000D01*
X176705102Y-112330000D01*
X176705102Y-111638304D01*
X176391983Y-111638304D01*
X176391983Y-111345212D01*
X177339462Y-111345212D01*
G37*
G36*
X178325898Y-111341304D02*
G01*
X177963564Y-111835652D01*
X178325898Y-112330000D01*
X177936270Y-112330000D01*
X177732510Y-112024635D01*
X177531559Y-112330000D01*
X177141931Y-112330000D01*
X177504204Y-111835652D01*
X177141931Y-111341304D01*
X177531559Y-111341304D01*
X177732510Y-111646669D01*
X177936270Y-111341304D01*
X178325898Y-111341304D01*
G37*
D11*
%TO.C,J5*%
X173580000Y-114620000D02*
X173580000Y-117380000D01*
X181310000Y-114620000D02*
X173580000Y-114620000D01*
X181310000Y-114620000D02*
X181310000Y-117380000D01*
X181310000Y-117380000D02*
X173580000Y-117380000D01*
X182580000Y-114620000D02*
X183960000Y-114620000D01*
X183960000Y-114620000D02*
X183960000Y-116000000D01*
%TO.C,J2*%
X173310000Y-91340000D02*
X173310000Y-94100000D01*
X181040000Y-91340000D02*
X173310000Y-91340000D01*
X181040000Y-91340000D02*
X181040000Y-94100000D01*
X181040000Y-94100000D02*
X173310000Y-94100000D01*
X182310000Y-91340000D02*
X183690000Y-91340000D01*
X183690000Y-91340000D02*
X183690000Y-92720000D01*
D12*
%TO.C,G\u002A\u002A\u002A*%
G36*
X142603125Y-109496516D02*
G01*
X141673994Y-110201960D01*
X140744862Y-110907405D01*
X140750596Y-111224481D01*
X140753784Y-111353675D01*
X140758984Y-111452975D01*
X140767560Y-111527490D01*
X140780876Y-111582329D01*
X140800298Y-111622602D01*
X140827188Y-111653418D01*
X140862913Y-111679888D01*
X140874065Y-111686840D01*
X140925145Y-111712631D01*
X140985736Y-111732043D01*
X141060693Y-111745661D01*
X141154877Y-111754071D01*
X141273144Y-111757859D01*
X141420353Y-111757611D01*
X141456536Y-111757083D01*
X141789134Y-111751619D01*
X141797887Y-111004227D01*
X141806639Y-110256835D01*
X142198218Y-109958294D01*
X142299730Y-109881074D01*
X142391928Y-109811271D01*
X142471227Y-109751574D01*
X142534038Y-109704671D01*
X142576775Y-109673252D01*
X142595852Y-109660005D01*
X142596461Y-109659752D01*
X142597453Y-109676839D01*
X142598401Y-109726433D01*
X142599293Y-109806029D01*
X142600119Y-109913121D01*
X142600867Y-110045207D01*
X142601528Y-110199781D01*
X142602089Y-110374339D01*
X142602540Y-110566378D01*
X142602870Y-110773392D01*
X142603068Y-110992877D01*
X142603125Y-111192770D01*
X142603125Y-112725788D01*
X141749748Y-112718863D01*
X141544965Y-112717160D01*
X141371686Y-112715397D01*
X141226404Y-112713197D01*
X141105613Y-112710181D01*
X141005808Y-112705972D01*
X140923482Y-112700193D01*
X140855129Y-112692465D01*
X140797244Y-112682410D01*
X140746321Y-112669652D01*
X140698854Y-112653812D01*
X140651337Y-112634512D01*
X140600264Y-112611375D01*
X140555128Y-112590150D01*
X140385733Y-112493909D01*
X140243515Y-112377062D01*
X140126909Y-112237744D01*
X140034353Y-112074086D01*
X139964465Y-111884846D01*
X139958521Y-111860799D01*
X139953347Y-111830422D01*
X139948858Y-111791026D01*
X139944969Y-111739922D01*
X139941594Y-111674419D01*
X139938648Y-111591830D01*
X139936045Y-111489463D01*
X139933701Y-111364629D01*
X139931529Y-111214640D01*
X139929444Y-111036805D01*
X139927360Y-110828435D01*
X139925936Y-110671930D01*
X139923920Y-110446873D01*
X139922084Y-110254180D01*
X139920324Y-110091207D01*
X139918534Y-109955310D01*
X139916610Y-109843844D01*
X139914448Y-109754164D01*
X139911944Y-109683625D01*
X139908992Y-109629584D01*
X139905489Y-109589395D01*
X139901330Y-109560415D01*
X139896411Y-109539998D01*
X139890626Y-109525499D01*
X139883872Y-109514276D01*
X139879989Y-109508918D01*
X139847977Y-109468124D01*
X139817629Y-109437700D01*
X139783219Y-109416016D01*
X139739021Y-109401443D01*
X139679307Y-109392353D01*
X139598352Y-109387117D01*
X139490429Y-109384105D01*
X139437832Y-109383148D01*
X139325751Y-109381481D01*
X139242540Y-109381229D01*
X139182066Y-109382945D01*
X139138198Y-109387181D01*
X139104807Y-109394492D01*
X139075761Y-109405428D01*
X139049575Y-109418159D01*
X138982195Y-109464589D01*
X138935170Y-109529281D01*
X138931416Y-109536548D01*
X138892029Y-109614654D01*
X138892036Y-110980725D01*
X138892043Y-112346795D01*
X138078039Y-112338845D01*
X138078039Y-110854881D01*
X138078082Y-110590637D01*
X138078244Y-110359045D01*
X138078568Y-110157748D01*
X138079101Y-109984387D01*
X138079888Y-109836604D01*
X138080975Y-109712042D01*
X138082406Y-109608342D01*
X138084229Y-109523147D01*
X138086487Y-109454098D01*
X138089226Y-109398838D01*
X138092493Y-109355008D01*
X138096332Y-109320250D01*
X138100788Y-109292208D01*
X138105909Y-109268521D01*
X138108851Y-109257133D01*
X138177502Y-109066426D01*
X138273916Y-108896562D01*
X138396842Y-108748789D01*
X138545027Y-108624356D01*
X138717220Y-108524513D01*
X138912170Y-108450508D01*
X138919076Y-108448492D01*
X138969440Y-108434768D01*
X139016559Y-108424568D01*
X139066812Y-108417395D01*
X139126583Y-108412751D01*
X139202254Y-108410141D01*
X139300206Y-108409067D01*
X139425937Y-108409030D01*
X139564419Y-108410032D01*
X139673757Y-108412597D01*
X139759798Y-108417098D01*
X139828385Y-108423903D01*
X139885367Y-108433382D01*
X139914098Y-108439924D01*
X140091530Y-108501607D01*
X140252845Y-108592424D01*
X140395590Y-108709276D01*
X140517312Y-108849065D01*
X140615558Y-109008692D01*
X140687876Y-109185059D01*
X140731814Y-109375065D01*
X140743173Y-109487446D01*
X140747673Y-109560264D01*
X140752161Y-109617854D01*
X140756000Y-109652760D01*
X140757842Y-109659752D01*
X140772285Y-109649420D01*
X140812143Y-109619636D01*
X140875023Y-109572217D01*
X140958529Y-109508982D01*
X141060268Y-109431747D01*
X141177846Y-109342330D01*
X141308870Y-109242549D01*
X141450944Y-109134221D01*
X141601676Y-109019164D01*
X141617426Y-109007135D01*
X141771087Y-108889772D01*
X141918008Y-108777573D01*
X142055561Y-108672542D01*
X142181122Y-108576682D01*
X142292065Y-108491999D01*
X142385763Y-108420496D01*
X142459591Y-108364177D01*
X142510923Y-108325048D01*
X142537134Y-108305112D01*
X142537480Y-108304850D01*
X142603125Y-108255183D01*
X142603125Y-109496516D01*
G37*
D11*
%TO.C,J6*%
X173305000Y-77147500D02*
X173305000Y-67107500D01*
X180745000Y-67107500D02*
X173305000Y-67107500D01*
X183705000Y-67107500D02*
X181345000Y-67107500D01*
X183705000Y-67727500D02*
X173305000Y-67727500D01*
X183705000Y-69227500D02*
X173305000Y-69227500D01*
X183705000Y-74127500D02*
X173305000Y-74127500D01*
X183705000Y-77147500D02*
X173305000Y-77147500D01*
X183705000Y-77147500D02*
X183705000Y-67107500D01*
X181045000Y-67107500D02*
X180605000Y-66497500D01*
X181485000Y-66497500D01*
X181045000Y-67107500D01*
G36*
X181045000Y-67107500D02*
G01*
X180605000Y-66497500D01*
X181485000Y-66497500D01*
X181045000Y-67107500D01*
G37*
D13*
%TO.C,U1*%
X144370000Y-63260000D02*
X169770000Y-63260000D01*
X144370000Y-126000000D02*
X144370000Y-63260000D01*
X169770000Y-63260000D02*
X169770000Y-126000000D01*
X169770000Y-126000000D02*
X144370000Y-126000000D01*
D14*
X143454000Y-64658000D02*
G75*
G02*
X143254000Y-64658000I-100000J0D01*
G01*
X143254000Y-64658000D02*
G75*
G02*
X143454000Y-64658000I100000J0D01*
G01*
D11*
%TO.C,J3*%
X172810000Y-99100000D02*
X172810000Y-101860000D01*
X180540000Y-99100000D02*
X172810000Y-99100000D01*
X180540000Y-99100000D02*
X180540000Y-101860000D01*
X180540000Y-101860000D02*
X172810000Y-101860000D01*
X181810000Y-99100000D02*
X183190000Y-99100000D01*
X183190000Y-99100000D02*
X183190000Y-100480000D01*
%TO.C,J4*%
X173310000Y-106860000D02*
X173310000Y-109620000D01*
X181040000Y-106860000D02*
X173310000Y-106860000D01*
X181040000Y-106860000D02*
X181040000Y-109620000D01*
X181040000Y-109620000D02*
X173310000Y-109620000D01*
X182310000Y-106860000D02*
X183690000Y-106860000D01*
X183690000Y-106860000D02*
X183690000Y-108240000D01*
D12*
%TO.C,G\u002A\u002A\u002A*%
G36*
X142603125Y-66996516D02*
G01*
X141673994Y-67701960D01*
X140744862Y-68407405D01*
X140750596Y-68724481D01*
X140753784Y-68853675D01*
X140758984Y-68952975D01*
X140767560Y-69027490D01*
X140780876Y-69082329D01*
X140800298Y-69122602D01*
X140827188Y-69153418D01*
X140862913Y-69179888D01*
X140874065Y-69186840D01*
X140925145Y-69212631D01*
X140985736Y-69232043D01*
X141060693Y-69245661D01*
X141154877Y-69254071D01*
X141273144Y-69257859D01*
X141420353Y-69257611D01*
X141456536Y-69257083D01*
X141789134Y-69251619D01*
X141797887Y-68504227D01*
X141806639Y-67756835D01*
X142198218Y-67458294D01*
X142299730Y-67381074D01*
X142391928Y-67311271D01*
X142471227Y-67251574D01*
X142534038Y-67204671D01*
X142576775Y-67173252D01*
X142595852Y-67160005D01*
X142596461Y-67159752D01*
X142597453Y-67176839D01*
X142598401Y-67226433D01*
X142599293Y-67306029D01*
X142600119Y-67413121D01*
X142600867Y-67545207D01*
X142601528Y-67699781D01*
X142602089Y-67874339D01*
X142602540Y-68066378D01*
X142602870Y-68273392D01*
X142603068Y-68492877D01*
X142603125Y-68692770D01*
X142603125Y-70225788D01*
X141749748Y-70218863D01*
X141544965Y-70217160D01*
X141371686Y-70215397D01*
X141226404Y-70213197D01*
X141105613Y-70210181D01*
X141005808Y-70205972D01*
X140923482Y-70200193D01*
X140855129Y-70192465D01*
X140797244Y-70182410D01*
X140746321Y-70169652D01*
X140698854Y-70153812D01*
X140651337Y-70134512D01*
X140600264Y-70111375D01*
X140555128Y-70090150D01*
X140385733Y-69993909D01*
X140243515Y-69877062D01*
X140126909Y-69737744D01*
X140034353Y-69574086D01*
X139964465Y-69384846D01*
X139958521Y-69360799D01*
X139953347Y-69330422D01*
X139948858Y-69291026D01*
X139944969Y-69239922D01*
X139941594Y-69174419D01*
X139938648Y-69091830D01*
X139936045Y-68989463D01*
X139933701Y-68864629D01*
X139931529Y-68714640D01*
X139929444Y-68536805D01*
X139927360Y-68328435D01*
X139925936Y-68171930D01*
X139923920Y-67946873D01*
X139922084Y-67754180D01*
X139920324Y-67591207D01*
X139918534Y-67455310D01*
X139916610Y-67343844D01*
X139914448Y-67254164D01*
X139911944Y-67183625D01*
X139908992Y-67129584D01*
X139905489Y-67089395D01*
X139901330Y-67060415D01*
X139896411Y-67039998D01*
X139890626Y-67025499D01*
X139883872Y-67014276D01*
X139879989Y-67008918D01*
X139847977Y-66968124D01*
X139817629Y-66937700D01*
X139783219Y-66916016D01*
X139739021Y-66901443D01*
X139679307Y-66892353D01*
X139598352Y-66887117D01*
X139490429Y-66884105D01*
X139437832Y-66883148D01*
X139325751Y-66881481D01*
X139242540Y-66881229D01*
X139182066Y-66882945D01*
X139138198Y-66887181D01*
X139104807Y-66894492D01*
X139075761Y-66905428D01*
X139049575Y-66918159D01*
X138982195Y-66964589D01*
X138935170Y-67029281D01*
X138931416Y-67036548D01*
X138892029Y-67114654D01*
X138892036Y-68480725D01*
X138892043Y-69846795D01*
X138078039Y-69838845D01*
X138078039Y-68354881D01*
X138078082Y-68090637D01*
X138078244Y-67859045D01*
X138078568Y-67657748D01*
X138079101Y-67484387D01*
X138079888Y-67336604D01*
X138080975Y-67212042D01*
X138082406Y-67108342D01*
X138084229Y-67023147D01*
X138086487Y-66954098D01*
X138089226Y-66898838D01*
X138092493Y-66855008D01*
X138096332Y-66820250D01*
X138100788Y-66792208D01*
X138105909Y-66768521D01*
X138108851Y-66757133D01*
X138177502Y-66566426D01*
X138273916Y-66396562D01*
X138396842Y-66248789D01*
X138545027Y-66124356D01*
X138717220Y-66024513D01*
X138912170Y-65950508D01*
X138919076Y-65948492D01*
X138969440Y-65934768D01*
X139016559Y-65924568D01*
X139066812Y-65917395D01*
X139126583Y-65912751D01*
X139202254Y-65910141D01*
X139300206Y-65909067D01*
X139425937Y-65909030D01*
X139564419Y-65910032D01*
X139673757Y-65912597D01*
X139759798Y-65917098D01*
X139828385Y-65923903D01*
X139885367Y-65933382D01*
X139914098Y-65939924D01*
X140091530Y-66001607D01*
X140252845Y-66092424D01*
X140395590Y-66209276D01*
X140517312Y-66349065D01*
X140615558Y-66508692D01*
X140687876Y-66685059D01*
X140731814Y-66875065D01*
X140743173Y-66987446D01*
X140747673Y-67060264D01*
X140752161Y-67117854D01*
X140756000Y-67152760D01*
X140757842Y-67159752D01*
X140772285Y-67149420D01*
X140812143Y-67119636D01*
X140875023Y-67072217D01*
X140958529Y-67008982D01*
X141060268Y-66931747D01*
X141177846Y-66842330D01*
X141308870Y-66742549D01*
X141450944Y-66634221D01*
X141601676Y-66519164D01*
X141617426Y-66507135D01*
X141771087Y-66389772D01*
X141918008Y-66277573D01*
X142055561Y-66172542D01*
X142181122Y-66076682D01*
X142292065Y-65991999D01*
X142385763Y-65920496D01*
X142459591Y-65864177D01*
X142510923Y-65825048D01*
X142537134Y-65805112D01*
X142537480Y-65804850D01*
X142603125Y-65755183D01*
X142603125Y-66996516D01*
G37*
D11*
%TO.C,J1*%
X172810000Y-83580000D02*
X172810000Y-86340000D01*
X180540000Y-83580000D02*
X172810000Y-83580000D01*
X180540000Y-83580000D02*
X180540000Y-86340000D01*
X180540000Y-86340000D02*
X172810000Y-86340000D01*
X181810000Y-83580000D02*
X183190000Y-83580000D01*
X183190000Y-83580000D02*
X183190000Y-84960000D01*
%TD*%
M02*
