M48
; DRILL file {KiCad 9.0.2} date 2025-08-12T13:49:39-0400
; FORMAT={-:-/ absolute / metric / decimal}
; #@! TF.CreationDate,2025-08-12T13:49:39-04:00
; #@! TF.GenerationSoftware,Kicad,Pcbnew,9.0.2
; #@! TF.FileFunction,Plated,1,2,PTH
FMAT,2
METRIC
; #@! TA.AperFunction,Plated,PTH,ComponentDrill
T1C1.000
; #@! TA.AperFunction,Plated,PTH,ComponentDrill
T2C1.020
; #@! TA.AperFunction,Plated,PTH,ComponentDrill
T3C1.300
%
G90
G05
T1
X175.42Y-84.96
X175.42Y-92.72
X175.42Y-100.48
X175.42Y-108.24
X175.42Y-116.0
X177.96Y-84.96
X177.96Y-92.72
X177.96Y-100.48
X177.96Y-108.24
X177.96Y-116.0
X180.5Y-84.96
X180.5Y-92.72
X180.5Y-100.48
X180.5Y-108.24
X180.5Y-116.0
X183.04Y-84.96
X183.04Y-92.72
X183.04Y-100.48
X183.04Y-108.24
X183.04Y-116.0
T2
X145.64Y-64.66
X145.64Y-67.2
X145.64Y-69.74
X145.64Y-72.28
X145.64Y-74.82
X145.64Y-77.36
X145.64Y-79.9
X145.64Y-82.44
X145.64Y-84.98
X145.64Y-87.52
X145.64Y-90.06
X145.64Y-92.6
X145.64Y-95.14
X145.64Y-97.68
X145.64Y-100.22
X145.64Y-102.76
X145.64Y-105.3
X145.64Y-107.84
X145.64Y-110.38
X145.64Y-112.92
X145.64Y-115.46
X145.64Y-118.0
X168.5Y-64.66
X168.5Y-67.2
X168.5Y-69.74
X168.5Y-72.28
X168.5Y-74.82
X168.5Y-77.36
X168.5Y-79.9
X168.5Y-82.44
X168.5Y-84.98
X168.5Y-87.52
X168.5Y-90.06
X168.5Y-92.6
X168.5Y-95.14
X168.5Y-97.68
X168.5Y-100.22
X168.5Y-102.76
X168.5Y-105.3
X168.5Y-107.84
X168.5Y-110.38
X168.5Y-112.92
X168.5Y-115.46
X168.5Y-118.0
X171.04Y-64.66
X171.04Y-67.17
X171.04Y-69.74
X171.04Y-72.28
X171.04Y-74.82
X171.04Y-77.36
X171.04Y-79.9
X171.04Y-82.44
X171.04Y-84.98
X171.04Y-87.52
X171.04Y-90.06
X171.04Y-92.6
X171.04Y-95.14
X171.04Y-97.68
X171.04Y-100.22
X171.04Y-102.76
X171.04Y-105.3
X171.04Y-107.84
X171.04Y-110.38
X171.04Y-112.92
X171.04Y-115.46
X171.04Y-118.0
T3
X177.0Y-71.828
X182.08Y-71.828
M30
