%TF.GenerationSoftware,KiCad,Pcbnew,9.0.2*%
%TF.CreationDate,2025-08-12T13:49:35-04:00*%
%TF.ProjectId,Wireless Communication Board (WCB)V3.2,57697265-6c65-4737-9320-436f6d6d756e,rev?*%
%TF.SameCoordinates,Original*%
%TF.FileFunction,Legend,Bot*%
%TF.FilePolarity,Positive*%
%FSLAX46Y46*%
G04 Gerber Fmt 4.6, Leading zero omitted, Abs format (unit mm)*
G04 Created by KiCad (PCBNEW 9.0.2) date 2025-08-12 13:49:35*
%MOMM*%
%LPD*%
G01*
G04 APERTURE LIST*
%ADD10C,0.250000*%
%ADD11C,0.000000*%
G04 APERTURE END LIST*
D10*
G36*
X164178489Y-69098304D02*
G01*
X164421144Y-69098304D01*
X164479790Y-69100663D01*
X164508128Y-69109051D01*
X164519341Y-69120096D01*
X164520123Y-69134466D01*
X164507881Y-69156467D01*
X164471763Y-69191727D01*
X164396491Y-69264170D01*
X164339977Y-69331930D01*
X164299449Y-69395627D01*
X164272620Y-69455991D01*
X164257761Y-69513866D01*
X164253777Y-69570181D01*
X164261107Y-69627845D01*
X164279252Y-69675147D01*
X164307796Y-69714287D01*
X164347798Y-69746540D01*
X164401658Y-69772088D01*
X164472862Y-69790000D01*
X165000000Y-69790000D01*
X165000000Y-69493000D01*
X164790256Y-69493000D01*
X164726112Y-69490197D01*
X164695728Y-69480914D01*
X164684137Y-69468839D01*
X164684066Y-69452999D01*
X164699126Y-69428393D01*
X164742323Y-69388647D01*
X164823770Y-69305934D01*
X164881554Y-69231090D01*
X164919776Y-69162952D01*
X164941739Y-69100239D01*
X164949800Y-69041557D01*
X164945228Y-68985464D01*
X164928044Y-68926865D01*
X164903168Y-68881751D01*
X164871022Y-68847542D01*
X164830912Y-68822713D01*
X164781123Y-68806972D01*
X164719120Y-68801304D01*
X164178489Y-68801304D01*
X164178489Y-69098304D01*
G37*
G36*
X163516835Y-69493000D02*
G01*
X163205914Y-69493000D01*
X163205914Y-69790000D01*
X163645368Y-69790000D01*
X163751543Y-69783368D01*
X163848246Y-69764119D01*
X163936810Y-69732847D01*
X163999232Y-69700254D01*
X164053826Y-69660976D01*
X164101346Y-69614827D01*
X164142280Y-69561327D01*
X164174293Y-69502892D01*
X164197734Y-69437515D01*
X164212350Y-69364090D01*
X164217445Y-69281303D01*
X164212205Y-69204810D01*
X164197045Y-69135934D01*
X164172444Y-69073513D01*
X164138412Y-69015693D01*
X164097026Y-68965229D01*
X164047880Y-68921472D01*
X163992773Y-68884825D01*
X163932045Y-68854698D01*
X163865064Y-68831102D01*
X163795685Y-68814714D01*
X163722598Y-68804708D01*
X163645368Y-68801304D01*
X163374685Y-68801304D01*
X163205914Y-68801304D01*
X163205914Y-69098304D01*
X163516835Y-69098304D01*
X163613825Y-69100113D01*
X163670403Y-69104410D01*
X163718461Y-69112805D01*
X163758757Y-69124743D01*
X163794663Y-69143837D01*
X163827084Y-69174019D01*
X163842415Y-69199385D01*
X163854435Y-69239065D01*
X163861461Y-69298400D01*
X163855173Y-69355670D01*
X163843179Y-69395411D01*
X163827084Y-69422109D01*
X163792442Y-69453036D01*
X163751308Y-69471324D01*
X163705992Y-69481593D01*
X163658801Y-69488237D01*
X163516835Y-69493000D01*
G37*
G36*
X163265631Y-69790000D02*
G01*
X162907388Y-69790000D01*
X162845228Y-69610237D01*
X162554762Y-69610237D01*
X162492541Y-69790000D01*
X162115186Y-69790000D01*
X162243087Y-69407027D01*
X162564227Y-69407027D01*
X162830818Y-69407027D01*
X162692210Y-69023871D01*
X162564227Y-69407027D01*
X162243087Y-69407027D01*
X162446685Y-68797397D01*
X162939628Y-68797397D01*
X163265631Y-69790000D01*
G37*
G36*
X162133565Y-69790000D02*
G01*
X162133565Y-68797397D01*
X161809394Y-68797397D01*
X161518318Y-69163456D01*
X161518318Y-68797397D01*
X161193169Y-68797397D01*
X161193169Y-69790000D01*
X161517280Y-69790000D01*
X161808356Y-69423941D01*
X161808356Y-69790000D01*
X162133565Y-69790000D01*
G37*
G36*
X160080681Y-68794650D02*
G01*
X160163824Y-68808705D01*
X160230486Y-68826767D01*
X160293992Y-68852760D01*
X160349975Y-68885634D01*
X160399258Y-68925441D01*
X160442243Y-68971955D01*
X160477608Y-69023518D01*
X160505687Y-69080657D01*
X160525215Y-69141324D01*
X160537662Y-69212091D01*
X160542079Y-69294614D01*
X160537931Y-69375275D01*
X160526050Y-69447041D01*
X160507091Y-69511013D01*
X160479629Y-69571466D01*
X160445123Y-69624530D01*
X160403410Y-69670992D01*
X160355029Y-69710620D01*
X160300057Y-69743388D01*
X160237691Y-69769361D01*
X160172199Y-69787440D01*
X160097938Y-69799747D01*
X160013782Y-69805631D01*
X159424607Y-69788534D01*
X159424607Y-69491229D01*
X159455382Y-69491229D01*
X159499632Y-69492719D01*
X159516184Y-69484592D01*
X159518831Y-69469771D01*
X159503864Y-69440427D01*
X159476416Y-69395181D01*
X159455153Y-69343576D01*
X159446196Y-69308047D01*
X159755922Y-69308047D01*
X159762540Y-69375437D01*
X159774241Y-69443907D01*
X159783365Y-69463736D01*
X159802717Y-69479602D01*
X159836628Y-69491488D01*
X159891964Y-69497255D01*
X159977451Y-69493183D01*
X159977451Y-69541910D01*
X160038956Y-69536625D01*
X160084706Y-69522455D01*
X160118374Y-69500958D01*
X160142498Y-69472240D01*
X160165561Y-69424135D01*
X160179797Y-69369839D01*
X160184752Y-69308047D01*
X160179566Y-69240408D01*
X160165471Y-69187967D01*
X160143943Y-69147565D01*
X160115386Y-69116828D01*
X160079084Y-69094385D01*
X160033304Y-69080052D01*
X159975497Y-69074856D01*
X159908249Y-69080347D01*
X159859608Y-69094860D01*
X159825041Y-69116487D01*
X159801352Y-69144893D01*
X159778354Y-69193090D01*
X159763092Y-69247120D01*
X159755922Y-69308047D01*
X159446196Y-69308047D01*
X159440300Y-69284661D01*
X159442126Y-69182143D01*
X159455196Y-69100060D01*
X159477461Y-69034722D01*
X159507711Y-68983021D01*
X159548396Y-68935702D01*
X159594140Y-68895996D01*
X159645340Y-68863398D01*
X159702616Y-68837697D01*
X159783273Y-68813169D01*
X159874675Y-68795580D01*
X159978183Y-68785673D01*
X160080681Y-68794650D01*
G37*
G36*
X159388276Y-69790000D02*
G01*
X159027529Y-69790000D01*
X159027529Y-69466866D01*
X158717280Y-69790000D01*
X158324842Y-69790000D01*
X158324842Y-69493000D01*
X158621109Y-69493000D01*
X158692489Y-69401531D01*
X158618838Y-69379647D01*
X158561739Y-69354345D01*
X158518283Y-69326304D01*
X158480848Y-69291138D01*
X158452165Y-69251294D01*
X158431577Y-69206137D01*
X158421403Y-69157531D01*
X158421320Y-69138604D01*
X158714959Y-69138604D01*
X158719136Y-69176946D01*
X158727634Y-69199306D01*
X158738895Y-69211205D01*
X158761484Y-69222170D01*
X158780661Y-69225432D01*
X159027529Y-69225432D01*
X159027529Y-69047501D01*
X158781332Y-69047501D01*
X158765310Y-69051209D01*
X158742009Y-69065209D01*
X158729723Y-69079064D01*
X158720325Y-69102197D01*
X158714959Y-69138604D01*
X158421320Y-69138604D01*
X158421112Y-69091192D01*
X158434263Y-69001828D01*
X158462978Y-68946449D01*
X158500412Y-68899802D01*
X158547165Y-68860900D01*
X158600761Y-68831588D01*
X158665549Y-68810130D01*
X158743719Y-68797397D01*
X159388276Y-68797397D01*
X159388276Y-69790000D01*
G37*
G36*
X157014113Y-69493000D02*
G01*
X156703192Y-69493000D01*
X156703192Y-69790000D01*
X157142646Y-69790000D01*
X157248821Y-69783368D01*
X157345524Y-69764119D01*
X157434089Y-69732847D01*
X157496510Y-69700254D01*
X157551104Y-69660976D01*
X157598625Y-69614827D01*
X157639558Y-69561327D01*
X157671571Y-69502892D01*
X157695013Y-69437515D01*
X157709628Y-69364090D01*
X157714724Y-69281303D01*
X157709484Y-69204810D01*
X157694324Y-69135934D01*
X157669722Y-69073513D01*
X157635690Y-69015693D01*
X157594305Y-68965229D01*
X157545158Y-68921472D01*
X157490052Y-68884825D01*
X157429324Y-68854698D01*
X157362342Y-68831102D01*
X157292964Y-68814714D01*
X157219876Y-68804708D01*
X157142646Y-68801304D01*
X156871964Y-68801304D01*
X156703192Y-68801304D01*
X156703192Y-69098304D01*
X157014113Y-69098304D01*
X157111104Y-69100113D01*
X157167681Y-69104410D01*
X157215739Y-69112805D01*
X157256036Y-69124743D01*
X157291941Y-69143837D01*
X157324363Y-69174019D01*
X157339693Y-69199385D01*
X157351714Y-69239065D01*
X157358740Y-69298400D01*
X157352451Y-69355670D01*
X157340458Y-69395411D01*
X157324363Y-69422109D01*
X157289720Y-69453036D01*
X157248586Y-69471324D01*
X157203270Y-69481593D01*
X157156079Y-69488237D01*
X157014113Y-69493000D01*
G37*
G36*
X156223380Y-68793524D02*
G01*
X156302782Y-68804831D01*
X156373953Y-68822859D01*
X156442134Y-68849190D01*
X156501260Y-68881857D01*
X156552372Y-68920739D01*
X156596784Y-68966826D01*
X156633537Y-69019573D01*
X156662892Y-69079741D01*
X156683311Y-69143740D01*
X156696136Y-69216160D01*
X156700628Y-69298278D01*
X156696118Y-69380649D01*
X156683217Y-69453602D01*
X156662632Y-69518360D01*
X156634743Y-69575982D01*
X156598192Y-69628988D01*
X156554151Y-69674983D01*
X156502027Y-69714475D01*
X156440875Y-69747623D01*
X156353686Y-69778847D01*
X156252442Y-69798632D01*
X156134717Y-69805631D01*
X156016977Y-69798683D01*
X155915511Y-69779028D01*
X155827948Y-69747990D01*
X155766490Y-69714991D01*
X155713777Y-69675439D01*
X155668911Y-69629155D01*
X155631332Y-69575615D01*
X155602419Y-69517367D01*
X155581181Y-69452421D01*
X155567928Y-69379778D01*
X155563515Y-69301880D01*
X155917219Y-69301880D01*
X155923587Y-69366107D01*
X155933155Y-69415758D01*
X155944532Y-69445080D01*
X155963922Y-69472832D01*
X155992690Y-69499473D01*
X156026546Y-69518446D01*
X156073256Y-69531186D01*
X156136732Y-69535987D01*
X156199324Y-69530663D01*
X156245675Y-69516422D01*
X156279596Y-69494882D01*
X156303733Y-69466195D01*
X156326831Y-69418047D01*
X156341087Y-69363710D01*
X156346048Y-69301880D01*
X156340844Y-69233662D01*
X156326706Y-69180807D01*
X156305128Y-69140122D01*
X156276531Y-69109201D01*
X156240218Y-69086647D01*
X156194465Y-69072255D01*
X156136732Y-69067041D01*
X156069532Y-69072536D01*
X156020899Y-69087068D01*
X155986311Y-69108731D01*
X155962587Y-69137199D01*
X155939645Y-69185455D01*
X155924382Y-69239968D01*
X155917219Y-69301880D01*
X155563515Y-69301880D01*
X155563311Y-69298278D01*
X155567931Y-69216800D01*
X155581189Y-69144232D01*
X155602427Y-69079403D01*
X155631332Y-69021306D01*
X155668872Y-68967909D01*
X155713769Y-68921543D01*
X155766595Y-68881714D01*
X155828253Y-68848260D01*
X155916109Y-68816618D01*
X156017492Y-68796631D01*
X156134717Y-68789581D01*
X156223380Y-68793524D01*
G37*
G36*
X155520446Y-69790000D02*
G01*
X154952520Y-69790000D01*
X154862029Y-69787803D01*
X154787554Y-69778210D01*
X154726657Y-69762522D01*
X154668304Y-69738978D01*
X154617664Y-69710507D01*
X154573883Y-69677220D01*
X154536076Y-69637533D01*
X154502589Y-69588074D01*
X154473560Y-69527316D01*
X154452622Y-69463030D01*
X154437223Y-69386922D01*
X154428253Y-69297178D01*
X154428408Y-69294309D01*
X154805425Y-69294309D01*
X154813165Y-69367566D01*
X154824081Y-69415420D01*
X154836627Y-69444823D01*
X154864647Y-69482898D01*
X154899520Y-69513211D01*
X154926458Y-69527469D01*
X154959772Y-69536599D01*
X155001003Y-69539895D01*
X155187055Y-69539895D01*
X155187055Y-69047501D01*
X155002407Y-69047501D01*
X154960214Y-69050794D01*
X154925977Y-69059925D01*
X154898176Y-69074185D01*
X154862329Y-69105489D01*
X154832903Y-69148007D01*
X154819851Y-69180640D01*
X154810168Y-69227925D01*
X154805425Y-69294309D01*
X154428408Y-69294309D01*
X154433519Y-69199993D01*
X154447934Y-69121829D01*
X154469836Y-69059408D01*
X154500990Y-69000793D01*
X154535702Y-68952888D01*
X154573883Y-68914328D01*
X154617539Y-68881734D01*
X154668275Y-68853252D01*
X154726962Y-68829026D01*
X154788122Y-68811949D01*
X154857454Y-68801177D01*
X154936095Y-68797397D01*
X155520446Y-68797397D01*
X155520446Y-69790000D01*
G37*
G36*
X154385205Y-69790000D02*
G01*
X154385205Y-68801304D01*
X153534996Y-68801304D01*
X153534996Y-69098304D01*
X154059996Y-69098304D01*
X154059996Y-69207725D01*
X153720987Y-69207725D01*
X153720987Y-69383579D01*
X154059996Y-69383579D01*
X154059996Y-69493000D01*
X153451648Y-69493000D01*
X153451648Y-69790000D01*
X154385205Y-69790000D01*
G37*
G36*
X152807397Y-69790000D02*
G01*
X152807397Y-68801304D01*
X151957187Y-68801304D01*
X151957187Y-69098304D01*
X152482187Y-69098304D01*
X152482187Y-69207725D01*
X152143178Y-69207725D01*
X152143178Y-69383579D01*
X152482187Y-69383579D01*
X152482187Y-69790000D01*
X152807397Y-69790000D01*
G37*
G36*
X151456737Y-68793524D02*
G01*
X151536139Y-68804831D01*
X151607309Y-68822859D01*
X151675491Y-68849190D01*
X151734616Y-68881857D01*
X151785729Y-68920739D01*
X151830140Y-68966826D01*
X151866893Y-69019573D01*
X151896249Y-69079741D01*
X151916668Y-69143740D01*
X151929492Y-69216160D01*
X151933984Y-69298278D01*
X151929475Y-69380649D01*
X151916574Y-69453602D01*
X151895989Y-69518360D01*
X151868100Y-69575982D01*
X151831549Y-69628988D01*
X151787508Y-69674983D01*
X151735383Y-69714475D01*
X151674232Y-69747623D01*
X151587043Y-69778847D01*
X151485799Y-69798632D01*
X151368073Y-69805631D01*
X151250333Y-69798683D01*
X151148868Y-69779028D01*
X151061304Y-69747990D01*
X150999847Y-69714991D01*
X150947133Y-69675439D01*
X150902268Y-69629155D01*
X150864689Y-69575615D01*
X150835776Y-69517367D01*
X150814538Y-69452421D01*
X150801284Y-69379778D01*
X150796871Y-69301880D01*
X151150575Y-69301880D01*
X151156944Y-69366107D01*
X151166512Y-69415758D01*
X151177889Y-69445080D01*
X151197279Y-69472832D01*
X151226046Y-69499473D01*
X151259902Y-69518446D01*
X151306612Y-69531186D01*
X151370088Y-69535987D01*
X151432681Y-69530663D01*
X151479031Y-69516422D01*
X151512953Y-69494882D01*
X151537090Y-69466195D01*
X151560187Y-69418047D01*
X151574444Y-69363710D01*
X151579405Y-69301880D01*
X151574201Y-69233662D01*
X151560063Y-69180807D01*
X151538484Y-69140122D01*
X151509888Y-69109201D01*
X151473575Y-69086647D01*
X151427822Y-69072255D01*
X151370088Y-69067041D01*
X151302889Y-69072536D01*
X151254256Y-69087068D01*
X151219668Y-69108731D01*
X151195943Y-69137199D01*
X151173002Y-69185455D01*
X151157739Y-69239968D01*
X151150575Y-69301880D01*
X150796871Y-69301880D01*
X150796667Y-69298278D01*
X150801287Y-69216800D01*
X150814545Y-69144232D01*
X150835783Y-69079403D01*
X150864689Y-69021306D01*
X150902229Y-68967909D01*
X150947125Y-68921543D01*
X150999952Y-68881714D01*
X151061610Y-68848260D01*
X151149465Y-68816618D01*
X151250849Y-68796631D01*
X151368073Y-68789581D01*
X151456737Y-68793524D01*
G37*
G36*
X150753803Y-69790000D02*
G01*
X150393056Y-69790000D01*
X150393056Y-69466866D01*
X150082807Y-69790000D01*
X149690369Y-69790000D01*
X149690369Y-69493000D01*
X149986636Y-69493000D01*
X150058016Y-69401531D01*
X149984365Y-69379647D01*
X149927266Y-69354345D01*
X149883810Y-69326304D01*
X149846375Y-69291138D01*
X149817692Y-69251294D01*
X149797103Y-69206137D01*
X149786930Y-69157531D01*
X149786847Y-69138604D01*
X150080486Y-69138604D01*
X150084663Y-69176946D01*
X150093161Y-69199306D01*
X150104422Y-69211205D01*
X150127011Y-69222170D01*
X150146188Y-69225432D01*
X150393056Y-69225432D01*
X150393056Y-69047501D01*
X150146859Y-69047501D01*
X150130837Y-69051209D01*
X150107536Y-69065209D01*
X150095250Y-69079064D01*
X150085852Y-69102197D01*
X150080486Y-69138604D01*
X149786847Y-69138604D01*
X149786638Y-69091192D01*
X149799790Y-69001828D01*
X149828505Y-68946449D01*
X149865939Y-68899802D01*
X149912691Y-68860900D01*
X149966288Y-68831588D01*
X150031076Y-68810130D01*
X150109246Y-68797397D01*
X150753803Y-68797397D01*
X150753803Y-69790000D01*
G37*
G36*
X164958967Y-71470000D02*
G01*
X164958967Y-70477397D01*
X164633757Y-70477397D01*
X164633757Y-71173000D01*
X164099232Y-71173000D01*
X164099232Y-71470000D01*
X164958967Y-71470000D01*
G37*
G36*
X164075785Y-70477397D02*
G01*
X163750575Y-70477397D01*
X163750575Y-71470000D01*
X164075785Y-71470000D01*
X164075785Y-70477397D01*
G37*
G36*
X163686950Y-71470000D02*
G01*
X163686950Y-70477397D01*
X163362779Y-70477397D01*
X163071702Y-70843456D01*
X163071702Y-70477397D01*
X162746554Y-70477397D01*
X162746554Y-71470000D01*
X163070664Y-71470000D01*
X163361741Y-71103941D01*
X163361741Y-71470000D01*
X163686950Y-71470000D01*
G37*
G36*
X162384769Y-70477397D02*
G01*
X162384769Y-70794485D01*
X162162203Y-70477397D01*
X161835956Y-70477397D01*
X162205129Y-70974553D01*
X162042646Y-71173000D01*
X161746318Y-71173000D01*
X161746318Y-71470000D01*
X162138817Y-71470000D01*
X162384769Y-71179412D01*
X162384769Y-71470000D01*
X162709979Y-71470000D01*
X162709979Y-70477397D01*
X162384769Y-70477397D01*
G37*
G36*
X160970115Y-70778304D02*
G01*
X161212770Y-70778304D01*
X161271416Y-70780663D01*
X161299754Y-70789051D01*
X161310967Y-70800096D01*
X161311749Y-70814466D01*
X161299507Y-70836467D01*
X161263389Y-70871727D01*
X161188117Y-70944170D01*
X161131602Y-71011930D01*
X161091075Y-71075627D01*
X161064246Y-71135991D01*
X161049387Y-71193866D01*
X161045403Y-71250181D01*
X161052733Y-71307845D01*
X161070878Y-71355147D01*
X161099422Y-71394287D01*
X161139424Y-71426540D01*
X161193284Y-71452088D01*
X161264488Y-71470000D01*
X161791625Y-71470000D01*
X161791625Y-71173000D01*
X161581882Y-71173000D01*
X161517738Y-71170197D01*
X161487354Y-71160914D01*
X161475762Y-71148839D01*
X161475692Y-71132999D01*
X161490752Y-71108393D01*
X161533949Y-71068647D01*
X161615396Y-70985934D01*
X161673180Y-70911090D01*
X161711402Y-70842952D01*
X161733365Y-70780239D01*
X161741426Y-70721557D01*
X161736854Y-70665464D01*
X161719670Y-70606865D01*
X161694794Y-70561751D01*
X161662648Y-70527542D01*
X161622538Y-70502713D01*
X161572749Y-70486972D01*
X161510746Y-70481304D01*
X160970115Y-70481304D01*
X160970115Y-70778304D01*
G37*
G36*
X159422653Y-70481304D02*
G01*
X159422653Y-70778304D01*
X159735772Y-70778304D01*
X159735772Y-71470000D01*
X160060921Y-71470000D01*
X160060921Y-70778304D01*
X160374040Y-70778304D01*
X160374040Y-70481304D01*
X159422653Y-70481304D01*
G37*
G36*
X158950107Y-70473524D02*
G01*
X159029509Y-70484831D01*
X159100680Y-70502859D01*
X159168861Y-70529190D01*
X159227987Y-70561857D01*
X159279099Y-70600739D01*
X159323511Y-70646826D01*
X159360264Y-70699573D01*
X159389619Y-70759741D01*
X159410038Y-70823740D01*
X159422863Y-70896160D01*
X159427355Y-70978278D01*
X159422845Y-71060649D01*
X159409944Y-71133602D01*
X159389360Y-71198360D01*
X159361470Y-71255982D01*
X159324919Y-71308988D01*
X159280879Y-71354983D01*
X159228754Y-71394475D01*
X159167602Y-71427623D01*
X159080413Y-71458847D01*
X158979169Y-71478632D01*
X158861444Y-71485631D01*
X158743704Y-71478683D01*
X158642239Y-71459028D01*
X158554675Y-71427990D01*
X158493217Y-71394991D01*
X158440504Y-71355439D01*
X158395638Y-71309155D01*
X158358060Y-71255615D01*
X158329146Y-71197367D01*
X158307908Y-71132421D01*
X158294655Y-71059778D01*
X158290242Y-70981880D01*
X158643946Y-70981880D01*
X158650314Y-71046107D01*
X158659883Y-71095758D01*
X158671259Y-71125080D01*
X158690650Y-71152832D01*
X158719417Y-71179473D01*
X158753273Y-71198446D01*
X158799983Y-71211186D01*
X158863459Y-71215987D01*
X158926051Y-71210663D01*
X158972402Y-71196422D01*
X159006323Y-71174882D01*
X159030460Y-71146195D01*
X159053558Y-71098047D01*
X159067814Y-71043710D01*
X159072775Y-70981880D01*
X159067571Y-70913662D01*
X159053433Y-70860807D01*
X159031855Y-70820122D01*
X159003258Y-70789201D01*
X158966945Y-70766647D01*
X158921192Y-70752255D01*
X158863459Y-70747041D01*
X158796260Y-70752536D01*
X158747626Y-70767068D01*
X158713039Y-70788731D01*
X158689314Y-70817199D01*
X158666372Y-70865455D01*
X158651109Y-70919968D01*
X158643946Y-70981880D01*
X158290242Y-70981880D01*
X158290038Y-70978278D01*
X158294658Y-70896800D01*
X158307916Y-70824232D01*
X158329154Y-70759403D01*
X158358060Y-70701306D01*
X158395600Y-70647909D01*
X158440496Y-70601543D01*
X158493322Y-70561714D01*
X158554980Y-70528260D01*
X158642836Y-70496618D01*
X158744219Y-70476631D01*
X158861444Y-70469581D01*
X158950107Y-70473524D01*
G37*
G36*
X157612142Y-71470000D02*
G01*
X157612142Y-70477397D01*
X157287726Y-70477397D01*
X157072854Y-70885954D01*
X156859385Y-70477397D01*
X156535031Y-70477397D01*
X156535031Y-71470000D01*
X156860179Y-71470000D01*
X156860179Y-71065472D01*
X157063450Y-71470000D01*
X157083661Y-71470000D01*
X157286933Y-71065472D01*
X157286933Y-71470000D01*
X157612142Y-71470000D01*
G37*
G36*
X155411270Y-70477397D02*
G01*
X155843702Y-71105772D01*
X155843702Y-71470000D01*
X156170254Y-71470000D01*
X156170254Y-71105772D01*
X156602686Y-70477397D01*
X156208295Y-70477397D01*
X156008382Y-70781174D01*
X155805661Y-70477397D01*
X155411270Y-70477397D01*
G37*
G36*
X154816050Y-71470000D02*
G01*
X154455303Y-71470000D01*
X154455303Y-71145645D01*
X154148168Y-71145645D01*
X154067943Y-71127185D01*
X154002813Y-71099535D01*
X153950209Y-71063457D01*
X153902886Y-71018189D01*
X153874258Y-70981456D01*
X153859412Y-70951472D01*
X153845736Y-70901807D01*
X153837369Y-70847730D01*
X153838442Y-70819520D01*
X154142733Y-70819520D01*
X154146918Y-70858296D01*
X154155424Y-70880870D01*
X154166669Y-70892854D01*
X154189268Y-70903963D01*
X154208435Y-70907264D01*
X154455303Y-70907264D01*
X154455303Y-70727501D01*
X154209106Y-70727501D01*
X154193091Y-70731231D01*
X154169783Y-70745331D01*
X154157512Y-70759306D01*
X154148108Y-70782683D01*
X154142733Y-70819520D01*
X153838442Y-70819520D01*
X153839703Y-70786384D01*
X153862037Y-70682072D01*
X153889458Y-70625123D01*
X153926403Y-70578055D01*
X153973534Y-70539617D01*
X154027927Y-70510977D01*
X154093227Y-70489956D01*
X154171493Y-70477397D01*
X154816050Y-70477397D01*
X154816050Y-71470000D01*
G37*
G36*
X153790230Y-71470000D02*
G01*
X153429483Y-71470000D01*
X153429483Y-71146866D01*
X153119234Y-71470000D01*
X152726796Y-71470000D01*
X152726796Y-71173000D01*
X153023063Y-71173000D01*
X153094443Y-71081531D01*
X153020792Y-71059647D01*
X152963693Y-71034345D01*
X152920237Y-71006304D01*
X152882802Y-70971138D01*
X152854119Y-70931294D01*
X152833531Y-70886137D01*
X152823357Y-70837531D01*
X152823274Y-70818604D01*
X153116913Y-70818604D01*
X153121090Y-70856946D01*
X153129588Y-70879306D01*
X153140849Y-70891205D01*
X153163438Y-70902170D01*
X153182615Y-70905432D01*
X153429483Y-70905432D01*
X153429483Y-70727501D01*
X153183286Y-70727501D01*
X153167264Y-70731209D01*
X153143963Y-70745209D01*
X153131677Y-70759064D01*
X153122279Y-70782197D01*
X153116913Y-70818604D01*
X152823274Y-70818604D01*
X152823065Y-70771192D01*
X152836217Y-70681828D01*
X152864932Y-70626449D01*
X152902366Y-70579802D01*
X152949118Y-70540900D01*
X153002715Y-70511588D01*
X153067503Y-70490130D01*
X153145673Y-70477397D01*
X153790230Y-70477397D01*
X153790230Y-71470000D01*
G37*
G36*
X152288140Y-70473524D02*
G01*
X152367541Y-70484831D01*
X152438712Y-70502859D01*
X152506893Y-70529190D01*
X152566019Y-70561857D01*
X152617131Y-70600739D01*
X152661543Y-70646826D01*
X152698296Y-70699573D01*
X152727651Y-70759741D01*
X152748070Y-70823740D01*
X152760895Y-70896160D01*
X152765387Y-70978278D01*
X152760877Y-71060649D01*
X152747976Y-71133602D01*
X152727392Y-71198360D01*
X152699502Y-71255982D01*
X152662951Y-71308988D01*
X152618911Y-71354983D01*
X152566786Y-71394475D01*
X152505635Y-71427623D01*
X152418446Y-71458847D01*
X152317201Y-71478632D01*
X152199476Y-71485631D01*
X152081736Y-71478683D01*
X151980271Y-71459028D01*
X151892707Y-71427990D01*
X151831249Y-71394991D01*
X151778536Y-71355439D01*
X151733670Y-71309155D01*
X151696092Y-71255615D01*
X151667179Y-71197367D01*
X151645941Y-71132421D01*
X151632687Y-71059778D01*
X151628274Y-70981880D01*
X151981978Y-70981880D01*
X151988346Y-71046107D01*
X151997915Y-71095758D01*
X152009291Y-71125080D01*
X152028682Y-71152832D01*
X152057449Y-71179473D01*
X152091305Y-71198446D01*
X152138015Y-71211186D01*
X152201491Y-71215987D01*
X152264083Y-71210663D01*
X152310434Y-71196422D01*
X152344355Y-71174882D01*
X152368492Y-71146195D01*
X152391590Y-71098047D01*
X152405846Y-71043710D01*
X152410807Y-70981880D01*
X152405603Y-70913662D01*
X152391465Y-70860807D01*
X152369887Y-70820122D01*
X152341290Y-70789201D01*
X152304977Y-70766647D01*
X152259224Y-70752255D01*
X152201491Y-70747041D01*
X152134292Y-70752536D01*
X152085658Y-70767068D01*
X152051071Y-70788731D01*
X152027346Y-70817199D01*
X152004404Y-70865455D01*
X151989141Y-70919968D01*
X151981978Y-70981880D01*
X151628274Y-70981880D01*
X151628070Y-70978278D01*
X151632690Y-70896800D01*
X151645948Y-70824232D01*
X151667186Y-70759403D01*
X151696092Y-70701306D01*
X151733632Y-70647909D01*
X151778528Y-70601543D01*
X151831355Y-70561714D01*
X151893012Y-70528260D01*
X151980868Y-70496618D01*
X152082252Y-70476631D01*
X152199476Y-70469581D01*
X152288140Y-70473524D01*
G37*
G36*
X151585205Y-71470000D02*
G01*
X151585205Y-70481304D01*
X150734996Y-70481304D01*
X150734996Y-70778304D01*
X151259996Y-70778304D01*
X151259996Y-70887725D01*
X150920987Y-70887725D01*
X150920987Y-71063579D01*
X151259996Y-71063579D01*
X151259996Y-71470000D01*
X151585205Y-71470000D01*
G37*
G36*
X150691277Y-70477397D02*
G01*
X150366067Y-70477397D01*
X150366067Y-71470000D01*
X150691277Y-71470000D01*
X150691277Y-70477397D01*
G37*
G36*
X150302442Y-71470000D02*
G01*
X150302442Y-70477397D01*
X149977233Y-70477397D01*
X149977233Y-71173000D01*
X149442707Y-71173000D01*
X149442707Y-71470000D01*
X150302442Y-71470000D01*
G37*
G36*
X149405582Y-71470000D02*
G01*
X149405582Y-70481304D01*
X148555373Y-70481304D01*
X148555373Y-70778304D01*
X149080373Y-70778304D01*
X149080373Y-70887725D01*
X148741364Y-70887725D01*
X148741364Y-71063579D01*
X149080373Y-71063579D01*
X149080373Y-71173000D01*
X148472025Y-71173000D01*
X148472025Y-71470000D01*
X149405582Y-71470000D01*
G37*
G36*
X165055443Y-73150000D02*
G01*
X164697199Y-73150000D01*
X164635040Y-72970237D01*
X164344574Y-72970237D01*
X164282353Y-73150000D01*
X163904998Y-73150000D01*
X164032899Y-72767027D01*
X164354038Y-72767027D01*
X164620629Y-72767027D01*
X164482021Y-72383871D01*
X164354038Y-72767027D01*
X164032899Y-72767027D01*
X164236496Y-72157397D01*
X164729439Y-72157397D01*
X165055443Y-73150000D01*
G37*
G36*
X163923377Y-73150000D02*
G01*
X163923377Y-72157397D01*
X163599206Y-72157397D01*
X163308129Y-72523456D01*
X163308129Y-72157397D01*
X162982981Y-72157397D01*
X162982981Y-73150000D01*
X163307091Y-73150000D01*
X163598168Y-72783941D01*
X163598168Y-73150000D01*
X163923377Y-73150000D01*
G37*
G36*
X162946406Y-73150000D02*
G01*
X162378480Y-73150000D01*
X162287988Y-73147803D01*
X162213514Y-73138210D01*
X162152616Y-73122522D01*
X162094263Y-73098978D01*
X162043624Y-73070507D01*
X161999842Y-73037220D01*
X161962036Y-72997533D01*
X161928549Y-72948074D01*
X161899520Y-72887316D01*
X161878582Y-72823030D01*
X161863182Y-72746922D01*
X161854213Y-72657178D01*
X161854368Y-72654309D01*
X162231385Y-72654309D01*
X162239125Y-72727566D01*
X162250041Y-72775420D01*
X162262587Y-72804823D01*
X162290607Y-72842898D01*
X162325479Y-72873211D01*
X162352417Y-72887469D01*
X162385732Y-72896599D01*
X162426962Y-72899895D01*
X162613014Y-72899895D01*
X162613014Y-72407501D01*
X162428367Y-72407501D01*
X162386174Y-72410794D01*
X162351937Y-72419925D01*
X162324136Y-72434185D01*
X162288288Y-72465489D01*
X162258862Y-72508007D01*
X162245811Y-72540640D01*
X162236127Y-72587925D01*
X162231385Y-72654309D01*
X161854368Y-72654309D01*
X161859479Y-72559993D01*
X161873894Y-72481829D01*
X161895795Y-72419408D01*
X161926949Y-72360793D01*
X161961661Y-72312888D01*
X161999842Y-72274328D01*
X162043498Y-72241734D01*
X162094234Y-72213252D01*
X162152922Y-72189026D01*
X162214082Y-72171949D01*
X162283413Y-72161177D01*
X162362055Y-72157397D01*
X162946406Y-72157397D01*
X162946406Y-73150000D01*
G37*
G36*
X161162456Y-73150000D02*
G01*
X160594530Y-73150000D01*
X160504038Y-73147803D01*
X160429564Y-73138210D01*
X160368667Y-73122522D01*
X160310314Y-73098978D01*
X160259674Y-73070507D01*
X160215893Y-73037220D01*
X160178086Y-72997533D01*
X160144599Y-72948074D01*
X160115570Y-72887316D01*
X160094632Y-72823030D01*
X160079232Y-72746922D01*
X160070263Y-72657178D01*
X160070418Y-72654309D01*
X160447435Y-72654309D01*
X160455175Y-72727566D01*
X160466091Y-72775420D01*
X160478637Y-72804823D01*
X160506657Y-72842898D01*
X160541530Y-72873211D01*
X160568468Y-72887469D01*
X160601782Y-72896599D01*
X160643012Y-72899895D01*
X160829064Y-72899895D01*
X160829064Y-72407501D01*
X160644417Y-72407501D01*
X160602224Y-72410794D01*
X160567987Y-72419925D01*
X160540186Y-72434185D01*
X160504338Y-72465489D01*
X160474912Y-72508007D01*
X160461861Y-72540640D01*
X160452177Y-72587925D01*
X160447435Y-72654309D01*
X160070418Y-72654309D01*
X160075529Y-72559993D01*
X160089944Y-72481829D01*
X160111845Y-72419408D01*
X160143000Y-72360793D01*
X160177711Y-72312888D01*
X160215893Y-72274328D01*
X160259549Y-72241734D01*
X160310284Y-72213252D01*
X160368972Y-72189026D01*
X160430132Y-72171949D01*
X160499463Y-72161177D01*
X160578105Y-72157397D01*
X161162456Y-72157397D01*
X161162456Y-73150000D01*
G37*
G36*
X160040893Y-72157397D02*
G01*
X159715683Y-72157397D01*
X159715683Y-73150000D01*
X160040893Y-73150000D01*
X160040893Y-72157397D01*
G37*
G36*
X158871580Y-72458304D02*
G01*
X159114235Y-72458304D01*
X159172881Y-72460663D01*
X159201219Y-72469051D01*
X159212433Y-72480096D01*
X159213214Y-72494466D01*
X159200972Y-72516467D01*
X159164855Y-72551727D01*
X159089582Y-72624170D01*
X159033068Y-72691930D01*
X158992540Y-72755627D01*
X158965712Y-72815991D01*
X158950852Y-72873866D01*
X158946868Y-72930181D01*
X158954198Y-72987845D01*
X158972343Y-73035147D01*
X159000887Y-73074287D01*
X159040890Y-73106540D01*
X159094749Y-73132088D01*
X159165954Y-73150000D01*
X159693091Y-73150000D01*
X159693091Y-72853000D01*
X159483347Y-72853000D01*
X159419204Y-72850197D01*
X159388820Y-72840914D01*
X159377228Y-72828839D01*
X159377157Y-72812999D01*
X159392218Y-72788393D01*
X159435415Y-72748647D01*
X159516861Y-72665934D01*
X159574645Y-72591090D01*
X159612867Y-72522952D01*
X159634830Y-72460239D01*
X159642892Y-72401557D01*
X159638319Y-72345464D01*
X159621135Y-72286865D01*
X159596260Y-72241751D01*
X159564113Y-72207542D01*
X159524003Y-72182713D01*
X159474215Y-72166972D01*
X159412212Y-72161304D01*
X158871580Y-72161304D01*
X158871580Y-72458304D01*
G37*
G36*
X158209926Y-72853000D02*
G01*
X157899005Y-72853000D01*
X157899005Y-73150000D01*
X158338459Y-73150000D01*
X158444634Y-73143368D01*
X158541337Y-73124119D01*
X158629902Y-73092847D01*
X158692323Y-73060254D01*
X158746917Y-73020976D01*
X158794438Y-72974827D01*
X158835371Y-72921327D01*
X158867384Y-72862892D01*
X158890826Y-72797515D01*
X158905441Y-72724090D01*
X158910537Y-72641303D01*
X158905297Y-72564810D01*
X158890137Y-72495934D01*
X158865535Y-72433513D01*
X158831503Y-72375693D01*
X158790118Y-72325229D01*
X158740971Y-72281472D01*
X158685865Y-72244825D01*
X158625137Y-72214698D01*
X158558155Y-72191102D01*
X158488777Y-72174714D01*
X158415689Y-72164708D01*
X158338459Y-72161304D01*
X158067777Y-72161304D01*
X157899005Y-72161304D01*
X157899005Y-72458304D01*
X158209926Y-72458304D01*
X158306917Y-72460113D01*
X158363494Y-72464410D01*
X158411552Y-72472805D01*
X158451849Y-72484743D01*
X158487754Y-72503837D01*
X158520176Y-72534019D01*
X158535506Y-72559385D01*
X158547527Y-72599065D01*
X158554553Y-72658400D01*
X158548264Y-72715670D01*
X158536271Y-72755411D01*
X158520176Y-72782109D01*
X158485533Y-72813036D01*
X158444399Y-72831324D01*
X158399083Y-72841593D01*
X158351892Y-72848237D01*
X158209926Y-72853000D01*
G37*
G36*
X157419193Y-72153524D02*
G01*
X157498595Y-72164831D01*
X157569766Y-72182859D01*
X157637947Y-72209190D01*
X157697073Y-72241857D01*
X157748185Y-72280739D01*
X157792597Y-72326826D01*
X157829349Y-72379573D01*
X157858705Y-72439741D01*
X157879124Y-72503740D01*
X157891949Y-72576160D01*
X157896441Y-72658278D01*
X157891931Y-72740649D01*
X157879030Y-72813602D01*
X157858445Y-72878360D01*
X157830556Y-72935982D01*
X157794005Y-72988988D01*
X157749964Y-73034983D01*
X157697840Y-73074475D01*
X157636688Y-73107623D01*
X157549499Y-73138847D01*
X157448255Y-73158632D01*
X157330530Y-73165631D01*
X157212790Y-73158683D01*
X157111324Y-73139028D01*
X157023761Y-73107990D01*
X156962303Y-73074991D01*
X156909589Y-73035439D01*
X156864724Y-72989155D01*
X156827145Y-72935615D01*
X156798232Y-72877367D01*
X156776994Y-72812421D01*
X156763741Y-72739778D01*
X156759328Y-72661880D01*
X157113032Y-72661880D01*
X157119400Y-72726107D01*
X157128968Y-72775758D01*
X157140345Y-72805080D01*
X157159735Y-72832832D01*
X157188503Y-72859473D01*
X157222359Y-72878446D01*
X157269069Y-72891186D01*
X157332545Y-72895987D01*
X157395137Y-72890663D01*
X157441487Y-72876422D01*
X157475409Y-72854882D01*
X157499546Y-72826195D01*
X157522644Y-72778047D01*
X157536900Y-72723710D01*
X157541861Y-72661880D01*
X157536657Y-72593662D01*
X157522519Y-72540807D01*
X157500941Y-72500122D01*
X157472344Y-72469201D01*
X157436031Y-72446647D01*
X157390278Y-72432255D01*
X157332545Y-72427041D01*
X157265345Y-72432536D01*
X157216712Y-72447068D01*
X157182124Y-72468731D01*
X157158400Y-72497199D01*
X157135458Y-72545455D01*
X157120195Y-72599968D01*
X157113032Y-72661880D01*
X156759328Y-72661880D01*
X156759124Y-72658278D01*
X156763744Y-72576800D01*
X156777002Y-72504232D01*
X156798240Y-72439403D01*
X156827145Y-72381306D01*
X156864685Y-72327909D01*
X156909582Y-72281543D01*
X156962408Y-72241714D01*
X157024066Y-72208260D01*
X157111922Y-72176618D01*
X157213305Y-72156631D01*
X157330530Y-72149581D01*
X157419193Y-72153524D01*
G37*
G36*
X156716259Y-73150000D02*
G01*
X156355512Y-73150000D01*
X156355512Y-72826866D01*
X156045263Y-73150000D01*
X155652826Y-73150000D01*
X155652826Y-72853000D01*
X155949092Y-72853000D01*
X156020472Y-72761531D01*
X155946821Y-72739647D01*
X155889722Y-72714345D01*
X155846266Y-72686304D01*
X155808832Y-72651138D01*
X155780149Y-72611294D01*
X155759560Y-72566137D01*
X155749386Y-72517531D01*
X155749303Y-72498604D01*
X156042943Y-72498604D01*
X156047119Y-72536946D01*
X156055617Y-72559306D01*
X156066878Y-72571205D01*
X156089467Y-72582170D01*
X156108644Y-72585432D01*
X156355512Y-72585432D01*
X156355512Y-72407501D01*
X156109316Y-72407501D01*
X156093293Y-72411209D01*
X156069993Y-72425209D01*
X156057706Y-72439064D01*
X156048308Y-72462197D01*
X156042943Y-72498604D01*
X155749303Y-72498604D01*
X155749095Y-72451192D01*
X155762247Y-72361828D01*
X155790961Y-72306449D01*
X155828395Y-72259802D01*
X155875148Y-72220900D01*
X155928744Y-72191588D01*
X155993532Y-72170130D01*
X156071702Y-72157397D01*
X156716259Y-72157397D01*
X156716259Y-73150000D01*
G37*
G36*
X155657222Y-73150000D02*
G01*
X155089296Y-73150000D01*
X154998805Y-73147803D01*
X154924330Y-73138210D01*
X154863433Y-73122522D01*
X154805080Y-73098978D01*
X154754440Y-73070507D01*
X154710659Y-73037220D01*
X154672852Y-72997533D01*
X154639365Y-72948074D01*
X154610336Y-72887316D01*
X154589398Y-72823030D01*
X154573998Y-72746922D01*
X154565029Y-72657178D01*
X154565184Y-72654309D01*
X154942201Y-72654309D01*
X154949941Y-72727566D01*
X154960857Y-72775420D01*
X154973403Y-72804823D01*
X155001423Y-72842898D01*
X155036296Y-72873211D01*
X155063234Y-72887469D01*
X155096548Y-72896599D01*
X155137779Y-72899895D01*
X155323831Y-72899895D01*
X155323831Y-72407501D01*
X155139183Y-72407501D01*
X155096990Y-72410794D01*
X155062753Y-72419925D01*
X155034952Y-72434185D01*
X154999105Y-72465489D01*
X154969678Y-72508007D01*
X154956627Y-72540640D01*
X154946944Y-72587925D01*
X154942201Y-72654309D01*
X154565184Y-72654309D01*
X154570295Y-72559993D01*
X154584710Y-72481829D01*
X154606612Y-72419408D01*
X154637766Y-72360793D01*
X154672478Y-72312888D01*
X154710659Y-72274328D01*
X154754315Y-72241734D01*
X154805051Y-72213252D01*
X154863738Y-72189026D01*
X154924898Y-72171949D01*
X154994230Y-72161177D01*
X155072871Y-72157397D01*
X155657222Y-72157397D01*
X155657222Y-73150000D01*
G37*
G36*
X153873272Y-73150000D02*
G01*
X153873272Y-72161304D01*
X153023063Y-72161304D01*
X153023063Y-72458304D01*
X153548063Y-72458304D01*
X153548063Y-72567725D01*
X153209054Y-72567725D01*
X153209054Y-72743579D01*
X153548063Y-72743579D01*
X153548063Y-73150000D01*
X153873272Y-73150000D01*
G37*
G36*
X152522613Y-72153524D02*
G01*
X152602015Y-72164831D01*
X152673185Y-72182859D01*
X152741366Y-72209190D01*
X152800492Y-72241857D01*
X152851605Y-72280739D01*
X152896016Y-72326826D01*
X152932769Y-72379573D01*
X152962124Y-72439741D01*
X152982544Y-72503740D01*
X152995368Y-72576160D01*
X152999860Y-72658278D01*
X152995351Y-72740649D01*
X152982450Y-72813602D01*
X152961865Y-72878360D01*
X152933975Y-72935982D01*
X152897424Y-72988988D01*
X152853384Y-73034983D01*
X152801259Y-73074475D01*
X152740108Y-73107623D01*
X152652919Y-73138847D01*
X152551674Y-73158632D01*
X152433949Y-73165631D01*
X152316209Y-73158683D01*
X152214744Y-73139028D01*
X152127180Y-73107990D01*
X152065722Y-73074991D01*
X152013009Y-73035439D01*
X151968143Y-72989155D01*
X151930565Y-72935615D01*
X151901652Y-72877367D01*
X151880414Y-72812421D01*
X151867160Y-72739778D01*
X151862747Y-72661880D01*
X152216451Y-72661880D01*
X152222819Y-72726107D01*
X152232388Y-72775758D01*
X152243764Y-72805080D01*
X152263155Y-72832832D01*
X152291922Y-72859473D01*
X152325778Y-72878446D01*
X152372488Y-72891186D01*
X152435964Y-72895987D01*
X152498556Y-72890663D01*
X152544907Y-72876422D01*
X152578829Y-72854882D01*
X152602965Y-72826195D01*
X152626063Y-72778047D01*
X152640319Y-72723710D01*
X152645280Y-72661880D01*
X152640076Y-72593662D01*
X152625939Y-72540807D01*
X152604360Y-72500122D01*
X152575764Y-72469201D01*
X152539451Y-72446647D01*
X152493697Y-72432255D01*
X152435964Y-72427041D01*
X152368765Y-72432536D01*
X152320131Y-72447068D01*
X152285544Y-72468731D01*
X152261819Y-72497199D01*
X152238877Y-72545455D01*
X152223615Y-72599968D01*
X152216451Y-72661880D01*
X151862747Y-72661880D01*
X151862543Y-72658278D01*
X151867163Y-72576800D01*
X151880421Y-72504232D01*
X151901659Y-72439403D01*
X151930565Y-72381306D01*
X151968105Y-72327909D01*
X152013001Y-72281543D01*
X152065828Y-72241714D01*
X152127486Y-72208260D01*
X152215341Y-72176618D01*
X152316725Y-72156631D01*
X152433949Y-72149581D01*
X152522613Y-72153524D01*
G37*
G36*
X151819678Y-73150000D02*
G01*
X151458932Y-73150000D01*
X151458932Y-72826866D01*
X151148682Y-73150000D01*
X150756245Y-73150000D01*
X150756245Y-72853000D01*
X151052512Y-72853000D01*
X151123892Y-72761531D01*
X151050241Y-72739647D01*
X150993142Y-72714345D01*
X150949685Y-72686304D01*
X150912251Y-72651138D01*
X150883568Y-72611294D01*
X150862979Y-72566137D01*
X150852806Y-72517531D01*
X150852723Y-72498604D01*
X151146362Y-72498604D01*
X151150538Y-72536946D01*
X151159036Y-72559306D01*
X151170298Y-72571205D01*
X151192886Y-72582170D01*
X151212063Y-72585432D01*
X151458932Y-72585432D01*
X151458932Y-72407501D01*
X151212735Y-72407501D01*
X151196713Y-72411209D01*
X151173412Y-72425209D01*
X151161125Y-72439064D01*
X151151728Y-72462197D01*
X151146362Y-72498604D01*
X150852723Y-72498604D01*
X150852514Y-72451192D01*
X150865666Y-72361828D01*
X150894380Y-72306449D01*
X150931814Y-72259802D01*
X150978567Y-72220900D01*
X151032164Y-72191588D01*
X151096952Y-72170130D01*
X151175122Y-72157397D01*
X151819678Y-72157397D01*
X151819678Y-73150000D01*
G37*
G36*
X164178489Y-74138304D02*
G01*
X164421144Y-74138304D01*
X164479790Y-74140663D01*
X164508128Y-74149051D01*
X164519341Y-74160096D01*
X164520123Y-74174466D01*
X164507881Y-74196467D01*
X164471763Y-74231727D01*
X164396491Y-74304170D01*
X164339977Y-74371930D01*
X164299449Y-74435627D01*
X164272620Y-74495991D01*
X164257761Y-74553866D01*
X164253777Y-74610181D01*
X164261107Y-74667845D01*
X164279252Y-74715147D01*
X164307796Y-74754287D01*
X164347798Y-74786540D01*
X164401658Y-74812088D01*
X164472862Y-74830000D01*
X165000000Y-74830000D01*
X165000000Y-74533000D01*
X164790256Y-74533000D01*
X164726112Y-74530197D01*
X164695728Y-74520914D01*
X164684137Y-74508839D01*
X164684066Y-74492999D01*
X164699126Y-74468393D01*
X164742323Y-74428647D01*
X164823770Y-74345934D01*
X164881554Y-74271090D01*
X164919776Y-74202952D01*
X164941739Y-74140239D01*
X164949800Y-74081557D01*
X164945228Y-74025464D01*
X164928044Y-73966865D01*
X164903168Y-73921751D01*
X164871022Y-73887542D01*
X164830912Y-73862713D01*
X164781123Y-73846972D01*
X164719120Y-73841304D01*
X164178489Y-73841304D01*
X164178489Y-74138304D01*
G37*
G36*
X163892236Y-73837397D02*
G01*
X163892236Y-74424495D01*
X163888961Y-74489493D01*
X163875556Y-74533345D01*
X163854501Y-74562126D01*
X163824229Y-74582444D01*
X163781775Y-74596677D01*
X163723281Y-74603342D01*
X163676992Y-74597830D01*
X163637583Y-74583795D01*
X163603663Y-74561454D01*
X163578802Y-74530892D01*
X163563121Y-74486882D01*
X163558478Y-74424434D01*
X163558478Y-73837397D01*
X163233269Y-73837397D01*
X163233269Y-74420282D01*
X163239436Y-74502434D01*
X163253572Y-74567412D01*
X163274180Y-74618363D01*
X163302781Y-74665639D01*
X163335496Y-74706693D01*
X163372426Y-74742072D01*
X163413938Y-74771846D01*
X163463214Y-74797652D01*
X163521353Y-74819253D01*
X163613927Y-74840288D01*
X163720594Y-74849539D01*
X163811836Y-74842321D01*
X163906036Y-74824443D01*
X163967395Y-74805698D01*
X164022045Y-74781425D01*
X164070717Y-74751781D01*
X164114116Y-74715465D01*
X164150149Y-74673124D01*
X164179282Y-74624164D01*
X164199416Y-74570811D01*
X164212625Y-74504031D01*
X164217445Y-74420954D01*
X164217445Y-73837397D01*
X163892236Y-73837397D01*
G37*
G36*
X163189672Y-74830000D02*
G01*
X162828925Y-74830000D01*
X162828925Y-74505645D01*
X162521789Y-74505645D01*
X162441565Y-74487185D01*
X162376435Y-74459535D01*
X162323831Y-74423457D01*
X162276508Y-74378189D01*
X162247880Y-74341456D01*
X162233033Y-74311472D01*
X162219358Y-74261807D01*
X162210990Y-74207730D01*
X162212064Y-74179520D01*
X162516355Y-74179520D01*
X162520540Y-74218296D01*
X162529046Y-74240870D01*
X162540291Y-74252854D01*
X162562890Y-74263963D01*
X162582056Y-74267264D01*
X162828925Y-74267264D01*
X162828925Y-74087501D01*
X162582728Y-74087501D01*
X162566712Y-74091231D01*
X162543405Y-74105331D01*
X162531134Y-74119306D01*
X162521730Y-74142683D01*
X162516355Y-74179520D01*
X162212064Y-74179520D01*
X162213325Y-74146384D01*
X162235659Y-74042072D01*
X162263080Y-73985123D01*
X162300025Y-73938055D01*
X162347156Y-73899617D01*
X162401549Y-73870977D01*
X162466849Y-73849956D01*
X162545115Y-73837397D01*
X163189672Y-73837397D01*
X163189672Y-74830000D01*
G37*
G36*
X162163852Y-74830000D02*
G01*
X161803105Y-74830000D01*
X161803105Y-74505645D01*
X161495969Y-74505645D01*
X161415745Y-74487185D01*
X161350615Y-74459535D01*
X161298011Y-74423457D01*
X161250688Y-74378189D01*
X161222060Y-74341456D01*
X161207213Y-74311472D01*
X161193538Y-74261807D01*
X161185170Y-74207730D01*
X161186244Y-74179520D01*
X161490535Y-74179520D01*
X161494720Y-74218296D01*
X161503226Y-74240870D01*
X161514471Y-74252854D01*
X161537070Y-74263963D01*
X161556236Y-74267264D01*
X161803105Y-74267264D01*
X161803105Y-74087501D01*
X161556908Y-74087501D01*
X161540892Y-74091231D01*
X161517585Y-74105331D01*
X161505314Y-74119306D01*
X161495910Y-74142683D01*
X161490535Y-74179520D01*
X161186244Y-74179520D01*
X161187505Y-74146384D01*
X161209839Y-74042072D01*
X161237260Y-73985123D01*
X161274205Y-73938055D01*
X161321336Y-73899617D01*
X161375729Y-73870977D01*
X161441029Y-73849956D01*
X161519295Y-73837397D01*
X162163852Y-73837397D01*
X162163852Y-74830000D01*
G37*
G36*
X160694978Y-73833524D02*
G01*
X160774380Y-73844831D01*
X160845551Y-73862859D01*
X160913732Y-73889190D01*
X160972858Y-73921857D01*
X161023970Y-73960739D01*
X161068382Y-74006826D01*
X161105135Y-74059573D01*
X161134490Y-74119741D01*
X161154909Y-74183740D01*
X161167734Y-74256160D01*
X161172226Y-74338278D01*
X161167716Y-74420649D01*
X161154815Y-74493602D01*
X161134231Y-74558360D01*
X161106341Y-74615982D01*
X161069790Y-74668988D01*
X161025750Y-74714983D01*
X160973625Y-74754475D01*
X160912473Y-74787623D01*
X160825284Y-74818847D01*
X160724040Y-74838632D01*
X160606315Y-74845631D01*
X160488575Y-74838683D01*
X160387109Y-74819028D01*
X160299546Y-74787990D01*
X160238088Y-74754991D01*
X160185375Y-74715439D01*
X160140509Y-74669155D01*
X160102930Y-74615615D01*
X160074017Y-74557367D01*
X160052779Y-74492421D01*
X160039526Y-74419778D01*
X160035113Y-74341880D01*
X160388817Y-74341880D01*
X160395185Y-74406107D01*
X160404754Y-74455758D01*
X160416130Y-74485080D01*
X160435521Y-74512832D01*
X160464288Y-74539473D01*
X160498144Y-74558446D01*
X160544854Y-74571186D01*
X160608330Y-74575987D01*
X160670922Y-74570663D01*
X160717273Y-74556422D01*
X160751194Y-74534882D01*
X160775331Y-74506195D01*
X160798429Y-74458047D01*
X160812685Y-74403710D01*
X160817646Y-74341880D01*
X160812442Y-74273662D01*
X160798304Y-74220807D01*
X160776726Y-74180122D01*
X160748129Y-74149201D01*
X160711816Y-74126647D01*
X160666063Y-74112255D01*
X160608330Y-74107041D01*
X160541130Y-74112536D01*
X160492497Y-74127068D01*
X160457910Y-74148731D01*
X160434185Y-74177199D01*
X160411243Y-74225455D01*
X160395980Y-74279968D01*
X160388817Y-74341880D01*
X160035113Y-74341880D01*
X160034909Y-74338278D01*
X160039529Y-74256800D01*
X160052787Y-74184232D01*
X160074025Y-74119403D01*
X160102930Y-74061306D01*
X160140470Y-74007909D01*
X160185367Y-73961543D01*
X160238193Y-73921714D01*
X160299851Y-73888260D01*
X160387707Y-73856618D01*
X160489090Y-73836631D01*
X160606315Y-73829581D01*
X160694978Y-73833524D01*
G37*
G36*
X159992044Y-74830000D02*
G01*
X159631297Y-74830000D01*
X159631297Y-74506866D01*
X159321048Y-74830000D01*
X158928611Y-74830000D01*
X158928611Y-74533000D01*
X159224877Y-74533000D01*
X159296257Y-74441531D01*
X159222606Y-74419647D01*
X159165507Y-74394345D01*
X159122051Y-74366304D01*
X159084617Y-74331138D01*
X159055934Y-74291294D01*
X159035345Y-74246137D01*
X159025171Y-74197531D01*
X159025088Y-74178604D01*
X159318728Y-74178604D01*
X159322904Y-74216946D01*
X159331402Y-74239306D01*
X159342663Y-74251205D01*
X159365252Y-74262170D01*
X159384429Y-74265432D01*
X159631297Y-74265432D01*
X159631297Y-74087501D01*
X159385101Y-74087501D01*
X159369078Y-74091209D01*
X159345778Y-74105209D01*
X159333491Y-74119064D01*
X159324093Y-74142197D01*
X159318728Y-74178604D01*
X159025088Y-74178604D01*
X159024880Y-74131192D01*
X159038032Y-74041828D01*
X159066746Y-73986449D01*
X159104180Y-73939802D01*
X159150933Y-73900900D01*
X159204529Y-73871588D01*
X159269317Y-73850130D01*
X159347487Y-73837397D01*
X159992044Y-73837397D01*
X159992044Y-74830000D01*
G37*
G36*
X158029492Y-73841304D02*
G01*
X158029492Y-74138304D01*
X158342611Y-74138304D01*
X158342611Y-74830000D01*
X158667759Y-74830000D01*
X158667759Y-74138304D01*
X158980879Y-74138304D01*
X158980879Y-73841304D01*
X158029492Y-73841304D01*
G37*
D11*
%TO.C,G\u002A\u002A\u002A*%
G36*
X156082230Y-94554516D02*
G01*
X156132491Y-94598849D01*
X156183956Y-94712044D01*
X156170234Y-94833612D01*
X156090662Y-94933741D01*
X155979058Y-94984217D01*
X155861234Y-94964416D01*
X155750809Y-94861404D01*
X155664928Y-94745950D01*
X155751046Y-94630495D01*
X155851633Y-94529775D01*
X155959085Y-94503460D01*
X156082230Y-94554516D01*
G37*
G36*
X148567180Y-93546907D02*
G01*
X148585856Y-93560529D01*
X148657757Y-93665408D01*
X148663534Y-93792504D01*
X148600601Y-93913471D01*
X148501441Y-93980311D01*
X148388872Y-93987272D01*
X148286791Y-93941930D01*
X148213554Y-93858166D01*
X148187513Y-93749864D01*
X148227023Y-93630905D01*
X148314520Y-93539271D01*
X148436590Y-93502619D01*
X148567180Y-93546907D01*
G37*
G36*
X151060842Y-93058487D02*
G01*
X151151775Y-93149105D01*
X151179848Y-93258135D01*
X151128624Y-93383551D01*
X151078079Y-93439595D01*
X150963915Y-93487601D01*
X150843427Y-93468291D01*
X150744605Y-93381793D01*
X150712786Y-93319296D01*
X150698873Y-93194957D01*
X150742285Y-93090795D01*
X150827459Y-93022722D01*
X150938833Y-93006649D01*
X151060842Y-93058487D01*
G37*
G36*
X157589048Y-78514130D02*
G01*
X157664573Y-78602793D01*
X157685400Y-78722590D01*
X157637215Y-78855512D01*
X157569639Y-78926381D01*
X157444629Y-78960165D01*
X157377835Y-78951149D01*
X157275875Y-78889508D01*
X157217336Y-78789395D01*
X157207009Y-78674424D01*
X157249683Y-78568209D01*
X157350148Y-78494363D01*
X157473135Y-78474604D01*
X157589048Y-78514130D01*
G37*
G36*
X160563147Y-83007934D02*
G01*
X160655351Y-83086681D01*
X160687852Y-83221487D01*
X160676899Y-83298574D01*
X160635480Y-83389292D01*
X160560397Y-83436970D01*
X160444928Y-83452834D01*
X160332183Y-83430317D01*
X160258998Y-83371189D01*
X160218397Y-83237590D01*
X160242528Y-83112178D01*
X160328030Y-83023932D01*
X160465297Y-82990578D01*
X160563147Y-83007934D01*
G37*
G36*
X160559121Y-78002958D02*
G01*
X160658598Y-78097021D01*
X160676322Y-78131336D01*
X160692101Y-78247727D01*
X160659228Y-78358431D01*
X160585606Y-78427654D01*
X160471149Y-78453990D01*
X160340083Y-78427896D01*
X160249409Y-78340714D01*
X160215538Y-78202431D01*
X160248237Y-78076980D01*
X160331417Y-77998296D01*
X160442553Y-77971836D01*
X160559121Y-78002958D01*
G37*
G36*
X165587123Y-85543446D02*
G01*
X165678056Y-85634064D01*
X165706129Y-85743094D01*
X165654905Y-85868510D01*
X165604360Y-85924553D01*
X165490196Y-85972560D01*
X165369708Y-85953250D01*
X165270886Y-85866752D01*
X165239067Y-85804255D01*
X165225154Y-85679915D01*
X165268566Y-85575754D01*
X165353740Y-85507681D01*
X165465114Y-85491608D01*
X165587123Y-85543446D01*
G37*
G36*
X148037740Y-96035758D02*
G01*
X148122762Y-96119490D01*
X148162578Y-96231978D01*
X148148783Y-96348391D01*
X148072973Y-96443900D01*
X148000359Y-96487007D01*
X147935373Y-96509256D01*
X147882838Y-96492921D01*
X147797772Y-96443900D01*
X147726153Y-96358653D01*
X147704397Y-96242566D01*
X147735155Y-96127920D01*
X147811016Y-96040341D01*
X147924570Y-96005454D01*
X148037740Y-96035758D01*
G37*
G36*
X149105644Y-83054285D02*
G01*
X149160492Y-83148110D01*
X149165866Y-83275645D01*
X149107911Y-83386422D01*
X149074658Y-83413730D01*
X148952562Y-83453259D01*
X148825650Y-83428321D01*
X148726028Y-83342600D01*
X148689893Y-83281479D01*
X148677707Y-83209927D01*
X148715874Y-83122187D01*
X148760066Y-83066501D01*
X148872146Y-83005293D01*
X148998192Y-82999331D01*
X149105644Y-83054285D01*
G37*
G36*
X153037974Y-77994412D02*
G01*
X153143557Y-78097021D01*
X153161281Y-78131336D01*
X153177060Y-78247727D01*
X153144187Y-78358431D01*
X153070565Y-78427654D01*
X153051661Y-78434567D01*
X152918858Y-78446872D01*
X152807577Y-78402797D01*
X152729104Y-78319858D01*
X152694726Y-78215572D01*
X152715729Y-78107455D01*
X152803400Y-78013023D01*
X152913778Y-77970252D01*
X153037974Y-77994412D01*
G37*
G36*
X153037974Y-85509453D02*
G01*
X153143557Y-85612062D01*
X153161281Y-85646377D01*
X153177060Y-85762769D01*
X153144187Y-85873473D01*
X153070565Y-85942695D01*
X153051661Y-85949608D01*
X152918858Y-85961913D01*
X152807577Y-85917838D01*
X152729104Y-85834900D01*
X152694726Y-85730613D01*
X152715729Y-85622496D01*
X152803400Y-85528064D01*
X152913778Y-85485293D01*
X153037974Y-85509453D01*
G37*
G36*
X153037974Y-93024495D02*
G01*
X153143557Y-93127104D01*
X153161281Y-93161418D01*
X153177060Y-93277810D01*
X153144187Y-93388514D01*
X153070565Y-93457737D01*
X153051661Y-93464649D01*
X152918858Y-93476955D01*
X152807577Y-93432880D01*
X152729104Y-93349941D01*
X152694726Y-93245655D01*
X152715729Y-93137537D01*
X152803400Y-93043106D01*
X152913778Y-93000335D01*
X153037974Y-93024495D01*
G37*
G36*
X153048105Y-83511736D02*
G01*
X153140309Y-83590482D01*
X153172811Y-83725289D01*
X153161857Y-83802375D01*
X153120439Y-83893093D01*
X153094424Y-83916526D01*
X152988711Y-83952017D01*
X152866095Y-83943142D01*
X152766471Y-83890224D01*
X152727808Y-83832660D01*
X152700497Y-83725289D01*
X152725875Y-83619435D01*
X152814772Y-83528446D01*
X152950256Y-83494380D01*
X153048105Y-83511736D01*
G37*
G36*
X153554928Y-85016873D02*
G01*
X153631311Y-85101061D01*
X153671801Y-85210522D01*
X153665213Y-85321903D01*
X153600365Y-85411849D01*
X153577182Y-85427317D01*
X153446340Y-85467538D01*
X153326226Y-85439002D01*
X153238368Y-85352255D01*
X153204298Y-85217844D01*
X153212673Y-85141721D01*
X153271154Y-85049625D01*
X153397868Y-84988959D01*
X153453834Y-84981314D01*
X153554928Y-85016873D01*
G37*
G36*
X154042110Y-81005108D02*
G01*
X154126371Y-81088895D01*
X154165763Y-81201752D01*
X154151954Y-81318464D01*
X154076609Y-81413817D01*
X154003995Y-81456924D01*
X153939009Y-81479173D01*
X153886474Y-81462838D01*
X153801408Y-81413817D01*
X153732492Y-81329744D01*
X153713174Y-81213953D01*
X153745122Y-81098851D01*
X153820561Y-81010602D01*
X153931714Y-80975371D01*
X154042110Y-81005108D01*
G37*
G36*
X154042110Y-87512546D02*
G01*
X154126371Y-87596333D01*
X154165763Y-87709190D01*
X154151954Y-87825902D01*
X154076609Y-87921255D01*
X154003995Y-87964362D01*
X153939009Y-87986611D01*
X153886474Y-87970276D01*
X153801408Y-87921255D01*
X153732492Y-87837182D01*
X153713174Y-87721391D01*
X153745122Y-87606289D01*
X153820561Y-87518040D01*
X153931714Y-87482809D01*
X154042110Y-87512546D01*
G37*
G36*
X154060122Y-86027349D02*
G01*
X154078078Y-86040220D01*
X154156057Y-86147157D01*
X154164461Y-86275322D01*
X154100436Y-86398429D01*
X154017715Y-86457249D01*
X153905412Y-86468445D01*
X153803175Y-86421225D01*
X153732641Y-86326919D01*
X153715449Y-86196855D01*
X153741775Y-86114216D01*
X153839708Y-86017210D01*
X153901259Y-85986707D01*
X153972906Y-85981122D01*
X154060122Y-86027349D01*
G37*
G36*
X154060122Y-93542390D02*
G01*
X154078078Y-93555261D01*
X154156057Y-93662199D01*
X154164461Y-93790364D01*
X154100436Y-93913471D01*
X154017715Y-93972290D01*
X153905412Y-93983486D01*
X153803175Y-93936266D01*
X153732641Y-93841960D01*
X153715449Y-93711896D01*
X153741775Y-93629257D01*
X153839708Y-93532251D01*
X153901259Y-93501749D01*
X153972906Y-93496163D01*
X154060122Y-93542390D01*
G37*
G36*
X154563923Y-94046192D02*
G01*
X154581880Y-94059063D01*
X154659858Y-94166000D01*
X154668263Y-94294165D01*
X154604238Y-94417272D01*
X154521516Y-94476092D01*
X154409213Y-94487288D01*
X154306977Y-94440068D01*
X154236443Y-94345762D01*
X154219250Y-94215698D01*
X154245577Y-94133059D01*
X154343510Y-94036053D01*
X154405061Y-94005550D01*
X154476708Y-93999965D01*
X154563923Y-94046192D01*
G37*
G36*
X156570500Y-91535447D02*
G01*
X156654427Y-91615359D01*
X156688283Y-91740826D01*
X156674197Y-91805964D01*
X156619444Y-91898264D01*
X156558898Y-91947041D01*
X156445638Y-91975687D01*
X156334902Y-91948753D01*
X156246986Y-91878515D01*
X156202190Y-91777245D01*
X156220812Y-91657218D01*
X156247829Y-91610092D01*
X156344248Y-91528709D01*
X156459456Y-91505195D01*
X156570500Y-91535447D01*
G37*
G36*
X161027335Y-91513680D02*
G01*
X161118053Y-91555099D01*
X161163956Y-91628520D01*
X161180665Y-91743302D01*
X161161562Y-91856194D01*
X161107687Y-91929695D01*
X161106059Y-91930637D01*
X160966318Y-91973517D01*
X160842196Y-91946695D01*
X160753326Y-91860505D01*
X160719339Y-91725282D01*
X160736695Y-91627432D01*
X160815442Y-91535228D01*
X160950249Y-91502727D01*
X161027335Y-91513680D01*
G37*
G36*
X161071361Y-94046192D02*
G01*
X161089318Y-94059063D01*
X161167296Y-94166000D01*
X161175701Y-94294165D01*
X161111676Y-94417272D01*
X161028954Y-94476092D01*
X160916651Y-94487288D01*
X160814415Y-94440068D01*
X160743881Y-94345762D01*
X160726688Y-94215698D01*
X160753015Y-94133059D01*
X160850948Y-94036053D01*
X160912499Y-94005550D01*
X160984146Y-93999965D01*
X161071361Y-94046192D01*
G37*
G36*
X162060953Y-95027587D02*
G01*
X162145214Y-95111375D01*
X162184606Y-95224232D01*
X162170797Y-95340944D01*
X162095452Y-95436297D01*
X162022838Y-95479404D01*
X161957852Y-95501652D01*
X161905317Y-95485318D01*
X161820251Y-95436297D01*
X161751335Y-95352224D01*
X161732017Y-95236432D01*
X161763965Y-95121330D01*
X161839404Y-95033081D01*
X161950557Y-94997851D01*
X162060953Y-95027587D01*
G37*
G36*
X163080765Y-90034778D02*
G01*
X163167261Y-90117058D01*
X163194723Y-90238622D01*
X163152904Y-90382429D01*
X163151626Y-90384760D01*
X163072712Y-90450714D01*
X162959091Y-90467600D01*
X162842117Y-90437104D01*
X162753143Y-90360914D01*
X162716879Y-90272287D01*
X162728766Y-90151700D01*
X162803363Y-90056522D01*
X162928994Y-90010046D01*
X162945481Y-90008823D01*
X163080765Y-90034778D01*
G37*
G36*
X163520580Y-90520289D02*
G01*
X163625563Y-90580721D01*
X163687512Y-90679065D01*
X163694399Y-90793315D01*
X163634192Y-90901464D01*
X163600939Y-90928771D01*
X163478843Y-90968300D01*
X163351931Y-90943362D01*
X163252309Y-90857641D01*
X163216163Y-90796499D01*
X163203990Y-90724961D01*
X163242170Y-90637228D01*
X163299347Y-90566844D01*
X163421815Y-90512968D01*
X163520580Y-90520289D01*
G37*
G36*
X164123713Y-91075756D02*
G01*
X164181284Y-91151564D01*
X164197361Y-91273816D01*
X164134485Y-91394462D01*
X164100530Y-91425356D01*
X163980854Y-91470583D01*
X163856094Y-91448410D01*
X163756111Y-91361443D01*
X163719964Y-91300301D01*
X163707792Y-91228762D01*
X163745971Y-91141029D01*
X163770794Y-91104677D01*
X163877807Y-91029667D01*
X164005490Y-91018291D01*
X164123713Y-91075756D01*
G37*
G36*
X164490665Y-84477336D02*
G01*
X164573726Y-84531280D01*
X164579110Y-84535347D01*
X164675985Y-84647423D01*
X164697836Y-84768592D01*
X164641661Y-84883296D01*
X164606190Y-84915461D01*
X164486237Y-84961927D01*
X164362116Y-84943134D01*
X164264429Y-84860898D01*
X164220866Y-84745464D01*
X164248860Y-84622449D01*
X164356497Y-84515453D01*
X164430075Y-84474451D01*
X164490665Y-84477336D01*
G37*
G36*
X165513828Y-88502991D02*
G01*
X165631406Y-88574380D01*
X165686138Y-88651492D01*
X165706882Y-88775645D01*
X165658890Y-88888357D01*
X165547439Y-88965079D01*
X165492320Y-88981745D01*
X165390414Y-88979078D01*
X165295538Y-88910247D01*
X165239229Y-88837199D01*
X165217324Y-88717173D01*
X165276927Y-88583721D01*
X165288104Y-88569052D01*
X165390980Y-88501437D01*
X165513828Y-88502991D01*
G37*
G36*
X148593306Y-89567498D02*
G01*
X148654523Y-89661816D01*
X148661270Y-89784521D01*
X148608359Y-89897567D01*
X148502149Y-89972682D01*
X148490263Y-89976867D01*
X148412337Y-89994129D01*
X148349556Y-89971040D01*
X148266725Y-89896160D01*
X148258018Y-89887304D01*
X148189919Y-89789519D01*
X148188905Y-89696739D01*
X148243978Y-89590971D01*
X148348360Y-89515200D01*
X148472331Y-89504970D01*
X148593306Y-89567498D01*
G37*
G36*
X151558694Y-91050973D02*
G01*
X151647088Y-91141029D01*
X151677590Y-91202580D01*
X151683176Y-91274227D01*
X151636949Y-91361443D01*
X151636470Y-91362171D01*
X151541539Y-91444464D01*
X151424539Y-91466721D01*
X151310266Y-91435647D01*
X151223518Y-91357948D01*
X151189092Y-91240330D01*
X151190442Y-91215225D01*
X151236128Y-91106022D01*
X151328925Y-91038735D01*
X151444543Y-91018630D01*
X151558694Y-91050973D01*
G37*
G36*
X152061186Y-83532840D02*
G01*
X152150904Y-83625988D01*
X152181389Y-83687517D01*
X152186977Y-83759179D01*
X152140750Y-83846401D01*
X152140428Y-83846893D01*
X152043673Y-83933017D01*
X151926409Y-83957392D01*
X151812767Y-83926544D01*
X151726884Y-83847001D01*
X151692893Y-83725289D01*
X151694255Y-83699169D01*
X151739598Y-83587068D01*
X151831734Y-83518540D01*
X151946863Y-83498744D01*
X152061186Y-83532840D01*
G37*
G36*
X152493614Y-78980546D02*
G01*
X152597446Y-79063215D01*
X152600363Y-79066146D01*
X152683278Y-79177907D01*
X152688345Y-79277181D01*
X152616530Y-79380000D01*
X152538659Y-79435231D01*
X152441406Y-79463966D01*
X152325830Y-79433170D01*
X152240176Y-79349485D01*
X152200012Y-79237313D01*
X152213801Y-79121157D01*
X152290003Y-79025521D01*
X152293249Y-79023258D01*
X152401558Y-78968372D01*
X152493614Y-78980546D01*
G37*
G36*
X158035818Y-81997381D02*
G01*
X158134975Y-82076283D01*
X158190561Y-82187014D01*
X158180749Y-82296782D01*
X158089711Y-82399762D01*
X158034313Y-82443481D01*
X157977695Y-82478147D01*
X157927252Y-82474203D01*
X157844441Y-82437595D01*
X157832438Y-82431781D01*
X157736074Y-82342239D01*
X157708760Y-82220478D01*
X157755845Y-82087628D01*
X157801700Y-82035795D01*
X157914919Y-81984178D01*
X158035818Y-81997381D01*
G37*
G36*
X159088172Y-91551077D02*
G01*
X159172248Y-91657218D01*
X159182199Y-91680589D01*
X159195285Y-91771320D01*
X159149947Y-91868362D01*
X159149033Y-91869747D01*
X159055347Y-91949270D01*
X158938948Y-91970080D01*
X158824965Y-91938967D01*
X158738531Y-91862718D01*
X158704776Y-91748121D01*
X158710126Y-91694494D01*
X158765291Y-91582311D01*
X158861889Y-91518057D01*
X158977118Y-91506168D01*
X159088172Y-91551077D01*
G37*
G36*
X149502324Y-87000074D02*
G01*
X149593720Y-87062975D01*
X149649192Y-87139513D01*
X149677687Y-87230909D01*
X149656621Y-87307447D01*
X149593720Y-87398843D01*
X149517181Y-87454315D01*
X149425786Y-87482809D01*
X149349247Y-87461744D01*
X149257852Y-87398843D01*
X149202379Y-87322304D01*
X149173885Y-87230909D01*
X149194951Y-87154370D01*
X149257852Y-87062975D01*
X149334390Y-87007502D01*
X149425786Y-86979008D01*
X149502324Y-87000074D01*
G37*
G36*
X151517531Y-95018917D02*
G01*
X151608926Y-95081818D01*
X151664399Y-95158356D01*
X151692893Y-95249752D01*
X151671827Y-95326290D01*
X151608926Y-95417685D01*
X151532388Y-95473158D01*
X151440992Y-95501652D01*
X151364454Y-95480587D01*
X151273059Y-95417685D01*
X151217586Y-95341147D01*
X151189092Y-95249752D01*
X151210157Y-95173213D01*
X151273059Y-95081818D01*
X151349597Y-95026345D01*
X151440992Y-94997851D01*
X151517531Y-95018917D01*
G37*
G36*
X157536753Y-82506171D02*
G01*
X157631174Y-82580085D01*
X157686759Y-82690816D01*
X157676947Y-82800584D01*
X157585909Y-82903564D01*
X157579114Y-82908854D01*
X157493571Y-82966748D01*
X157437059Y-82990578D01*
X157432204Y-82990175D01*
X157368076Y-82953763D01*
X157288724Y-82878742D01*
X157221243Y-82794127D01*
X157192728Y-82728935D01*
X157223522Y-82617184D01*
X157307806Y-82533248D01*
X157420590Y-82493401D01*
X157536753Y-82506171D01*
G37*
G36*
X164998472Y-81985829D02*
G01*
X165108464Y-82035897D01*
X165177342Y-82129957D01*
X165198981Y-82243912D01*
X165167255Y-82353668D01*
X165076037Y-82435129D01*
X165008703Y-82465321D01*
X164954836Y-82483935D01*
X164952906Y-82484080D01*
X164888407Y-82456381D01*
X164807052Y-82387994D01*
X164737340Y-82306923D01*
X164707769Y-82241170D01*
X164707770Y-82240511D01*
X164744907Y-82115205D01*
X164838062Y-82020475D01*
X164961083Y-81982975D01*
X164998472Y-81985829D01*
G37*
G36*
X150942595Y-95501695D02*
G01*
X151055598Y-95531160D01*
X151132054Y-95619875D01*
X151175406Y-95774677D01*
X151189092Y-96002407D01*
X151188710Y-96093996D01*
X151183361Y-96230275D01*
X151166982Y-96315704D01*
X151133673Y-96372524D01*
X151077536Y-96422977D01*
X150972859Y-96478555D01*
X150846838Y-96475161D01*
X150737769Y-96392033D01*
X150712121Y-96325280D01*
X150692400Y-96186136D01*
X150685290Y-95997430D01*
X150699299Y-95771327D01*
X150743743Y-95617161D01*
X150821937Y-95529443D01*
X150937191Y-95501652D01*
X150942595Y-95501695D01*
G37*
G36*
X152454094Y-82486779D02*
G01*
X152567622Y-82513620D01*
X152643987Y-82598075D01*
X152687005Y-82747584D01*
X152700497Y-82969586D01*
X152699132Y-83052651D01*
X152679279Y-83242924D01*
X152635141Y-83359088D01*
X152610336Y-83387708D01*
X152500420Y-83444388D01*
X152372495Y-83444843D01*
X152262669Y-83386422D01*
X152250863Y-83372695D01*
X152219021Y-83298452D01*
X152201839Y-83173066D01*
X152196695Y-82980389D01*
X152198671Y-82868689D01*
X152218189Y-82685114D01*
X152263236Y-82567599D01*
X152339513Y-82505150D01*
X152452722Y-82486776D01*
X152454094Y-82486779D01*
G37*
G36*
X159467384Y-83494444D02*
G01*
X159580449Y-83522543D01*
X159656124Y-83607107D01*
X159698518Y-83756025D01*
X159711736Y-83977190D01*
X159710372Y-84060254D01*
X159690519Y-84250528D01*
X159646380Y-84366691D01*
X159634848Y-84381634D01*
X159530547Y-84448246D01*
X159403550Y-84451885D01*
X159284711Y-84390517D01*
X159250146Y-84348338D01*
X159224283Y-84274477D01*
X159211418Y-84156141D01*
X159207935Y-83973682D01*
X159211038Y-83826999D01*
X159230828Y-83662790D01*
X159274618Y-83560922D01*
X159348972Y-83508939D01*
X159460454Y-83494380D01*
X159467384Y-83494444D01*
G37*
G36*
X161750114Y-87483587D02*
G01*
X161955512Y-87501443D01*
X162091090Y-87546268D01*
X162165842Y-87622534D01*
X162188761Y-87734710D01*
X162174663Y-87817751D01*
X162095452Y-87921255D01*
X162062921Y-87938824D01*
X161932589Y-87972557D01*
X161762323Y-87987667D01*
X161582576Y-87984154D01*
X161423801Y-87962016D01*
X161316450Y-87921255D01*
X161301507Y-87909723D01*
X161234895Y-87805422D01*
X161231256Y-87678425D01*
X161292623Y-87559586D01*
X161322504Y-87532863D01*
X161392949Y-87502356D01*
X161505975Y-87487021D01*
X161682125Y-87482809D01*
X161750114Y-87483587D01*
G37*
G36*
X148089505Y-88559895D02*
G01*
X148090991Y-88561252D01*
X148128916Y-88611223D01*
X148151890Y-88688076D01*
X148163238Y-88810788D01*
X148166282Y-88998341D01*
X148165736Y-89110184D01*
X148160424Y-89251371D01*
X148145981Y-89339201D01*
X148118225Y-89393140D01*
X148072973Y-89432660D01*
X147981979Y-89484375D01*
X147891259Y-89486654D01*
X147787671Y-89421876D01*
X147727696Y-89339347D01*
X147681835Y-89190746D01*
X147662867Y-89011455D01*
X147671268Y-88828004D01*
X147707516Y-88666921D01*
X147772087Y-88554738D01*
X147845792Y-88507019D01*
X147970169Y-88498119D01*
X148089505Y-88559895D01*
G37*
G36*
X148100308Y-82552750D02*
G01*
X148106470Y-82560168D01*
X148137825Y-82647020D01*
X148158525Y-82787455D01*
X148167910Y-82955900D01*
X148165318Y-83126781D01*
X148150086Y-83274526D01*
X148121552Y-83373560D01*
X148104776Y-83399794D01*
X148039179Y-83441167D01*
X147923096Y-83444271D01*
X147856205Y-83433906D01*
X147759318Y-83385539D01*
X147699972Y-83290201D01*
X147672784Y-83136481D01*
X147672369Y-82912973D01*
X147677493Y-82817625D01*
X147693430Y-82679915D01*
X147721223Y-82595940D01*
X147765992Y-82545618D01*
X147854465Y-82501545D01*
X147988014Y-82494327D01*
X148100308Y-82552750D01*
G37*
G36*
X159715868Y-78456392D02*
G01*
X159875847Y-78460305D01*
X159979343Y-78475120D01*
X160050908Y-78506978D01*
X160115095Y-78562021D01*
X160188734Y-78678306D01*
X160184115Y-78798722D01*
X160098316Y-78907685D01*
X160092149Y-78912055D01*
X159996968Y-78943322D01*
X159850074Y-78959907D01*
X159678433Y-78962371D01*
X159509014Y-78951280D01*
X159368785Y-78927196D01*
X159284711Y-78890683D01*
X159219667Y-78786846D01*
X159220440Y-78659674D01*
X159291901Y-78540330D01*
X159332099Y-78506981D01*
X159406044Y-78475719D01*
X159518734Y-78460417D01*
X159692653Y-78456363D01*
X159715868Y-78456392D01*
G37*
G36*
X148056485Y-92534787D02*
G01*
X148101279Y-92567140D01*
X148137284Y-92611822D01*
X148156756Y-92680505D01*
X148164741Y-92793172D01*
X148166282Y-92969810D01*
X148164989Y-93089413D01*
X148155192Y-93246077D01*
X148133398Y-93346906D01*
X148096800Y-93409669D01*
X148005149Y-93470003D01*
X147883054Y-93480464D01*
X147776825Y-93426859D01*
X147761018Y-93404012D01*
X147726375Y-93300586D01*
X147699921Y-93151691D01*
X147684593Y-92984603D01*
X147683329Y-92826595D01*
X147699068Y-92704941D01*
X147748065Y-92608900D01*
X147839061Y-92523323D01*
X147897016Y-92494477D01*
X147968859Y-92488596D01*
X148056485Y-92534787D01*
G37*
G36*
X151934470Y-95501674D02*
G01*
X152055224Y-95529405D01*
X152136499Y-95614554D01*
X152182316Y-95764438D01*
X152196695Y-95986371D01*
X152196682Y-96001624D01*
X152192982Y-96164849D01*
X152178565Y-96270431D01*
X152147448Y-96342755D01*
X152093645Y-96406205D01*
X152090714Y-96409122D01*
X151978953Y-96492037D01*
X151879679Y-96497104D01*
X151776860Y-96425289D01*
X151735505Y-96371883D01*
X151709040Y-96295648D01*
X151696232Y-96178207D01*
X151692893Y-95998264D01*
X151693998Y-95913491D01*
X151711240Y-95718113D01*
X151753143Y-95591103D01*
X151824552Y-95522326D01*
X151930309Y-95501652D01*
X151934470Y-95501674D01*
G37*
G36*
X156108348Y-95571135D02*
G01*
X156119096Y-95582732D01*
X156162555Y-95683563D01*
X156187142Y-95834981D01*
X156193076Y-96010924D01*
X156180577Y-96185331D01*
X156149865Y-96332140D01*
X156101158Y-96425289D01*
X156092421Y-96433846D01*
X155991759Y-96499193D01*
X155893147Y-96488937D01*
X155780038Y-96401870D01*
X155748113Y-96368523D01*
X155707513Y-96310514D01*
X155687144Y-96238041D01*
X155682223Y-96128006D01*
X155687965Y-95957308D01*
X155696632Y-95813373D01*
X155713574Y-95685765D01*
X155741233Y-95608027D01*
X155784291Y-95560892D01*
X155848079Y-95524477D01*
X155983566Y-95507891D01*
X156108348Y-95571135D01*
G37*
G36*
X148565430Y-87542124D02*
G01*
X148608716Y-87574027D01*
X148642448Y-87618890D01*
X148660860Y-87689420D01*
X148668542Y-87805047D01*
X148670083Y-87985198D01*
X148669455Y-88106048D01*
X148663984Y-88245664D01*
X148649440Y-88332520D01*
X148621733Y-88385892D01*
X148576775Y-88425057D01*
X148573530Y-88427319D01*
X148465220Y-88482205D01*
X148373164Y-88470032D01*
X148269332Y-88387362D01*
X148231500Y-88345668D01*
X148190193Y-88271687D01*
X148170991Y-88169547D01*
X148166282Y-88011487D01*
X148171559Y-87877321D01*
X148189390Y-87729716D01*
X148215463Y-87630720D01*
X148221277Y-87618718D01*
X148310819Y-87522354D01*
X148432580Y-87495040D01*
X148565430Y-87542124D01*
G37*
G36*
X155390327Y-80474699D02*
G01*
X155554221Y-80512934D01*
X155650105Y-80596467D01*
X155681323Y-80727597D01*
X155679271Y-80758787D01*
X155625503Y-80873641D01*
X155507306Y-80948571D01*
X155336114Y-80975371D01*
X155177521Y-80975371D01*
X155177521Y-81161916D01*
X155174228Y-81245204D01*
X155147410Y-81346885D01*
X155084213Y-81413817D01*
X155011599Y-81456924D01*
X154946612Y-81479173D01*
X154894077Y-81462838D01*
X154809012Y-81413817D01*
X154768131Y-81379185D01*
X154734818Y-81319704D01*
X154719435Y-81223205D01*
X154715703Y-81066299D01*
X154727108Y-80892205D01*
X154785519Y-80700091D01*
X154898318Y-80569541D01*
X155070879Y-80495164D01*
X155308577Y-80471570D01*
X155390327Y-80474699D01*
G37*
G36*
X162935116Y-89002102D02*
G01*
X163085109Y-89043599D01*
X163169764Y-89124785D01*
X163196364Y-89250242D01*
X163194412Y-89280608D01*
X163141036Y-89395697D01*
X163023445Y-89471013D01*
X162853455Y-89498016D01*
X162697163Y-89498016D01*
X162684367Y-89696437D01*
X162669784Y-89817999D01*
X162634637Y-89897630D01*
X162566612Y-89947718D01*
X162527475Y-89966980D01*
X162442369Y-89995513D01*
X162376353Y-89975009D01*
X162291811Y-89898767D01*
X162285043Y-89891764D01*
X162208657Y-89753873D01*
X162187639Y-89581115D01*
X162218336Y-89396649D01*
X162297090Y-89223634D01*
X162420244Y-89085230D01*
X162503223Y-89034100D01*
X162620229Y-89002933D01*
X162789381Y-88994214D01*
X162935116Y-89002102D01*
G37*
G36*
X150058982Y-79118265D02*
G01*
X150181488Y-79255374D01*
X150181488Y-79866497D01*
X150181488Y-80477619D01*
X149552573Y-80464099D01*
X149388559Y-80460445D01*
X149192409Y-80454502D01*
X149055801Y-80445974D01*
X148963864Y-80432270D01*
X148901727Y-80410796D01*
X148854518Y-80378960D01*
X148807366Y-80334169D01*
X148763992Y-80288637D01*
X148729024Y-80237724D01*
X148707517Y-80172373D01*
X148696203Y-80075201D01*
X148691812Y-79928826D01*
X148691075Y-79715867D01*
X148691566Y-79527810D01*
X148695257Y-79373340D01*
X148705422Y-79270460D01*
X148725334Y-79201792D01*
X148758263Y-79149953D01*
X148807484Y-79097565D01*
X148854491Y-79052855D01*
X148905317Y-79018435D01*
X148971030Y-78997283D01*
X149068898Y-78986171D01*
X149216193Y-78981872D01*
X149430184Y-78981157D01*
X149936475Y-78981157D01*
X150058982Y-79118265D01*
G37*
G36*
X148072973Y-94055603D02*
G01*
X148079180Y-94060016D01*
X148119123Y-94096294D01*
X148144584Y-94146988D01*
X148158785Y-94229482D01*
X148164944Y-94361160D01*
X148166282Y-94559405D01*
X148166282Y-94997851D01*
X148341406Y-94997851D01*
X148347231Y-94997880D01*
X148491738Y-95017802D01*
X148593306Y-95067333D01*
X148620593Y-95097169D01*
X148666810Y-95214336D01*
X148651700Y-95338639D01*
X148576775Y-95436297D01*
X148491093Y-95474727D01*
X148330353Y-95498650D01*
X148150346Y-95488696D01*
X147984589Y-95444405D01*
X147901064Y-95403858D01*
X147814853Y-95335819D01*
X147756539Y-95240481D01*
X147721047Y-95103764D01*
X147703302Y-94911586D01*
X147698229Y-94649867D01*
X147698322Y-94516078D01*
X147700961Y-94340673D01*
X147708899Y-94223912D01*
X147724646Y-94149727D01*
X147750710Y-94102054D01*
X147789601Y-94064824D01*
X147874615Y-94008118D01*
X147965279Y-93998657D01*
X148072973Y-94055603D01*
G37*
G36*
X165089064Y-79118265D02*
G01*
X165113336Y-79145801D01*
X165160042Y-79207264D01*
X165188966Y-79272798D01*
X165204360Y-79362378D01*
X165210477Y-79495975D01*
X165211571Y-79693562D01*
X165211537Y-79719037D01*
X165205837Y-79956745D01*
X165187230Y-80127980D01*
X165151215Y-80248426D01*
X165093291Y-80333767D01*
X165008959Y-80399689D01*
X164947123Y-80428369D01*
X164859092Y-80448540D01*
X164730837Y-80461315D01*
X164547796Y-80468138D01*
X164295406Y-80470453D01*
X163694117Y-80471570D01*
X163707637Y-79842654D01*
X163711290Y-79678640D01*
X163717234Y-79482490D01*
X163725762Y-79345882D01*
X163739466Y-79253945D01*
X163760939Y-79191808D01*
X163792775Y-79144599D01*
X163837566Y-79097448D01*
X163884486Y-79052867D01*
X163935339Y-79018450D01*
X164001072Y-78997296D01*
X164098957Y-78986179D01*
X164246264Y-78981875D01*
X164460266Y-78981157D01*
X164966558Y-78981157D01*
X165089064Y-79118265D01*
G37*
G36*
X148100308Y-90067792D02*
G01*
X148110693Y-90080034D01*
X148130984Y-90123043D01*
X148145807Y-90194646D01*
X148155955Y-90305914D01*
X148162221Y-90467919D01*
X148165399Y-90691733D01*
X148166282Y-90988429D01*
X148166138Y-91123109D01*
X148164385Y-91387729D01*
X148160002Y-91584136D01*
X148152196Y-91723401D01*
X148140174Y-91816596D01*
X148123142Y-91874794D01*
X148100308Y-91909067D01*
X148028271Y-91952221D01*
X147916523Y-91975041D01*
X147848532Y-91971380D01*
X147790873Y-91952956D01*
X147748426Y-91909868D01*
X147718879Y-91832234D01*
X147699922Y-91710171D01*
X147689242Y-91533798D01*
X147684529Y-91293232D01*
X147683472Y-90978592D01*
X147683497Y-90892801D01*
X147684315Y-90623109D01*
X147687041Y-90422834D01*
X147692695Y-90280510D01*
X147702296Y-90184671D01*
X147716863Y-90123852D01*
X147737413Y-90086587D01*
X147764967Y-90061409D01*
X147854213Y-90016805D01*
X147987935Y-90009326D01*
X148100308Y-90067792D01*
G37*
G36*
X164330394Y-93997671D02*
G01*
X164966766Y-94011239D01*
X165089168Y-94148348D01*
X165120578Y-94184236D01*
X165164000Y-94243823D01*
X165190811Y-94309926D01*
X165205011Y-94401907D01*
X165210597Y-94539127D01*
X165211571Y-94740950D01*
X165210168Y-94929307D01*
X165203474Y-95078112D01*
X165188498Y-95178672D01*
X165162267Y-95249864D01*
X165121805Y-95310563D01*
X165120354Y-95312399D01*
X165031418Y-95403021D01*
X164943376Y-95462332D01*
X164894385Y-95473411D01*
X164769786Y-95484901D01*
X164599093Y-95490917D01*
X164404239Y-95490322D01*
X164319268Y-95488389D01*
X164144949Y-95482097D01*
X164028523Y-95470752D01*
X163951075Y-95450151D01*
X163893693Y-95416091D01*
X163837462Y-95364370D01*
X163806460Y-95332635D01*
X163770581Y-95287209D01*
X163745893Y-95231948D01*
X163729822Y-95152029D01*
X163719797Y-95032628D01*
X163713243Y-94858923D01*
X163707590Y-94616091D01*
X163694022Y-93984103D01*
X164330394Y-93997671D01*
G37*
G36*
X150990920Y-85985781D02*
G01*
X151109723Y-86059970D01*
X151142290Y-86096604D01*
X151175608Y-86163983D01*
X151186825Y-86261670D01*
X151181250Y-86416101D01*
X151175967Y-86486677D01*
X151154963Y-86624402D01*
X151114840Y-86721266D01*
X151044801Y-86808306D01*
X151025795Y-86827054D01*
X150913304Y-86911410D01*
X150805340Y-86959312D01*
X150803846Y-86959641D01*
X150726084Y-86986964D01*
X150692514Y-87041047D01*
X150685290Y-87150277D01*
X150671307Y-87270234D01*
X150601323Y-87398843D01*
X150524784Y-87454315D01*
X150433389Y-87482809D01*
X150383551Y-87477428D01*
X150274889Y-87413089D01*
X150205782Y-87282649D01*
X150181645Y-87094462D01*
X150184218Y-87022781D01*
X150233866Y-86802276D01*
X150345904Y-86636638D01*
X150519244Y-86527694D01*
X150551208Y-86514881D01*
X150640725Y-86467544D01*
X150677905Y-86406480D01*
X150685290Y-86300904D01*
X150704827Y-86168007D01*
X150772454Y-86048892D01*
X150873158Y-85985119D01*
X150990920Y-85985781D01*
G37*
G36*
X149865837Y-91009729D02*
G01*
X150115085Y-91011798D01*
X150299031Y-91016539D01*
X150429012Y-91024785D01*
X150516362Y-91037371D01*
X150572417Y-91055132D01*
X150608513Y-91078903D01*
X150659357Y-91139462D01*
X150679388Y-91249029D01*
X150619934Y-91377931D01*
X150615522Y-91384138D01*
X150579243Y-91424080D01*
X150528549Y-91449542D01*
X150446055Y-91463742D01*
X150314378Y-91469902D01*
X150116132Y-91471239D01*
X149677687Y-91471239D01*
X149677687Y-91646363D01*
X149677657Y-91652188D01*
X149657736Y-91796695D01*
X149608204Y-91898264D01*
X149578369Y-91925551D01*
X149461201Y-91971768D01*
X149336898Y-91956657D01*
X149239241Y-91881732D01*
X149234453Y-91874479D01*
X149191519Y-91763820D01*
X149173885Y-91632132D01*
X149173885Y-91475840D01*
X148975821Y-91463044D01*
X148853265Y-91448100D01*
X148771541Y-91411412D01*
X148715922Y-91339631D01*
X148685379Y-91278030D01*
X148679801Y-91206416D01*
X148726028Y-91119218D01*
X148797969Y-91009421D01*
X149664853Y-91009421D01*
X149865837Y-91009729D01*
G37*
G36*
X160456075Y-85549426D02*
G01*
X160589838Y-85672533D01*
X160625726Y-85730992D01*
X160680663Y-85907834D01*
X160673293Y-86088352D01*
X160609917Y-86252797D01*
X160496836Y-86381418D01*
X160340353Y-86454464D01*
X160215538Y-86481878D01*
X160215538Y-87383095D01*
X160215538Y-87390342D01*
X160215323Y-87685537D01*
X160213883Y-87908678D01*
X160210020Y-88071424D01*
X160202537Y-88185437D01*
X160190240Y-88262376D01*
X160171930Y-88313903D01*
X160146411Y-88351678D01*
X160112488Y-88387362D01*
X160109443Y-88390396D01*
X160006264Y-88471212D01*
X159914141Y-88481620D01*
X159805045Y-88425057D01*
X159790982Y-88414974D01*
X159767480Y-88393358D01*
X159749155Y-88361783D01*
X159735364Y-88310997D01*
X159725461Y-88231749D01*
X159718802Y-88114789D01*
X159714745Y-87950866D01*
X159712644Y-87730728D01*
X159711856Y-87445126D01*
X159711736Y-87084807D01*
X159711736Y-85809913D01*
X159818069Y-85683544D01*
X159939665Y-85575044D01*
X160111574Y-85500958D01*
X160290183Y-85492327D01*
X160456075Y-85549426D01*
G37*
G36*
X156533466Y-92516420D02*
G01*
X156601092Y-92558363D01*
X156646079Y-92627769D01*
X156672798Y-92738724D01*
X156685623Y-92905315D01*
X156688926Y-93141629D01*
X156687192Y-93280727D01*
X156667939Y-93537781D01*
X156621044Y-93726432D01*
X156538665Y-93856343D01*
X156412961Y-93937175D01*
X156236092Y-93978590D01*
X156000217Y-93990247D01*
X155681323Y-93990247D01*
X155681323Y-94176792D01*
X155678030Y-94260080D01*
X155651212Y-94361761D01*
X155588014Y-94428693D01*
X155528226Y-94463665D01*
X155401526Y-94488761D01*
X155296998Y-94443625D01*
X155222556Y-94337352D01*
X155186114Y-94179035D01*
X155195586Y-93977769D01*
X155228018Y-93840018D01*
X155314000Y-93676933D01*
X155451038Y-93567375D01*
X155647283Y-93505745D01*
X155910884Y-93486446D01*
X156185125Y-93486446D01*
X156185125Y-93085694D01*
X156186405Y-92911974D01*
X156193373Y-92781037D01*
X156210270Y-92695468D01*
X156241329Y-92634981D01*
X156290782Y-92579286D01*
X156299638Y-92570579D01*
X156397423Y-92502480D01*
X156490204Y-92501466D01*
X156533466Y-92516420D01*
G37*
G36*
X155946232Y-91017917D02*
G01*
X156085397Y-91055295D01*
X156161804Y-91127583D01*
X156185125Y-91240330D01*
X156185005Y-91249008D01*
X156146495Y-91371758D01*
X156040086Y-91446191D01*
X155867250Y-91471239D01*
X155681323Y-91471239D01*
X155681323Y-92150165D01*
X155680762Y-92341630D01*
X155677442Y-92552146D01*
X155670085Y-92700830D01*
X155657496Y-92800680D01*
X155638480Y-92864693D01*
X155611841Y-92905867D01*
X155534211Y-92967383D01*
X155420802Y-92988880D01*
X155315530Y-92942049D01*
X155233244Y-92834966D01*
X155188791Y-92675711D01*
X155177826Y-92588623D01*
X155155705Y-92512821D01*
X155110144Y-92483634D01*
X155022359Y-92478842D01*
X154973921Y-92477684D01*
X154825066Y-92448347D01*
X154741694Y-92374985D01*
X154715703Y-92251597D01*
X154717278Y-92210424D01*
X154752360Y-92096359D01*
X154843253Y-92025971D01*
X155002827Y-91987416D01*
X155167293Y-91965357D01*
X155186852Y-91627486D01*
X155194740Y-91504131D01*
X155209457Y-91376643D01*
X155235840Y-91291530D01*
X155282808Y-91224065D01*
X155359284Y-91149518D01*
X155443760Y-91077724D01*
X155526337Y-91032703D01*
X155628616Y-91013473D01*
X155782666Y-91009421D01*
X155946232Y-91017917D01*
G37*
G36*
X165992505Y-85986360D02*
G01*
X166108554Y-86058419D01*
X166219174Y-86145433D01*
X166219174Y-86982055D01*
X166219164Y-87035814D01*
X166218436Y-87309602D01*
X166215775Y-87513428D01*
X166210088Y-87659277D01*
X166200280Y-87759137D01*
X166185260Y-87824994D01*
X166163933Y-87868834D01*
X166135207Y-87902644D01*
X166058669Y-87958117D01*
X165967273Y-87986611D01*
X165931487Y-87983280D01*
X165821164Y-87924977D01*
X165744256Y-87808814D01*
X165715373Y-87654079D01*
X165715372Y-87652031D01*
X165707901Y-87543773D01*
X165673833Y-87490263D01*
X165595323Y-87463114D01*
X165555239Y-87451014D01*
X165417671Y-87366769D01*
X165299976Y-87238187D01*
X165231006Y-87094462D01*
X165203593Y-87021804D01*
X165148655Y-86986824D01*
X165039086Y-86979008D01*
X164905367Y-86959152D01*
X164786231Y-86891755D01*
X164721290Y-86791951D01*
X164719981Y-86675753D01*
X164791736Y-86559173D01*
X164820856Y-86533533D01*
X164878628Y-86503375D01*
X164964625Y-86485663D01*
X165097408Y-86477305D01*
X165295538Y-86475206D01*
X165715373Y-86475206D01*
X165715373Y-86307272D01*
X165729172Y-86184912D01*
X165799339Y-86055371D01*
X165805358Y-86049424D01*
X165899519Y-85983441D01*
X165992505Y-85986360D01*
G37*
G36*
X162058092Y-90018963D02*
G01*
X162142008Y-90113099D01*
X162186507Y-90279392D01*
X162191481Y-90319405D01*
X162214152Y-90425753D01*
X162255173Y-90480988D01*
X162330694Y-90511062D01*
X162467904Y-90573684D01*
X162605220Y-90701108D01*
X162685530Y-90860166D01*
X162694792Y-90893034D01*
X162728975Y-90957770D01*
X162794818Y-90991652D01*
X162918444Y-91011675D01*
X162981508Y-91021729D01*
X163094647Y-91055054D01*
X163156663Y-91095642D01*
X163185698Y-91164381D01*
X163187403Y-91295439D01*
X163130390Y-91405265D01*
X163094880Y-91430407D01*
X162981123Y-91461435D01*
X162797744Y-91471239D01*
X162724225Y-91470424D01*
X162588334Y-91458674D01*
X162492203Y-91426308D01*
X162404702Y-91364907D01*
X162394587Y-91356069D01*
X162296805Y-91240423D01*
X162230291Y-91113006D01*
X162227418Y-91104485D01*
X162171696Y-90999897D01*
X162097340Y-90967438D01*
X162065480Y-90960910D01*
X161971723Y-90909852D01*
X161869687Y-90824694D01*
X161843133Y-90797830D01*
X161778642Y-90722523D01*
X161743850Y-90647356D01*
X161729652Y-90544305D01*
X161726943Y-90385344D01*
X161728842Y-90256557D01*
X161739682Y-90145073D01*
X161764491Y-90081460D01*
X161808150Y-90045278D01*
X161938651Y-89999392D01*
X162058092Y-90018963D01*
G37*
G36*
X159496434Y-92497121D02*
G01*
X159608686Y-92581893D01*
X159676213Y-92673120D01*
X159711736Y-92833794D01*
X159711736Y-92982644D01*
X160112488Y-92982644D01*
X160286208Y-92983925D01*
X160417145Y-92990893D01*
X160502714Y-93007789D01*
X160563201Y-93038848D01*
X160618896Y-93088302D01*
X160627603Y-93097158D01*
X160695702Y-93194943D01*
X160696716Y-93287723D01*
X160660162Y-93372249D01*
X160599262Y-93429968D01*
X160499470Y-93464792D01*
X160345871Y-93481894D01*
X160123547Y-93486446D01*
X159711736Y-93486446D01*
X159711736Y-93738347D01*
X159711736Y-93990247D01*
X159840447Y-93990247D01*
X159888040Y-93992310D01*
X160039864Y-94031758D01*
X160145695Y-94111194D01*
X160192875Y-94217263D01*
X160168746Y-94336611D01*
X160127234Y-94402764D01*
X160072806Y-94461919D01*
X160027783Y-94479345D01*
X159906123Y-94492742D01*
X159753962Y-94487912D01*
X159603098Y-94466561D01*
X159485327Y-94430396D01*
X159465815Y-94420936D01*
X159378364Y-94369399D01*
X159313070Y-94305650D01*
X159266762Y-94217741D01*
X159236266Y-94093722D01*
X159218412Y-93921642D01*
X159210025Y-93689553D01*
X159207935Y-93385505D01*
X159208184Y-93200544D01*
X159210121Y-92980984D01*
X159215107Y-92823960D01*
X159224459Y-92716550D01*
X159239496Y-92645835D01*
X159261537Y-92598895D01*
X159291901Y-92562809D01*
X159294501Y-92560226D01*
X159397050Y-92490221D01*
X159496434Y-92497121D01*
G37*
G36*
X160335101Y-94998430D02*
G01*
X160568117Y-95003569D01*
X160736264Y-95014919D01*
X160852252Y-95033564D01*
X160928793Y-95060586D01*
X161040108Y-95137196D01*
X161142895Y-95264604D01*
X161181158Y-95400787D01*
X161181553Y-95412995D01*
X161213527Y-95480233D01*
X161309833Y-95516892D01*
X161330374Y-95522099D01*
X161449488Y-95578880D01*
X161561734Y-95665852D01*
X161562547Y-95666667D01*
X161659076Y-95817680D01*
X161689629Y-95992799D01*
X161658137Y-96169792D01*
X161568531Y-96326428D01*
X161424742Y-96440477D01*
X161328938Y-96476753D01*
X161144502Y-96485888D01*
X161023848Y-96456323D01*
X160880717Y-96378645D01*
X160786659Y-96253369D01*
X160735068Y-96070124D01*
X160719339Y-95818543D01*
X160719339Y-95497646D01*
X160462285Y-95510145D01*
X160431112Y-95511689D01*
X160301518Y-95521674D01*
X160228326Y-95542724D01*
X160188224Y-95586747D01*
X160157905Y-95665654D01*
X160149423Y-95689334D01*
X160046357Y-95848828D01*
X159888046Y-95949437D01*
X159684440Y-95984462D01*
X159656007Y-95984222D01*
X159540256Y-95971001D01*
X159451360Y-95924724D01*
X159351651Y-95827641D01*
X159324663Y-95796475D01*
X159225930Y-95619994D01*
X159209676Y-95436513D01*
X159276600Y-95251424D01*
X159298509Y-95215927D01*
X159363543Y-95133485D01*
X159443898Y-95074540D01*
X159553277Y-95035298D01*
X159705386Y-95011965D01*
X159913929Y-95000747D01*
X160192613Y-94997851D01*
X160335101Y-94998430D01*
G37*
G36*
X165895998Y-82523120D02*
G01*
X166044907Y-82614290D01*
X166155521Y-82764169D01*
X166171691Y-82805941D01*
X166190833Y-82891534D01*
X166204384Y-83014668D01*
X166213113Y-83186941D01*
X166217787Y-83419949D01*
X166219174Y-83725289D01*
X166218933Y-83852189D01*
X166214987Y-84154840D01*
X166204423Y-84388381D01*
X166184954Y-84563705D01*
X166154290Y-84691706D01*
X166110144Y-84783275D01*
X166050226Y-84849308D01*
X165972249Y-84900696D01*
X165839934Y-84950723D01*
X165652542Y-84959061D01*
X165478350Y-84903407D01*
X165337266Y-84791216D01*
X165249196Y-84629941D01*
X165231713Y-84573776D01*
X165193807Y-84495632D01*
X165132839Y-84465174D01*
X165018380Y-84460000D01*
X164949301Y-84457586D01*
X164842784Y-84431298D01*
X164773125Y-84366691D01*
X164746435Y-84323401D01*
X164713403Y-84196004D01*
X164754478Y-84092718D01*
X164862712Y-84023470D01*
X165031156Y-83998181D01*
X165215578Y-83998181D01*
X165203078Y-83735785D01*
X165190579Y-83473388D01*
X165022645Y-83459792D01*
X164987597Y-83456142D01*
X164828316Y-83410432D01*
X164735886Y-83327742D01*
X164715694Y-83216188D01*
X164773125Y-83083887D01*
X164802261Y-83048934D01*
X164884951Y-83003237D01*
X165018380Y-82990578D01*
X165078022Y-82989959D01*
X165164847Y-82976268D01*
X165211763Y-82927295D01*
X165249196Y-82820636D01*
X165291203Y-82722229D01*
X165406396Y-82590212D01*
X165558053Y-82512245D01*
X165727484Y-82489493D01*
X165895998Y-82523120D01*
G37*
G36*
X155330313Y-82999572D02*
G01*
X155431731Y-83041064D01*
X155538579Y-83133322D01*
X155681323Y-83276066D01*
X155681323Y-83802059D01*
X155681322Y-83806649D01*
X155678029Y-84055598D01*
X155665275Y-84232744D01*
X155638518Y-84349922D01*
X155593215Y-84418966D01*
X155524825Y-84451714D01*
X155428804Y-84460000D01*
X155397178Y-84458022D01*
X155280035Y-84404816D01*
X155204372Y-84286590D01*
X155177521Y-84113458D01*
X155177521Y-83953533D01*
X154684216Y-83965361D01*
X154190910Y-83977190D01*
X154169918Y-84430173D01*
X154157477Y-84638021D01*
X154140355Y-84789245D01*
X154117205Y-84880126D01*
X154085951Y-84922836D01*
X154016072Y-84952572D01*
X153884289Y-84954987D01*
X153774074Y-84897827D01*
X153763689Y-84885585D01*
X153743397Y-84842576D01*
X153728574Y-84770973D01*
X153718427Y-84659705D01*
X153712161Y-84497700D01*
X153708983Y-84273886D01*
X153708100Y-83977190D01*
X153708805Y-83714187D01*
X153712820Y-83462720D01*
X153722436Y-83277142D01*
X153739923Y-83147539D01*
X153767551Y-83063996D01*
X153807591Y-83016598D01*
X153862312Y-82995431D01*
X153933983Y-82990578D01*
X153939862Y-82990621D01*
X154066341Y-83023101D01*
X154144477Y-83119375D01*
X154178444Y-83284462D01*
X154190910Y-83473388D01*
X154440142Y-83473388D01*
X154463440Y-83473376D01*
X154593049Y-83470230D01*
X154664500Y-83454123D01*
X154700519Y-83414404D01*
X154723829Y-83340423D01*
X154746395Y-83275479D01*
X154853479Y-83126265D01*
X155012904Y-83026766D01*
X155205933Y-82990578D01*
X155330313Y-82999572D01*
G37*
G36*
X155084213Y-94559405D02*
G01*
X155124719Y-94594360D01*
X155166183Y-94677018D01*
X155177521Y-94811306D01*
X155177521Y-94997851D01*
X155352645Y-94997851D01*
X155380991Y-94998436D01*
X155544223Y-95033616D01*
X155646143Y-95120173D01*
X155681323Y-95253878D01*
X155679271Y-95285068D01*
X155625503Y-95399922D01*
X155507306Y-95474852D01*
X155336114Y-95501652D01*
X155177521Y-95501652D01*
X155177521Y-95836059D01*
X155177094Y-95928838D01*
X155171029Y-96068504D01*
X155152315Y-96162498D01*
X155114105Y-96236506D01*
X155049553Y-96316214D01*
X155013008Y-96354810D01*
X154912638Y-96438247D01*
X154829140Y-96479891D01*
X154790385Y-96484768D01*
X154671282Y-96492727D01*
X154505277Y-96499342D01*
X154315706Y-96503538D01*
X154296926Y-96503766D01*
X154056869Y-96499251D01*
X153888488Y-96476960D01*
X153781252Y-96432698D01*
X153724633Y-96362270D01*
X153708100Y-96261481D01*
X153708217Y-96249888D01*
X153725042Y-96150469D01*
X153778544Y-96080896D01*
X153880449Y-96035702D01*
X154042486Y-96009422D01*
X154276383Y-95996587D01*
X154694711Y-95984462D01*
X154694711Y-95753553D01*
X154694711Y-95522644D01*
X154519915Y-95499313D01*
X154496237Y-95495904D01*
X154333088Y-95450008D01*
X154240902Y-95370501D01*
X154211901Y-95251118D01*
X154211902Y-95250467D01*
X154248344Y-95119089D01*
X154354548Y-95031387D01*
X154526778Y-94990455D01*
X154573807Y-94986295D01*
X154658147Y-94967343D01*
X154694243Y-94916958D01*
X154708307Y-94808925D01*
X154711957Y-94773876D01*
X154757668Y-94614596D01*
X154840357Y-94522166D01*
X154951911Y-94501973D01*
X155084213Y-94559405D01*
G37*
G36*
X158433546Y-93561135D02*
G01*
X158569477Y-93673655D01*
X158663102Y-93846191D01*
X158666983Y-93858522D01*
X158690992Y-93986951D01*
X158687145Y-94094200D01*
X158662537Y-94161392D01*
X158572242Y-94298248D01*
X158450660Y-94411769D01*
X158325147Y-94473307D01*
X158320624Y-94474304D01*
X158252626Y-94494622D01*
X158216742Y-94531748D01*
X158202726Y-94608062D01*
X158200331Y-94745950D01*
X158200331Y-94748802D01*
X158202941Y-94885620D01*
X158217317Y-94961165D01*
X158253370Y-94997748D01*
X158321009Y-95017684D01*
X158334992Y-95021072D01*
X158486147Y-95099636D01*
X158606198Y-95233215D01*
X158678369Y-95396652D01*
X158685881Y-95564789D01*
X158638137Y-95707308D01*
X158520619Y-95863941D01*
X158357113Y-95961918D01*
X158339450Y-95968454D01*
X158226817Y-96045365D01*
X158137356Y-96185370D01*
X158053973Y-96316886D01*
X157906447Y-96437432D01*
X157864207Y-96456670D01*
X157678601Y-96491068D01*
X157501999Y-96451221D01*
X157352300Y-96344198D01*
X157247404Y-96177072D01*
X157234597Y-96146899D01*
X157150375Y-96027882D01*
X157011059Y-95939950D01*
X156982129Y-95926030D01*
X156873761Y-95859342D01*
X156795224Y-95775069D01*
X156742001Y-95659997D01*
X156709577Y-95500912D01*
X156693434Y-95284601D01*
X156689057Y-94997851D01*
X156690256Y-94804307D01*
X156696437Y-94608023D01*
X156709406Y-94466852D01*
X156730851Y-94364365D01*
X156762463Y-94284132D01*
X156804905Y-94213871D01*
X156943063Y-94088335D01*
X157140532Y-94014128D01*
X157402645Y-93988791D01*
X157675538Y-93987205D01*
X157759505Y-93810296D01*
X157808873Y-93724813D01*
X157942974Y-93590471D01*
X158103190Y-93518864D01*
X158272416Y-93509312D01*
X158433546Y-93561135D01*
G37*
G36*
X163553224Y-91524469D02*
G01*
X163556874Y-91526364D01*
X163645294Y-91589512D01*
X163688018Y-91676922D01*
X163699523Y-91817603D01*
X163700166Y-91975041D01*
X163948811Y-91975041D01*
X163979195Y-91975023D01*
X164105775Y-91971562D01*
X164176496Y-91953866D01*
X164215197Y-91910194D01*
X164245718Y-91828805D01*
X164257497Y-91797281D01*
X164363603Y-91643182D01*
X164521736Y-91539643D01*
X164710426Y-91501773D01*
X164895309Y-91533723D01*
X165052704Y-91637537D01*
X165163995Y-91810860D01*
X165232563Y-91974187D01*
X165622818Y-91974614D01*
X165772011Y-91975749D01*
X165908817Y-91982345D01*
X165998028Y-91998718D01*
X166060259Y-92029192D01*
X166116124Y-92078091D01*
X166119157Y-92081136D01*
X166199973Y-92184315D01*
X166210381Y-92276437D01*
X166153818Y-92385534D01*
X166088463Y-92478842D01*
X164138612Y-92478842D01*
X162188761Y-92478842D01*
X162188761Y-93047704D01*
X162185535Y-93305487D01*
X162172387Y-93519051D01*
X162145617Y-93674417D01*
X162101551Y-93784904D01*
X162036513Y-93863834D01*
X161946828Y-93924527D01*
X161797654Y-93975813D01*
X161606149Y-93972868D01*
X161428288Y-93902763D01*
X161288665Y-93771228D01*
X161261407Y-93708461D01*
X161234114Y-93565483D01*
X161220146Y-93381596D01*
X161219362Y-93181433D01*
X161231619Y-92989623D01*
X161256774Y-92830798D01*
X161294686Y-92729589D01*
X161342649Y-92665528D01*
X161462973Y-92558279D01*
X161611488Y-92504128D01*
X161689319Y-92473918D01*
X161726943Y-92401587D01*
X161737836Y-92343589D01*
X161805493Y-92225413D01*
X161916093Y-92113380D01*
X162047519Y-92032929D01*
X162049084Y-92032282D01*
X162182839Y-92000604D01*
X162397565Y-91981462D01*
X162691214Y-91975041D01*
X163196364Y-91975041D01*
X163196364Y-91846330D01*
X163198274Y-91802035D01*
X163238635Y-91651507D01*
X163320710Y-91546536D01*
X163430304Y-91499922D01*
X163553224Y-91524469D01*
G37*
G36*
X153437175Y-89498078D02*
G01*
X153568199Y-89532646D01*
X153653550Y-89633553D01*
X153696830Y-89804949D01*
X153716686Y-89925797D01*
X153748266Y-89986130D01*
X153801725Y-90001818D01*
X153833059Y-90008391D01*
X153925663Y-90059464D01*
X154027174Y-90144562D01*
X154169918Y-90287305D01*
X154169918Y-90873812D01*
X154169918Y-91460319D01*
X154358821Y-91481611D01*
X154410842Y-91488533D01*
X154563627Y-91531331D01*
X154647750Y-91605277D01*
X154673077Y-91717785D01*
X154670441Y-91770823D01*
X154635476Y-91877287D01*
X154548063Y-91940068D01*
X154393256Y-91972786D01*
X154190910Y-91996033D01*
X154178300Y-92238064D01*
X154177925Y-92245292D01*
X154173484Y-92378796D01*
X154183724Y-92451597D01*
X154217398Y-92485849D01*
X154283259Y-92503705D01*
X154352203Y-92521595D01*
X154485317Y-92594955D01*
X154602175Y-92729589D01*
X154646953Y-92836412D01*
X154672151Y-92992215D01*
X154673493Y-93160291D01*
X154650887Y-93309742D01*
X154604238Y-93409669D01*
X154551403Y-93452171D01*
X154425564Y-93484202D01*
X154298123Y-93446744D01*
X154278626Y-93425721D01*
X154239962Y-93335350D01*
X154214156Y-93209582D01*
X154208358Y-93163612D01*
X154184758Y-93059481D01*
X154139872Y-93002686D01*
X154055539Y-92965253D01*
X153935946Y-92907467D01*
X153824630Y-92824117D01*
X153802820Y-92801172D01*
X153778790Y-92767346D01*
X153760202Y-92721036D01*
X153746076Y-92652030D01*
X153735433Y-92550118D01*
X153727293Y-92405091D01*
X153720677Y-92206739D01*
X153714606Y-91944852D01*
X153708100Y-91609220D01*
X153687108Y-90489875D01*
X153554143Y-90455465D01*
X153537684Y-90450502D01*
X153418882Y-90386760D01*
X153312738Y-90292182D01*
X153281326Y-90252568D01*
X153232796Y-90165142D01*
X153209988Y-90056962D01*
X153204298Y-89896637D01*
X153211484Y-89747220D01*
X153247649Y-89602809D01*
X153318858Y-89522723D01*
X153430182Y-89498016D01*
X153437175Y-89498078D01*
G37*
G36*
X161196282Y-88491597D02*
G01*
X161403028Y-88502482D01*
X161543711Y-88528672D01*
X161629888Y-88574903D01*
X161673118Y-88645913D01*
X161684959Y-88746440D01*
X161682908Y-88777630D01*
X161629139Y-88892484D01*
X161510942Y-88967414D01*
X161339750Y-88994214D01*
X161181158Y-88994214D01*
X161181158Y-89313109D01*
X161179015Y-89422637D01*
X161151643Y-89644044D01*
X161084522Y-89800809D01*
X160967275Y-89903957D01*
X160789530Y-89964513D01*
X160540910Y-89993502D01*
X160215538Y-90012606D01*
X160215538Y-90259113D01*
X160215538Y-90505619D01*
X160647968Y-90505619D01*
X160764531Y-90506299D01*
X160949794Y-90514115D01*
X161070859Y-90535317D01*
X161140955Y-90575634D01*
X161173312Y-90640795D01*
X161181158Y-90736528D01*
X161179589Y-90787009D01*
X161161540Y-90867241D01*
X161112583Y-90919670D01*
X161019488Y-90950027D01*
X160869025Y-90964040D01*
X160647968Y-90967438D01*
X160215538Y-90967438D01*
X160215538Y-91465711D01*
X160215538Y-91963985D01*
X160389248Y-91987284D01*
X160423545Y-91992879D01*
X160545159Y-92027718D01*
X160625405Y-92073031D01*
X160647731Y-92100848D01*
X160684197Y-92213106D01*
X160671639Y-92333609D01*
X160611604Y-92423089D01*
X160553123Y-92449900D01*
X160416121Y-92473308D01*
X160250762Y-92475115D01*
X160089002Y-92455697D01*
X159962797Y-92415433D01*
X159909937Y-92385864D01*
X159849266Y-92338732D01*
X159803727Y-92275654D01*
X159770714Y-92185294D01*
X159747616Y-92056315D01*
X159731826Y-91877380D01*
X159720736Y-91637153D01*
X159711736Y-91324297D01*
X159690744Y-90484628D01*
X159488398Y-90461381D01*
X159460370Y-90457831D01*
X159313105Y-90419264D01*
X159233228Y-90348595D01*
X159208577Y-90236033D01*
X159208892Y-90221787D01*
X159252471Y-90105302D01*
X159361383Y-90029119D01*
X159524070Y-90001818D01*
X159560047Y-90001589D01*
X159656267Y-89991853D01*
X159702763Y-89955254D01*
X159726645Y-89874794D01*
X159730080Y-89859551D01*
X159805544Y-89706601D01*
X159934326Y-89581755D01*
X160088514Y-89512925D01*
X160215538Y-89487520D01*
X160215538Y-89175807D01*
X160218131Y-89048999D01*
X160242209Y-88845045D01*
X160299676Y-88696082D01*
X160400378Y-88594123D01*
X160554156Y-88531182D01*
X160770853Y-88499274D01*
X161060312Y-88490413D01*
X161196282Y-88491597D01*
G37*
G36*
X148474661Y-83497408D02*
G01*
X148552793Y-83516036D01*
X148604858Y-83564667D01*
X148637400Y-83656792D01*
X148656961Y-83805902D01*
X148670083Y-84025488D01*
X148691075Y-84475952D01*
X148824040Y-84510257D01*
X148938295Y-84565160D01*
X149053151Y-84663273D01*
X149139694Y-84777778D01*
X149173885Y-84883055D01*
X149180924Y-84922814D01*
X149216700Y-84949188D01*
X149299648Y-84961049D01*
X149448126Y-84963801D01*
X149564204Y-84967252D01*
X149800750Y-85006005D01*
X149975462Y-85090395D01*
X150096445Y-85223671D01*
X150161159Y-85371217D01*
X150171516Y-85559169D01*
X150099774Y-85737665D01*
X150024737Y-85831650D01*
X149868572Y-85935370D01*
X149668652Y-85969917D01*
X149544318Y-85947299D01*
X149390071Y-85863043D01*
X149264231Y-85737180D01*
X149194490Y-85591794D01*
X149160739Y-85506468D01*
X149089803Y-85467603D01*
X148995747Y-85438593D01*
X148881429Y-85354154D01*
X148778688Y-85236807D01*
X148711613Y-85109369D01*
X148705842Y-85091971D01*
X148675668Y-85018361D01*
X148633009Y-84980256D01*
X148554037Y-84965966D01*
X148414927Y-84963801D01*
X148166282Y-84963801D01*
X148166282Y-85215702D01*
X148166282Y-85467603D01*
X148324874Y-85467603D01*
X148370783Y-85469322D01*
X148527940Y-85508134D01*
X148632267Y-85590898D01*
X148670083Y-85708083D01*
X148669462Y-85729849D01*
X148626798Y-85862580D01*
X148518983Y-85943832D01*
X148348700Y-85971404D01*
X148166282Y-85971404D01*
X148166282Y-86661751D01*
X148166040Y-86862383D01*
X148164143Y-87063375D01*
X148158963Y-87203468D01*
X148148877Y-87295792D01*
X148132264Y-87353478D01*
X148107503Y-87389655D01*
X148072973Y-87417454D01*
X147980663Y-87467472D01*
X147868120Y-87470750D01*
X147763450Y-87394511D01*
X147757624Y-87387873D01*
X147734743Y-87354278D01*
X147716838Y-87307219D01*
X147703143Y-87236626D01*
X147692894Y-87132425D01*
X147685326Y-86984546D01*
X147679673Y-86782916D01*
X147675171Y-86517463D01*
X147671054Y-86178116D01*
X147668600Y-85793550D01*
X147670655Y-85448197D01*
X147677525Y-85178351D01*
X147689137Y-84986790D01*
X147705418Y-84876291D01*
X147721490Y-84826020D01*
X147807133Y-84668439D01*
X147924763Y-84550414D01*
X148054298Y-84493952D01*
X148059861Y-84493114D01*
X148099663Y-84479961D01*
X148126203Y-84445384D01*
X148143484Y-84373759D01*
X148155509Y-84249460D01*
X148166282Y-84056864D01*
X148167679Y-84029584D01*
X148185207Y-83804961D01*
X148213271Y-83651076D01*
X148257086Y-83556047D01*
X148321867Y-83507990D01*
X148412827Y-83495023D01*
X148474661Y-83497408D01*
G37*
G36*
X161984318Y-83497437D02*
G01*
X162090639Y-83532194D01*
X162153618Y-83619753D01*
X162186507Y-83774843D01*
X162209753Y-83977190D01*
X163166475Y-83998181D01*
X163311375Y-84001417D01*
X163599712Y-84008973D01*
X163817984Y-84018095D01*
X163975959Y-84030926D01*
X164083407Y-84049612D01*
X164150098Y-84076295D01*
X164185802Y-84113123D01*
X164200287Y-84162237D01*
X164203325Y-84225785D01*
X164202920Y-84241825D01*
X164158595Y-84358020D01*
X164048384Y-84433251D01*
X163882585Y-84460000D01*
X163700166Y-84460000D01*
X163700166Y-84963801D01*
X163700166Y-85467603D01*
X163974407Y-85467603D01*
X164108543Y-85473689D01*
X164272647Y-85495629D01*
X164393322Y-85528052D01*
X164455205Y-85561364D01*
X164580533Y-85675521D01*
X164672047Y-85820345D01*
X164707612Y-85965060D01*
X164707607Y-85967429D01*
X164672852Y-86129636D01*
X164585061Y-86287528D01*
X164466127Y-86401534D01*
X164418538Y-86425359D01*
X164346728Y-86445498D01*
X164243466Y-86459323D01*
X164095627Y-86467951D01*
X163890089Y-86472501D01*
X163613727Y-86474089D01*
X163568930Y-86474139D01*
X163292643Y-86472838D01*
X163087104Y-86466804D01*
X162940729Y-86453490D01*
X162841934Y-86430349D01*
X162779134Y-86394832D01*
X162740747Y-86344393D01*
X162715186Y-86276484D01*
X162722540Y-86170256D01*
X162793508Y-86071855D01*
X162908408Y-85999535D01*
X163047514Y-85971404D01*
X163196364Y-85971404D01*
X163196364Y-85719504D01*
X163196364Y-85467603D01*
X163012579Y-85467603D01*
X162987606Y-85467359D01*
X162851977Y-85448367D01*
X162769499Y-85387588D01*
X162716085Y-85268880D01*
X162715840Y-85268070D01*
X162722957Y-85162008D01*
X162793671Y-85063917D01*
X162908389Y-84991836D01*
X163047514Y-84963801D01*
X163196364Y-84963801D01*
X163196364Y-84711900D01*
X163196364Y-84460000D01*
X162944463Y-84460000D01*
X162692563Y-84460000D01*
X162692563Y-84645926D01*
X162691870Y-84680025D01*
X162659555Y-84839628D01*
X162577299Y-84933245D01*
X162442804Y-84963801D01*
X162401167Y-84961468D01*
X162299062Y-84920458D01*
X162234535Y-84819910D01*
X162199133Y-84648902D01*
X162181222Y-84538811D01*
X162149566Y-84476359D01*
X162095136Y-84460000D01*
X162063802Y-84453426D01*
X161971198Y-84402354D01*
X161869687Y-84317256D01*
X161849511Y-84296911D01*
X161781678Y-84219336D01*
X161744954Y-84143928D01*
X161729867Y-84041990D01*
X161726943Y-83884826D01*
X161727165Y-83845904D01*
X161738433Y-83671485D01*
X161771962Y-83563916D01*
X161834992Y-83509621D01*
X161934761Y-83495023D01*
X161984318Y-83497437D01*
G37*
G36*
X158284298Y-85488595D02*
G01*
X158284298Y-85803471D01*
X157200752Y-85803471D01*
X156931014Y-85803952D01*
X156643218Y-85806293D01*
X156423147Y-85811010D01*
X156261581Y-85818573D01*
X156149300Y-85829455D01*
X156077083Y-85844128D01*
X156035711Y-85863061D01*
X156005930Y-85889936D01*
X155973895Y-85951478D01*
X155958309Y-86053582D01*
X155954216Y-86217822D01*
X155957538Y-86340028D01*
X155975941Y-86488868D01*
X156008689Y-86567570D01*
X156034114Y-86581474D01*
X156111413Y-86598564D01*
X156243380Y-86612738D01*
X156437339Y-86624535D01*
X156700614Y-86634490D01*
X157040528Y-86643140D01*
X157066274Y-86643694D01*
X157372386Y-86650638D01*
X157607033Y-86657416D01*
X157781844Y-86665289D01*
X157908448Y-86675522D01*
X157998473Y-86689377D01*
X158063551Y-86708117D01*
X158115309Y-86733005D01*
X158165377Y-86765305D01*
X158258612Y-86839106D01*
X158429494Y-87041693D01*
X158537344Y-87276883D01*
X158544668Y-87313156D01*
X158557920Y-87439331D01*
X158568550Y-87621675D01*
X158575617Y-87841670D01*
X158578182Y-88080797D01*
X158578182Y-88742314D01*
X157444629Y-88742314D01*
X157433050Y-88742312D01*
X157135295Y-88741387D01*
X156867421Y-88738902D01*
X156640245Y-88735088D01*
X156464584Y-88730178D01*
X156351255Y-88724403D01*
X156311075Y-88717996D01*
X156315051Y-88708183D01*
X156356106Y-88644234D01*
X156432181Y-88537426D01*
X156531488Y-88404521D01*
X156751901Y-88115363D01*
X157354474Y-88113962D01*
X157957047Y-88112562D01*
X157942243Y-87762113D01*
X157935239Y-87625976D01*
X157915301Y-87461167D01*
X157873341Y-87357592D01*
X157796073Y-87301112D01*
X157670212Y-87277591D01*
X157482472Y-87272892D01*
X157152746Y-87272892D01*
X156595464Y-88007168D01*
X156038182Y-88741445D01*
X155625345Y-88741879D01*
X155530826Y-88741128D01*
X155364486Y-88734074D01*
X155259252Y-88720536D01*
X155226502Y-88701660D01*
X155228216Y-88698104D01*
X155265688Y-88642511D01*
X155345033Y-88533166D01*
X155458300Y-88380784D01*
X155597538Y-88196079D01*
X155754794Y-87989767D01*
X155787520Y-87947009D01*
X155940427Y-87745940D01*
X156072710Y-87569922D01*
X156176697Y-87429309D01*
X156244714Y-87334453D01*
X156269092Y-87295710D01*
X156250812Y-87281938D01*
X156179500Y-87272892D01*
X156001809Y-87245814D01*
X155797466Y-87166396D01*
X155615288Y-87049511D01*
X155523798Y-86963521D01*
X155398554Y-86780059D01*
X155327410Y-86553931D01*
X155304394Y-86270160D01*
X155311499Y-86057209D01*
X155348453Y-85827877D01*
X155422774Y-85639894D01*
X155540971Y-85471283D01*
X155543363Y-85468492D01*
X155619021Y-85386993D01*
X155697560Y-85321975D01*
X155789113Y-85271598D01*
X155903815Y-85234022D01*
X156051798Y-85207404D01*
X156243196Y-85189906D01*
X156488143Y-85179686D01*
X156796771Y-85174904D01*
X157179215Y-85173719D01*
X158284298Y-85173719D01*
X158284298Y-85488595D01*
G37*
G36*
X156108348Y-81044854D02*
G01*
X156113235Y-81049416D01*
X156140758Y-81085038D01*
X156160286Y-81138986D01*
X156173153Y-81224386D01*
X156180693Y-81354363D01*
X156184239Y-81542044D01*
X156185125Y-81800556D01*
X156185984Y-82049785D01*
X156189394Y-82237521D01*
X156196438Y-82363682D01*
X156208196Y-82439672D01*
X156225752Y-82476902D01*
X156250185Y-82486776D01*
X156274745Y-82488360D01*
X156406070Y-82533845D01*
X156534663Y-82624682D01*
X156625240Y-82737303D01*
X156633519Y-82754891D01*
X156659607Y-82844635D01*
X156676716Y-82978033D01*
X156686079Y-83168467D01*
X156688926Y-83429320D01*
X156688926Y-83998181D01*
X157192728Y-83998181D01*
X157696530Y-83998181D01*
X157696530Y-83702949D01*
X157701424Y-83526560D01*
X157729726Y-83329728D01*
X157791907Y-83186476D01*
X157897752Y-83088869D01*
X158057047Y-83028974D01*
X158279578Y-82998855D01*
X158575130Y-82990578D01*
X158773967Y-82991080D01*
X158923981Y-82994637D01*
X159020778Y-83004297D01*
X159080369Y-83023108D01*
X159118769Y-83054118D01*
X159151990Y-83100375D01*
X159188235Y-83161700D01*
X159200288Y-83233116D01*
X159162006Y-83320788D01*
X159150654Y-83340466D01*
X159117327Y-83383772D01*
X159068862Y-83412105D01*
X158988064Y-83429977D01*
X158857742Y-83441903D01*
X158660702Y-83452396D01*
X158221323Y-83473388D01*
X158198315Y-83809256D01*
X158192354Y-83886689D01*
X158165810Y-84087793D01*
X158122624Y-84227930D01*
X158055681Y-84324414D01*
X157957871Y-84394556D01*
X157913389Y-84410813D01*
X157779335Y-84434420D01*
X157591997Y-84450966D01*
X157370867Y-84460397D01*
X157135439Y-84462657D01*
X156905206Y-84457690D01*
X156699660Y-84445441D01*
X156538294Y-84425854D01*
X156440602Y-84398874D01*
X156391561Y-84369950D01*
X156307589Y-84291335D01*
X156248580Y-84179335D01*
X156210913Y-84021467D01*
X156190968Y-83805250D01*
X156185125Y-83518205D01*
X156184985Y-83426596D01*
X156182651Y-83232385D01*
X156175997Y-83103043D01*
X156163179Y-83024663D01*
X156142346Y-82983340D01*
X156111654Y-82965165D01*
X156035104Y-82937384D01*
X155863967Y-82827025D01*
X155744344Y-82658083D01*
X155660422Y-82486776D01*
X155029470Y-82486776D01*
X154862682Y-82485972D01*
X154620191Y-82479136D01*
X154445277Y-82462627D01*
X154327464Y-82433228D01*
X154256280Y-82387719D01*
X154221251Y-82322881D01*
X154211901Y-82235494D01*
X154212265Y-82212565D01*
X154228878Y-82114567D01*
X154279269Y-82048363D01*
X154375869Y-82008200D01*
X154531112Y-81988322D01*
X154757430Y-81982975D01*
X155171009Y-81982975D01*
X155217467Y-81842206D01*
X155273576Y-81722507D01*
X155400604Y-81580169D01*
X155560777Y-81500003D01*
X155569689Y-81497706D01*
X155636259Y-81466334D01*
X155672272Y-81401932D01*
X155692962Y-81279031D01*
X155708138Y-81197201D01*
X155772796Y-81060106D01*
X155869977Y-80983984D01*
X155986290Y-80976384D01*
X156108348Y-81044854D01*
G37*
G36*
X166218086Y-79757060D02*
G01*
X166215587Y-80023582D01*
X166205348Y-80266594D01*
X166187047Y-80468174D01*
X166160364Y-80610397D01*
X166131073Y-80695884D01*
X165991434Y-80947108D01*
X165790933Y-81165379D01*
X165546370Y-81334959D01*
X165274546Y-81440112D01*
X165265237Y-81441877D01*
X165175006Y-81449745D01*
X165015248Y-81457071D01*
X164797807Y-81463550D01*
X164534529Y-81468879D01*
X164237260Y-81472756D01*
X163917845Y-81474876D01*
X162687094Y-81479173D01*
X162700324Y-80188181D01*
X162701543Y-80070424D01*
X162702841Y-79956617D01*
X163238348Y-79956617D01*
X163238348Y-80933388D01*
X164215118Y-80933388D01*
X164389801Y-80933171D01*
X164699424Y-80930454D01*
X164941218Y-80922731D01*
X165126099Y-80907649D01*
X165264985Y-80882856D01*
X165368793Y-80846000D01*
X165448441Y-80794727D01*
X165514846Y-80726686D01*
X165578926Y-80639525D01*
X165609442Y-80591420D01*
X165635026Y-80535097D01*
X165652705Y-80463307D01*
X165663931Y-80362352D01*
X165670152Y-80218530D01*
X165672822Y-80018143D01*
X165673389Y-79747491D01*
X165673351Y-79697036D01*
X165670371Y-79395698D01*
X165660547Y-79163967D01*
X165640937Y-78989375D01*
X165608600Y-78859449D01*
X165560595Y-78761721D01*
X165493981Y-78683719D01*
X165405816Y-78612974D01*
X165358998Y-78582396D01*
X165303275Y-78557088D01*
X165230193Y-78539005D01*
X165126431Y-78526607D01*
X164978668Y-78518357D01*
X164773582Y-78512717D01*
X164497852Y-78508148D01*
X164476368Y-78507840D01*
X164206579Y-78504545D01*
X164005982Y-78504307D01*
X163860767Y-78508358D01*
X163757128Y-78517931D01*
X163681258Y-78534260D01*
X163619349Y-78558577D01*
X163557594Y-78592115D01*
X163501135Y-78626183D01*
X163419122Y-78685699D01*
X163356157Y-78754349D01*
X163309740Y-78842822D01*
X163277370Y-78961806D01*
X163256547Y-79121989D01*
X163244769Y-79334060D01*
X163239536Y-79608706D01*
X163238348Y-79956617D01*
X162702841Y-79956617D01*
X162705432Y-79729440D01*
X162709654Y-79459029D01*
X162714976Y-79248891D01*
X162722167Y-79088730D01*
X162731995Y-78968247D01*
X162745227Y-78877143D01*
X162762633Y-78805121D01*
X162784980Y-78741881D01*
X162813036Y-78677127D01*
X162963783Y-78435970D01*
X163180584Y-78224024D01*
X163443126Y-78063286D01*
X163507491Y-78035658D01*
X163582917Y-78011556D01*
X163672887Y-77994595D01*
X163791284Y-77983544D01*
X163951990Y-77977173D01*
X164168891Y-77974253D01*
X164455868Y-77973553D01*
X164495033Y-77973559D01*
X164770734Y-77974306D01*
X164978422Y-77977266D01*
X165132306Y-77983795D01*
X165246596Y-77995252D01*
X165335501Y-78012995D01*
X165413231Y-78038382D01*
X165493996Y-78072772D01*
X165624172Y-78144945D01*
X165827470Y-78305663D01*
X166003897Y-78499800D01*
X166126199Y-78700303D01*
X166157082Y-78814360D01*
X166182341Y-78995680D01*
X166201142Y-79225185D01*
X166213164Y-79484953D01*
X166217913Y-79747491D01*
X166218086Y-79757060D01*
G37*
G36*
X166202909Y-94995141D02*
G01*
X166193978Y-95252216D01*
X166178653Y-95476634D01*
X166156926Y-95651373D01*
X166128791Y-95759413D01*
X166014208Y-95955103D01*
X165806564Y-96179920D01*
X165550606Y-96355076D01*
X165264702Y-96465562D01*
X165201797Y-96475072D01*
X165056729Y-96485549D01*
X164858348Y-96492838D01*
X164624217Y-96496350D01*
X164371901Y-96495495D01*
X164256761Y-96493922D01*
X164013340Y-96488999D01*
X163832504Y-96481439D01*
X163698864Y-96469536D01*
X163597037Y-96451582D01*
X163511635Y-96425871D01*
X163427273Y-96390695D01*
X163202151Y-96258489D01*
X162974848Y-96042793D01*
X162810612Y-95779054D01*
X162803639Y-95763542D01*
X162777639Y-95701081D01*
X162757019Y-95636703D01*
X162741029Y-95560153D01*
X162728919Y-95461173D01*
X162719938Y-95329509D01*
X162713336Y-95154903D01*
X162708363Y-94927101D01*
X162704270Y-94635847D01*
X162700306Y-94270883D01*
X162692703Y-93528429D01*
X163238348Y-93528429D01*
X163238348Y-94498200D01*
X163238471Y-94630979D01*
X163240784Y-94949475D01*
X163247687Y-95198757D01*
X163261331Y-95389680D01*
X163283865Y-95533101D01*
X163317441Y-95639872D01*
X163364208Y-95720849D01*
X163426318Y-95786888D01*
X163505920Y-95848843D01*
X163552370Y-95879191D01*
X163608162Y-95904592D01*
X163681309Y-95922786D01*
X163785132Y-95935323D01*
X163932955Y-95943755D01*
X164138098Y-95949631D01*
X164413885Y-95954501D01*
X164546085Y-95956278D01*
X164830513Y-95956506D01*
X165048481Y-95948102D01*
X165212491Y-95928008D01*
X165335040Y-95893168D01*
X165428630Y-95840525D01*
X165505759Y-95767024D01*
X165578926Y-95669608D01*
X165581363Y-95666028D01*
X165613952Y-95613298D01*
X165637790Y-95556535D01*
X165654239Y-95482416D01*
X165664661Y-95377620D01*
X165670418Y-95228825D01*
X165672873Y-95022709D01*
X165673389Y-94745950D01*
X165673388Y-94725695D01*
X165672788Y-94453898D01*
X165670161Y-94251883D01*
X165664144Y-94106330D01*
X165653374Y-94003916D01*
X165636490Y-93931320D01*
X165612128Y-93875219D01*
X165578926Y-93822292D01*
X165547972Y-93778200D01*
X165484145Y-93700449D01*
X165412787Y-93640696D01*
X165322981Y-93596591D01*
X165203810Y-93565780D01*
X165044355Y-93545910D01*
X164833700Y-93534630D01*
X164560927Y-93529587D01*
X164215118Y-93528429D01*
X163238348Y-93528429D01*
X162692703Y-93528429D01*
X162687057Y-92977139D01*
X163980802Y-92990387D01*
X164100031Y-92991620D01*
X164441200Y-92995513D01*
X164711809Y-92999740D01*
X164922141Y-93005064D01*
X165082474Y-93012250D01*
X165203090Y-93022062D01*
X165294269Y-93035265D01*
X165366293Y-93052622D01*
X165429442Y-93074897D01*
X165493996Y-93102854D01*
X165615818Y-93169670D01*
X165821662Y-93330364D01*
X166001652Y-93526467D01*
X166127913Y-93730386D01*
X166151913Y-93815664D01*
X166174841Y-93980702D01*
X166191412Y-94198190D01*
X166201619Y-94451107D01*
X166205453Y-94722431D01*
X166205234Y-94745950D01*
X166202909Y-94995141D01*
G37*
G36*
X151189092Y-80250520D02*
G01*
X151189092Y-81483652D01*
X149898100Y-81470917D01*
X149807933Y-81470020D01*
X149461124Y-81466227D01*
X149185668Y-81462105D01*
X148971294Y-81456905D01*
X148807733Y-81449878D01*
X148684716Y-81440276D01*
X148591972Y-81427348D01*
X148519231Y-81410346D01*
X148456224Y-81388521D01*
X148392682Y-81361124D01*
X148173489Y-81231643D01*
X147947678Y-81014419D01*
X147780006Y-80744462D01*
X147777563Y-80739136D01*
X147744669Y-80661736D01*
X147720461Y-80584884D01*
X147703620Y-80494496D01*
X147692822Y-80376485D01*
X147686746Y-80216767D01*
X147684070Y-80001256D01*
X147683472Y-79715867D01*
X147683538Y-79546990D01*
X147684622Y-79306213D01*
X147684938Y-79290774D01*
X148211239Y-79290774D01*
X148212059Y-79494489D01*
X148216163Y-79768190D01*
X148220554Y-80001325D01*
X148226551Y-80215609D01*
X148234840Y-80370554D01*
X148247021Y-80479604D01*
X148264691Y-80556202D01*
X148289448Y-80613791D01*
X148322893Y-80665815D01*
X148327252Y-80671793D01*
X148434756Y-80781508D01*
X148560147Y-80865237D01*
X148598560Y-80880932D01*
X148670964Y-80899829D01*
X148771071Y-80913747D01*
X148910133Y-80923373D01*
X149099397Y-80929396D01*
X149350115Y-80932505D01*
X149673536Y-80933388D01*
X150643306Y-80933388D01*
X150643306Y-79931993D01*
X150643302Y-79874048D01*
X150642874Y-79570798D01*
X150641077Y-79338271D01*
X150636971Y-79165109D01*
X150629613Y-79039953D01*
X150618063Y-78951443D01*
X150601379Y-78888222D01*
X150578620Y-78838931D01*
X150548844Y-78792210D01*
X150543968Y-78785103D01*
X150469356Y-78688690D01*
X150388136Y-78616408D01*
X150287430Y-78564868D01*
X150154357Y-78530681D01*
X149976040Y-78510458D01*
X149739600Y-78500810D01*
X149432157Y-78498347D01*
X149400263Y-78498367D01*
X149093653Y-78501981D01*
X148857312Y-78514408D01*
X148678809Y-78539369D01*
X148545715Y-78580587D01*
X148445599Y-78641784D01*
X148366032Y-78726683D01*
X148294583Y-78839007D01*
X148264360Y-78896699D01*
X148240265Y-78960008D01*
X148224165Y-79037488D01*
X148214882Y-79143092D01*
X148211239Y-79290774D01*
X147684938Y-79290774D01*
X147688291Y-79127118D01*
X147696122Y-78995470D01*
X147709692Y-78897034D01*
X147730579Y-78817576D01*
X147760359Y-78742862D01*
X147800609Y-78658656D01*
X147917950Y-78463413D01*
X148136518Y-78233907D01*
X148416049Y-78061956D01*
X148476676Y-78035902D01*
X148551824Y-78011803D01*
X148641734Y-77994802D01*
X148760245Y-77983688D01*
X148921198Y-77977250D01*
X149138431Y-77974275D01*
X149425786Y-77973553D01*
X149472389Y-77973561D01*
X149746132Y-77974330D01*
X149952227Y-77977328D01*
X150104905Y-77983926D01*
X150218401Y-77995493D01*
X150306946Y-78013401D01*
X150384772Y-78039019D01*
X150466112Y-78073718D01*
X150650714Y-78181868D01*
X150856490Y-78363789D01*
X151021897Y-78578978D01*
X151125701Y-78803930D01*
X151144420Y-78882742D01*
X151159847Y-78990079D01*
X151171513Y-79132685D01*
X151179844Y-79320295D01*
X151185266Y-79562647D01*
X151188206Y-79869476D01*
X151188351Y-79931993D01*
X151189092Y-80250520D01*
G37*
G36*
X153887450Y-79016434D02*
G01*
X153902909Y-79023137D01*
X154028513Y-79106135D01*
X154110977Y-79229641D01*
X154156159Y-79406812D01*
X154169918Y-79650807D01*
X154169918Y-79967768D01*
X154345042Y-79967768D01*
X154371395Y-79968291D01*
X154533849Y-80002542D01*
X154637376Y-80085952D01*
X154673720Y-80212374D01*
X154671983Y-80248551D01*
X154624399Y-80373063D01*
X154510810Y-80447096D01*
X154329997Y-80471570D01*
X154275543Y-80469751D01*
X154114814Y-80448788D01*
X153982432Y-80411902D01*
X153952771Y-80397544D01*
X153832607Y-80299384D01*
X153743167Y-80166921D01*
X153708100Y-80032828D01*
X153707133Y-80021633D01*
X153679486Y-79988855D01*
X153601364Y-79972327D01*
X153456199Y-79967768D01*
X153204298Y-79967768D01*
X153204298Y-80219669D01*
X153204298Y-80471570D01*
X153369185Y-80471570D01*
X153419709Y-80473171D01*
X153533823Y-80502524D01*
X153621086Y-80582190D01*
X153655238Y-80627040D01*
X153699902Y-80711725D01*
X153683786Y-80782390D01*
X153605049Y-80872321D01*
X153513822Y-80939848D01*
X153353149Y-80975371D01*
X153204298Y-80975371D01*
X153204298Y-81479173D01*
X153204298Y-81982975D01*
X153364208Y-81982975D01*
X153382634Y-81983326D01*
X153508310Y-82001496D01*
X153600365Y-82038728D01*
X153637649Y-82076878D01*
X153674641Y-82186710D01*
X153655823Y-82308931D01*
X153582746Y-82410768D01*
X153534295Y-82441039D01*
X153382695Y-82481045D01*
X153201586Y-82477319D01*
X153021073Y-82428889D01*
X152947211Y-82389834D01*
X152824927Y-82289185D01*
X152735299Y-82171193D01*
X152700497Y-82061280D01*
X152697655Y-82034302D01*
X152669736Y-82001674D01*
X152596221Y-81986621D01*
X152458005Y-81982975D01*
X152215514Y-81982975D01*
X152132633Y-82161404D01*
X152084231Y-82249126D01*
X151948209Y-82389439D01*
X151765096Y-82463617D01*
X151529164Y-82474630D01*
X151472244Y-82468978D01*
X151310679Y-82426024D01*
X151218424Y-82344515D01*
X151189092Y-82219661D01*
X151189509Y-82205052D01*
X151233627Y-82086316D01*
X151343766Y-82009970D01*
X151510475Y-81982975D01*
X151692893Y-81982975D01*
X151692893Y-81292628D01*
X151693135Y-81091996D01*
X151695032Y-80891005D01*
X151700212Y-80750911D01*
X151710298Y-80658587D01*
X151726911Y-80600901D01*
X151751672Y-80564724D01*
X151786202Y-80536926D01*
X151872799Y-80489716D01*
X151996739Y-80481716D01*
X152112728Y-80555537D01*
X152138368Y-80584657D01*
X152168526Y-80642429D01*
X152186238Y-80728426D01*
X152194596Y-80861209D01*
X152196695Y-81059338D01*
X152196695Y-81479173D01*
X152448596Y-81479173D01*
X152700497Y-81479173D01*
X152700497Y-80658410D01*
X152701181Y-80426739D01*
X152705805Y-80160925D01*
X152717119Y-79959890D01*
X152737789Y-79812383D01*
X152770484Y-79707152D01*
X152817871Y-79632946D01*
X152882617Y-79578514D01*
X152967389Y-79532603D01*
X152990154Y-79522032D01*
X153090952Y-79480707D01*
X153152916Y-79463966D01*
X153153946Y-79463927D01*
X153189813Y-79425539D01*
X153219246Y-79336749D01*
X153257095Y-79229044D01*
X153367285Y-79093432D01*
X153522248Y-79006478D01*
X153702223Y-78977654D01*
X153887450Y-79016434D01*
G37*
G36*
X158486724Y-90003770D02*
G01*
X158601814Y-90057146D01*
X158677130Y-90174737D01*
X158704133Y-90344727D01*
X158704133Y-90501019D01*
X158902197Y-90513815D01*
X159024753Y-90528758D01*
X159106477Y-90565447D01*
X159162096Y-90637228D01*
X159192639Y-90698828D01*
X159198217Y-90770442D01*
X159151990Y-90857641D01*
X159080048Y-90967438D01*
X158388289Y-90967438D01*
X157696530Y-90967438D01*
X157696530Y-91220656D01*
X157696912Y-91273500D01*
X157705026Y-91399276D01*
X157727652Y-91466891D01*
X157770001Y-91495852D01*
X157897158Y-91543956D01*
X158039186Y-91646554D01*
X158142157Y-91803571D01*
X158168724Y-91855109D01*
X158256961Y-91971274D01*
X158369134Y-92034057D01*
X158391907Y-92042258D01*
X158548734Y-92144940D01*
X158648297Y-92303303D01*
X158683141Y-92506139D01*
X158682901Y-92534572D01*
X158669680Y-92650322D01*
X158623403Y-92739218D01*
X158526320Y-92838928D01*
X158508848Y-92854453D01*
X158332591Y-92960202D01*
X158146721Y-92982594D01*
X157952007Y-92921518D01*
X157890286Y-92875637D01*
X157797795Y-92765364D01*
X157725634Y-92636719D01*
X157696530Y-92524977D01*
X157693739Y-92517981D01*
X157630658Y-92496299D01*
X157485147Y-92483222D01*
X157258084Y-92478842D01*
X157228907Y-92478829D01*
X157039985Y-92477062D01*
X156915446Y-92470069D01*
X156837905Y-92454629D01*
X156789979Y-92427524D01*
X156754282Y-92385534D01*
X156752020Y-92382289D01*
X156697134Y-92273979D01*
X156709307Y-92181923D01*
X156791977Y-92078091D01*
X156883204Y-92010565D01*
X157043877Y-91975041D01*
X157192728Y-91975041D01*
X157192728Y-91723140D01*
X157192728Y-91471239D01*
X157004770Y-91471239D01*
X156891032Y-91464795D01*
X156807311Y-91432911D01*
X156744871Y-91361443D01*
X156708698Y-91300251D01*
X156696558Y-91228746D01*
X156734765Y-91141029D01*
X156786087Y-91072854D01*
X156864470Y-91034456D01*
X156996605Y-91017537D01*
X157196611Y-91004662D01*
X157184174Y-90744645D01*
X157171736Y-90484628D01*
X156940827Y-90484628D01*
X156709918Y-90484628D01*
X156686672Y-90686974D01*
X156677236Y-90752893D01*
X156635009Y-90881090D01*
X156557695Y-90947408D01*
X156431670Y-90966795D01*
X156420110Y-90966656D01*
X156305983Y-90932083D01*
X156230266Y-90831977D01*
X156187464Y-90659424D01*
X156164133Y-90484628D01*
X155495369Y-90473027D01*
X155429106Y-90471717D01*
X155174475Y-90463148D01*
X154973124Y-90450365D01*
X154835276Y-90434180D01*
X154771154Y-90415407D01*
X154727704Y-90343659D01*
X154715079Y-90229617D01*
X154739029Y-90117489D01*
X154796910Y-90045278D01*
X154829734Y-90036681D01*
X154947180Y-90024640D01*
X155139444Y-90014963D01*
X155400902Y-90007836D01*
X155725927Y-90003445D01*
X156108893Y-90001975D01*
X156355907Y-90002137D01*
X156661511Y-90003135D01*
X156899788Y-90005573D01*
X157080706Y-90010048D01*
X157214235Y-90017159D01*
X157310342Y-90027504D01*
X157378998Y-90041683D01*
X157430171Y-90060293D01*
X157473830Y-90083934D01*
X157573114Y-90169017D01*
X157658905Y-90335678D01*
X157709821Y-90505619D01*
X157955076Y-90505619D01*
X158200331Y-90505619D01*
X158200331Y-90330495D01*
X158200916Y-90302149D01*
X158236097Y-90138918D01*
X158322654Y-90036998D01*
X158456358Y-90001818D01*
X158486724Y-90003770D01*
G37*
G36*
X149507159Y-81979766D02*
G01*
X149766354Y-81985216D01*
X150002847Y-81994433D01*
X150202009Y-82007359D01*
X150349208Y-82023934D01*
X150429813Y-82044101D01*
X150494415Y-82093007D01*
X150585348Y-82202342D01*
X150656527Y-82328041D01*
X150685290Y-82435394D01*
X150685329Y-82436424D01*
X150723717Y-82472292D01*
X150812507Y-82501724D01*
X150834681Y-82507073D01*
X150979490Y-82584121D01*
X151099731Y-82713516D01*
X151168828Y-82867945D01*
X151175715Y-82897012D01*
X151204516Y-82959282D01*
X151263865Y-82985326D01*
X151380385Y-82990578D01*
X151488070Y-82996516D01*
X151573506Y-83028233D01*
X151636949Y-83100375D01*
X151673194Y-83161700D01*
X151685247Y-83233116D01*
X151646965Y-83320788D01*
X151635612Y-83340466D01*
X151602286Y-83383772D01*
X151553820Y-83412105D01*
X151473023Y-83429977D01*
X151342700Y-83441903D01*
X151145660Y-83452396D01*
X150706282Y-83473388D01*
X150693782Y-83735785D01*
X150681283Y-83998181D01*
X151008658Y-83998338D01*
X151048629Y-83998652D01*
X151287243Y-84018635D01*
X151459616Y-84073577D01*
X151576797Y-84168845D01*
X151649837Y-84309808D01*
X151699405Y-84460000D01*
X152302176Y-84460000D01*
X152374823Y-84460284D01*
X152594886Y-84464623D01*
X152786439Y-84473380D01*
X152931000Y-84485511D01*
X153010087Y-84499973D01*
X153129688Y-84578315D01*
X153180504Y-84692404D01*
X153153393Y-84828157D01*
X153151827Y-84831415D01*
X153103398Y-84903184D01*
X153029956Y-84939583D01*
X152902117Y-84955502D01*
X152840974Y-84960146D01*
X152746128Y-84978833D01*
X152694677Y-85023253D01*
X152658241Y-85111566D01*
X152600406Y-85225157D01*
X152499242Y-85344638D01*
X152383452Y-85433059D01*
X152277441Y-85467603D01*
X152247392Y-85470793D01*
X152214942Y-85498903D01*
X152200185Y-85572236D01*
X152196695Y-85710094D01*
X152196695Y-85952586D01*
X152375125Y-86035466D01*
X152409320Y-86052221D01*
X152543325Y-86150529D01*
X152636435Y-86296776D01*
X152696521Y-86407778D01*
X152756830Y-86461726D01*
X152838616Y-86475206D01*
X152880072Y-86476910D01*
X153029120Y-86516023D01*
X153133846Y-86596067D01*
X153181043Y-86702697D01*
X153157507Y-86821570D01*
X153090691Y-86919130D01*
X153004318Y-86966020D01*
X152867344Y-86978365D01*
X152835330Y-86978987D01*
X152752057Y-86994558D01*
X152694819Y-87047015D01*
X152636435Y-87157438D01*
X152624622Y-87181908D01*
X152524674Y-87322630D01*
X152376646Y-87419834D01*
X152199738Y-87503801D01*
X152198216Y-87886486D01*
X152197978Y-87926606D01*
X152193047Y-88106697D01*
X152179237Y-88228056D01*
X152152722Y-88311986D01*
X152109681Y-88379792D01*
X152004671Y-88469920D01*
X151891999Y-88480071D01*
X151776860Y-88406446D01*
X151758965Y-88386931D01*
X151738126Y-88353758D01*
X151722193Y-88305442D01*
X151710509Y-88232149D01*
X151702420Y-88124050D01*
X151697269Y-87971311D01*
X151694401Y-87764101D01*
X151693161Y-87492589D01*
X151692893Y-87146942D01*
X151692893Y-85971404D01*
X151517769Y-85971404D01*
X151491282Y-85970863D01*
X151330134Y-85936960D01*
X151226036Y-85855569D01*
X151189092Y-85733988D01*
X151191587Y-85699183D01*
X151247051Y-85578878D01*
X151363439Y-85497509D01*
X151524959Y-85467603D01*
X151692893Y-85467603D01*
X151692893Y-85215702D01*
X151692893Y-84963801D01*
X151440992Y-84963801D01*
X151189092Y-84963801D01*
X151189092Y-85122393D01*
X151187373Y-85168303D01*
X151148560Y-85325459D01*
X151065796Y-85429786D01*
X150948612Y-85467603D01*
X150926845Y-85466981D01*
X150794114Y-85424318D01*
X150712863Y-85316502D01*
X150685290Y-85146220D01*
X150682699Y-85068034D01*
X150663345Y-84987187D01*
X150620230Y-84963801D01*
X150609923Y-84963542D01*
X150474297Y-84922245D01*
X150344052Y-84825931D01*
X150250125Y-84696909D01*
X150234888Y-84659879D01*
X150195409Y-84483522D01*
X150181488Y-84254233D01*
X150181488Y-83956198D01*
X149741630Y-83956198D01*
X149645514Y-83956086D01*
X149480008Y-83953702D01*
X149373214Y-83945302D01*
X149307605Y-83927125D01*
X149265653Y-83895412D01*
X149229830Y-83846401D01*
X149193533Y-83784981D01*
X149181541Y-83713628D01*
X149219878Y-83625988D01*
X149235304Y-83599531D01*
X149268261Y-83559191D01*
X149317446Y-83533467D01*
X149399789Y-83518306D01*
X149532223Y-83509653D01*
X149731678Y-83503455D01*
X150181488Y-83491539D01*
X150181488Y-82989158D01*
X150181488Y-82486776D01*
X149276935Y-82486776D01*
X148372382Y-82486776D01*
X148266725Y-82381119D01*
X148193085Y-82264833D01*
X148197705Y-82144418D01*
X148283504Y-82035454D01*
X148294620Y-82029486D01*
X148382766Y-82011093D01*
X148535997Y-81996821D01*
X148739683Y-81986611D01*
X148979193Y-81980405D01*
X149239895Y-81978143D01*
X149507159Y-81979766D01*
G37*
G36*
X160489178Y-83998901D02*
G01*
X160598510Y-84033156D01*
X160668300Y-84126670D01*
X160707650Y-84290419D01*
X160730395Y-84460000D01*
X160978117Y-84460000D01*
X161082339Y-84464338D01*
X161243314Y-84485337D01*
X161364383Y-84517887D01*
X161442648Y-84559949D01*
X161562317Y-84659551D01*
X161650562Y-84774690D01*
X161684959Y-84880036D01*
X161693774Y-84914846D01*
X161750335Y-84951573D01*
X161873862Y-84974173D01*
X161936446Y-84982770D01*
X162083903Y-85026502D01*
X162164367Y-85102043D01*
X162188761Y-85217844D01*
X162187880Y-85244635D01*
X162146752Y-85370038D01*
X162042062Y-85443595D01*
X161870886Y-85467603D01*
X161684959Y-85467603D01*
X161684959Y-85971404D01*
X161684959Y-86475206D01*
X161982995Y-86475206D01*
X162051544Y-86476340D01*
X162268182Y-86497794D01*
X162425670Y-86543843D01*
X162441733Y-86551964D01*
X162566008Y-86649725D01*
X162657155Y-86779281D01*
X162692563Y-86909640D01*
X162703644Y-86934934D01*
X162758092Y-86958612D01*
X162870017Y-86974441D01*
X163052649Y-86985195D01*
X163225977Y-86993691D01*
X163341644Y-87007231D01*
X163419718Y-87033632D01*
X163483540Y-87080845D01*
X163556451Y-87156821D01*
X163603856Y-87213306D01*
X163672987Y-87319219D01*
X163700166Y-87398226D01*
X163704870Y-87436148D01*
X163735449Y-87466377D01*
X163811437Y-87479778D01*
X163952067Y-87482809D01*
X164203968Y-87482809D01*
X164203968Y-87314876D01*
X164217767Y-87192516D01*
X164287935Y-87062975D01*
X164387036Y-86996625D01*
X164504000Y-86987474D01*
X164606824Y-87043694D01*
X164679938Y-87155942D01*
X164707769Y-87314876D01*
X164708173Y-87373733D01*
X164720448Y-87450491D01*
X164768212Y-87478770D01*
X164875703Y-87482809D01*
X165013795Y-87503279D01*
X165133555Y-87570662D01*
X165198671Y-87670065D01*
X165199802Y-87785916D01*
X165127604Y-87902644D01*
X165098484Y-87928284D01*
X165040712Y-87958442D01*
X164954715Y-87976154D01*
X164821932Y-87984512D01*
X164623802Y-87986611D01*
X164203968Y-87986611D01*
X164203968Y-88238512D01*
X164204350Y-88292435D01*
X164211893Y-88413838D01*
X164232579Y-88474123D01*
X164270961Y-88490413D01*
X164309271Y-88494584D01*
X164435615Y-88548742D01*
X164557544Y-88647484D01*
X164644116Y-88767806D01*
X164667493Y-88833852D01*
X164696969Y-88998709D01*
X164707769Y-89199981D01*
X164707769Y-89498016D01*
X165278564Y-89498016D01*
X165308505Y-89498046D01*
X165577081Y-89502712D01*
X165776709Y-89518314D01*
X165920878Y-89549118D01*
X166023077Y-89599391D01*
X166096795Y-89673399D01*
X166155521Y-89775409D01*
X166196266Y-89898249D01*
X166216645Y-90074928D01*
X166202463Y-90243747D01*
X166153818Y-90370327D01*
X166129013Y-90398948D01*
X166019098Y-90455628D01*
X165891173Y-90456082D01*
X165781347Y-90397662D01*
X165775420Y-90391138D01*
X165732420Y-90296691D01*
X165715373Y-90166753D01*
X165715373Y-90001818D01*
X165463472Y-90001818D01*
X165211571Y-90001818D01*
X165211571Y-90253719D01*
X165212421Y-90335309D01*
X165221096Y-90442158D01*
X165243522Y-90492871D01*
X165285042Y-90505776D01*
X165342041Y-90512752D01*
X165480658Y-90577868D01*
X165601070Y-90693464D01*
X165677132Y-90837425D01*
X165696956Y-90899999D01*
X165735546Y-90973060D01*
X165800045Y-91005147D01*
X165919467Y-91017863D01*
X166031310Y-91031306D01*
X166116070Y-91067998D01*
X166173336Y-91141029D01*
X166203879Y-91202630D01*
X166209457Y-91274244D01*
X166163230Y-91361443D01*
X166127938Y-91408970D01*
X166071627Y-91449453D01*
X165983786Y-91467265D01*
X165838270Y-91471239D01*
X165741176Y-91467410D01*
X165579297Y-91444789D01*
X165462097Y-91407553D01*
X165437871Y-91393473D01*
X165327861Y-91292012D01*
X165244572Y-91159925D01*
X165211571Y-91032498D01*
X165201445Y-91003185D01*
X165154332Y-90981231D01*
X165054422Y-90970300D01*
X164886199Y-90967281D01*
X164799526Y-90965837D01*
X164576445Y-90941429D01*
X164417104Y-90882062D01*
X164309491Y-90781518D01*
X164241592Y-90633578D01*
X164223454Y-90575424D01*
X164185617Y-90498567D01*
X164124333Y-90468681D01*
X164009364Y-90463636D01*
X163907841Y-90458206D01*
X163820604Y-90426677D01*
X163756111Y-90353839D01*
X163719938Y-90292648D01*
X163707797Y-90221143D01*
X163746004Y-90133426D01*
X163796045Y-90066412D01*
X163874218Y-90027174D01*
X164005904Y-90010013D01*
X164203968Y-89997217D01*
X164203968Y-89505125D01*
X164203968Y-89013033D01*
X164025538Y-88930153D01*
X163991343Y-88913398D01*
X163857337Y-88815090D01*
X163764228Y-88668843D01*
X163681347Y-88490413D01*
X163058244Y-88490413D01*
X162966389Y-88489959D01*
X162747063Y-88485079D01*
X162560709Y-88475679D01*
X162424323Y-88462796D01*
X162354897Y-88447467D01*
X162266419Y-88378075D01*
X162213358Y-88265187D01*
X162235552Y-88144049D01*
X162250468Y-88116722D01*
X162293302Y-88057355D01*
X162351141Y-88019624D01*
X162441218Y-87998631D01*
X162580768Y-87989474D01*
X162787025Y-87987254D01*
X163196364Y-87986611D01*
X163196364Y-87734710D01*
X163196364Y-87482809D01*
X162887697Y-87482809D01*
X162677121Y-87468887D01*
X162474019Y-87410556D01*
X162332402Y-87303808D01*
X162246273Y-87145488D01*
X162198826Y-87000000D01*
X161534634Y-86988395D01*
X161302688Y-86982985D01*
X161079700Y-86971782D01*
X160921335Y-86952387D01*
X160816855Y-86921306D01*
X160755521Y-86875041D01*
X160726595Y-86810098D01*
X160719339Y-86722981D01*
X160721391Y-86691790D01*
X160775160Y-86576936D01*
X160893357Y-86502006D01*
X161064549Y-86475206D01*
X161223141Y-86475206D01*
X161223141Y-85971404D01*
X161223141Y-85467603D01*
X161113984Y-85467603D01*
X161073579Y-85462145D01*
X160956118Y-85404394D01*
X160841250Y-85303604D01*
X160753986Y-85184788D01*
X160719339Y-85072958D01*
X160718368Y-85043146D01*
X160691930Y-84979379D01*
X160610182Y-84963801D01*
X160603496Y-84963634D01*
X160487892Y-84923442D01*
X160358282Y-84821057D01*
X160354699Y-84817470D01*
X160278207Y-84733643D01*
X160236454Y-84657084D01*
X160219032Y-84557406D01*
X160215538Y-84404221D01*
X160227408Y-84212147D01*
X160268398Y-84085813D01*
X160345399Y-84018223D01*
X160465297Y-83998181D01*
X160489178Y-83998901D01*
G37*
G36*
X156185125Y-78953493D02*
G01*
X156309315Y-78980770D01*
X156348383Y-78993559D01*
X156462284Y-79064314D01*
X156572602Y-79169010D01*
X156655947Y-79282955D01*
X156688926Y-79381460D01*
X156688928Y-79382330D01*
X156693051Y-79411450D01*
X156712804Y-79432678D01*
X156759574Y-79447258D01*
X156844753Y-79456433D01*
X156979728Y-79461447D01*
X157175890Y-79463544D01*
X157444629Y-79463966D01*
X158200331Y-79463966D01*
X158200488Y-78907685D01*
X158200628Y-78828522D01*
X158203333Y-78615970D01*
X158211078Y-78465136D01*
X158225945Y-78358969D01*
X158250017Y-78280418D01*
X158285374Y-78212432D01*
X158314064Y-78171181D01*
X158448197Y-78052925D01*
X158617610Y-77977788D01*
X158799039Y-77950222D01*
X158969219Y-77974680D01*
X159104884Y-78055612D01*
X159107918Y-78058657D01*
X159188733Y-78161835D01*
X159199142Y-78253958D01*
X159142579Y-78363055D01*
X159107624Y-78403561D01*
X159024966Y-78445025D01*
X158890678Y-78456363D01*
X158704133Y-78456363D01*
X158704133Y-78698855D01*
X158704133Y-78941346D01*
X158882563Y-79024227D01*
X158885989Y-79025824D01*
X159004464Y-79092968D01*
X159090557Y-79175868D01*
X159149108Y-79288088D01*
X159184952Y-79443189D01*
X159202927Y-79654733D01*
X159207869Y-79936281D01*
X159207935Y-80471570D01*
X159454587Y-80471570D01*
X159471194Y-80471563D01*
X159602501Y-80468674D01*
X159674102Y-80453405D01*
X159708122Y-80415413D01*
X159726684Y-80344353D01*
X159727469Y-80340616D01*
X159778534Y-80222117D01*
X159862995Y-80114387D01*
X159952950Y-80045814D01*
X160127860Y-79980065D01*
X160303911Y-79987338D01*
X160466686Y-80062713D01*
X160601764Y-80201273D01*
X160694727Y-80398099D01*
X160700622Y-80413398D01*
X160739291Y-80449188D01*
X160822555Y-80466842D01*
X160969923Y-80471570D01*
X161223141Y-80471570D01*
X161223141Y-80219669D01*
X161222891Y-80176322D01*
X161215751Y-80049412D01*
X161195574Y-79985417D01*
X161158081Y-79967768D01*
X161133521Y-79966184D01*
X161002196Y-79920699D01*
X160873603Y-79829862D01*
X160783025Y-79717242D01*
X160764959Y-79678944D01*
X160720762Y-79486294D01*
X160746704Y-79300863D01*
X160837091Y-79141937D01*
X160986232Y-79028801D01*
X161008311Y-79018568D01*
X161111307Y-78977013D01*
X161177007Y-78960165D01*
X161184105Y-78957282D01*
X161205734Y-78893834D01*
X161218775Y-78747898D01*
X161223141Y-78520306D01*
X161223253Y-78424191D01*
X161225637Y-78258685D01*
X161234037Y-78151891D01*
X161252214Y-78086281D01*
X161283927Y-78044329D01*
X161332938Y-78008506D01*
X161394129Y-77972333D01*
X161465634Y-77960193D01*
X161553351Y-77998400D01*
X161620365Y-78048440D01*
X161659603Y-78126613D01*
X161676764Y-78258299D01*
X161683352Y-78322947D01*
X161705322Y-78418697D01*
X161733394Y-78456363D01*
X161741687Y-78457152D01*
X161816590Y-78480133D01*
X161921869Y-78525000D01*
X161983757Y-78556091D01*
X162043206Y-78595465D01*
X162089894Y-78646547D01*
X162125362Y-78718371D01*
X162151149Y-78819967D01*
X162168795Y-78960368D01*
X162179840Y-79148606D01*
X162185822Y-79393714D01*
X162188283Y-79704723D01*
X162188761Y-80090666D01*
X162188761Y-81351287D01*
X162078964Y-81423228D01*
X162017773Y-81459401D01*
X161946268Y-81471542D01*
X161858551Y-81433335D01*
X161791537Y-81383294D01*
X161752299Y-81305121D01*
X161735138Y-81173435D01*
X161722342Y-80975371D01*
X161451750Y-80975371D01*
X161181158Y-80975371D01*
X161181158Y-81163329D01*
X161174713Y-81277067D01*
X161142830Y-81360788D01*
X161071361Y-81423228D01*
X161010170Y-81459401D01*
X160938664Y-81471542D01*
X160850948Y-81433335D01*
X160783934Y-81383294D01*
X160744695Y-81305121D01*
X160727535Y-81173435D01*
X160714739Y-80975371D01*
X160465138Y-80975371D01*
X160215538Y-80975371D01*
X160215538Y-81227272D01*
X160215538Y-81479173D01*
X160215538Y-81982975D01*
X161771011Y-81982975D01*
X162040007Y-81983148D01*
X162405899Y-81984278D01*
X162701179Y-81986731D01*
X162934056Y-81990818D01*
X163112736Y-81996850D01*
X163245427Y-82005139D01*
X163340336Y-82015996D01*
X163405671Y-82029733D01*
X163449639Y-82046661D01*
X163473866Y-82060741D01*
X163583876Y-82162202D01*
X163667165Y-82294289D01*
X163700166Y-82421716D01*
X163705714Y-82446738D01*
X163757117Y-82477735D01*
X163875290Y-82486776D01*
X163979955Y-82496473D01*
X164115598Y-82551774D01*
X164192748Y-82640706D01*
X164210546Y-82745584D01*
X164168131Y-82848726D01*
X164064644Y-82932446D01*
X163899225Y-82979061D01*
X163862319Y-82983485D01*
X163757392Y-83005264D01*
X163704558Y-83045517D01*
X163678278Y-83120607D01*
X163674397Y-83135147D01*
X163616699Y-83244946D01*
X163525924Y-83346303D01*
X163469067Y-83389644D01*
X163385467Y-83429371D01*
X163275358Y-83447856D01*
X163110144Y-83452396D01*
X163088685Y-83452374D01*
X162940671Y-83448785D01*
X162850339Y-83434060D01*
X162794136Y-83401049D01*
X162748507Y-83342600D01*
X162712334Y-83281408D01*
X162700194Y-83209903D01*
X162738401Y-83122187D01*
X162788442Y-83055172D01*
X162866615Y-83015934D01*
X162998300Y-82998774D01*
X163196364Y-82985977D01*
X163196364Y-82736377D01*
X163196364Y-82486776D01*
X162694863Y-82486776D01*
X162193362Y-82486776D01*
X162180565Y-82685866D01*
X162179442Y-82702469D01*
X162162627Y-82823605D01*
X162124517Y-82893355D01*
X162050078Y-82941130D01*
X161998105Y-82963596D01*
X161916798Y-82972952D01*
X161829665Y-82929998D01*
X161773269Y-82882866D01*
X161736398Y-82803755D01*
X161726943Y-82673787D01*
X161726943Y-82484882D01*
X160960744Y-82496325D01*
X160866335Y-82497748D01*
X160619932Y-82502045D01*
X160442279Y-82507263D01*
X160321831Y-82514964D01*
X160247042Y-82526713D01*
X160206367Y-82544072D01*
X160188261Y-82568605D01*
X160181177Y-82601875D01*
X160145495Y-82692960D01*
X160050746Y-82810013D01*
X159925160Y-82908527D01*
X159795615Y-82963306D01*
X159642943Y-82960647D01*
X159485658Y-82905053D01*
X159346048Y-82811270D01*
X159246133Y-82694098D01*
X159207935Y-82568337D01*
X159174571Y-82503681D01*
X159067166Y-82446830D01*
X158940263Y-82383890D01*
X158825761Y-82293325D01*
X158799147Y-82263881D01*
X158774696Y-82228330D01*
X158756066Y-82181241D01*
X158742296Y-82112268D01*
X158732423Y-82011064D01*
X158725487Y-81867285D01*
X158720524Y-81670582D01*
X158716573Y-81410610D01*
X158712671Y-81077022D01*
X158711530Y-80975371D01*
X159207935Y-80975371D01*
X159207935Y-81227272D01*
X159207935Y-81479173D01*
X159459835Y-81479173D01*
X159711736Y-81479173D01*
X159711736Y-81227272D01*
X159711736Y-80975371D01*
X159459835Y-80975371D01*
X159207935Y-80975371D01*
X158711530Y-80975371D01*
X158700218Y-79967768D01*
X158450275Y-79967768D01*
X158200331Y-79967768D01*
X158200331Y-80639504D01*
X158200282Y-80719953D01*
X158198915Y-80952734D01*
X158194530Y-81119158D01*
X158185604Y-81232920D01*
X158170615Y-81307717D01*
X158148043Y-81357247D01*
X158116364Y-81395206D01*
X158017263Y-81461556D01*
X157900299Y-81470707D01*
X157797475Y-81414487D01*
X157724361Y-81302239D01*
X157696530Y-81143305D01*
X157696530Y-80975371D01*
X157444629Y-80975371D01*
X157192728Y-80975371D01*
X157192728Y-81395206D01*
X157192032Y-81524100D01*
X157186509Y-81680415D01*
X157172852Y-81782631D01*
X157147967Y-81849308D01*
X157108761Y-81899008D01*
X157106162Y-81901591D01*
X157003612Y-81971596D01*
X156904228Y-81964696D01*
X156791977Y-81879924D01*
X156775544Y-81863113D01*
X156735395Y-81812526D01*
X156710021Y-81751149D01*
X156696060Y-81660689D01*
X156690149Y-81522855D01*
X156688926Y-81319356D01*
X156690494Y-81122606D01*
X156697652Y-80973981D01*
X156713601Y-80870641D01*
X156741536Y-80792581D01*
X156784649Y-80719795D01*
X156794240Y-80705797D01*
X156893819Y-80591189D01*
X157012709Y-80519739D01*
X157171841Y-80482916D01*
X157392149Y-80472189D01*
X157696530Y-80471570D01*
X157696530Y-80219669D01*
X157696530Y-79967768D01*
X156392957Y-79967768D01*
X156194317Y-79967912D01*
X155810288Y-79967704D01*
X155499114Y-79963149D01*
X155253151Y-79949812D01*
X155064756Y-79923258D01*
X154926282Y-79879051D01*
X154830086Y-79812759D01*
X154768522Y-79719945D01*
X154733947Y-79596175D01*
X154718715Y-79437014D01*
X154715182Y-79238028D01*
X154715703Y-78994782D01*
X154715704Y-78990515D01*
X154719116Y-78708743D01*
X154728746Y-78481139D01*
X154731052Y-78456363D01*
X155177521Y-78456363D01*
X155177521Y-78708264D01*
X155177521Y-78960165D01*
X155429422Y-78960165D01*
X155681323Y-78960165D01*
X155681323Y-78708264D01*
X155681323Y-78456363D01*
X155429422Y-78456363D01*
X155177521Y-78456363D01*
X154731052Y-78456363D01*
X154743969Y-78317599D01*
X154764157Y-78228018D01*
X154824884Y-78131609D01*
X154940476Y-78043526D01*
X155111136Y-77988629D01*
X155349946Y-77960956D01*
X155565460Y-77957650D01*
X155783302Y-77986099D01*
X155949621Y-78055019D01*
X156078792Y-78168503D01*
X156087405Y-78178857D01*
X156139022Y-78253045D01*
X156168574Y-78335111D01*
X156181972Y-78450382D01*
X156185125Y-78624182D01*
X156185125Y-78708264D01*
X156185125Y-78953493D01*
G37*
G36*
X152196695Y-93467627D02*
G01*
X152375125Y-93550508D01*
X152409320Y-93567262D01*
X152543325Y-93665570D01*
X152636435Y-93811818D01*
X152650341Y-93841240D01*
X152706880Y-93937969D01*
X152767663Y-93980665D01*
X152858756Y-93990247D01*
X152959089Y-94005250D01*
X153101248Y-94093298D01*
X153140096Y-94133410D01*
X153193769Y-94211714D01*
X153185552Y-94283958D01*
X153117284Y-94383429D01*
X153088900Y-94416480D01*
X152997112Y-94477547D01*
X152865383Y-94494049D01*
X152700497Y-94494049D01*
X152700497Y-94745950D01*
X152700497Y-94997851D01*
X152857935Y-94998494D01*
X152879436Y-94998711D01*
X153010317Y-95012833D01*
X153093259Y-95060530D01*
X153159013Y-95158104D01*
X153170983Y-95182367D01*
X153186462Y-95265652D01*
X153143776Y-95356859D01*
X153132472Y-95373064D01*
X153030089Y-95458834D01*
X152879417Y-95496639D01*
X152667952Y-95489976D01*
X152572648Y-95474207D01*
X152450081Y-95421989D01*
X152334583Y-95317480D01*
X152287161Y-95264155D01*
X152236749Y-95192410D01*
X152209682Y-95113228D01*
X152198738Y-95001104D01*
X152196695Y-94830533D01*
X152196695Y-94494049D01*
X151189092Y-94494049D01*
X150181488Y-94494049D01*
X150181331Y-95302231D01*
X150180844Y-95542048D01*
X150178438Y-95766382D01*
X150172937Y-95930666D01*
X150163170Y-96047997D01*
X150147962Y-96131471D01*
X150126142Y-96194184D01*
X150096538Y-96249233D01*
X150089783Y-96259855D01*
X149991390Y-96370031D01*
X149876281Y-96448648D01*
X149865876Y-96453154D01*
X149678081Y-96490668D01*
X149496409Y-96454283D01*
X149341340Y-96352161D01*
X149233353Y-96192463D01*
X149199184Y-96058764D01*
X149179622Y-95873296D01*
X149175966Y-95670813D01*
X149188789Y-95484351D01*
X149218665Y-95346948D01*
X149279131Y-95228248D01*
X149405333Y-95090926D01*
X149557009Y-95017684D01*
X149677687Y-94991179D01*
X149677687Y-94495265D01*
X149677687Y-93999350D01*
X149562232Y-93970695D01*
X149452947Y-93926396D01*
X149308823Y-93801994D01*
X149213831Y-93627214D01*
X149211434Y-93620005D01*
X149171884Y-93531530D01*
X149113010Y-93494148D01*
X149002695Y-93486446D01*
X148945833Y-93482509D01*
X148807644Y-93437985D01*
X148708225Y-93356440D01*
X148670083Y-93253628D01*
X148692617Y-93178613D01*
X148774647Y-93083880D01*
X148891330Y-93011488D01*
X149015625Y-92982644D01*
X149038761Y-92982337D01*
X149121253Y-92967483D01*
X149178960Y-92915083D01*
X149237947Y-92804214D01*
X149251984Y-92775328D01*
X149350642Y-92638193D01*
X149496018Y-92544347D01*
X149529768Y-92527809D01*
X149596917Y-92478842D01*
X150181488Y-92478842D01*
X150181488Y-93234545D01*
X150181488Y-93990247D01*
X150937191Y-93990247D01*
X151692893Y-93990247D01*
X151692893Y-93234545D01*
X151692893Y-92478842D01*
X150937191Y-92478842D01*
X150181488Y-92478842D01*
X149596917Y-92478842D01*
X149655720Y-92435961D01*
X149732363Y-92307225D01*
X149749301Y-92267373D01*
X149830316Y-92143146D01*
X149947746Y-92059736D01*
X150116869Y-92009174D01*
X150352962Y-91983490D01*
X150685290Y-91964252D01*
X150685290Y-91815514D01*
X150685400Y-91805082D01*
X150719624Y-91650672D01*
X150808205Y-91549519D01*
X150941317Y-91513223D01*
X150964982Y-91514453D01*
X151081807Y-91564627D01*
X151160350Y-91677315D01*
X151189092Y-91837440D01*
X151189092Y-91975041D01*
X151437657Y-91975041D01*
X151446799Y-91975038D01*
X151582150Y-91972279D01*
X151656835Y-91957719D01*
X151692983Y-91921650D01*
X151712727Y-91854363D01*
X151771031Y-91723791D01*
X151894807Y-91596701D01*
X152054761Y-91518535D01*
X152054937Y-91518488D01*
X152122605Y-91495062D01*
X152158697Y-91456019D01*
X152173100Y-91378583D01*
X152175703Y-91239978D01*
X152175700Y-91228284D01*
X152172838Y-91094776D01*
X152157491Y-91020864D01*
X152119184Y-90983724D01*
X152047439Y-90960530D01*
X152046102Y-90960179D01*
X151925910Y-90904480D01*
X151816530Y-90818058D01*
X151806070Y-90806687D01*
X151757498Y-90740039D01*
X151727331Y-90657785D01*
X151709786Y-90537140D01*
X151699081Y-90355320D01*
X151684277Y-90001818D01*
X151436684Y-90001818D01*
X151189092Y-90001818D01*
X151189092Y-90391319D01*
X151184054Y-90589865D01*
X151161324Y-90770407D01*
X151116226Y-90886693D01*
X151044358Y-90948957D01*
X150941317Y-90967438D01*
X150809194Y-90932276D01*
X150719690Y-90827761D01*
X150677894Y-90657811D01*
X150661685Y-90554289D01*
X150617269Y-90490475D01*
X150521288Y-90447894D01*
X150498551Y-90439955D01*
X150361629Y-90363693D01*
X150268826Y-90245373D01*
X150213178Y-90072118D01*
X150187721Y-89831050D01*
X150172597Y-89498016D01*
X149925142Y-89498016D01*
X149677687Y-89498016D01*
X149677687Y-89914852D01*
X149677473Y-89970868D01*
X149669586Y-90181387D01*
X149646127Y-90323502D01*
X149601381Y-90409635D01*
X149529633Y-90452206D01*
X149425168Y-90463636D01*
X149368689Y-90460401D01*
X149295972Y-90436907D01*
X149243576Y-90381737D01*
X149208337Y-90284457D01*
X149187086Y-90134634D01*
X149176657Y-89921831D01*
X149173885Y-89635617D01*
X149173885Y-88994214D01*
X149025034Y-88994214D01*
X148911088Y-88977806D01*
X148773134Y-88891164D01*
X148770217Y-88888233D01*
X148687302Y-88776472D01*
X148682235Y-88677198D01*
X148754050Y-88574380D01*
X148811997Y-88536107D01*
X148950617Y-88497818D01*
X149119105Y-88488421D01*
X149287067Y-88508610D01*
X149424113Y-88559078D01*
X149455507Y-88579862D01*
X149564031Y-88685171D01*
X149645545Y-88811780D01*
X149677687Y-88927221D01*
X149678873Y-88940392D01*
X149706307Y-88973379D01*
X149783042Y-88989777D01*
X149926252Y-88994214D01*
X149940518Y-88994209D01*
X150073646Y-88991336D01*
X150146826Y-88976341D01*
X150182246Y-88939233D01*
X150202094Y-88870024D01*
X150214883Y-88830956D01*
X150285638Y-88717055D01*
X150390333Y-88606737D01*
X150504279Y-88523392D01*
X150602784Y-88490413D01*
X150605674Y-88490397D01*
X150642286Y-88483325D01*
X150665572Y-88452976D01*
X150678514Y-88384182D01*
X150684093Y-88261773D01*
X150685290Y-88070578D01*
X150685986Y-87941684D01*
X150691509Y-87785369D01*
X150705166Y-87683154D01*
X150730051Y-87616476D01*
X150769257Y-87566776D01*
X150845795Y-87511304D01*
X150937191Y-87482809D01*
X151013729Y-87503875D01*
X151105125Y-87566776D01*
X151115175Y-87577219D01*
X151144101Y-87617082D01*
X151164356Y-87672421D01*
X151177461Y-87756933D01*
X151184937Y-87884316D01*
X151188307Y-88068266D01*
X151189092Y-88322479D01*
X151189237Y-88480219D01*
X151190771Y-88687567D01*
X151195206Y-88830149D01*
X151204023Y-88920033D01*
X151218706Y-88969292D01*
X151240737Y-88989996D01*
X151271598Y-88994214D01*
X151305360Y-88999249D01*
X151412587Y-89053967D01*
X151525944Y-89150230D01*
X151620741Y-89264647D01*
X151672288Y-89373825D01*
X151673864Y-89380953D01*
X151694154Y-89447152D01*
X151731836Y-89482070D01*
X151809099Y-89495694D01*
X151948130Y-89498016D01*
X152196695Y-89498016D01*
X152196695Y-89181055D01*
X152199051Y-89073671D01*
X152219933Y-88874739D01*
X152260381Y-88740939D01*
X152310793Y-88658481D01*
X152374375Y-88595050D01*
X152462094Y-88549652D01*
X152585903Y-88519387D01*
X152757751Y-88501358D01*
X152989590Y-88492666D01*
X153293370Y-88490413D01*
X153348023Y-88490453D01*
X153628607Y-88493056D01*
X153837431Y-88501908D01*
X153984917Y-88520052D01*
X154081488Y-88550534D01*
X154137563Y-88596396D01*
X154163566Y-88660684D01*
X154169918Y-88746440D01*
X154166945Y-88799396D01*
X154143723Y-88871889D01*
X154088650Y-88924223D01*
X153991330Y-88959512D01*
X153841363Y-88980865D01*
X153628352Y-88991396D01*
X153341899Y-88994214D01*
X152700497Y-88994214D01*
X152700431Y-89277603D01*
X152699505Y-89338079D01*
X152669210Y-89580541D01*
X152591625Y-89761138D01*
X152460645Y-89889788D01*
X152270166Y-89976405D01*
X152257575Y-89981175D01*
X152220193Y-90019066D01*
X152201679Y-90101165D01*
X152196695Y-90247153D01*
X152196696Y-90252085D01*
X152199338Y-90388957D01*
X152213479Y-90464400D01*
X152248598Y-90500319D01*
X152314177Y-90518620D01*
X152349768Y-90528182D01*
X152491119Y-90609501D01*
X152608466Y-90737790D01*
X152673327Y-90884067D01*
X152680490Y-90916936D01*
X152708176Y-90978811D01*
X152766969Y-91004392D01*
X152883232Y-91009421D01*
X152912139Y-91009890D01*
X153061819Y-91037691D01*
X153146278Y-91112565D01*
X153172811Y-91240330D01*
X153172222Y-91263381D01*
X153137358Y-91382735D01*
X153043460Y-91450083D01*
X152883232Y-91471239D01*
X152833875Y-91471652D01*
X152740990Y-91482124D01*
X152696211Y-91518787D01*
X152673145Y-91597503D01*
X152663061Y-91631708D01*
X152595816Y-91746323D01*
X152492918Y-91857569D01*
X152379127Y-91941718D01*
X152279201Y-91975041D01*
X152243763Y-91979487D01*
X152213438Y-92009982D01*
X152199837Y-92086092D01*
X152196695Y-92226942D01*
X152196695Y-92478842D01*
X152345545Y-92478842D01*
X152444581Y-92495688D01*
X152569256Y-92558888D01*
X152663311Y-92650282D01*
X152700497Y-92749827D01*
X152694833Y-92790044D01*
X152630977Y-92886897D01*
X152513590Y-92956171D01*
X152364629Y-92982644D01*
X152196695Y-92982644D01*
X152196695Y-93225136D01*
X152196695Y-93234545D01*
X152196695Y-93467627D01*
G37*
%TD*%
M02*
